  0
SECTION
  2
HEADER
  9
$ACADVER
  1
AC1018
  9
$ACADMAINTVER
 70
     0
  9
$DWGCODEPAGE
  3
UNDEFINED
  9
$INSBASE
 10
0.0
 20
0.0
 30
0.0
  9
$EXTMIN
 10
-0.0864258382430378
 20
0.0
 30
-0.7273092312476841
  9
$EXTMAX
 10
0.7988489968486174
 20
1.143772455643282
 30
0.0
  9
$LIMMIN
 10
0.0
 20
0.0
  9
$LIMMAX
 10
12.0
 20
9.0
  9
$ORTHOMODE
 70
     0
  9
$REGENMODE
 70
     1
  9
$FILLMODE
 70
     1
  9
$QTEXTMODE
 70
     0
  9
$MIRRTEXT
 70
     1
  9
$LTSCALE
 40
1.0
  9
$ATTMODE
 70
     1
  9
$TEXTSIZE
 40
0.2
  9
$TRACEWID
 40
0.05
  9
$TEXTSTYLE
  7
Standard
  9
$CLAYER
  8
Default
  9
$CELTYPE
  6
ByLayer
  9
$CECOLOR
 62
   256
  9
$CELTSCALE
 40
1.0
  9
$DISPSILH
 70
     0
  9
$DIMSCALE
 40
1.0
  9
$DIMASZ
 40
0.18
  9
$DIMEXO
 40
0.0625
  9
$DIMDLI
 40
0.38
  9
$DIMRND
 40
0.0
  9
$DIMDLE
 40
0.0
  9
$DIMEXE
 40
0.18
  9
$DIMTP
 40
0.0
  9
$DIMTM
 40
0.0
  9
$DIMTXT
 40
0.18
  9
$DIMCEN
 40
0.09
  9
$DIMTSZ
 40
0.0
  9
$DIMTOL
 70
     0
  9
$DIMLIM
 70
     0
  9
$DIMTIH
 70
     1
  9
$DIMTOH
 70
     1
  9
$DIMSE1
 70
     0
  9
$DIMSE2
 70
     0
  9
$DIMTAD
 70
     0
  9
$DIMZIN
 70
     0
  9
$DIMBLK
  1

  9
$DIMASO
 70
     1
  9
$DIMSHO
 70
     1
  9
$DIMPOST
  1

  9
$DIMAPOST
  1

  9
$DIMALT
 70
     0
  9
$DIMALTD
 70
     2
  9
$DIMALTF
 40
25.4
  9
$DIMLFAC
 40
1.0
  9
$DIMTOFL
 70
     0
  9
$DIMTVP
 40
0.0
  9
$DIMTIX
 70
     0
  9
$DIMSOXD
 70
     0
  9
$DIMSAH
 70
     0
  9
$DIMBLK1
  1

  9
$DIMBLK2
  1

  9
$DIMSTYLE
  2
Standard
  9
$DIMCLRD
 70
     0
  9
$DIMCLRE
 70
     0
  9
$DIMCLRT
 70
     0
  9
$DIMTFAC
 40
1.0
  9
$DIMGAP
 40
0.09
  9
$DIMJUST
 70
     0
  9
$DIMSD1
 70
     0
  9
$DIMSD2
 70
     0
  9
$DIMTOLJ
 70
     1
  9
$DIMTZIN
 70
     0
  9
$DIMALTZ
 70
     0
  9
$DIMALTTZ
 70
     0
  9
$DIMUPT
 70
     0
  9
$DIMDEC
 70
     4
  9
$DIMTDEC
 70
     4
  9
$DIMALTU
 70
     2
  9
$DIMALTTD
 70
     2
  9
$DIMTXSTY
  7
Standard
  9
$DIMAUNIT
 70
     0
  9
$DIMADEC
 70
     0
  9
$DIMALTRND
 40
0.0
  9
$DIMAZIN
 70
     0
  9
$DIMDSEP
 70
    46
  9
$DIMATFIT
 70
     3
  9
$DIMFRAC
 70
     0
  9
$DIMLDRBLK
  1

  9
$DIMLUNIT
 70
     2
  9
$DIMLWD
 70
    -2
  9
$DIMLWE
 70
    -2
  9
$DIMTMOVE
 70
     2
  9
$LUNITS
 70
     2
  9
$LUPREC
 70
     3
  9
$SKETCHINC
 40
0.1
  9
$FILLETRAD
 40
0.5
  9
$AUNITS
 70
     0
  9
$AUPREC
 70
     0
  9
$MENU
  1
.
  9
$ELEVATION
 40
0.0
  9
$PELEVATION
 40
0.0
  9
$THICKNESS
 40
0.0
  9
$LIMCHECK
 70
     0
  9
$CHAMFERA
 40
0.5
  9
$CHAMFERB
 40
0.5
  9
$CHAMFERC
 40
1.0
  9
$CHAMFERD
 40
0.0
  9
$SKPOLY
 70
     0
  9
$TDCREATE
 40
2456442.909652766
  9
$TDUCREATE
 40
2456443.117986111
  9
$TDUPDATE
 40
2456442.909687488
  9
$TDUUPDATE
 40
2456443.118020833
  9
$TDINDWG
 40
0.0000000116
  9
$TDUSRTIMER
 40
0.0000000116
  9
$USRTIMER
 70
     1
  9
$ANGBASE
 50
0.0
  9
$ANGDIR
 70
     0
  9
$PDMODE
 70
     0
  9
$PDSIZE
 40
0.0
  9
$PLINEWID
 40
0.0
  9
$SPLFRAME
 70
     0
  9
$SPLINETYPE
 70
     6
  9
$SPLINESEGS
 70
     8
  9
$HANDSEED
  5
114
  9
$SURFTAB1
 70
     6
  9
$SURFTAB2
 70
     6
  9
$SURFTYPE
 70
     6
  9
$SURFU
 70
     6
  9
$SURFV
 70
     6
  9
$UCSBASE
  2

  9
$UCSNAME
  2

  9
$UCSORG
 10
0.0
 20
0.0
 30
0.0
  9
$UCSXDIR
 10
1.0
 20
0.0
 30
0.0
  9
$UCSYDIR
 10
0.0
 20
1.0
 30
0.0
  9
$UCSORTHOREF
  2

  9
$UCSORTHOVIEW
 70
     0
  9
$UCSORGTOP
 10
0.0
 20
0.0
 30
0.0
  9
$UCSORGBOTTOM
 10
0.0
 20
0.0
 30
0.0
  9
$UCSORGLEFT
 10
0.0
 20
0.0
 30
0.0
  9
$UCSORGRIGHT
 10
0.0
 20
0.0
 30
0.0
  9
$UCSORGFRONT
 10
0.0
 20
0.0
 30
0.0
  9
$UCSORGBACK
 10
0.0
 20
0.0
 30
0.0
  9
$PUCSBASE
  2

  9
$PUCSNAME
  2

  9
$PUCSORG
 10
0.0
 20
0.0
 30
0.0
  9
$PUCSXDIR
 10
1.0
 20
0.0
 30
0.0
  9
$PUCSYDIR
 10
0.0
 20
1.0
 30
0.0
  9
$PUCSORTHOREF
  2

  9
$PUCSORTHOVIEW
 70
     0
  9
$PUCSORGTOP
 10
0.0
 20
0.0
 30
0.0
  9
$PUCSORGBOTTOM
 10
0.0
 20
0.0
 30
0.0
  9
$PUCSORGLEFT
 10
0.0
 20
0.0
 30
0.0
  9
$PUCSORGRIGHT
 10
0.0
 20
0.0
 30
0.0
  9
$PUCSORGFRONT
 10
0.0
 20
0.0
 30
0.0
  9
$PUCSORGBACK
 10
0.0
 20
0.0
 30
0.0
  9
$USERI1
 70
     0
  9
$USERI2
 70
     0
  9
$USERI3
 70
     0
  9
$USERI4
 70
     0
  9
$USERI5
 70
     0
  9
$USERR1
 40
0.0
  9
$USERR2
 40
0.0
  9
$USERR3
 40
0.0
  9
$USERR4
 40
0.0
  9
$USERR5
 40
0.0
  9
$WORLDVIEW
 70
     1
  9
$SHADEDGE
 70
     3
  9
$SHADEDIF
 70
    70
  9
$TILEMODE
 70
     1
  9
$MAXACTVP
 70
    64
  9
$PINSBASE
 10
0.0
 20
0.0
 30
0.0
  9
$PLIMCHECK
 70
     0
  9
$PEXTMIN
 10
1.000000000000000E+20
 20
1.000000000000000E+20
 30
1.000000000000000E+20
  9
$PEXTMAX
 10
-1.000000000000000E+20
 20
-1.000000000000000E+20
 30
-1.000000000000000E+20
  9
$PLIMMIN
 10
0.0
 20
0.0
  9
$PLIMMAX
 10
12.0
 20
9.0
  9
$UNITMODE
 70
     0
  9
$VISRETAIN
 70
     1
  9
$PLINEGEN
 70
     0
  9
$PSLTSCALE
 70
     1
  9
$TREEDEPTH
 70
  3020
  9
$CMLSTYLE
  2
Standard
  9
$CMLJUST
 70
     0
  9
$CMLSCALE
 40
1.0
  9
$PROXYGRAPHICS
 70
     1
  9
$MEASUREMENT
 70
     0
  9
$CELWEIGHT
370
    -1
  9
$ENDCAPS
280
     0
  9
$JOINSTYLE
280
     0
  9
$LWDISPLAY
290
     0
  9
$INSUNITS
 70
     4
  9
$HYPERLINKBASE
  1

  9
$STYLESHEET
  1

  9
$XEDIT
290
     1
  9
$CEPSNTYPE
380
     0
  9
$PSTYLEMODE
290
     1
  9
$FINGERPRINTGUID
  2
{0A3AD2AE-5DDA-A1A0-152A-421F6CA2AF79}
  9
$VERSIONGUID
  2
{FAEB1C32-E019-11D5-929B-00C0DF256EC4}
  9
$EXTNAMES
290
     1
  9
$PSVPSCALE
 40
0.0
  9
$OLESTARTUP
290
     0
  9
$SORTENTS
280
   127
  9
$INDEXCTL
280
     0
  9
$HIDETEXT
280
     1
  9
$XCLIPFRAME
290
     0
  9
$HALOGAP
280
     0
  9
$OBSCOLOR
 70
   257
  9
$OBSLTYPE
280
     0
  9
$INTERSECTIONDISPLAY
280
     0
  9
$INTERSECTIONCOLOR
 70
   257
  9
$DIMASSOC
280
     2
  9
$PROJECTNAME
  1

  0
ENDSEC
  0
SECTION
  2
CLASSES
  0
CLASS
  1
ACDBDICTIONARYWDFLT
  2
AcDbDictionaryWithDefault
  3
ObjectDBX Classes
 90
        0
 91
        4
280
     0
281
     0
  0
CLASS
  1
VISUALSTYLE
  2
AcDbVisualStyle
  3
ObjectDBX Classes
 90
     4095
 91
        4
280
     0
281
     0
  0
CLASS
  1
MATERIAL
  2
AcDbMaterial
  3
ObjectDBX Classes
 90
     1153
 91
        4
280
     0
281
     0
  0
ENDSEC
  0
SECTION
  2
TABLES
  0
TABLE
  2
VPORT
  5
8
330
0
100
AcDbSymbolTable
 70
     1
  0
VPORT
  5
29
330
8
100
AcDbSymbolTableRecord
100
AcDbViewportTableRecord
  2
*Active
 70
     0
 10
0.0
 20
0.0
 11
1.0
 21
1.0
 12
0.3562115793027898
 22
0.5718862278216408
 13
0.0
 23
0.0
 14
0.5
 24
0.5
 15
0.5
 25
0.5
 16
0.0
 26
0.0
 36
1.0
 17
0.0
 27
0.0
 37
0.0
 40
1.166647904756147
 41
0.7739955886538273
 42
50.0
 43
0.0
 44
0.0
 50
0.0
 51
0.0
 71
     0
 72
   100
 73
     1
 74
     3
 75
     0
 76
     0
 77
     0
 78
     0
281
     0
 65
     1
110
0.0
120
0.0
130
0.0
111
1.0
121
0.0
131
0.0
112
0.0
122
1.0
132
0.0
 79
     0
146
0.0
  0
ENDTAB
  0
TABLE
  2
LTYPE
  5
5
330
0
100
AcDbSymbolTable
 70
     1
  0
LTYPE
  5
14
330
5
100
AcDbSymbolTableRecord
100
AcDbLinetypeTableRecord
  2
ByBlock
 70
     0
  3

 72
    65
 73
     0
 40
0.0
  0
LTYPE
  5
15
330
5
100
AcDbSymbolTableRecord
100
AcDbLinetypeTableRecord
  2
ByLayer
 70
     0
  3

 72
    65
 73
     0
 40
0.0
  0
LTYPE
  5
16
330
5
100
AcDbSymbolTableRecord
100
AcDbLinetypeTableRecord
  2
Continuous
 70
     0
  3
Solid line
 72
    65
 73
     0
 40
0.0
  0
ENDTAB
  0
TABLE
  2
LAYER
  5
2
330
0
100
AcDbSymbolTable
 70
     2
  0
LAYER
  5
10
330
2
100
AcDbSymbolTableRecord
100
AcDbLayerTableRecord
  2
0
 70
     0
 62
     7
  6
Continuous
370
    -3
390
F
  0
LAYER
  5
3F
330
2
100
AcDbSymbolTableRecord
100
AcDbLayerTableRecord
  2
Default
 70
     0
 62
   178
420
        0
  6
Continuous
370
    -3
390
F
  0
ENDTAB
  0
TABLE
  2
STYLE
  5
3
330
0
100
AcDbSymbolTable
 70
     1
  0
STYLE
  5
11
330
3
100
AcDbSymbolTableRecord
100
AcDbTextStyleTableRecord
  2
Standard
 70
     0
 40
0.0
 41
1.0
 50
0.0
 71
     0
 42
0.2
  3
txt
  4

  0
ENDTAB
  0
TABLE
  2
VIEW
  5
6
330
0
100
AcDbSymbolTable
 70
     0
  0
ENDTAB
  0
TABLE
  2
UCS
  5
7
330
0
100
AcDbSymbolTable
 70
     0
  0
ENDTAB
  0
TABLE
  2
APPID
  5
9
330
0
100
AcDbSymbolTable
 70
     1
  0
APPID
  5
12
330
9
100
AcDbSymbolTableRecord
100
AcDbRegAppTableRecord
  2
ACAD
 70
     0
  0
ENDTAB
  0
TABLE
  2
DIMSTYLE
  5
A
330
0
100
AcDbSymbolTable
 70
     1
100
AcDbDimStyleTable
  0
DIMSTYLE
105
27
330
A
100
AcDbSymbolTableRecord
100
AcDbDimStyleTableRecord
  2
Standard
 70
     0
178
     0
340
11
  0
ENDTAB
  0
TABLE
  2
BLOCK_RECORD
  5
1
330
0
100
AcDbSymbolTable
 70
     1
  0
BLOCK_RECORD
  5
1F
330
1
100
AcDbSymbolTableRecord
100
AcDbBlockTableRecord
  2
*Model_Space
340
22
  0
BLOCK_RECORD
  5
1B
330
1
100
AcDbSymbolTableRecord
100
AcDbBlockTableRecord
  2
*Paper_Space
340
1E
  0
BLOCK_RECORD
  5
23
330
1
100
AcDbSymbolTableRecord
100
AcDbBlockTableRecord
  2
*Paper_Space0
340
26
  0
ENDTAB
  0
ENDSEC
  0
SECTION
  2
BLOCKS
  0
BLOCK
  5
20
330
1F
100
AcDbEntity
  8
0
100
AcDbBlockBegin
  2
*Model_Space
 70
     0
 10
0.0
 20
0.0
 30
0.0
  3
*Model_Space
  1

  0
ENDBLK
  5
21
330
1F
100
AcDbEntity
  8
0
100
AcDbBlockEnd
  0
BLOCK
  5
1C
330
1B
100
AcDbEntity
 67
     1
  8
0
100
AcDbBlockBegin
  2
*Paper_Space
 70
     0
 10
0.0
 20
0.0
 30
0.0
  3
*Paper_Space
  1

  0
ENDBLK
  5
1D
330
1B
100
AcDbEntity
 67
     1
  8
0
100
AcDbBlockEnd
  0
BLOCK
  5
24
330
23
100
AcDbEntity
  8
0
100
AcDbBlockBegin
  2
*Paper_Space0
 70
     0
 10
0.0
 20
0.0
 30
0.0
  3
*Paper_Space0
  1

  0
ENDBLK
  5
25
330
23
100
AcDbEntity
  8
0
100
AcDbBlockEnd
  0
ENDSEC
  0
SECTION
  2
ENTITIES
  0
LINE
  5
40
330
1F
100
AcDbEntity
  8
Default
100
AcDbLine
 10
-0.0630697030492975
 20
0.4367949929031436
 30
-0.7273092312476841
 11
0.1177436757356904
 21
0.4367949929031436
 31
-0.7273092312476841
  0
LINE
  5
41
330
1F
100
AcDbEntity
  8
Default
100
AcDbLine
 10
0.4071318874044731
 20
0.4367949929031436
 30
-0.7273092312476841
 11
0.2337580209039007
 21
0.4367949929031436
 31
-0.7273092312476841
  0
LINE
  5
42
330
1F
100
AcDbEntity
  8
Default
100
AcDbLine
 10
-0.0864258382430378
 20
0.346476465461147
 30
-0.7273092312476841
 11
-0.0630697030492975
 21
0.4367949929031436
 31
-0.7273092312476841
  0
LINE
  5
43
330
1F
100
AcDbEntity
  8
Default
100
AcDbLine
 10
0.0933906323324623
 20
0.346476465461147
 30
-0.7273092312476841
 11
-0.0864258382430378
 21
0.346476465461147
 31
-0.7273092312476841
  0
LINE
  5
44
330
1F
100
AcDbEntity
  8
Default
100
AcDbLine
 10
0.0
 20
0.0
 30
-0.7273092312476841
 11
0.0933906323324623
 21
0.346476465461147
 31
-0.7273092312476841
  0
LINE
  5
45
330
1F
100
AcDbEntity
  8
Default
100
AcDbLine
 10
0.1160143451682103
 20
0.0
 30
-0.7273092312476841
 11
0.0
 21
0.0
 31
-0.7273092312476841
  0
LINE
  5
46
330
1F
100
AcDbEntity
  8
Default
100
AcDbLine
 10
0.2094049775006717
 20
0.346476465461147
 30
-0.7273092312476841
 11
0.1160143451682103
 21
0.0
 31
-0.7273092312476841
  0
LINE
  5
47
330
1F
100
AcDbEntity
  8
Default
100
AcDbLine
 10
0.3826635552967446
 20
0.346476465461147
 30
-0.7273092312476841
 11
0.2094049775006717
 21
0.346476465461147
 31
-0.7273092312476841
  0
LINE
  5
48
330
1F
100
AcDbEntity
  8
Default
100
AcDbLine
 10
0.2888253315232889
 20
0.0
 30
-0.7273092312476841
 11
0.3826635552967446
 21
0.346476465461147
 31
-0.7273092312476841
  0
LINE
  5
49
330
1F
100
AcDbEntity
  8
Default
100
AcDbLine
 10
0.4025406842900239
 20
0.0
 30
-0.7273092312476841
 11
0.2888253315232889
 21
0.0
 31
-0.7273092312476841
  0
LINE
  5
4A
330
1F
100
AcDbEntity
  8
Default
100
AcDbLine
 10
0.4963992531289803
 20
0.346476465461147
 30
-0.7273092312476841
 11
0.4025406842900239
 21
0.0
 31
-0.7273092312476841
  0
LINE
  5
4B
330
1F
100
AcDbEntity
  8
Default
100
AcDbLine
 10
0.6773821741264676
 20
0.346476465461147
 30
-0.7273092312476841
 11
0.4963992531289803
 21
0.346476465461147
 31
-0.7273092312476841
  0
LINE
  5
4C
330
1F
100
AcDbEntity
  8
Default
100
AcDbLine
 10
0.7018505062341944
 20
0.4367949929031436
 30
-0.7273092312476841
 11
0.6773821741264676
 21
0.346476465461147
 31
-0.7273092312476841
  0
LINE
  5
4D
330
1F
100
AcDbEntity
  8
Default
100
AcDbLine
 10
0.5208879303022078
 20
0.4367949929031436
 30
-0.7273092312476841
 11
0.7018505062341944
 21
0.4367949929031436
 31
-0.7273092312476841
  0
LINE
  5
4E
330
1F
100
AcDbEntity
  8
Default
100
AcDbLine
 10
0.5934519972514014
 20
0.7046377802076638
 30
-0.7273092312476841
 11
0.5208879303022078
 21
0.4367949929031436
 31
-0.7273092312476841
  0
LINE
  5
4F
330
1F
100
AcDbEntity
  8
Default
100
AcDbLine
 10
0.7743806647408888
 20
0.7046377802076638
 30
-0.7273092312476841
 11
0.5934519972514014
 21
0.7046377802076638
 31
-0.7273092312476841
  0
LINE
  5
50
330
1F
100
AcDbEntity
  8
Default
100
AcDbLine
 10
0.7988489968486174
 20
0.7949563076496595
 30
-0.7273092312476841
 11
0.7743806647408888
 21
0.7046377802076638
 31
-0.7273092312476841
  0
LINE
  5
51
330
1F
100
AcDbEntity
  8
Default
100
AcDbLine
 10
0.6179203293591291
 20
0.7949563076496595
 30
-0.7273092312476841
 11
0.7988489968486174
 21
0.7949563076496595
 31
-0.7273092312476841
  0
LINE
  5
52
330
1F
100
AcDbEntity
  8
Default
100
AcDbLine
 10
0.7124231586055778
 20
1.143772455643282
 30
-0.7273092312476841
 11
0.6179203293591291
 21
0.7949563076496595
 31
-0.7273092312476841
  0
LINE
  5
53
330
1F
100
AcDbEntity
  8
Default
100
AcDbLine
 10
0.5986671157078431
 20
1.143772455643282
 30
-0.7273092312476841
 11
0.7124231586055778
 21
1.143772455643282
 31
-0.7273092312476841
  0
LINE
  5
54
330
1F
100
AcDbEntity
  8
Default
100
AcDbLine
 10
0.5041642864613944
 20
0.7949563076496595
 30
-0.7273092312476841
 11
0.5986671157078431
 21
1.143772455643282
 31
-0.7273092312476841
  0
LINE
  5
55
330
1F
100
AcDbEntity
  8
Default
100
AcDbLine
 10
0.3303021383888272
 20
0.7949563076496595
 30
-0.7273092312476841
 11
0.5041642864613944
 21
0.7949563076496595
 31
-0.7273092312476841
  0
LINE
  5
56
330
1F
100
AcDbEntity
  8
Default
100
AcDbLine
 10
0.4243370311287817
 20
1.143772455643282
 30
-0.7273092312476841
 11
0.3303021383888272
 21
0.7949563076496595
 31
-0.7273092312476841
  0
LINE
  5
57
330
1F
100
AcDbEntity
  8
Default
100
AcDbLine
 10
0.3083091225835721
 20
1.143772455643282
 30
-0.7273092312476841
 11
0.4243370311287817
 21
1.143772455643282
 31
-0.7273092312476841
  0
LINE
  5
58
330
1F
100
AcDbEntity
  8
Default
100
AcDbLine
 10
0.2142742298436175
 20
0.7949563076496595
 30
-0.7273092312476841
 11
0.3083091225835721
 21
1.143772455643282
 31
-0.7273092312476841
  0
LINE
  5
59
330
1F
100
AcDbEntity
  8
Default
100
AcDbLine
 10
0.0350342027906105
 20
0.7949563076496595
 30
-0.7273092312476841
 11
0.2142742298436175
 21
0.7949563076496595
 31
-0.7273092312476841
  0
LINE
  5
5A
330
1F
100
AcDbEntity
  8
Default
100
AcDbLine
 10
0.0105658706828828
 20
0.7046377802076638
 30
-0.7273092312476841
 11
0.0350342027906105
 21
0.7949563076496595
 31
-0.7273092312476841
  0
LINE
  5
5B
330
1F
100
AcDbEntity
  8
Default
100
AcDbLine
 10
0.1899415315058874
 20
0.7046377802076638
 30
-0.7273092312476841
 11
0.0105658706828828
 21
0.7046377802076638
 31
-0.7273092312476841
  0
LINE
  5
5C
330
1F
100
AcDbEntity
  8
Default
100
AcDbLine
 10
0.1177436757356904
 20
0.4367949929031436
 30
-0.7273092312476841
 11
0.1899415315058874
 21
0.7046377802076638
 31
-0.7273092312476841
  0
LINE
  5
5D
330
1F
100
AcDbEntity
  8
Default
100
AcDbLine
 10
0.4796959543536659
 20
0.7046377802076638
 30
-0.7273092312476841
 11
0.4071318874044731
 21
0.4367949929031436
 31
-0.7273092312476841
  0
LINE
  5
5E
330
1F
100
AcDbEntity
  8
Default
100
AcDbLine
 10
0.3059694400510979
 20
0.7046377802076638
 30
-0.7273092312476841
 11
0.4796959543536659
 21
0.7046377802076638
 31
-0.7273092312476841
  0
LINE
  5
5F
330
1F
100
AcDbEntity
  8
Default
100
AcDbLine
 10
0.2337580209039007
 20
0.4367949929031436
 30
-0.7273092312476841
 11
0.3059694400510979
 21
0.7046377802076638
 31
-0.7273092312476841
  0
LINE
  5
60
330
1F
100
AcDbEntity
  8
Default
100
AcDbLine
 10
-0.0630697030492975
 20
0.4367949929031436
 30
-0.7273092312476841
 11
-0.0630697030492975
 21
0.4367949929031436
 31
0.0
  0
LINE
  5
61
330
1F
100
AcDbEntity
  8
Default
100
AcDbLine
 10
-0.0630697030492975
 20
0.4367949929031436
 30
0.0
 11
0.1177436757356904
 21
0.4367949929031436
 31
0.0
  0
LINE
  5
62
330
1F
100
AcDbEntity
  8
Default
100
AcDbLine
 10
0.1177436757356904
 20
0.4367949929031436
 30
0.0
 11
0.1177436757356904
 21
0.4367949929031436
 31
-0.7273092312476841
  0
LINE
  5
63
330
1F
100
AcDbEntity
  8
Default
100
AcDbLine
 10
0.1177436757356904
 20
0.4367949929031436
 30
0.0
 11
0.1899415315058874
 21
0.7046377802076638
 31
0.0
  0
LINE
  5
64
330
1F
100
AcDbEntity
  8
Default
100
AcDbLine
 10
0.1899415315058874
 20
0.7046377802076638
 30
0.0
 11
0.1899415315058874
 21
0.7046377802076638
 31
-0.7273092312476841
  0
LINE
  5
65
330
1F
100
AcDbEntity
  8
Default
100
AcDbLine
 10
0.1899415315058874
 20
0.7046377802076638
 30
0.0
 11
0.0105658706828828
 21
0.7046377802076638
 31
0.0
  0
LINE
  5
66
330
1F
100
AcDbEntity
  8
Default
100
AcDbLine
 10
0.0105658706828828
 20
0.7046377802076638
 30
0.0
 11
0.0105658706828828
 21
0.7046377802076638
 31
-0.7273092312476841
  0
LINE
  5
67
330
1F
100
AcDbEntity
  8
Default
100
AcDbLine
 10
0.0105658706828828
 20
0.7046377802076638
 30
0.0
 11
0.0350342027906105
 21
0.7949563076496595
 31
0.0
  0
LINE
  5
68
330
1F
100
AcDbEntity
  8
Default
100
AcDbLine
 10
0.0350342027906105
 20
0.7949563076496595
 30
0.0
 11
0.0350342027906105
 21
0.7949563076496595
 31
-0.7273092312476841
  0
LINE
  5
69
330
1F
100
AcDbEntity
  8
Default
100
AcDbLine
 10
0.0350342027906105
 20
0.7949563076496595
 30
0.0
 11
0.2142742298436175
 21
0.7949563076496595
 31
0.0
  0
LINE
  5
6A
330
1F
100
AcDbEntity
  8
Default
100
AcDbLine
 10
0.2142742298436175
 20
0.7949563076496595
 30
0.0
 11
0.2142742298436175
 21
0.7949563076496595
 31
-0.7273092312476841
  0
LINE
  5
6B
330
1F
100
AcDbEntity
  8
Default
100
AcDbLine
 10
0.2142742298436175
 20
0.7949563076496595
 30
0.0
 11
0.3083091225835721
 21
1.143772455643282
 31
0.0
  0
LINE
  5
6C
330
1F
100
AcDbEntity
  8
Default
100
AcDbLine
 10
0.3083091225835721
 20
1.143772455643282
 30
0.0
 11
0.3083091225835721
 21
1.143772455643282
 31
-0.7273092312476841
  0
LINE
  5
6D
330
1F
100
AcDbEntity
  8
Default
100
AcDbLine
 10
0.3083091225835721
 20
1.143772455643282
 30
0.0
 11
0.4243370311287817
 21
1.143772455643282
 31
0.0
  0
LINE
  5
6E
330
1F
100
AcDbEntity
  8
Default
100
AcDbLine
 10
0.4243370311287817
 20
1.143772455643282
 30
0.0
 11
0.4243370311287817
 21
1.143772455643282
 31
-0.7273092312476841
  0
LINE
  5
6F
330
1F
100
AcDbEntity
  8
Default
100
AcDbLine
 10
0.4243370311287817
 20
1.143772455643282
 30
0.0
 11
0.3303021383888272
 21
0.7949563076496595
 31
0.0
  0
LINE
  5
70
330
1F
100
AcDbEntity
  8
Default
100
AcDbLine
 10
0.3303021383888272
 20
0.7949563076496595
 30
0.0
 11
0.3303021383888272
 21
0.7949563076496595
 31
-0.7273092312476841
  0
LINE
  5
71
330
1F
100
AcDbEntity
  8
Default
100
AcDbLine
 10
0.3303021383888272
 20
0.7949563076496595
 30
0.0
 11
0.5041642864613944
 21
0.7949563076496595
 31
0.0
  0
LINE
  5
72
330
1F
100
AcDbEntity
  8
Default
100
AcDbLine
 10
0.5041642864613944
 20
0.7949563076496595
 30
0.0
 11
0.5041642864613944
 21
0.7949563076496595
 31
-0.7273092312476841
  0
LINE
  5
73
330
1F
100
AcDbEntity
  8
Default
100
AcDbLine
 10
0.5041642864613944
 20
0.7949563076496595
 30
0.0
 11
0.5986671157078431
 21
1.143772455643282
 31
0.0
  0
LINE
  5
74
330
1F
100
AcDbEntity
  8
Default
100
AcDbLine
 10
0.5986671157078431
 20
1.143772455643282
 30
0.0
 11
0.5986671157078431
 21
1.143772455643282
 31
-0.7273092312476841
  0
LINE
  5
75
330
1F
100
AcDbEntity
  8
Default
100
AcDbLine
 10
0.5986671157078431
 20
1.143772455643282
 30
0.0
 11
0.7124231586055778
 21
1.143772455643282
 31
0.0
  0
LINE
  5
76
330
1F
100
AcDbEntity
  8
Default
100
AcDbLine
 10
0.7124231586055778
 20
1.143772455643282
 30
0.0
 11
0.7124231586055778
 21
1.143772455643282
 31
-0.7273092312476841
  0
LINE
  5
77
330
1F
100
AcDbEntity
  8
Default
100
AcDbLine
 10
0.7124231586055778
 20
1.143772455643282
 30
0.0
 11
0.6179203293591291
 21
0.7949563076496595
 31
0.0
  0
LINE
  5
78
330
1F
100
AcDbEntity
  8
Default
100
AcDbLine
 10
0.6179203293591291
 20
0.7949563076496595
 30
0.0
 11
0.6179203293591291
 21
0.7949563076496595
 31
-0.7273092312476841
  0
LINE
  5
79
330
1F
100
AcDbEntity
  8
Default
100
AcDbLine
 10
0.6179203293591291
 20
0.7949563076496595
 30
0.0
 11
0.7988489968486174
 21
0.7949563076496595
 31
0.0
  0
LINE
  5
7A
330
1F
100
AcDbEntity
  8
Default
100
AcDbLine
 10
0.7988489968486174
 20
0.7949563076496595
 30
0.0
 11
0.7988489968486174
 21
0.7949563076496595
 31
-0.7273092312476841
  0
LINE
  5
7B
330
1F
100
AcDbEntity
  8
Default
100
AcDbLine
 10
0.7988489968486174
 20
0.7949563076496595
 30
0.0
 11
0.7743806647408888
 21
0.7046377802076638
 31
0.0
  0
LINE
  5
7C
330
1F
100
AcDbEntity
  8
Default
100
AcDbLine
 10
0.7743806647408888
 20
0.7046377802076638
 30
0.0
 11
0.7743806647408888
 21
0.7046377802076638
 31
-0.7273092312476841
  0
LINE
  5
7D
330
1F
100
AcDbEntity
  8
Default
100
AcDbLine
 10
0.7743806647408888
 20
0.7046377802076638
 30
0.0
 11
0.5934519972514014
 21
0.7046377802076638
 31
0.0
  0
LINE
  5
7E
330
1F
100
AcDbEntity
  8
Default
100
AcDbLine
 10
0.5934519972514014
 20
0.7046377802076638
 30
0.0
 11
0.5934519972514014
 21
0.7046377802076638
 31
-0.7273092312476841
  0
LINE
  5
7F
330
1F
100
AcDbEntity
  8
Default
100
AcDbLine
 10
0.5934519972514014
 20
0.7046377802076638
 30
0.0
 11
0.5208879303022078
 21
0.4367949929031436
 31
0.0
  0
LINE
  5
80
330
1F
100
AcDbEntity
  8
Default
100
AcDbLine
 10
0.5208879303022078
 20
0.4367949929031436
 30
0.0
 11
0.5208879303022078
 21
0.4367949929031436
 31
-0.7273092312476841
  0
LINE
  5
81
330
1F
100
AcDbEntity
  8
Default
100
AcDbLine
 10
0.5208879303022078
 20
0.4367949929031436
 30
0.0
 11
0.7018505062341944
 21
0.4367949929031436
 31
0.0
  0
LINE
  5
82
330
1F
100
AcDbEntity
  8
Default
100
AcDbLine
 10
0.7018505062341944
 20
0.4367949929031436
 30
0.0
 11
0.7018505062341944
 21
0.4367949929031436
 31
-0.7273092312476841
  0
LINE
  5
83
330
1F
100
AcDbEntity
  8
Default
100
AcDbLine
 10
0.7018505062341944
 20
0.4367949929031436
 30
0.0
 11
0.6773821741264676
 21
0.346476465461147
 31
0.0
  0
LINE
  5
84
330
1F
100
AcDbEntity
  8
Default
100
AcDbLine
 10
0.6773821741264676
 20
0.346476465461147
 30
0.0
 11
0.6773821741264676
 21
0.346476465461147
 31
-0.7273092312476841
  0
LINE
  5
85
330
1F
100
AcDbEntity
  8
Default
100
AcDbLine
 10
0.6773821741264676
 20
0.346476465461147
 30
0.0
 11
0.4963992531289803
 21
0.346476465461147
 31
0.0
  0
LINE
  5
86
330
1F
100
AcDbEntity
  8
Default
100
AcDbLine
 10
0.4963992531289803
 20
0.346476465461147
 30
0.0
 11
0.4963992531289803
 21
0.346476465461147
 31
-0.7273092312476841
  0
LINE
  5
87
330
1F
100
AcDbEntity
  8
Default
100
AcDbLine
 10
0.4963992531289803
 20
0.346476465461147
 30
0.0
 11
0.4025406842900239
 21
0.0
 31
0.0
  0
LINE
  5
88
330
1F
100
AcDbEntity
  8
Default
100
AcDbLine
 10
0.4025406842900239
 20
0.0
 30
0.0
 11
0.4025406842900239
 21
0.0
 31
-0.7273092312476841
  0
LINE
  5
89
330
1F
100
AcDbEntity
  8
Default
100
AcDbLine
 10
0.4025406842900239
 20
0.0
 30
0.0
 11
0.2888253315232889
 21
0.0
 31
0.0
  0
LINE
  5
8A
330
1F
100
AcDbEntity
  8
Default
100
AcDbLine
 10
0.2888253315232889
 20
0.0
 30
0.0
 11
0.2888253315232889
 21
0.0
 31
-0.7273092312476841
  0
LINE
  5
8B
330
1F
100
AcDbEntity
  8
Default
100
AcDbLine
 10
0.2888253315232889
 20
0.0
 30
0.0
 11
0.3826635552967446
 21
0.346476465461147
 31
0.0
  0
LINE
  5
8C
330
1F
100
AcDbEntity
  8
Default
100
AcDbLine
 10
0.3826635552967446
 20
0.346476465461147
 30
0.0
 11
0.3826635552967446
 21
0.346476465461147
 31
-0.7273092312476841
  0
LINE
  5
8D
330
1F
100
AcDbEntity
  8
Default
100
AcDbLine
 10
0.3826635552967446
 20
0.346476465461147
 30
0.0
 11
0.2094049775006717
 21
0.346476465461147
 31
0.0
  0
LINE
  5
8E
330
1F
100
AcDbEntity
  8
Default
100
AcDbLine
 10
0.2094049775006717
 20
0.346476465461147
 30
0.0
 11
0.2094049775006717
 21
0.346476465461147
 31
-0.7273092312476841
  0
LINE
  5
8F
330
1F
100
AcDbEntity
  8
Default
100
AcDbLine
 10
0.2094049775006717
 20
0.346476465461147
 30
0.0
 11
0.1160143451682103
 21
0.0
 31
0.0
  0
LINE
  5
90
330
1F
100
AcDbEntity
  8
Default
100
AcDbLine
 10
0.1160143451682103
 20
0.0
 30
0.0
 11
0.1160143451682103
 21
0.0
 31
-0.7273092312476841
  0
LINE
  5
91
330
1F
100
AcDbEntity
  8
Default
100
AcDbLine
 10
0.1160143451682103
 20
0.0
 30
0.0
 11
0.0
 21
0.0
 31
0.0
  0
LINE
  5
92
330
1F
100
AcDbEntity
  8
Default
100
AcDbLine
 10
0.0
 20
0.0
 30
0.0
 11
0.0
 21
0.0
 31
-0.7273092312476841
  0
LINE
  5
93
330
1F
100
AcDbEntity
  8
Default
100
AcDbLine
 10
0.0
 20
0.0
 30
0.0
 11
0.0933906323324623
 21
0.346476465461147
 31
0.0
  0
LINE
  5
94
330
1F
100
AcDbEntity
  8
Default
100
AcDbLine
 10
0.0933906323324623
 20
0.346476465461147
 30
0.0
 11
0.0933906323324623
 21
0.346476465461147
 31
-0.7273092312476841
  0
LINE
  5
95
330
1F
100
AcDbEntity
  8
Default
100
AcDbLine
 10
0.0933906323324623
 20
0.346476465461147
 30
0.0
 11
-0.0864258382430378
 21
0.346476465461147
 31
0.0
  0
LINE
  5
96
330
1F
100
AcDbEntity
  8
Default
100
AcDbLine
 10
-0.0864258382430378
 20
0.346476465461147
 30
0.0
 11
-0.0864258382430378
 21
0.346476465461147
 31
-0.7273092312476841
  0
LINE
  5
97
330
1F
100
AcDbEntity
  8
Default
100
AcDbLine
 10
-0.0864258382430378
 20
0.346476465461147
 30
0.0
 11
-0.0630697030492975
 21
0.4367949929031436
 31
0.0
  0
LINE
  5
98
330
1F
100
AcDbEntity
  8
Default
100
AcDbLine
 10
0.4071318874044731
 20
0.4367949929031436
 30
-0.7273092312476841
 11
0.4071318874044731
 21
0.4367949929031436
 31
0.0
  0
LINE
  5
99
330
1F
100
AcDbEntity
  8
Default
100
AcDbLine
 10
0.4071318874044731
 20
0.4367949929031436
 30
0.0
 11
0.4796959543536659
 21
0.7046377802076638
 31
0.0
  0
LINE
  5
9A
330
1F
100
AcDbEntity
  8
Default
100
AcDbLine
 10
0.4796959543536659
 20
0.7046377802076638
 30
0.0
 11
0.4796959543536659
 21
0.7046377802076638
 31
-0.7273092312476841
  0
LINE
  5
9B
330
1F
100
AcDbEntity
  8
Default
100
AcDbLine
 10
0.4796959543536659
 20
0.7046377802076638
 30
0.0
 11
0.3059694400510979
 21
0.7046377802076638
 31
0.0
  0
LINE
  5
9C
330
1F
100
AcDbEntity
  8
Default
100
AcDbLine
 10
0.3059694400510979
 20
0.7046377802076638
 30
0.0
 11
0.3059694400510979
 21
0.7046377802076638
 31
-0.7273092312476841
  0
LINE
  5
9D
330
1F
100
AcDbEntity
  8
Default
100
AcDbLine
 10
0.3059694400510979
 20
0.7046377802076638
 30
0.0
 11
0.2337580209039007
 21
0.4367949929031436
 31
0.0
  0
LINE
  5
9E
330
1F
100
AcDbEntity
  8
Default
100
AcDbLine
 10
0.2337580209039007
 20
0.4367949929031436
 30
0.0
 11
0.2337580209039007
 21
0.4367949929031436
 31
-0.7273092312476841
  0
LINE
  5
9F
330
1F
100
AcDbEntity
  8
Default
100
AcDbLine
 10
0.2337580209039007
 20
0.4367949929031436
 30
0.0
 11
0.4071318874044731
 21
0.4367949929031436
 31
0.0
  0
LINE
  5
A0
330
1F
100
AcDbEntity
  8
Default
100
AcDbLine
 10
0.1541579379699571
 20
0.571886227821641
 30
-0.7273092312476841
 11
0.270179124066635
 21
0.571886227821641
 31
-0.7273092312476841
  0
LINE
  5
A1
330
1F
100
AcDbEntity
  8
Default
100
AcDbLine
 10
0.4437308547073706
 20
0.571886227821641
 30
-0.7273092312476841
 11
0.5574868976051055
 21
0.571886227821641
 31
-0.7273092312476841
  0
LINE
  5
A2
330
1F
100
AcDbEntity
  8
Default
100
AcDbLine
 10
0.3562115793027899
 20
1.143772455643282
 30
-0.7273092312476841
 11
0.3562115793027899
 21
0.8910656465656889
 31
-0.7273092312476841
  0
LINE
  5
A3
330
1F
100
AcDbEntity
  8
Default
100
AcDbLine
 10
0.3562115793027899
 20
0.7949563076496604
 30
-0.7273092312476841
 11
0.3562115793027899
 21
0.7046377802076647
 31
-0.7273092312476841
  0
LINE
  5
A4
330
1F
100
AcDbEntity
  8
Default
100
AcDbLine
 10
0.3562115793027899
 20
0.4367949929031436
 30
-0.7273092312476841
 11
0.3562115793027899
 21
0.3464764654611474
 31
-0.7273092312476841
  0
LINE
  5
A5
330
1F
100
AcDbEntity
  8
Default
100
AcDbLine
 10
0.3562115793027899
 20
0.2488085133377682
 30
-0.7273092312476841
 11
0.3562115793027899
 21
0.0000000000000004
 31
-0.7273092312476841
  0
LINE
  5
A6
330
1F
100
AcDbEntity
  8
Default
100
AcDbLine
 10
0.1177436757356904
 20
0.4367949929031436
 30
-0.363654615623842
 11
-0.0630697030492975
 21
0.4367949929031436
 31
-0.363654615623842
  0
LINE
  5
A7
330
1F
100
AcDbEntity
  8
Default
100
AcDbLine
 10
0.0273369863431965
 20
0.4367949929031436
 30
-0.7273092312476841
 11
0.0273369863431965
 21
0.4367949929031436
 31
0.0
  0
LINE
  5
A8
330
1F
100
AcDbEntity
  8
Default
100
AcDbLine
 10
0.1899415315058874
 20
0.7046377802076638
 30
-0.363654615623842
 11
0.1177436757356904
 21
0.4367949929031436
 31
-0.363654615623842
  0
LINE
  5
A9
330
1F
100
AcDbEntity
  8
Default
100
AcDbLine
 10
0.1538426036207889
 20
0.5707163865554037
 30
-0.7273092312476841
 11
0.1538426036207889
 21
0.5707163865554037
 31
0.0
  0
LINE
  5
AA
330
1F
100
AcDbEntity
  8
Default
100
AcDbLine
 10
0.0105658706828855
 20
0.7046377802076638
 30
-0.363654615623842
 11
0.1899415315058901
 21
0.7046377802076638
 31
-0.363654615623842
  0
LINE
  5
AB
330
1F
100
AcDbEntity
  8
Default
100
AcDbLine
 10
0.1002537010943882
 20
0.7046377802076638
 30
-0.7273092312476841
 11
0.1002537010943882
 21
0.7046377802076638
 31
0.0
  0
LINE
  5
AC
330
1F
100
AcDbEntity
  8
Default
100
AcDbLine
 10
0.0350342027906105
 20
0.7949563076496595
 30
-0.363654615623842
 11
0.0105658706828828
 21
0.7046377802076638
 31
-0.363654615623842
  0
LINE
  5
AD
330
1F
100
AcDbEntity
  8
Default
100
AcDbLine
 10
0.0228000367367471
 20
0.7497970439286616
 30
-0.7273092312476841
 11
0.0228000367367471
 21
0.7497970439286616
 31
0.0
  0
LINE
  5
AE
330
1F
100
AcDbEntity
  8
Default
100
AcDbLine
 10
0.2142742298436175
 20
0.7949563076496595
 30
-0.363654615623842
 11
0.0350342027906105
 21
0.7949563076496595
 31
-0.363654615623842
  0
LINE
  5
AF
330
1F
100
AcDbEntity
  8
Default
100
AcDbLine
 10
0.124654216317114
 20
0.7949563076496595
 30
-0.7273092312476841
 11
0.124654216317114
 21
0.7949563076496595
 31
0.0
  0
LINE
  5
B0
330
1F
100
AcDbEntity
  8
Default
100
AcDbLine
 10
0.3083091225835695
 20
1.143772455643282
 30
-0.363654615623842
 11
0.2142742298436149
 21
0.7949563076496595
 31
-0.363654615623842
  0
LINE
  5
B1
330
1F
100
AcDbEntity
  8
Default
100
AcDbLine
 10
0.2612916762135917
 20
0.9693643816464705
 30
-0.7273092312476841
 11
0.2612916762135917
 21
0.9693643816464705
 31
0.0
  0
LINE
  5
B2
330
1F
100
AcDbEntity
  8
Default
100
AcDbLine
 10
0.4243370311287791
 20
1.143772455643282
 30
-0.363654615623842
 11
0.3083091225835695
 21
1.143772455643282
 31
-0.363654615623842
  0
LINE
  5
B3
330
1F
100
AcDbEntity
  8
Default
100
AcDbLine
 10
0.3663230768561743
 20
1.143772455643282
 30
-0.7273092312476841
 11
0.3663230768561743
 21
1.143772455643282
 31
0.0
  0
LINE
  5
B4
330
1F
100
AcDbEntity
  8
Default
100
AcDbLine
 10
0.3303021383888272
 20
0.7949563076496595
 30
-0.363654615623842
 11
0.4243370311287817
 21
1.143772455643282
 31
-0.363654615623842
  0
LINE
  5
B5
330
1F
100
AcDbEntity
  8
Default
100
AcDbLine
 10
0.3773195847588049
 20
0.9693643816464705
 30
-0.7273092312476841
 11
0.3773195847588049
 21
0.9693643816464705
 31
0.0
  0
LINE
  5
B6
330
1F
100
AcDbEntity
  8
Default
100
AcDbLine
 10
0.5041642864613944
 20
0.7949563076496595
 30
-0.363654615623842
 11
0.3303021383888272
 21
0.7949563076496595
 31
-0.363654615623842
  0
LINE
  5
B7
330
1F
100
AcDbEntity
  8
Default
100
AcDbLine
 10
0.4172332124251108
 20
0.7949563076496595
 30
-0.7273092312476841
 11
0.4172332124251108
 21
0.7949563076496595
 31
0.0
  0
LINE
  5
B8
330
1F
100
AcDbEntity
  8
Default
100
AcDbLine
 10
0.5986671157078405
 20
1.143772455643282
 30
-0.363654615623842
 11
0.5041642864613918
 21
0.7949563076496595
 31
-0.363654615623842
  0
LINE
  5
B9
330
1F
100
AcDbEntity
  8
Default
100
AcDbLine
 10
0.5514157010846166
 20
0.9693643816464705
 30
-0.7273092312476841
 11
0.5514157010846166
 21
0.9693643816464705
 31
0.0
  0
LINE
  5
BA
330
1F
100
AcDbEntity
  8
Default
100
AcDbLine
 10
0.7124231586055778
 20
1.143772455643282
 30
-0.363654615623842
 11
0.5986671157078431
 21
1.143772455643282
 31
-0.363654615623842
  0
LINE
  5
BB
330
1F
100
AcDbEntity
  8
Default
100
AcDbLine
 10
0.6555451371567109
 20
1.143772455643282
 30
-0.7273092312476841
 11
0.6555451371567109
 21
1.143772455643282
 31
0.0
  0
LINE
  5
BC
330
1F
100
AcDbEntity
  8
Default
100
AcDbLine
 10
0.6179203293591264
 20
0.7949563076496595
 30
-0.363654615623842
 11
0.7124231586055751
 21
1.143772455643282
 31
-0.363654615623842
  0
LINE
  5
BD
330
1F
100
AcDbEntity
  8
Default
100
AcDbLine
 10
0.6651717439823503
 20
0.9693643816464705
 30
-0.7273092312476841
 11
0.6651717439823503
 21
0.9693643816464705
 31
0.0
  0
LINE
  5
BE
330
1F
100
AcDbEntity
  8
Default
100
AcDbLine
 10
0.7988489968486174
 20
0.7949563076496595
 30
-0.363654615623842
 11
0.6179203293591291
 21
0.7949563076496595
 31
-0.363654615623842
  0
LINE
  5
BF
330
1F
100
AcDbEntity
  8
Default
100
AcDbLine
 10
0.7083846631038728
 20
0.7949563076496595
 30
-0.7273092312476841
 11
0.7083846631038728
 21
0.7949563076496595
 31
0.0
  0
LINE
  5
C0
330
1F
100
AcDbEntity
  8
Default
100
AcDbLine
 10
0.7743806647408888
 20
0.7046377802076638
 30
-0.363654615623842
 11
0.7988489968486174
 21
0.7949563076496595
 31
-0.363654615623842
  0
LINE
  5
C1
330
1F
100
AcDbEntity
  8
Default
100
AcDbLine
 10
0.7866148307947531
 20
0.7497970439286616
 30
-0.7273092312476841
 11
0.7866148307947531
 21
0.7497970439286616
 31
0.0
  0
LINE
  5
C2
330
1F
100
AcDbEntity
  8
Default
100
AcDbLine
 10
0.5934519972514014
 20
0.7046377802076638
 30
-0.363654615623842
 11
0.7743806647408888
 21
0.7046377802076638
 31
-0.363654615623842
  0
LINE
  5
C3
330
1F
100
AcDbEntity
  8
Default
100
AcDbLine
 10
0.6839163309961451
 20
0.7046377802076638
 30
-0.7273092312476841
 11
0.6839163309961451
 21
0.7046377802076638
 31
0.0
  0
LINE
  5
C4
330
1F
100
AcDbEntity
  8
Default
100
AcDbLine
 10
0.5208879303022051
 20
0.4367949929031436
 30
-0.363654615623842
 11
0.5934519972513987
 21
0.7046377802076638
 31
-0.363654615623842
  0
LINE
  5
C5
330
1F
100
AcDbEntity
  8
Default
100
AcDbLine
 10
0.5571699637768024
 20
0.5707163865554037
 30
-0.7273092312476841
 11
0.5571699637768024
 21
0.5707163865554037
 31
0.0
  0
LINE
  5
C6
330
1F
100
AcDbEntity
  8
Default
100
AcDbLine
 10
0.7018505062341944
 20
0.4367949929031436
 30
-0.363654615623842
 11
0.5208879303022078
 21
0.4367949929031436
 31
-0.363654615623842
  0
LINE
  5
C7
330
1F
100
AcDbEntity
  8
Default
100
AcDbLine
 10
0.6113692182682016
 20
0.4367949929031436
 30
-0.7273092312476841
 11
0.6113692182682016
 21
0.4367949929031436
 31
0.0
  0
LINE
  5
C8
330
1F
100
AcDbEntity
  8
Default
100
AcDbLine
 10
0.6773821741264676
 20
0.3464764654611487
 30
-0.363654615623842
 11
0.7018505062341944
 21
0.4367949929031454
 31
-0.363654615623842
  0
LINE
  5
C9
330
1F
100
AcDbEntity
  8
Default
100
AcDbLine
 10
0.689616340180331
 20
0.3916357291821471
 30
-0.7273092312476841
 11
0.689616340180331
 21
0.3916357291821471
 31
0.0
  0
LINE
  5
CA
330
1F
100
AcDbEntity
  8
Default
100
AcDbLine
 10
0.4963992531289776
 20
0.3464764654611487
 30
-0.363654615623842
 11
0.677382174126465
 21
0.3464764654611487
 31
-0.363654615623842
  0
LINE
  5
CB
330
1F
100
AcDbEntity
  8
Default
100
AcDbLine
 10
0.5868907136277208
 20
0.3464764654611487
 30
-0.7273092312476841
 11
0.5868907136277208
 21
0.3464764654611487
 31
0.0
  0
LINE
  5
CC
330
1F
100
AcDbEntity
  8
Default
100
AcDbLine
 10
0.4025406842900239
 20
0.0
 30
-0.363654615623842
 11
0.4963992531289803
 21
0.346476465461147
 31
-0.363654615623842
  0
LINE
  5
CD
330
1F
100
AcDbEntity
  8
Default
100
AcDbLine
 10
0.4494699687095025
 20
0.1732382327305735
 30
-0.7273092312476841
 11
0.4494699687095025
 21
0.1732382327305735
 31
0.0
  0
LINE
  5
CE
330
1F
100
AcDbEntity
  8
Default
100
AcDbLine
 10
0.2888253315232916
 20
0.0
 30
-0.363654615623842
 11
0.4025406842900265
 21
0.0
 31
-0.363654615623842
  0
LINE
  5
CF
330
1F
100
AcDbEntity
  8
Default
100
AcDbLine
 10
0.3456830079066595
 20
0.0
 30
-0.7273092312476841
 11
0.3456830079066595
 21
0.0
 31
0.0
  0
LINE
  5
D0
330
1F
100
AcDbEntity
  8
Default
100
AcDbLine
 10
0.3826635552967446
 20
0.3464764654611487
 30
-0.363654615623842
 11
0.2888253315232889
 21
0.0000000000000018
 31
-0.363654615623842
  0
LINE
  5
D1
330
1F
100
AcDbEntity
  8
Default
100
AcDbLine
 10
0.3357444434100163
 20
0.1732382327305753
 30
-0.7273092312476841
 11
0.3357444434100163
 21
0.1732382327305753
 31
0.0
  0
LINE
  5
D2
330
1F
100
AcDbEntity
  8
Default
100
AcDbLine
 10
0.2094049775006717
 20
0.3464764654611487
 30
-0.363654615623842
 11
0.3826635552967446
 21
0.3464764654611487
 31
-0.363654615623842
  0
LINE
  5
D3
330
1F
100
AcDbEntity
  8
Default
100
AcDbLine
 10
0.2960342663987081
 20
0.3464764654611487
 30
-0.7273092312476841
 11
0.2960342663987081
 21
0.3464764654611487
 31
0.0
  0
LINE
  5
D4
330
1F
100
AcDbEntity
  8
Default
100
AcDbLine
 10
0.1160143451682103
 20
0.0
 30
-0.363654615623842
 11
0.2094049775006717
 21
0.346476465461147
 31
-0.363654615623842
  0
LINE
  5
D5
330
1F
100
AcDbEntity
  8
Default
100
AcDbLine
 10
0.162709661334441
 20
0.1732382327305735
 30
-0.7273092312476841
 11
0.162709661334441
 21
0.1732382327305735
 31
0.0
  0
LINE
  5
D6
330
1F
100
AcDbEntity
  8
Default
100
AcDbLine
 10
0.0
 20
0.0
 30
-0.363654615623842
 11
0.1160143451682103
 21
0.0
 31
-0.363654615623842
  0
LINE
  5
D7
330
1F
100
AcDbEntity
  8
Default
100
AcDbLine
 10
0.0580071725841051
 20
0.0
 30
-0.7273092312476841
 11
0.0580071725841051
 21
0.0
 31
0.0
  0
LINE
  5
D8
330
1F
100
AcDbEntity
  8
Default
100
AcDbLine
 10
0.0933906323324649
 20
0.3464764654611487
 30
-0.363654615623842
 11
0.0000000000000027
 21
0.0000000000000018
 31
-0.363654615623842
  0
LINE
  5
D9
330
1F
100
AcDbEntity
  8
Default
100
AcDbLine
 10
0.0466953161662342
 20
0.1732382327305753
 30
-0.7273092312476841
 11
0.0466953161662342
 21
0.1732382327305753
 31
0.0
  0
LINE
  5
DA
330
1F
100
AcDbEntity
  8
Default
100
AcDbLine
 10
-0.0864258382430378
 20
0.3464764654611487
 30
-0.363654615623842
 11
0.0933906323324623
 21
0.3464764654611487
 31
-0.363654615623842
  0
LINE
  5
DB
330
1F
100
AcDbEntity
  8
Default
100
AcDbLine
 10
0.0034823970447118
 20
0.3464764654611487
 30
-0.7273092312476841
 11
0.0034823970447118
 21
0.3464764654611487
 31
0.0
  0
LINE
  5
DC
330
1F
100
AcDbEntity
  8
Default
100
AcDbLine
 10
-0.0630697030492975
 20
0.4367949929031436
 30
-0.363654615623842
 11
-0.0864258382430378
 21
0.346476465461147
 31
-0.363654615623842
  0
LINE
  5
DD
330
1F
100
AcDbEntity
  8
Default
100
AcDbLine
 10
-0.0747477706461677
 20
0.3916357291821453
 30
-0.7273092312476841
 11
-0.0747477706461677
 21
0.3916357291821453
 31
0.0
  0
LINE
  5
DE
330
1F
100
AcDbEntity
  8
Default
100
AcDbLine
 10
0.4796959543536659
 20
0.7046377802076638
 30
-0.363654615623842
 11
0.4071318874044731
 21
0.4367949929031436
 31
-0.363654615623842
  0
LINE
  5
DF
330
1F
100
AcDbEntity
  8
Default
100
AcDbLine
 10
0.4434139208790695
 20
0.5707163865554037
 30
-0.7273092312476841
 11
0.4434139208790695
 21
0.5707163865554037
 31
0.0
  0
LINE
  5
E0
330
1F
100
AcDbEntity
  8
Default
100
AcDbLine
 10
0.3059694400511006
 20
0.7046377802076638
 30
-0.363654615623842
 11
0.4796959543536685
 21
0.7046377802076638
 31
-0.363654615623842
  0
LINE
  5
E1
330
1F
100
AcDbEntity
  8
Default
100
AcDbLine
 10
0.392832697202385
 20
0.7046377802076638
 30
-0.7273092312476841
 11
0.392832697202385
 21
0.7046377802076638
 31
0.0
  0
LINE
  5
E2
330
1F
100
AcDbEntity
  8
Default
100
AcDbLine
 10
0.2337580209039007
 20
0.4367949929031436
 30
-0.363654615623842
 11
0.3059694400510979
 21
0.7046377802076638
 31
-0.363654615623842
  0
LINE
  5
E3
330
1F
100
AcDbEntity
  8
Default
100
AcDbLine
 10
0.2698637304774998
 20
0.5707163865554037
 30
-0.7273092312476841
 11
0.2698637304774998
 21
0.5707163865554037
 31
0.0
  0
LINE
  5
E4
330
1F
100
AcDbEntity
  8
Default
100
AcDbLine
 10
0.4071318874044731
 20
0.4367949929031436
 30
-0.363654615623842
 11
0.2337580209039007
 21
0.4367949929031436
 31
-0.363654615623842
  0
LINE
  5
E5
330
1F
100
AcDbEntity
  8
Default
100
AcDbLine
 10
0.3204449541541869
 20
0.4367949929031436
 30
-0.7273092312476841
 11
0.3204449541541869
 21
0.4367949929031436
 31
0.0
  0
LINE
  5
E6
330
1F
100
AcDbEntity
  8
Default
100
AcDbLine
 10
0.1541579379699571
 20
0.571886227821641
 30
0.0
 11
0.270179124066635
 21
0.571886227821641
 31
0.0
  0
LINE
  5
E7
330
1F
100
AcDbEntity
  8
Default
100
AcDbLine
 10
0.4437308547073706
 20
0.571886227821641
 30
0.0
 11
0.5574868976051055
 21
0.571886227821641
 31
0.0
  0
LINE
  5
E8
330
1F
100
AcDbEntity
  8
Default
100
AcDbLine
 10
0.3562115793027899
 20
1.143772455643282
 30
0.0
 11
0.3562115793027899
 21
0.8910656465656889
 31
0.0
  0
LINE
  5
E9
330
1F
100
AcDbEntity
  8
Default
100
AcDbLine
 10
0.3562115793027899
 20
0.7949563076496604
 30
0.0
 11
0.3562115793027899
 21
0.7046377802076647
 31
0.0
  0
LINE
  5
EA
330
1F
100
AcDbEntity
  8
Default
100
AcDbLine
 10
0.3562115793027899
 20
0.4367949929031436
 30
0.0
 11
0.3562115793027899
 21
0.3464764654611474
 31
0.0
  0
LINE
  5
EB
330
1F
100
AcDbEntity
  8
Default
100
AcDbLine
 10
0.3562115793027899
 20
0.2488085133377682
 30
0.0
 11
0.3562115793027899
 21
0.0000000000000004
 31
0.0
  0
ENDSEC
  0
SECTION
  2
OBJECTS
  0
DICTIONARY
  5
C
330
0
100
AcDbDictionary
281
     1
  3
ACAD_GROUP
350
D
  3
ACAD_LAYOUT
350
1A
  3
ACAD_MATERIAL
350
3B
  3
ACAD_MLEADERSTYLE
350
113
  3
ACAD_MLINESTYLE
350
17
  3
ACAD_PLOTSETTINGS
350
19
  3
ACAD_PLOTSTYLENAME
350
E
  3
ACAD_TABLESTYLE
350
112
  3
ACAD_VISUALSTYLE
350
2A
  0
DICTIONARY
  5
D
102
{ACAD_REACTORS
330
C
102
}
330
C
100
AcDbDictionary
281
     1
  0
DICTIONARY
  5
1A
102
{ACAD_REACTORS
330
C
102
}
330
C
100
AcDbDictionary
281
     1
  3
Layout1
350
1E
  3
Layout2
350
26
  3
Model
350
22
  0
DICTIONARY
  5
3B
102
{ACAD_REACTORS
330
C
102
}
330
C
100
AcDbDictionary
281
     1
  3
ByBlock
350
3D
  3
ByLayer
350
3C
  3
Global
350
3E
  0
DICTIONARY
  5
113
102
{ACAD_REACTORS
330
C
102
}
330
C
100
AcDbDictionary
281
     1
  0
DICTIONARY
  5
17
102
{ACAD_REACTORS
330
C
102
}
330
C
100
AcDbDictionary
281
     1
  3
Standard
350
18
  0
DICTIONARY
  5
19
102
{ACAD_REACTORS
330
C
102
}
330
C
100
AcDbDictionary
281
     1
  0
ACDBDICTIONARYWDFLT
  5
E
102
{ACAD_REACTORS
330
C
102
}
330
C
100
AcDbDictionary
281
     1
  3
Normal
350
F
100
AcDbDictionaryWithDefault
340
F
  0
DICTIONARY
  5
112
102
{ACAD_REACTORS
330
C
102
}
330
C
100
AcDbDictionary
281
     1
  0
DICTIONARY
  5
2A
102
{ACAD_REACTORS
330
C
102
}
330
C
100
AcDbDictionary
281
     1
  3
2dWireframe
350
2F
  3
3D Hidden
350
31
  3
3dWireframe
350
30
  3
Basic
350
32
  3
Brighten
350
36
  3
ColorChange
350
3A
  3
Conceptual
350
34
  3
Dim
350
35
  3
Facepattern
350
39
  3
Flat
350
2B
  3
FlatWithEdges
350
2C
  3
Gouraud
350
2D
  3
GouraudWithEdges
350
2E
  3
Linepattern
350
38
  3
Realistic
350
33
  3
Thicken
350
37
  0
LAYOUT
  5
1E
102
{ACAD_REACTORS
330
1A
102
}
330
1A
100
AcDbPlotSettings
  1

  2
none_device
  4

  6

 40
0.0
 41
0.0
 42
0.0
 43
0.0
 44
0.0
 45
0.0
 46
0.0
 47
0.0
 48
0.0
 49
0.0
140
0.0
141
0.0
142
1.0
143
1.0
 70
   688
 72
     0
 73
     0
 74
     5
  7

 75
    16
 76
     0
 77
     2
 78
   300
147
1.0
148
0.0
149
0.0
100
AcDbLayout
  1
Layout1
 70
     1
 71
     1
 10
0.0
 20
0.0
 11
12.0
 21
9.0
 12
0.0
 22
0.0
 32
0.0
 14
1.000000000000000E+20
 24
1.000000000000000E+20
 34
1.000000000000000E+20
 15
-1.000000000000000E+20
 25
-1.000000000000000E+20
 35
-1.000000000000000E+20
146
0.0
 13
0.0
 23
0.0
 33
0.0
 16
1.0
 26
0.0
 36
0.0
 17
0.0
 27
1.0
 37
0.0
 76
     0
330
1B
  0
LAYOUT
  5
26
102
{ACAD_REACTORS
330
1A
102
}
330
1A
100
AcDbPlotSettings
  1

  2
none_device
  4

  6

 40
0.0
 41
0.0
 42
0.0
 43
0.0
 44
0.0
 45
0.0
 46
0.0
 47
0.0
 48
0.0
 49
0.0
140
0.0
141
0.0
142
1.0
143
1.0
 70
   688
 72
     0
 73
     0
 74
     5
  7

 75
    16
 76
     0
 77
     2
 78
   300
147
1.0
148
0.0
149
0.0
100
AcDbLayout
  1
Layout2
 70
     1
 71
     2
 10
0.0
 20
0.0
 11
0.0
 21
0.0
 12
0.0
 22
0.0
 32
0.0
 14
0.0
 24
0.0
 34
0.0
 15
0.0
 25
0.0
 35
0.0
146
0.0
 13
0.0
 23
0.0
 33
0.0
 16
1.0
 26
0.0
 36
0.0
 17
0.0
 27
1.0
 37
0.0
 76
     0
330
23
  0
LAYOUT
  5
22
102
{ACAD_REACTORS
330
1A
102
}
330
1A
100
AcDbPlotSettings
  1

  2
none_device
  4

  6

 40
0.0
 41
0.0
 42
0.0
 43
0.0
 44
0.0
 45
0.0
 46
0.0
 47
0.0
 48
0.0
 49
0.0
140
0.0
141
0.0
142
1.0
143
1.0
 70
  1712
 72
     0
 73
     0
 74
     0
  7

 75
     0
 76
     0
 77
     2
 78
   300
147
1.0
148
0.0
149
0.0
100
AcDbLayout
  1
Model
 70
     1
 71
     0
 10
0.0
 20
0.0
 11
12.0
 21
9.0
 12
0.0
 22
0.0
 32
0.0
 14
-0.0864258382430378
 24
0.0
 34
-0.7273092312476841
 15
0.7988489968486174
 25
1.143772455643282
 35
0.0
146
0.0
 13
0.0
 23
0.0
 33
0.0
 16
1.0
 26
0.0
 36
0.0
 17
0.0
 27
1.0
 37
0.0
 76
     0
330
1F
331
29
  0
MATERIAL
  5
3D
102
{ACAD_REACTORS
330
3B
102
}
102
{ACAD_XDICTIONARY
360
10E
102
}
330
3B
100
AcDbMaterial
  1
ByBlock
  0
MATERIAL
  5
3C
102
{ACAD_REACTORS
330
3B
102
}
102
{ACAD_XDICTIONARY
360
10C
102
}
330
3B
100
AcDbMaterial
  1
ByLayer
  0
MATERIAL
  5
3E
102
{ACAD_REACTORS
330
3B
102
}
102
{ACAD_XDICTIONARY
360
110
102
}
330
3B
100
AcDbMaterial
  1
Global
  0
MLINESTYLE
  5
18
102
{ACAD_REACTORS
330
17
102
}
330
17
100
AcDbMlineStyle
  2
Standard
 70
     0
  3

 62
   256
 51
90.0
 52
90.0
 71
     2
 49
0.5
 62
   256
  6
BYLAYER
 49
-0.5
 62
   256
  6
BYLAYER
  0
ACDBPLACEHOLDER
  5
F
102
{ACAD_REACTORS
330
E
102
}
330
E
  0
VISUALSTYLE
  5
2F
102
{ACAD_REACTORS
330
2A
102
}
102
{ACAD_XDICTIONARY
360
F4
102
}
330
2A
100
AcDbVisualStyle
  2
2dWireframe
 70
     4
 71
     0
 72
     2
 73
     0
 90
        0
 40
-0.6
 41
-30.0
 62
     5
 63
     7
421
 16777215
 74
     1
 91
        4
 64
     7
 65
   257
 75
     1
175
     1
 42
1.0
 92
        0
 66
   257
 43
1.0
 76
     1
 77
     6
 78
     2
 67
     7
 79
     5
170
     0
171
     0
290
     0
174
     0
 93
        1
 44
0.0
173
     0
291
     0
 45
0.0
1001
ACAD
1000
AcDbSavedByObjectVersion
1070
     0
  0
VISUALSTYLE
  5
31
102
{ACAD_REACTORS
330
2A
102
}
102
{ACAD_XDICTIONARY
360
F8
102
}
330
2A
100
AcDbVisualStyle
  2
3D Hidden
 70
     6
 71
     1
 72
     2
 73
     2
 90
        0
 40
-0.6
 41
-30.0
 62
     5
 63
     7
421
 16777215
 74
     2
 91
        2
 64
     7
 65
   257
 75
     2
175
     1
 42
40.0
 92
        0
 66
   257
 43
1.0
 76
     1
 77
     6
 78
     2
 67
     7
 79
     3
170
     0
171
     0
290
     0
174
     0
 93
        1
 44
0.0
173
     0
291
     0
 45
0.0
1001
ACAD
1000
AcDbSavedByObjectVersion
1070
     0
  0
VISUALSTYLE
  5
30
102
{ACAD_REACTORS
330
2A
102
}
102
{ACAD_XDICTIONARY
360
F6
102
}
330
2A
100
AcDbVisualStyle
  2
3dWireframe
 70
     5
 71
     0
 72
     2
 73
     0
 90
        0
 40
-0.6
 41
-30.0
 62
     5
 63
     7
421
 16777215
 74
     1
 91
        4
 64
     7
 65
   257
 75
     1
175
     1
 42
1.0
 92
        0
 66
   257
 43
1.0
 76
     1
 77
     6
 78
     2
 67
     7
 79
     5
170
     0
171
     0
290
     0
174
     0
 93
        1
 44
0.0
173
     0
291
     0
 45
0.0
1001
ACAD
1000
AcDbSavedByObjectVersion
1070
     0
  0
VISUALSTYLE
  5
32
102
{ACAD_REACTORS
330
2A
102
}
102
{ACAD_XDICTIONARY
360
FA
102
}
330
2A
100
AcDbVisualStyle
  2
Basic
 70
     7
 71
     1
 72
     0
 73
     1
 90
        0
 40
-0.6
 41
-30.0
 62
     5
 63
     7
421
 16777215
 74
     0
 91
        4
 64
     7
 65
   257
 75
     1
175
     1
 42
1.0
 92
        8
 66
     7
 43
1.0
 76
     1
 77
     6
 78
     2
 67
     7
 79
     5
170
     0
171
     0
290
     0
174
     0
 93
        1
 44
0.0
173
     0
291
     1
 45
0.0
1001
ACAD
1000
AcDbSavedByObjectVersion
1070
     0
  0
VISUALSTYLE
  5
36
102
{ACAD_REACTORS
330
2A
102
}
102
{ACAD_XDICTIONARY
360
102
102
}
330
2A
100
AcDbVisualStyle
  2
Brighten
 70
    12
 71
     2
 72
     2
 73
     0
 90
        0
 40
-0.6
 41
-30.0
 62
     5
 63
     7
421
 16777215
 74
     1
 91
        4
 64
     7
 65
   257
 75
     1
175
     1
 42
1.0
 92
        8
 66
     7
 43
1.0
 76
     1
 77
     6
 78
     2
 67
     7
 79
     5
170
     0
171
     0
290
     0
174
     0
 93
        1
 44
50.0
173
     0
291
     1
 45
0.0
1001
ACAD
1000
AcDbSavedByObjectVersion
1070
     0
  0
VISUALSTYLE
  5
3A
102
{ACAD_REACTORS
330
2A
102
}
102
{ACAD_XDICTIONARY
360
10A
102
}
330
2A
100
AcDbVisualStyle
  2
ColorChange
 70
    16
 71
     2
 72
     2
 73
     3
 90
        0
 40
-0.6
 41
-30.0
 62
     5
 63
     8
421
  8421504
 74
     1
 91
        4
 64
     7
 65
   257
 75
     1
175
     1
 42
1.0
 92
        8
 66
     8
424
  8421504
 43
1.0
 76
     1
 77
     6
 78
     2
 67
     7
 79
     5
170
     0
171
     0
290
     0
174
     0
 93
        1
 44
0.0
173
     0
291
     1
 45
0.0
1001
ACAD
1000
AcDbSavedByObjectVersion
1070
     0
  0
VISUALSTYLE
  5
34
102
{ACAD_REACTORS
330
2A
102
}
102
{ACAD_XDICTIONARY
360
FE
102
}
330
2A
100
AcDbVisualStyle
  2
Conceptual
 70
     9
 71
     3
 72
     2
 73
     0
 90
        0
 40
-0.6
 41
-30.0
 62
     5
 63
     7
421
 16777215
 74
     2
 91
        2
 64
     7
 65
   257
 75
     1
175
     1
 42
40.0
 92
        8
 66
     7
 43
1.0
 76
     1
 77
     6
 78
     2
 67
     7
 79
     3
170
     0
171
     0
290
     0
174
     0
 93
        1
 44
0.0
173
     0
291
     0
 45
0.0
1001
ACAD
1000
AcDbSavedByObjectVersion
1070
     0
  0
VISUALSTYLE
  5
35
102
{ACAD_REACTORS
330
2A
102
}
102
{ACAD_XDICTIONARY
360
100
102
}
330
2A
100
AcDbVisualStyle
  2
Dim
 70
    11
 71
     2
 72
     2
 73
     0
 90
        0
 40
-0.6
 41
-30.0
 62
     5
 63
     7
421
 16777215
 74
     1
 91
        4
 64
     7
 65
   257
 75
     1
175
     1
 42
1.0
 92
        8
 66
     7
 43
1.0
 76
     1
 77
     6
 78
     2
 67
     7
 79
     5
170
     0
171
     0
290
     0
174
     0
 93
        1
 44
-50.0
173
     0
291
     1
 45
0.0
1001
ACAD
1000
AcDbSavedByObjectVersion
1070
     0
  0
VISUALSTYLE
  5
39
102
{ACAD_REACTORS
330
2A
102
}
102
{ACAD_XDICTIONARY
360
108
102
}
330
2A
100
AcDbVisualStyle
  2
Facepattern
 70
    15
 71
     2
 72
     2
 73
     0
 90
        0
 40
-0.6
 41
-30.0
 62
     5
 63
     7
421
 16777215
 74
     1
 91
        4
 64
     7
 65
   257
 75
     1
175
     1
 42
1.0
 92
        8
 66
     7
 43
1.0
 76
     1
 77
     6
 78
     2
 67
     7
 79
     5
170
     0
171
     0
290
     0
174
     0
 93
        1
 44
0.0
173
     0
291
     1
 45
0.0
1001
ACAD
1000
AcDbSavedByObjectVersion
1070
     0
  0
VISUALSTYLE
  5
2B
102
{ACAD_REACTORS
330
2A
102
}
102
{ACAD_XDICTIONARY
360
EC
102
}
330
2A
100
AcDbVisualStyle
  2
Flat
 70
     0
 71
     2
 72
     1
 73
     1
 90
        2
 40
-0.6
 41
30.0
 62
     5
 63
     7
421
 16777215
 74
     0
 91
        4
 64
     7
 65
   257
 75
     1
175
     1
 42
1.0
 92
        8
 66
     7
 43
1.0
 76
     1
 77
     6
 78
     2
 67
     7
 79
     5
170
     0
171
     0
290
     0
174
     0
 93
       13
 44
0.0
173
     0
291
     1
 45
0.0
1001
ACAD
1000
AcDbSavedByObjectVersion
1070
     0
  0
VISUALSTYLE
  5
2C
102
{ACAD_REACTORS
330
2A
102
}
102
{ACAD_XDICTIONARY
360
EE
102
}
330
2A
100
AcDbVisualStyle
  2
FlatWithEdges
 70
     1
 71
     2
 72
     1
 73
     1
 90
        2
 40
-0.6
 41
30.0
 62
     5
 63
     7
421
 16777215
 74
     1
 91
        4
 64
     7
 65
   257
 75
     1
175
     1
 42
1.0
 92
        0
 66
   257
 43
1.0
 76
     1
 77
     6
 78
     2
 67
     7
 79
     5
170
     0
171
     0
290
     0
174
     0
 93
       13
 44
0.0
173
     0
291
     1
 45
0.0
1001
ACAD
1000
AcDbSavedByObjectVersion
1070
     0
  0
VISUALSTYLE
  5
2D
102
{ACAD_REACTORS
330
2A
102
}
102
{ACAD_XDICTIONARY
360
F0
102
}
330
2A
100
AcDbVisualStyle
  2
Gouraud
 70
     2
 71
     2
 72
     2
 73
     1
 90
        2
 40
-0.6
 41
30.0
 62
     5
 63
     7
421
 16777215
 74
     0
 91
        4
 64
     7
 65
   257
 75
     1
175
     1
 42
1.0
 92
        0
 66
     7
 43
1.0
 76
     1
 77
     6
 78
     2
 67
     7
 79
     5
170
     0
171
     0
290
     0
174
     0
 93
       13
 44
0.0
173
     0
291
     1
 45
0.0
1001
ACAD
1000
AcDbSavedByObjectVersion
1070
     0
  0
VISUALSTYLE
  5
2E
102
{ACAD_REACTORS
330
2A
102
}
102
{ACAD_XDICTIONARY
360
F2
102
}
330
2A
100
AcDbVisualStyle
  2
GouraudWithEdges
 70
     3
 71
     2
 72
     2
 73
     1
 90
        2
 40
-0.6
 41
30.0
 62
     5
 63
     7
421
 16777215
 74
     1
 91
        4
 64
     7
 65
   257
 75
     1
175
     1
 42
1.0
 92
        0
 66
   257
 43
1.0
 76
     1
 77
     6
 78
     2
 67
     7
 79
     5
170
     0
171
     0
290
     0
174
     0
 93
       13
 44
0.0
173
     0
291
     1
 45
0.0
1001
ACAD
1000
AcDbSavedByObjectVersion
1070
     0
  0
VISUALSTYLE
  5
38
102
{ACAD_REACTORS
330
2A
102
}
102
{ACAD_XDICTIONARY
360
106
102
}
330
2A
100
AcDbVisualStyle
  2
Linepattern
 70
    14
 71
     2
 72
     2
 73
     0
 90
        0
 40
-0.6
 41
-30.0
 62
     5
 63
     7
421
 16777215
 74
     1
 91
        4
 64
     7
 65
   257
 75
     7
175
     7
 42
1.0
 92
        8
 66
     7
 43
1.0
 76
     1
 77
     6
 78
     2
 67
     7
 79
     5
170
     0
171
     0
290
     0
174
     0
 93
        1
 44
0.0
173
     0
291
     1
 45
0.0
1001
ACAD
1000
AcDbSavedByObjectVersion
1070
     0
  0
VISUALSTYLE
  5
33
102
{ACAD_REACTORS
330
2A
102
}
102
{ACAD_XDICTIONARY
360
FC
102
}
330
2A
100
AcDbVisualStyle
  2
Realistic
 70
     8
 71
     2
 72
     2
 73
     0
 90
        0
 40
-0.6
 41
-30.0
 62
     5
 63
     7
421
 16777215
 74
     1
 91
        0
 64
     7
 65
   257
 75
     1
175
     1
 42
1.0
 92
        8
 66
     8
424
  7895160
 43
1.0
 76
     1
 77
     6
 78
     2
 67
     7
 79
     5
170
     0
171
     0
290
     0
174
     0
 93
       13
 44
0.0
173
     0
291
     0
 45
0.0
1001
ACAD
1000
AcDbSavedByObjectVersion
1070
     0
  0
VISUALSTYLE
  5
37
102
{ACAD_REACTORS
330
2A
102
}
102
{ACAD_XDICTIONARY
360
104
102
}
330
2A
100
AcDbVisualStyle
  2
Thicken
 70
    13
 71
     2
 72
     2
 73
     0
 90
        0
 40
-0.6
 41
-30.0
 62
     5
 63
     7
421
 16777215
 74
     1
 91
        4
 64
     7
 65
   257
 75
     1
175
     1
 42
1.0
 92
       12
 66
     7
 43
1.0
 76
     1
 77
     6
 78
     2
 67
     7
 79
     5
170
     0
171
     0
290
     0
174
     0
 93
        1
 44
0.0
173
     0
291
     1
 45
0.0
1001
ACAD
1000
AcDbSavedByObjectVersion
1070
     0
  0
DICTIONARY
  5
10E
330
3D
100
AcDbDictionary
280
     1
281
     1
  3
ACAD_XREC_ROUNDTRIP
360
10F
  0
DICTIONARY
  5
10C
330
3C
100
AcDbDictionary
280
     1
281
     1
  3
ACAD_XREC_ROUNDTRIP
360
10D
  0
DICTIONARY
  5
110
330
3E
100
AcDbDictionary
280
     1
281
     1
  3
ACAD_XREC_ROUNDTRIP
360
111
  0
DICTIONARY
  5
F4
330
2F
100
AcDbDictionary
280
     1
281
     1
  3
ACAD_XREC_ROUNDTRIP
360
F5
  0
DICTIONARY
  5
F8
330
31
100
AcDbDictionary
280
     1
281
     1
  3
ACAD_XREC_ROUNDTRIP
360
F9
  0
DICTIONARY
  5
F6
330
30
100
AcDbDictionary
280
     1
281
     1
  3
ACAD_XREC_ROUNDTRIP
360
F7
  0
DICTIONARY
  5
FA
330
32
100
AcDbDictionary
280
     1
281
     1
  3
ACAD_XREC_ROUNDTRIP
360
FB
  0
DICTIONARY
  5
102
330
36
100
AcDbDictionary
280
     1
281
     1
  3
ACAD_XREC_ROUNDTRIP
360
103
  0
DICTIONARY
  5
10A
330
3A
100
AcDbDictionary
280
     1
281
     1
  3
ACAD_XREC_ROUNDTRIP
360
10B
  0
DICTIONARY
  5
FE
330
34
100
AcDbDictionary
280
     1
281
     1
  3
ACAD_XREC_ROUNDTRIP
360
FF
  0
DICTIONARY
  5
100
330
35
100
AcDbDictionary
280
     1
281
     1
  3
ACAD_XREC_ROUNDTRIP
360
101
  0
DICTIONARY
  5
108
330
39
100
AcDbDictionary
280
     1
281
     1
  3
ACAD_XREC_ROUNDTRIP
360
109
  0
DICTIONARY
  5
EC
330
2B
100
AcDbDictionary
280
     1
281
     1
  3
ACAD_XREC_ROUNDTRIP
360
ED
  0
DICTIONARY
  5
EE
330
2C
100
AcDbDictionary
280
     1
281
     1
  3
ACAD_XREC_ROUNDTRIP
360
EF
  0
DICTIONARY
  5
F0
330
2D
100
AcDbDictionary
280
     1
281
     1
  3
ACAD_XREC_ROUNDTRIP
360
F1
  0
DICTIONARY
  5
F2
330
2E
100
AcDbDictionary
280
     1
281
     1
  3
ACAD_XREC_ROUNDTRIP
360
F3
  0
DICTIONARY
  5
106
330
38
100
AcDbDictionary
280
     1
281
     1
  3
ACAD_XREC_ROUNDTRIP
360
107
  0
DICTIONARY
  5
FC
330
33
100
AcDbDictionary
280
     1
281
     1
  3
ACAD_XREC_ROUNDTRIP
360
FD
  0
DICTIONARY
  5
104
330
37
100
AcDbDictionary
280
     1
281
     1
  3
ACAD_XREC_ROUNDTRIP
360
105
  0
XRECORD
  5
10F
102
{ACAD_REACTORS
330
10E
102
}
330
10E
100
AcDbXrecord
280
     1
102
MATERIAL
148
0.0
149
0.0
149
0.0
 93
        0
 94
      127
282
     0
 72
     1
 77
     1
171
     1
175
     1
179
     1
273
     0
  0
XRECORD
  5
10D
102
{ACAD_REACTORS
330
10C
102
}
330
10C
100
AcDbXrecord
280
     1
102
MATERIAL
148
0.0
149
0.0
149
0.0
 93
        0
 94
      127
282
     0
 72
     1
 77
     1
171
     1
175
     1
179
     1
273
     0
  0
XRECORD
  5
111
102
{ACAD_REACTORS
330
110
102
}
330
110
100
AcDbXrecord
280
     1
102
MATERIAL
148
0.0
149
0.0
149
0.0
 93
        0
 94
      127
282
     0
 72
     1
 77
     1
171
     1
175
     1
179
     1
273
     0
  0
XRECORD
  5
F5
102
{ACAD_REACTORS
330
F4
102
}
330
F4
100
AcDbXrecord
280
     1
102
RTVSPropertyOp0
 70
     1
102
RTVSPropertyOp1
 70
     1
102
RTVSPropertyOp2
 70
     1
102
RTVSPropertyOp3
 70
     1
102
RTVSPropertyOp4
 70
     1
102
RTVSPropertyOp5
 70
     1
102
RTVSPropertyOp6
 70
     1
102
RTVSPropertyOp7
 70
     1
102
RTVSPropertyOp8
 70
     1
102
RTVSPropertyOp9
 70
     1
102
RTVSPropertyOp10
 70
     1
102
RTVSPropertyOp11
 70
     1
102
RTVSPropertyOp12
 70
     1
102
RTVSPropertyOp13
 70
     1
102
RTVSPropertyOp14
 70
     1
102
RTVSPropertyOp15
 70
     1
102
RTVSPropertyOp16
 70
     1
102
RTVSPropertyOp17
 70
     1
102
RTVSPropertyOp18
 70
     1
102
RTVSPropertyOp19
 70
     1
102
RTVSPropertyOp20
 70
     1
102
RTVSPropertyOp21
 70
     1
102
RTVSPropertyOp22
 70
     1
102
RTVSPropertyOp23
 70
     1
102
RTVSPropertyOp24
 70
     1
102
RTVSPropertyOp25
 70
     1
102
RTVSPropertyOp26
 70
     1
102
RTVSPropertyOp27
 70
     1
102
RTVSPropertyOp28
 70
     1
102
RTVSPropertyOp29
 70
     1
102
RTVSPropertyOp30
 70
     1
102
RTVSPropertyOp31
 70
     1
102
RTVSPropertyOp32
 70
     1
  0
XRECORD
  5
F9
102
{ACAD_REACTORS
330
F8
102
}
330
F8
100
AcDbXrecord
280
     1
102
RTVSPropertyOp0
 70
     1
102
RTVSPropertyOp1
 70
     1
102
RTVSPropertyOp2
 70
     1
102
RTVSPropertyOp3
 70
     1
102
RTVSPropertyOp4
 70
     1
102
RTVSPropertyOp5
 70
     1
102
RTVSPropertyOp6
 70
     1
102
RTVSPropertyOp7
 70
     1
102
RTVSPropertyOp8
 70
     1
102
RTVSPropertyOp9
 70
     1
102
RTVSPropertyOp10
 70
     1
102
RTVSPropertyOp11
 70
     1
102
RTVSPropertyOp12
 70
     1
102
RTVSPropertyOp13
 70
     1
102
RTVSPropertyOp14
 70
     1
102
RTVSPropertyOp15
 70
     1
102
RTVSPropertyOp16
 70
     1
102
RTVSPropertyOp17
 70
     1
102
RTVSPropertyOp18
 70
     1
102
RTVSPropertyOp19
 70
     1
102
RTVSPropertyOp20
 70
     1
102
RTVSPropertyOp21
 70
     1
102
RTVSPropertyOp22
 70
     1
102
RTVSPropertyOp23
 70
     1
102
RTVSPropertyOp24
 70
     1
102
RTVSPropertyOp25
 70
     1
102
RTVSPropertyOp26
 70
     1
102
RTVSPropertyOp27
 70
     1
102
RTVSPropertyOp28
 70
     1
102
RTVSPropertyOp29
 70
     1
102
RTVSPropertyOp30
 70
     1
102
RTVSPropertyOp31
 70
     1
102
RTVSPropertyOp32
 70
     1
  0
XRECORD
  5
F7
102
{ACAD_REACTORS
330
F6
102
}
330
F6
100
AcDbXrecord
280
     1
102
RTVSPropertyOp0
 70
     1
102
RTVSPropertyOp1
 70
     1
102
RTVSPropertyOp2
 70
     1
102
RTVSPropertyOp3
 70
     1
102
RTVSPropertyOp4
 70
     1
102
RTVSPropertyOp5
 70
     1
102
RTVSPropertyOp6
 70
     1
102
RTVSPropertyOp7
 70
     1
102
RTVSPropertyOp8
 70
     1
102
RTVSPropertyOp9
 70
     1
102
RTVSPropertyOp10
 70
     1
102
RTVSPropertyOp11
 70
     1
102
RTVSPropertyOp12
 70
     1
102
RTVSPropertyOp13
 70
     1
102
RTVSPropertyOp14
 70
     1
102
RTVSPropertyOp15
 70
     1
102
RTVSPropertyOp16
 70
     1
102
RTVSPropertyOp17
 70
     1
102
RTVSPropertyOp18
 70
     1
102
RTVSPropertyOp19
 70
     1
102
RTVSPropertyOp20
 70
     1
102
RTVSPropertyOp21
 70
     1
102
RTVSPropertyOp22
 70
     1
102
RTVSPropertyOp23
 70
     1
102
RTVSPropertyOp24
 70
     1
102
RTVSPropertyOp25
 70
     1
102
RTVSPropertyOp26
 70
     1
102
RTVSPropertyOp27
 70
     1
102
RTVSPropertyOp28
 70
     1
102
RTVSPropertyOp29
 70
     1
102
RTVSPropertyOp30
 70
     1
102
RTVSPropertyOp31
 70
     1
102
RTVSPropertyOp32
 70
     1
  0
XRECORD
  5
FB
102
{ACAD_REACTORS
330
FA
102
}
330
FA
100
AcDbXrecord
280
     1
102
RTVSPropertyOp0
 70
     1
102
RTVSPropertyOp1
 70
     1
102
RTVSPropertyOp2
 70
     1
102
RTVSPropertyOp3
 70
     1
102
RTVSPropertyOp4
 70
     1
102
RTVSPropertyOp5
 70
     1
102
RTVSPropertyOp6
 70
     1
102
RTVSPropertyOp7
 70
     1
102
RTVSPropertyOp8
 70
     1
102
RTVSPropertyOp9
 70
     1
102
RTVSPropertyOp10
 70
     1
102
RTVSPropertyOp11
 70
     1
102
RTVSPropertyOp12
 70
     1
102
RTVSPropertyOp13
 70
     1
102
RTVSPropertyOp14
 70
     1
102
RTVSPropertyOp15
 70
     1
102
RTVSPropertyOp16
 70
     1
102
RTVSPropertyOp17
 70
     1
102
RTVSPropertyOp18
 70
     1
102
RTVSPropertyOp19
 70
     1
102
RTVSPropertyOp20
 70
     1
102
RTVSPropertyOp21
 70
     1
102
RTVSPropertyOp22
 70
     1
102
RTVSPropertyOp23
 70
     1
102
RTVSPropertyOp24
 70
     1
102
RTVSPropertyOp25
 70
     1
102
RTVSPropertyOp26
 70
     1
102
RTVSPropertyOp27
 70
     1
102
RTVSPropertyOp28
 70
     1
102
RTVSPropertyOp29
 70
     1
102
RTVSPropertyOp30
 70
     1
102
RTVSPropertyOp31
 70
     1
102
RTVSPropertyOp32
 70
     1
  0
XRECORD
  5
103
102
{ACAD_REACTORS
330
102
102
}
330
102
100
AcDbXrecord
280
     1
102
RTVSPropertyOp0
 70
     1
102
RTVSPropertyOp1
 70
     1
102
RTVSPropertyOp2
 70
     1
102
RTVSPropertyOp3
 70
     1
102
RTVSPropertyOp4
 70
     1
102
RTVSPropertyOp5
 70
     1
102
RTVSPropertyOp6
 70
     1
102
RTVSPropertyOp7
 70
     1
102
RTVSPropertyOp8
 70
     1
102
RTVSPropertyOp9
 70
     1
102
RTVSPropertyOp10
 70
     1
102
RTVSPropertyOp11
 70
     1
102
RTVSPropertyOp12
 70
     1
102
RTVSPropertyOp13
 70
     1
102
RTVSPropertyOp14
 70
     1
102
RTVSPropertyOp15
 70
     1
102
RTVSPropertyOp16
 70
     1
102
RTVSPropertyOp17
 70
     1
102
RTVSPropertyOp18
 70
     1
102
RTVSPropertyOp19
 70
     1
102
RTVSPropertyOp20
 70
     1
102
RTVSPropertyOp21
 70
     1
102
RTVSPropertyOp22
 70
     1
102
RTVSPropertyOp23
 70
     1
102
RTVSPropertyOp24
 70
     1
102
RTVSPropertyOp25
 70
     1
102
RTVSPropertyOp26
 70
     1
102
RTVSPropertyOp27
 70
     1
102
RTVSPropertyOp28
 70
     1
102
RTVSPropertyOp29
 70
     1
102
RTVSPropertyOp30
 70
     1
102
RTVSPropertyOp31
 70
     1
102
RTVSPropertyOp32
 70
     1
  0
XRECORD
  5
10B
102
{ACAD_REACTORS
330
10A
102
}
330
10A
100
AcDbXrecord
280
     1
102
RTVSPropertyOp0
 70
     1
102
RTVSPropertyOp1
 70
     1
102
RTVSPropertyOp2
 70
     1
102
RTVSPropertyOp3
 70
     1
102
RTVSPropertyOp4
 70
     1
102
RTVSPropertyOp5
 70
     1
102
RTVSPropertyOp6
 70
     1
102
RTVSPropertyOp7
 70
     1
102
RTVSPropertyOp8
 70
     1
102
RTVSPropertyOp9
 70
     1
102
RTVSPropertyOp10
 70
     1
102
RTVSPropertyOp11
 70
     1
102
RTVSPropertyOp12
 70
     1
102
RTVSPropertyOp13
 70
     1
102
RTVSPropertyOp14
 70
     1
102
RTVSPropertyOp15
 70
     1
102
RTVSPropertyOp16
 70
     1
102
RTVSPropertyOp17
 70
     1
102
RTVSPropertyOp18
 70
     1
102
RTVSPropertyOp19
 70
     1
102
RTVSPropertyOp20
 70
     1
102
RTVSPropertyOp21
 70
     1
102
RTVSPropertyOp22
 70
     1
102
RTVSPropertyOp23
 70
     1
102
RTVSPropertyOp24
 70
     1
102
RTVSPropertyOp25
 70
     1
102
RTVSPropertyOp26
 70
     1
102
RTVSPropertyOp27
 70
     1
102
RTVSPropertyOp28
 70
     1
102
RTVSPropertyOp29
 70
     1
102
RTVSPropertyOp30
 70
     1
102
RTVSPropertyOp31
 70
     1
102
RTVSPropertyOp32
 70
     1
  0
XRECORD
  5
FF
102
{ACAD_REACTORS
330
FE
102
}
330
FE
100
AcDbXrecord
280
     1
102
RTVSPropertyOp0
 70
     1
102
RTVSPropertyOp1
 70
     1
102
RTVSPropertyOp2
 70
     1
102
RTVSPropertyOp3
 70
     1
102
RTVSPropertyOp4
 70
     1
102
RTVSPropertyOp5
 70
     1
102
RTVSPropertyOp6
 70
     1
102
RTVSPropertyOp7
 70
     1
102
RTVSPropertyOp8
 70
     1
102
RTVSPropertyOp9
 70
     1
102
RTVSPropertyOp10
 70
     1
102
RTVSPropertyOp11
 70
     1
102
RTVSPropertyOp12
 70
     1
102
RTVSPropertyOp13
 70
     1
102
RTVSPropertyOp14
 70
     1
102
RTVSPropertyOp15
 70
     1
102
RTVSPropertyOp16
 70
     1
102
RTVSPropertyOp17
 70
     1
102
RTVSPropertyOp18
 70
     1
102
RTVSPropertyOp19
 70
     1
102
RTVSPropertyOp20
 70
     1
102
RTVSPropertyOp21
 70
     1
102
RTVSPropertyOp22
 70
     1
102
RTVSPropertyOp23
 70
     1
102
RTVSPropertyOp24
 70
     1
102
RTVSPropertyOp25
 70
     1
102
RTVSPropertyOp26
 70
     1
102
RTVSPropertyOp27
 70
     1
102
RTVSPropertyOp28
 70
     1
102
RTVSPropertyOp29
 70
     1
102
RTVSPropertyOp30
 70
     1
102
RTVSPropertyOp31
 70
     1
102
RTVSPropertyOp32
 70
     1
  0
XRECORD
  5
101
102
{ACAD_REACTORS
330
100
102
}
330
100
100
AcDbXrecord
280
     1
102
RTVSPropertyOp0
 70
     1
102
RTVSPropertyOp1
 70
     1
102
RTVSPropertyOp2
 70
     1
102
RTVSPropertyOp3
 70
     1
102
RTVSPropertyOp4
 70
     1
102
RTVSPropertyOp5
 70
     1
102
RTVSPropertyOp6
 70
     1
102
RTVSPropertyOp7
 70
     1
102
RTVSPropertyOp8
 70
     1
102
RTVSPropertyOp9
 70
     1
102
RTVSPropertyOp10
 70
     1
102
RTVSPropertyOp11
 70
     1
102
RTVSPropertyOp12
 70
     1
102
RTVSPropertyOp13
 70
     1
102
RTVSPropertyOp14
 70
     1
102
RTVSPropertyOp15
 70
     1
102
RTVSPropertyOp16
 70
     1
102
RTVSPropertyOp17
 70
     1
102
RTVSPropertyOp18
 70
     1
102
RTVSPropertyOp19
 70
     1
102
RTVSPropertyOp20
 70
     1
102
RTVSPropertyOp21
 70
     1
102
RTVSPropertyOp22
 70
     1
102
RTVSPropertyOp23
 70
     1
102
RTVSPropertyOp24
 70
     1
102
RTVSPropertyOp25
 70
     1
102
RTVSPropertyOp26
 70
     1
102
RTVSPropertyOp27
 70
     1
102
RTVSPropertyOp28
 70
     1
102
RTVSPropertyOp29
 70
     1
102
RTVSPropertyOp30
 70
     1
102
RTVSPropertyOp31
 70
     1
102
RTVSPropertyOp32
 70
     1
  0
XRECORD
  5
109
102
{ACAD_REACTORS
330
108
102
}
330
108
100
AcDbXrecord
280
     1
102
RTVSPropertyOp0
 70
     1
102
RTVSPropertyOp1
 70
     1
102
RTVSPropertyOp2
 70
     1
102
RTVSPropertyOp3
 70
     1
102
RTVSPropertyOp4
 70
     1
102
RTVSPropertyOp5
 70
     1
102
RTVSPropertyOp6
 70
     1
102
RTVSPropertyOp7
 70
     1
102
RTVSPropertyOp8
 70
     1
102
RTVSPropertyOp9
 70
     1
102
RTVSPropertyOp10
 70
     1
102
RTVSPropertyOp11
 70
     1
102
RTVSPropertyOp12
 70
     1
102
RTVSPropertyOp13
 70
     1
102
RTVSPropertyOp14
 70
     1
102
RTVSPropertyOp15
 70
     1
102
RTVSPropertyOp16
 70
     1
102
RTVSPropertyOp17
 70
     1
102
RTVSPropertyOp18
 70
     1
102
RTVSPropertyOp19
 70
     1
102
RTVSPropertyOp20
 70
     1
102
RTVSPropertyOp21
 70
     1
102
RTVSPropertyOp22
 70
     1
102
RTVSPropertyOp23
 70
     1
102
RTVSPropertyOp24
 70
     1
102
RTVSPropertyOp25
 70
     1
102
RTVSPropertyOp26
 70
     1
102
RTVSPropertyOp27
 70
     1
102
RTVSPropertyOp28
 70
     1
102
RTVSPropertyOp29
 70
     1
102
RTVSPropertyOp30
 70
     1
102
RTVSPropertyOp31
 70
     1
102
RTVSPropertyOp32
 70
     1
  0
XRECORD
  5
ED
102
{ACAD_REACTORS
330
EC
102
}
330
EC
100
AcDbXrecord
280
     1
102
RTVSPropertyOp0
 70
     1
102
RTVSPropertyOp1
 70
     1
102
RTVSPropertyOp2
 70
     1
102
RTVSPropertyOp3
 70
     1
102
RTVSPropertyOp4
 70
     1
102
RTVSPropertyOp5
 70
     1
102
RTVSPropertyOp6
 70
     1
102
RTVSPropertyOp7
 70
     1
102
RTVSPropertyOp8
 70
     1
102
RTVSPropertyOp9
 70
     1
102
RTVSPropertyOp10
 70
     1
102
RTVSPropertyOp11
 70
     1
102
RTVSPropertyOp12
 70
     1
102
RTVSPropertyOp13
 70
     1
102
RTVSPropertyOp14
 70
     1
102
RTVSPropertyOp15
 70
     1
102
RTVSPropertyOp16
 70
     1
102
RTVSPropertyOp17
 70
     1
102
RTVSPropertyOp18
 70
     1
102
RTVSPropertyOp19
 70
     1
102
RTVSPropertyOp20
 70
     1
102
RTVSPropertyOp21
 70
     1
102
RTVSPropertyOp22
 70
     1
102
RTVSPropertyOp23
 70
     1
102
RTVSPropertyOp24
 70
     1
102
RTVSPropertyOp25
 70
     1
102
RTVSPropertyOp26
 70
     1
102
RTVSPropertyOp27
 70
     1
102
RTVSPropertyOp28
 70
     1
102
RTVSPropertyOp29
 70
     1
102
RTVSPropertyOp30
 70
     1
102
RTVSPropertyOp31
 70
     1
102
RTVSPropertyOp32
 70
     1
  0
XRECORD
  5
EF
102
{ACAD_REACTORS
330
EE
102
}
330
EE
100
AcDbXrecord
280
     1
102
RTVSPropertyOp0
 70
     1
102
RTVSPropertyOp1
 70
     1
102
RTVSPropertyOp2
 70
     1
102
RTVSPropertyOp3
 70
     1
102
RTVSPropertyOp4
 70
     1
102
RTVSPropertyOp5
 70
     1
102
RTVSPropertyOp6
 70
     1
102
RTVSPropertyOp7
 70
     1
102
RTVSPropertyOp8
 70
     1
102
RTVSPropertyOp9
 70
     1
102
RTVSPropertyOp10
 70
     1
102
RTVSPropertyOp11
 70
     1
102
RTVSPropertyOp12
 70
     1
102
RTVSPropertyOp13
 70
     1
102
RTVSPropertyOp14
 70
     1
102
RTVSPropertyOp15
 70
     1
102
RTVSPropertyOp16
 70
     1
102
RTVSPropertyOp17
 70
     1
102
RTVSPropertyOp18
 70
     1
102
RTVSPropertyOp19
 70
     1
102
RTVSPropertyOp20
 70
     1
102
RTVSPropertyOp21
 70
     1
102
RTVSPropertyOp22
 70
     1
102
RTVSPropertyOp23
 70
     1
102
RTVSPropertyOp24
 70
     1
102
RTVSPropertyOp25
 70
     1
102
RTVSPropertyOp26
 70
     1
102
RTVSPropertyOp27
 70
     1
102
RTVSPropertyOp28
 70
     1
102
RTVSPropertyOp29
 70
     1
102
RTVSPropertyOp30
 70
     1
102
RTVSPropertyOp31
 70
     1
102
RTVSPropertyOp32
 70
     1
  0
XRECORD
  5
F1
102
{ACAD_REACTORS
330
F0
102
}
330
F0
100
AcDbXrecord
280
     1
102
RTVSPropertyOp0
 70
     1
102
RTVSPropertyOp1
 70
     1
102
RTVSPropertyOp2
 70
     1
102
RTVSPropertyOp3
 70
     1
102
RTVSPropertyOp4
 70
     1
102
RTVSPropertyOp5
 70
     1
102
RTVSPropertyOp6
 70
     1
102
RTVSPropertyOp7
 70
     1
102
RTVSPropertyOp8
 70
     1
102
RTVSPropertyOp9
 70
     1
102
RTVSPropertyOp10
 70
     1
102
RTVSPropertyOp11
 70
     1
102
RTVSPropertyOp12
 70
     1
102
RTVSPropertyOp13
 70
     1
102
RTVSPropertyOp14
 70
     1
102
RTVSPropertyOp15
 70
     1
102
RTVSPropertyOp16
 70
     1
102
RTVSPropertyOp17
 70
     1
102
RTVSPropertyOp18
 70
     1
102
RTVSPropertyOp19
 70
     1
102
RTVSPropertyOp20
 70
     1
102
RTVSPropertyOp21
 70
     1
102
RTVSPropertyOp22
 70
     1
102
RTVSPropertyOp23
 70
     1
102
RTVSPropertyOp24
 70
     1
102
RTVSPropertyOp25
 70
     1
102
RTVSPropertyOp26
 70
     1
102
RTVSPropertyOp27
 70
     1
102
RTVSPropertyOp28
 70
     1
102
RTVSPropertyOp29
 70
     1
102
RTVSPropertyOp30
 70
     1
102
RTVSPropertyOp31
 70
     1
102
RTVSPropertyOp32
 70
     1
  0
XRECORD
  5
F3
102
{ACAD_REACTORS
330
F2
102
}
330
F2
100
AcDbXrecord
280
     1
102
RTVSPropertyOp0
 70
     1
102
RTVSPropertyOp1
 70
     1
102
RTVSPropertyOp2
 70
     1
102
RTVSPropertyOp3
 70
     1
102
RTVSPropertyOp4
 70
     1
102
RTVSPropertyOp5
 70
     1
102
RTVSPropertyOp6
 70
     1
102
RTVSPropertyOp7
 70
     1
102
RTVSPropertyOp8
 70
     1
102
RTVSPropertyOp9
 70
     1
102
RTVSPropertyOp10
 70
     1
102
RTVSPropertyOp11
 70
     1
102
RTVSPropertyOp12
 70
     1
102
RTVSPropertyOp13
 70
     1
102
RTVSPropertyOp14
 70
     1
102
RTVSPropertyOp15
 70
     1
102
RTVSPropertyOp16
 70
     1
102
RTVSPropertyOp17
 70
     1
102
RTVSPropertyOp18
 70
     1
102
RTVSPropertyOp19
 70
     1
102
RTVSPropertyOp20
 70
     1
102
RTVSPropertyOp21
 70
     1
102
RTVSPropertyOp22
 70
     1
102
RTVSPropertyOp23
 70
     1
102
RTVSPropertyOp24
 70
     1
102
RTVSPropertyOp25
 70
     1
102
RTVSPropertyOp26
 70
     1
102
RTVSPropertyOp27
 70
     1
102
RTVSPropertyOp28
 70
     1
102
RTVSPropertyOp29
 70
     1
102
RTVSPropertyOp30
 70
     1
102
RTVSPropertyOp31
 70
     1
102
RTVSPropertyOp32
 70
     1
  0
XRECORD
  5
107
102
{ACAD_REACTORS
330
106
102
}
330
106
100
AcDbXrecord
280
     1
102
RTVSPropertyOp0
 70
     1
102
RTVSPropertyOp1
 70
     1
102
RTVSPropertyOp2
 70
     1
102
RTVSPropertyOp3
 70
     1
102
RTVSPropertyOp4
 70
     1
102
RTVSPropertyOp5
 70
     1
102
RTVSPropertyOp6
 70
     1
102
RTVSPropertyOp7
 70
     1
102
RTVSPropertyOp8
 70
     1
102
RTVSPropertyOp9
 70
     1
102
RTVSPropertyOp10
 70
     1
102
RTVSPropertyOp11
 70
     1
102
RTVSPropertyOp12
 70
     1
102
RTVSPropertyOp13
 70
     1
102
RTVSPropertyOp14
 70
     1
102
RTVSPropertyOp15
 70
     1
102
RTVSPropertyOp16
 70
     1
102
RTVSPropertyOp17
 70
     1
102
RTVSPropertyOp18
 70
     1
102
RTVSPropertyOp19
 70
     1
102
RTVSPropertyOp20
 70
     1
102
RTVSPropertyOp21
 70
     1
102
RTVSPropertyOp22
 70
     1
102
RTVSPropertyOp23
 70
     1
102
RTVSPropertyOp24
 70
     1
102
RTVSPropertyOp25
 70
     1
102
RTVSPropertyOp26
 70
     1
102
RTVSPropertyOp27
 70
     1
102
RTVSPropertyOp28
 70
     1
102
RTVSPropertyOp29
 70
     1
102
RTVSPropertyOp30
 70
     1
102
RTVSPropertyOp31
 70
     1
102
RTVSPropertyOp32
 70
     1
  0
XRECORD
  5
FD
102
{ACAD_REACTORS
330
FC
102
}
330
FC
100
AcDbXrecord
280
     1
102
RTVSPropertyOp0
 70
     1
102
RTVSPropertyOp1
 70
     1
102
RTVSPropertyOp2
 70
     1
102
RTVSPropertyOp3
 70
     1
102
RTVSPropertyOp4
 70
     1
102
RTVSPropertyOp5
 70
     1
102
RTVSPropertyOp6
 70
     1
102
RTVSPropertyOp7
 70
     1
102
RTVSPropertyOp8
 70
     1
102
RTVSPropertyOp9
 70
     1
102
RTVSPropertyOp10
 70
     1
102
RTVSPropertyOp11
 70
     1
102
RTVSPropertyOp12
 70
     1
102
RTVSPropertyOp13
 70
     1
102
RTVSPropertyOp14
 70
     1
102
RTVSPropertyOp15
 70
     1
102
RTVSPropertyOp16
 70
     1
102
RTVSPropertyOp17
 70
     1
102
RTVSPropertyOp18
 70
     1
102
RTVSPropertyOp19
 70
     1
102
RTVSPropertyOp20
 70
     1
102
RTVSPropertyOp21
 70
     1
102
RTVSPropertyOp22
 70
     1
102
RTVSPropertyOp23
 70
     1
102
RTVSPropertyOp24
 70
     1
102
RTVSPropertyOp25
 70
     1
102
RTVSPropertyOp26
 70
     1
102
RTVSPropertyOp27
 70
     1
102
RTVSPropertyOp28
 70
     1
102
RTVSPropertyOp29
 70
     1
102
RTVSPropertyOp30
 70
     1
102
RTVSPropertyOp31
 70
     1
102
RTVSPropertyOp32
 70
     1
  0
XRECORD
  5
105
102
{ACAD_REACTORS
330
104
102
}
330
104
100
AcDbXrecord
280
     1
102
RTVSPropertyOp0
 70
     1
102
RTVSPropertyOp1
 70
     1
102
RTVSPropertyOp2
 70
     1
102
RTVSPropertyOp3
 70
     1
102
RTVSPropertyOp4
 70
     1
102
RTVSPropertyOp5
 70
     1
102
RTVSPropertyOp6
 70
     1
102
RTVSPropertyOp7
 70
     1
102
RTVSPropertyOp8
 70
     1
102
RTVSPropertyOp9
 70
     1
102
RTVSPropertyOp10
 70
     1
102
RTVSPropertyOp11
 70
     1
102
RTVSPropertyOp12
 70
     1
102
RTVSPropertyOp13
 70
     1
102
RTVSPropertyOp14
 70
     1
102
RTVSPropertyOp15
 70
     1
102
RTVSPropertyOp16
 70
     1
102
RTVSPropertyOp17
 70
     1
102
RTVSPropertyOp18
 70
     1
102
RTVSPropertyOp19
 70
     1
102
RTVSPropertyOp20
 70
     1
102
RTVSPropertyOp21
 70
     1
102
RTVSPropertyOp22
 70
     1
102
RTVSPropertyOp23
 70
     1
102
RTVSPropertyOp24
 70
     1
102
RTVSPropertyOp25
 70
     1
102
RTVSPropertyOp26
 70
     1
102
RTVSPropertyOp27
 70
     1
102
RTVSPropertyOp28
 70
     1
102
RTVSPropertyOp29
 70
     1
102
RTVSPropertyOp30
 70
     1
102
RTVSPropertyOp31
 70
     1
102
RTVSPropertyOp32
 70
     1
  0
ENDSEC
  0
EOF
