# Rhino

g Default
o object_1
v 0 0.8299905061721802 -0.7273092269897461
v 0.1424832791090012 0.8299905061721802 -0.7273092269897461
v 0 0 -0.7273092269897461
v 0.1424832791090012 0 -0.7273092269897461
v 0.1424832791090012 0.8299905061721802 -0.7273092269897461
v 0.1424832791090012 0.8299905061721802 0
v 0 0.8299905061721802 -0.7273092269897461
v 0 0.8299905061721802 0
v 0.1424832791090012 0 -0.7273092269897461
v 0.1424832791090012 0 0
v 0.1424832791090012 0.8299905061721802 -0.7273092269897461
v 0.1424832791090012 0.8299905061721802 0
v 0 0 -0.7273092269897461
v 0 0 0
v 0.1424832791090012 0 -0.7273092269897461
v 0.1424832791090012 0 0
v 0 0.8299905061721802 -0.7273092269897461
v 0 0.8299905061721802 0
v 0 0 -0.7273092269897461
v 0 0 0
v 0 0.8299905061721802 0
v 0.1424832791090012 0.8299905061721802 0
v 0.1424832791090012 0 0
v 0 0 0
vt 0.3115117847919464 0.007040438707917929
vt 0.3994786143302917 0.007040438707917929
vt 0.3115117847919464 0.5913901925086975
vt 0.3994786143302917 0.5913901925086975
vt 0.1017793193459511 0
vt 0.1017793193459511 0.5120576024055481
vt 0.2020937949419022 0
vt 0.2020937949419022 0.5120576024055481
vt 0.4071172773838043 0.5
vt 0.4071172773838043 0.99853515625
vt 0.976035475730896 0.5
vt 0.976035475730896 0.99853515625
vt 0 0
vt 0 0.5120576024055481
vt 0.1003144755959511 0
vt 0.1003144755959511 0.5120576024055481
vt 0.4071172773838043 0
vt 0.4071172773838043 0.49853515625
vt 0.976035475730896 0
vt 0.976035475730896 0.49853515625
vt 0.2097324728965759 0.007040438707917929
vt 0.2976993024349213 0.007040438707917929
vt 0.2976993024349213 0.5913901925086975
vt 0.2097324728965759 0.5913901925086975
vn 0 0 -1
vn 0 0 -1
vn 0 0 -1
vn 0 0 -1
vn 0 1 0
vn 0 1 0
vn 0 1 0
vn 0 1 0
vn 1 0 0
vn 1 0 0
vn 1 0 0
vn 1 0 0
vn 0 -1 0
vn 0 -1 0
vn 0 -1 0
vn 0 -1 0
vn -1 0 0
vn -1 0 0
vn -1 0 0
vn -1 0 0
vn 0 0 1
vn 0 0 1
vn 0 0 1
vn 0 0 1
f 3/3/3 1/1/1 2/2/2 4/4/4
f 6/6/6 5/5/5 7/7/7 8/8/8
f 10/10/10 9/9/9 11/11/11 12/12/12
f 14/14/14 13/13/13 15/15/15 16/16/16
f 18/18/18 17/17/17 19/19/19 20/20/20
f 24/24/24 23/23/23 22/22/22 21/21/21
o object_2
v 0 1.143772482872009 -0.7273092269897461
v 0 0.9849317669868469 -0.7273092269897461
v 0.1424832791090012 1.143772482872009 -0.7273092269897461
v 0.1424832791090012 0.9849317669868469 -0.7273092269897461
v 0.1424832791090012 1.143772482872009 -0.7273092269897461
v 0.1424832791090012 1.143772482872009 0
v 0 1.143772482872009 -0.7273092269897461
v 0 1.143772482872009 0
v 0.1424832791090012 0.9849317669868469 -0.7273092269897461
v 0.1424832791090012 0.9849317669868469 0
v 0.1424832791090012 1.143772482872009 -0.7273092269897461
v 0.1424832791090012 1.143772482872009 0
v 0 0.9849317669868469 -0.7273092269897461
v 0 0.9849317669868469 0
v 0.1424832791090012 0.9849317669868469 -0.7273092269897461
v 0.1424832791090012 0.9849317669868469 0
v 0 1.143772482872009 -0.7273092269897461
v 0 1.143772482872009 0
v 0 0.9849317669868469 -0.7273092269897461
v 0 0.9849317669868469 0
v 0 1.143772482872009 0
v 0 0.9849317669868469 0
v 0.1424832791090012 1.143772482872009 0
v 0.1424832791090012 0.9849317669868469 0
vt 0.6127305030822754 0.5114348530769348
vt 0.4287663698196411 0.5114348530769348
vt 0.6127305030822754 0.6743625998497009
vt 0.4287663698196411 0.6743625998497009
vt 0.812888503074646 0
vt 0.812888503074646 0.9476376175880432
vt 0.99853515625 0
vt 0.99853515625 0.9476376175880432
vt 0.2085923403501511 0
vt 0.2085923403501511 0.9484076499938965
vt 0.4157198369503021 0
vt 0.4157198369503021 0.9484076499938965
vt 0.625777006149292 0
vt 0.625777006149292 0.9476376175880432
vt 0.811423659324646 0
vt 0.811423659324646 0.9476376175880432
vt 0 0
vt 0 0.9484076499938965
vt 0.2071274966001511 0
vt 0.2071274966001511 0.9484076499938965
vt 0.6127305030822754 0.01143486797809601
vt 0.4287663698196411 0.01143486797809601
vt 0.6127305030822754 0.1743626296520233
vt 0.4287663698196411 0.1743626296520233
vn 2.775557561562891e-16 0 -1
vn 0 0 -1
vn 2.775557561562891e-16 0 -1
vn 0 0 -1
vn 0 1 0
vn 0 1 0
vn 0 1 0
vn 0 1 0
vn 1 0 0
vn 1 0 0
vn 1 0 0
vn 1 0 0
vn 0 -1 0
vn 0 -1 0
vn 0 -1 0
vn 0 -1 0
vn -1 0 0
vn -1 0 0
vn -1 0 0
vn -1 0 0
vn 0 0 1
vn 0 0 1
vn 0 0 1
vn 0 0 1
f 26/26/26 25/25/25 27/27/27 28/28/28
f 30/30/30 29/29/29 31/31/31 32/32/32
f 34/34/34 33/33/33 35/35/35 36/36/36
f 38/38/38 37/37/37 39/39/39 40/40/40
f 42/42/42 41/41/41 43/43/43 44/44/44
f 46/46/46 48/48/48 47/47/47 45/45/45
