# Rhino

g Default
o object_1
v 0 1.143772482872009 -0.7273092269897461
v 0.1549412310123444 1.143772482872009 -0.7273092269897461
v 0 0 -0.7273092269897461
v 0.728773832321167 0 -0.7273092269897461
v 0.728773832321167 0.13625767827034 -0.7273092269897461
v 0.1549412310123444 0.13625767827034 -0.7273092269897461
v 0.1549412310123444 1.143772482872009 -0.7273092269897461
v 0.1549412310123444 1.143772482872009 0
v 0 1.143772482872009 -0.7273092269897461
v 0 1.143772482872009 0
v 0.1549412310123444 0.13625767827034 -0.7273092269897461
v 0.1549412310123444 0.13625767827034 0
v 0.1549412310123444 1.143772482872009 -0.7273092269897461
v 0.1549412310123444 1.143772482872009 0
v 0.728773832321167 0.13625767827034 -0.7273092269897461
v 0.728773832321167 0.13625767827034 0
v 0.1549412310123444 0.13625767827034 -0.7273092269897461
v 0.1549412310123444 0.13625767827034 0
v 0.728773832321167 0 -0.7273092269897461
v 0.728773832321167 0 0
v 0.728773832321167 0.13625767827034 -0.7273092269897461
v 0.728773832321167 0.13625767827034 0
v 0 0 -0.7273092269897461
v 0 0 0
v 0.728773832321167 0 -0.7273092269897461
v 0.728773832321167 0 0
v 0 1.143772482872009 -0.7273092269897461
v 0 1.143772482872009 0
v 0 0 -0.7273092269897461
v 0 0 0
v 0 1.143772482872009 0
v 0.1549412310123444 1.143772482872009 0
v 0.1549412310123444 0.13625767827034 0
v 0.728773832321167 0.13625767827034 0
v 0.728773832321167 0 0
v 0 0 0
vt 0.7065274715423584 0.499570369720459
vt 0.7677695155143738 0.499570369720459
vt 0.7065274715423584 0.951657772064209
vt 0.9945825338363647 0.951657772064209
vt 0.9945825338363647 0.8978005647659302
vt 0.7677695155143738 0.8978005647659302
vt 0.05412376672029495 0
vt 0.05412376672029495 0.2820229232311249
vt 0.1142041012644768 0
vt 0.1142041012644768 0.2820229232311249
vt 0.7011100053787231 0
vt 0.4051497578620911 0
vt 0.7011100053787231 0.4099829196929932
vt 0.4051497578620911 0.4099829196929932
vt 0.4036849141120911 0
vt 0.1156689450144768 0
vt 0.4036849141120911 0.2272388786077499
vt 0.1156689450144768 0.2272388786077499
vt 0 0
vt 0 0.2810800671577454
vt 0.05265892297029495 0
vt 0.05265892297029495 0.2810800671577454
vt 0.1156689450144768 0.4410223066806793
vt 0.1156689450144768 0.7284594774246216
vt 0.4036849141120911 0.4410223066806793
vt 0.4036849141120911 0.7284594774246216
vt 0.99853515625 0
vt 0.7025748491287231 0
vt 0.99853515625 0.4654295742511749
vt 0.7025748491287231 0.4654295742511749
vt 0.4091023504734039 0.499570369720459
vt 0.4703443944454193 0.499570369720459
vt 0.4703443944454193 0.8978005647659302
vt 0.6971574425697327 0.8978005647659302
vt 0.6971574425697327 0.951657772064209
vt 0.4091023504734039 0.951657772064209
vn 0 0 -1
vn 0 0 -1
vn 0 0 -1
vn 0 0 -1
vn 0 0 -1
vn 0 0 -1
vn 0 1 0
vn 0 1 0
vn 0 1 0
vn 0 1 0
vn 1 0 0
vn 1 0 0
vn 1 0 0
vn 1 0 0
vn 0 1 0
vn 0 1 0
vn 0 1 0
vn 0 1 0
vn 1 0 0
vn 1 0 0
vn 1 0 0
vn 1 0 0
vn 0 -1 0
vn 0 -1 0
vn 0 -1 0
vn 0 -1 0
vn -1 0 0
vn -1 0 0
vn -1 0 0
vn -1 0 0
vn 0 0 1
vn 0 0 1
vn 0 0 1
vn 0 0 1
vn 0 0 1
vn 0 0 1
f 3/3/3 1/1/1 2/2/2 6/6/6
f 6/6/6 5/5/5 4/4/4 3/3/3
f 8/8/8 7/7/7 9/9/9 10/10/10
f 12/12/12 11/11/11 13/13/13 14/14/14
f 16/16/16 15/15/15 17/17/17 18/18/18
f 20/20/20 19/19/19 21/21/21 22/22/22
f 24/24/24 23/23/23 25/25/25 26/26/26
f 28/28/28 27/27/27 29/29/29 30/30/30
f 36/36/36 33/33/33 32/32/32 31/31/31
f 33/33/33 36/36/36 35/35/35 34/34/34
