# Rhino

v 8.948492050170898 -0.1679341644048691 9.865896224975586
v 5.109996795654297 9.956096649169922 9.865896224975586
v 0.1199529692530632 -0.1199529692530632 9.865896224975586
v 3.670560836791992 10.00407791137695 9.865896224975586
v 0.1199529692530632 -0.1199529692530632 9.865896224975586
v 8.948492050170898 -0.1679341644048691 9.865896224975586
v 5.109996795654297 9.956096649169922 9.865896224975586
v 3.670560836791992 10.00407791137695 9.865896224975586
v 0.1199529692530632 -0.1199529692530632 9.865896224975586
vn 0 0 1
vn 0 0 1
vn 0 0 1
vn 0 0 1
vn 0 0 1
vn 0 0 1
vn 0 0 1
vn 0 0 1
vn 0 0 1
f 1//1 2//2 3//3
f 2//2 4//4 3//3
f 7//7 8//8 5//5
f 7//7 5//5 6//6
v 0.1199529692530632 -0.1199529692530632 9.865896224975586
v 0.1199529692530632 -0.1199529692530632 0
v 8.948492050170898 -0.1679341644048691 0
v 8.948492050170898 -0.1679341644048691 9.865896224975586
vn -0.005434703081846237 -0.9999852180480957 0
vn -0.005434703081846237 -0.9999852180480957 0
vn -0.005434703081846237 -0.9999852180480957 0
vn -0.005434703081846237 -0.9999852180480957 0
f 10//10 11//11 12//12
f 10//10 12//12 13//13
v 8.948492050170898 -0.1679341644048691 9.865896224975586
v 8.948492050170898 -0.1679341644048691 0
v 5.109996795654297 9.956096649169922 0
v 5.109996795654297 9.956096649169922 9.865896224975586
vn 0.9350481629371643 0.3545206487178802 0
vn 0.9350481629371643 0.3545206487178802 0
vn 0.9350481629371643 0.3545206487178802 0
vn 0.9350481629371643 0.3545206487178802 0
f 14//14 15//15 16//16
f 14//14 16//16 17//17
v 5.109996795654297 9.956096649169922 9.865896224975586
v 5.109996795654297 9.956096649169922 0
v 3.670560836791992 10.00407791137695 0
v 3.670560836791992 10.00407791137695 9.865896224975586
vn 0.03331487253308296 0.9994449019432068 0
vn 0.03331487253308296 0.9994449019432068 0
vn 0.03331487253308296 0.9994449019432068 0
vn 0.03331487253308296 0.9994449019432068 0
f 18//18 19//19 20//20
f 18//18 20//20 21//21
v 3.670560836791992 10.00407791137695 9.865896224975586
v 3.670560836791992 10.00407791137695 0
v 0.1199529692530632 -0.1199529692530632 0
v 0.1199529692530632 -0.1199529692530632 9.865896224975586
vn -0.9436489939689636 0.3309479653835297 0
vn -0.9436489939689636 0.3309479653835297 0
vn -0.9436489939689636 0.3309479653835297 0
vn -0.9436489939689636 0.3309479653835297 0
f 22//22 23//23 24//24
f 22//22 24//24 25//25
v 8.948492050170898 -0.1679341644048691 0
v 0.1199529692530632 -0.1199529692530632 0
v 5.109996795654297 9.956096649169922 0
v 3.670560836791992 10.00407791137695 0
vn 0 0 -1
vn 0 0 -1
vn 0 0 -1
vn 0 0 -1
f 26//26 27//27 28//28
f 27//27 29//29 28//28
