# Rhino

v 0.1 -0.1 0
v 9 -0.2 0
v 4 1e+01 0
v 5 1e+01 0
v 4 1e+01 0
v 4 1e+01 1e+01
v 0.1 -0.1 0
v 0.1 -0.1 1e+01
v 5 1e+01 0
v 5 1e+01 1e+01
v 4 1e+01 0
v 4 1e+01 1e+01
v 9 -0.2 0
v 9 -0.2 1e+01
v 5 1e+01 0
v 5 1e+01 1e+01
v 0.1 -0.1 0
v 0.1 -0.1 1e+01
v 9 -0.2 0
v 9 -0.2 1e+01
v 0.1 -0.1 1e+01
v 9 -0.2 1e+01
v 4 1e+01 1e+01
v 5 1e+01 1e+01
vn 0 0 -1
vn 0 0 -1
vn 0 0 -1
vn 0 0 -1
vn -0.9 0.3 0
vn -0.9 0.3 0
vn -0.9 0.3 0
vn -0.9 0.3 0
vn 0.03 1 0
vn 0.03 1 0
vn 0.03 1 0
vn 0.03 1 0
vn 0.9 0.4 0
vn 0.9 0.4 0
vn 0.9 0.4 0
vn 0.9 0.4 0
vn -0.005 -1 0
vn -0.005 -1 0
vn -0.005 -1 0
vn -0.005 -1 0
vn 0 0 1
vn 0 0 1
vn 0 0 1
vn 0 0 1
f 2//2 1//1 4//4
f 6//6 5//5 7//7
f 10//10 9//9 11//11
f 14//14 13//13 15//15
f 18//18 17//17 19//19
f 22//22 24//24 21//21
f 1//1 3//3 4//4
f 6//6 7//7 8//8
f 10//10 11//11 12//12
f 14//14 15//15 16//16
f 18//18 19//19 20//20
f 24//24 23//23 21//21
