# Rhino

o object_1
v 9 -0.2 1e+01
v 5 1e+01 1e+01
v 0.1 -0.1 1e+01
v 4 1e+01 1e+01
vn 0 0 1
vn 0 0 1
vn 0 0 1
vn 0 0 1
f 1//1 2//2 3//3
f 2//2 4//4 3//3
o object_2
v 0.1 -0.1 1e+01
v 0.1 -0.1 0
v 9 -0.2 0
v 9 -0.2 1e+01
vn -0.005 -1 0
vn -0.005 -1 0
vn -0.005 -1 0
vn -0.005 -1 0
f 5//5 6//6 7//7
f 5//5 7//7 8//8
o object_3
v 9 -0.2 1e+01
v 9 -0.2 0
v 5 1e+01 0
v 5 1e+01 1e+01
vn 0.9 0.4 0
vn 0.9 0.4 0
vn 0.9 0.4 0
vn 0.9 0.4 0
f 9//9 10//10 11//11
f 9//9 11//11 12//12
o object_4
v 5 1e+01 1e+01
v 5 1e+01 0
v 4 1e+01 0
v 4 1e+01 1e+01
vn 0.03 1 0
vn 0.03 1 0
vn 0.03 1 0
vn 0.03 1 0
f 13//13 14//14 15//15
f 13//13 15//15 16//16
o object_5
v 4 1e+01 1e+01
v 4 1e+01 0
v 0.1 -0.1 0
v 0.1 -0.1 1e+01
vn -0.9 0.3 0
vn -0.9 0.3 0
vn -0.9 0.3 0
vn -0.9 0.3 0
f 17//17 18//18 19//19
f 17//17 19//19 20//20
o object_6
v 9 -0.2 0
v 0.1 -0.1 0
v 5 1e+01 0
v 4 1e+01 0
vn 0 0 -1
vn 0 0 -1
vn 0 0 -1
vn 0 0 -1
f 21//21 22//22 23//23
f 22//22 24//24 23//23
