# Rhino

v -0.1768865287303925 0 -0.3966228663921356
v -0.1768865287303925 10 -0.3966228663921356
v 1.21181333065033 0 -0.3966228663921356
v 1.21181333065033 10 -0.3966228663921356
v 2.294182300567627 0 -3.391857624053955
v 2.294182300567627 10 -3.391857624053955
v 2.682201385498047 0 -4.494648933410645
v 2.682201385498047 10 -4.494648933410645
v 3.587579011917114 0 -10.39662265777588
v 3.587579011917114 10 -10.39662265777588
v 4.295543670654297 0 -8.912620544433594
v 4.295543670654297 10 -8.912620544433594
v 5.119233131408691 0 -10.39662265777588
v 5.119233131408691 10 -10.39662265777588
v 5.813583374023438 0 -4.494648933410645
v 5.813583374023438 10 -4.494648933410645
v 6.249253749847412 0 -3.391857624053955
v 6.249253749847412 10 -3.391857624053955
v 7.263549327850342 0 -0.3966228663921356
v 7.263549327850342 10 -0.3966228663921356
v 8.747551918029785 0 -0.3966228663921356
v 8.747551918029785 10 -0.3966228663921356
vn 0 -1 0
vn 0 -1 0
vn 0 -1 0
vn 0 -1 0
vn 0 -1 0
vn 0 -1 0
vn 0 -1 0
vn 0 -1 0
vn 0 -1 0
vn 0 -1 0
vn 0 -1 0
vn -0.9358833432197571 0 -0.3523100614547729
vn -0.9358833432197571 0 -0.3523100614547729
vn -0.9358833432197571 0 -0.3523100614547729
vn -0.9358833432197571 0 -0.3523100614547729
vn 0 0 1
vn 0 0 1
vn 0 0 1
vn 0 0 1
vn 0.9404780268669128 0 0.3398545384407043
vn 0.9404780268669128 0 0.3398545384407043
vn 0.9404780268669128 0 0.3398545384407043
vn 0.9404780268669128 0 0.3398545384407043
vn 0 0 1
vn 0 0 1
vn 0 0 1
vn 0 0 1
vn -0.9471656680107117 0 0.3207447528839111
vn -0.9471656680107117 0 0.3207447528839111
vn -0.9471656680107117 0 0.3207447528839111
vn -0.9471656680107117 0 0.3207447528839111
vn 0 0 1
vn 0 0 1
vn 0 0 1
vn 0 0 1
vn 0.9400360584259033 0 -0.3410750329494476
vn 0.9400360584259033 0 -0.3410750329494476
vn 0.9400360584259033 0 -0.3410750329494476
vn 0.9400360584259033 0 -0.3410750329494476
vn 0 0 -1
vn 0 0 -1
vn 0 0 -1
vn 0 0 -1
vn 0 0 -1
vn 0 0 -1
vn 0 0 -1
vn 0 0 -1
vn 0.9393277168273926 0 0.3430210649967194
vn 0.9393277168273926 0 0.3430210649967194
vn 0.9393277168273926 0 0.3430210649967194
vn 0.9393277168273926 0 0.3430210649967194
vn -0.945728600025177 0 0.3249575793743134
vn -0.945728600025177 0 0.3249575793743134
vn -0.945728600025177 0 0.3249575793743134
vn -0.945728600025177 0 0.3249575793743134
vn 0 1 0
vn 0 1 0
vn 0 1 0
vn 0 1 0
vn 0 1 0
vn 0 1 0
vn 0 1 0
vn 0 1 0
vn 0 1 0
vn 0 1 0
vn 0 1 0
f 5//9 3//10 1//2
f 1//2 9//1 7//11
f 15//4 17//8 5//9
f 11//3 7//11 9//1
f 5//9 1//2 7//11
f 21//6 19//7 17//8
f 15//4 21//6 17//8
f 13//5 15//4 11//3
f 21//6 15//4 13//5
f 9//1 13//5 11//3
f 2//13 10//15 9//14
f 4//17 2//19 1//18
f 6//21 4//23 3//22
f 18//25 6//27 5//26
f 20//29 18//31 17//30
f 22//33 20//35 19//34
f 14//37 22//39 21//38
f 10//41 14//43 13//42
f 8//45 16//47 15//46
f 12//49 8//51 7//50
f 16//53 12//55 11//54
f 6//59 2//57 4//58
f 2//57 8//65 10//56
f 16//64 8//65 6//59
f 12//66 10//56 8//65
f 6//59 8//65 2//57
f 22//62 18//60 20//61
f 16//64 18//60 22//62
f 14//63 12//66 16//64
f 22//62 14//63 16//64
f 10//56 12//66 14//63
f 15//4 5//9 7//11
f 2//13 9//14 1//12
f 4//17 1//18 3//16
f 6//21 3//22 5//20
f 18//25 5//26 17//24
f 20//29 17//30 19//28
f 22//33 19//34 21//32
f 14//37 21//38 13//36
f 10//41 13//42 9//40
f 8//45 15//46 7//44
f 12//49 7//50 11//48
f 16//53 11//54 15//52
f 16//64 6//59 18//60
