# Rhino

v 0.7578868269920349 38.61821365356445 0
v 0.7578868269920349 38.61821365356445 15
v 0.7578868269920349 38.61821365356445 30
v 4.016218185424805 29.23942947387695 0
v 4.016218185424805 29.23942947387695 30
v 6.662214279174805 38.61821365356445 0
v 6.662214279174805 38.61821365356445 15
v 6.662214279174805 38.61821365356445 30
v 7.274518966674805 19.86064720153809 0
v 7.274518966674805 19.86064720153809 30
v 9.926557540893555 28.65742874145508 0
v 9.926557540893555 28.65742874145508 30
v 10.53275871276855 10.48186206817627 0
v 10.53275871276855 10.48186206817627 30
v 13.19083213806152 18.6966609954834 0
v 13.19083213806152 18.6966609954834 30
v 13.79105186462402 1.103077173233032 0
v 13.79105186462402 1.103077173233032 15
v 13.79105186462402 1.103077173233032 30
v 16.45511436462402 8.73589038848877 0
v 16.45511436462402 8.73589038848877 15
v 16.45511436462402 8.73589038848877 30
v 18.68717002868652 1.103077173233032 0
v 18.68717002868652 1.103077173233032 15
v 18.68717002868652 1.103077173233032 30
v 19.79154014587402 18.74468040466309 0
v 19.79154014587402 18.74468040466309 30
v 22.04755210876465 10.89587879180908 0
v 22.04755210876465 10.89587879180908 30
v 23.12787437438965 28.75346755981445 0
v 23.12787437438965 28.75346755981445 30
v 25.40790367126465 20.68868064880371 0
v 25.40790367126465 20.68868064880371 30
v 26.46405601501465 38.76225662231445 0
v 26.46405601501465 38.76225662231445 15
v 26.46405601501465 38.76225662231445 30
v 28.76825523376465 30.48149490356445 0
v 28.76825523376465 30.48149490356445 15
v 28.76825523376465 30.48149490356445 30
v 31.07246971130371 38.76225662231445 0
v 31.07246971130371 38.76225662231445 15
v 31.07246971130371 38.76225662231445 30
v 32.10445022583008 20.68868064880371 0
v 32.10445022583008 20.68868064880371 30
v 34.43269729614258 28.75346755981445 0
v 34.43269729614258 28.75346755981445 30
v 35.44075393676758 10.89587879180908 0
v 35.44075393676758 10.89587879180908 30
v 37.79304885864258 18.74468040466309 0
v 37.79304885864258 18.74468040466309 30
v 38.77693557739258 1.103077173233032 0
v 38.77693557739258 1.103077173233032 15
v 38.77693557739258 1.103077173233032 30
v 41.15340042114258 8.73589038848877 0
v 41.15340042114258 8.73589038848877 15
v 41.15340042114258 8.73589038848877 30
v 43.60164260864258 1.103077173233032 0
v 43.60164260864258 1.103077173233032 15
v 43.60164260864258 1.103077173233032 30
v 44.41755294799805 18.6966609954834 0
v 44.41755294799805 18.6966609954834 30
v 46.87788009643555 10.48186206817627 0
v 46.87788009643555 10.48186206817627 30
v 47.68171310424805 28.65742874145508 0
v 47.68171310424805 28.65742874145508 30
v 50.15412521362305 19.86064720153809 0
v 50.15412521362305 19.86064720153809 30
v 50.94587326049805 38.61821365356445 0
v 50.94587326049805 38.61821365356445 15
v 50.94587326049805 38.61821365356445 30
v 53.43037033081055 29.23942947387695 0
v 53.43037033081055 29.23942947387695 30
v 56.70661544799805 38.61821365356445 0
v 56.70661544799805 38.61821365356445 15
v 56.70661544799805 38.61821365356445 30
vt 0.940915048122406 0.7365712523460388
vt 0.8689112067222595 0.7123547792434692
vt 0.7969074249267578 0.6881383657455444
vt 0.7249035835266113 0.6639218926429749
vt 0.7259398698806763 0.8071410059928894
vt 0.7975982427597046 0.7836177349090576
vt 0.8692566156387329 0.7600945234298706
vt 0.7259398698806763 0.8486559391021729
vt 0.9958259463310242 0.7542145848274231
vt 0.9283544421195984 0.7778249382972717
vt 0.8608828783035278 0.8014352917671204
vt 0.7934113740921021 0.8250455856323242
vt 0.9958259463310242 0.7194452285766602
vt 0.7844758629798889 0.6473166346549988
vt 0.8549258708953857 0.6713594794273376
vt 0.9253759384155273 0.6954023241996765
vt 0.9958259463310242 0.5746672749519348
vt 0.9253759384155273 0.5988837480545044
vt 0.8549258708953857 0.6231001615524292
vt 0.9958259463310242 0.539384126663208
vt 0.7259398698806763 0.4454600512981415
vt 0.7934113740921021 0.4689410626888275
vt 0.8608828783035278 0.4924221038818359
vt 0.9283544421195984 0.515903115272522
vt 0.7259398698806763 0.488009512424469
vt 0.940915048122406 0.5585827827453613
vt 0.8692566156387329 0.5350583791732788
vt 0.7975982427597046 0.5115339159965515
vt 0.7249035835266113 0.6307113766670227
vt 0.7969074249267578 0.6066684722900391
vt 0.8689112067222595 0.5826256275177002
vt 0.7047017812728882 0
vt 0.7047017812728882 0.2155009508132935
vt 0.9337706565856934 0
vt 0.9337706565856934 0.2155009508132935
vt 0.7810580730438232 0
vt 0.8574143648147583 0
vt 0.9337706565856934 0.1077504754066467
vt 0.8574143648147583 0.2155009508132935
vt 0.7810580730438232 0.2155009508132935
vt 0.7047017812728882 0.1077504754066467
vt 0 0
vt 0 0.2169657945632935
vt 0.033328827470541 0
vt 0.033328827470541 0.2169657945632935
vt 0.033328827470541 0.1084828972816467
vt 0 0.1084828972816467
vt 0.444388747215271 0.2207140475511551
vt 0.444388747215271 0.4376798272132874
vt 0.673291802406311 0.2207140475511551
vt 0.673291802406311 0.4376798272132874
vt 0.5206897854804993 0.2207140475511551
vt 0.5969907641410828 0.2207140475511551
vt 0.673291802406311 0.3291969299316406
vt 0.5969907641410828 0.4376798272132874
vt 0.5206897854804993 0.4376798272132874
vt 0.444388747215271 0.3291969299316406
vt 0.444388747215271 0
vt 0.444388747215271 0.2169657945632935
vt 0.6718128323554993 0
vt 0.6718128323554993 0.2169657945632935
vt 0.520196795463562 0
vt 0.5960047841072083 0
vt 0.6718128323554993 0.1084828972816467
vt 0.5960047841072083 0.2169657945632935
vt 0.520196795463562 0.2169657945632935
vt 0.444388747215271 0.1084828972816467
vt 0.7047017812728882 0.2169657945632935
vt 0.7047017812728882 0.4339315891265869
vt 0.7474027872085571 0.2169657945632935
vt 0.7474027872085571 0.4339315891265869
vt 0.7474027872085571 0.3254486918449402
vt 0.7047017812728882 0.3254486918449402
vt 0.3951995372772217 0
vt 0.1782337576150894 0
vt 0.3951995372772217 0.2872236967086792
vt 0.1782337576150894 0.2872236967086792
vt 0.3951995372772217 0.0718059241771698
vt 0.3951995372772217 0.1436118483543396
vt 0.3951995372772217 0.2154177576303482
vt 0.286716639995575 0.2872236967086792
vt 0.1782337576150894 0.2154177576303482
vt 0.1782337576150894 0.1436118483543396
vt 0.1782337576150894 0.0718059241771698
vt 0.286716639995575 0
vt 0.08368894457817078 0
vt 0.08368894457817078 0.2169657945632935
vt 0.1190977320075035 0
vt 0.1190977320075035 0.2169657945632935
vt 0.1190977320075035 0.1084828972816467
vt 0.08368894457817078 0.1084828972816467
vt 0.2169657945632935 0.3401942849159241
vt 0.2169657945632935 0.5571600794792175
vt 0.4415971636772156 0.3401942849159241
vt 0.4415971636772156 0.5571600794792175
vt 0.29184290766716 0.3401942849159241
vt 0.366720050573349 0.3401942849159241
vt 0.4415971636772156 0.4486771821975708
vt 0.366720050573349 0.5571600794792175
vt 0.29184290766716 0.5571600794792175
vt 0.2169657945632935 0.4486771821975708
vt 0.9702280163764954 0.2169657945632935
vt 0.7532622218132019 0.2169657945632935
vt 0.9702280163764954 0.4399632513523102
vt 0.7532622218132019 0.4399632513523102
vt 0.9702280163764954 0.2912982702255249
vt 0.9702280163764954 0.3656307756900787
vt 0.8617451190948486 0.4399632513523102
vt 0.7532622218132019 0.3656307756900787
vt 0.7532622218132019 0.2912982702255249
vt 0.8617451190948486 0.2169657945632935
vt 0.04088494554162025 0
vt 0.04088494554162025 0.2169657945632935
vt 0.07577815651893616 0
vt 0.07577815651893616 0.2169657945632935
vt 0.07577815651893616 0.1084828972816467
vt 0.04088494554162025 0.1084828972816467
vt 0.2155009508132935 0.3401942849159241
vt 0 0.3401942849159241
vt 0.2155009508132935 0.6275887489318848
vt 0 0.6275887489318848
vt 0.2155009508132935 0.4120428860187531
vt 0.2155009508132935 0.4838915169239044
vt 0.2155009508132935 0.5557401180267334
vt 0.1077504754066467 0.6275887489318848
vt 0 0.5557401180267334
vt 0 0.4838915169239044
vt 0 0.4120428860187531
vt 0.1077504754066467 0.3401942849159241
vt 0.1271253973245621 0
vt 0.1271253973245621 0.2169657945632935
vt 0.1687882095575333 0
vt 0.1687882095575333 0.2169657945632935
vt 0.1687882095575333 0.1084828972816467
vt 0.1271253973245621 0.1084828972816467
vt 0.2169657945632935 0.5971735119819641
vt 0.2169657945632935 0.8141393065452576
vt 0.442923903465271 0.5971735119819641
vt 0.442923903465271 0.8141393065452576
vt 0.2922851741313934 0.5971735119819641
vt 0.3676045536994934 0.5971735119819641
vt 0.2169657945632935 0.7056564092636108
vt 0.442923903465271 0.7056564092636108
vt 0.3676045536994934 0.8141393065452576
vt 0.2922851741313934 0.8141393065452576
vt 0.6631094217300415 0.7365712523460388
vt 0.591105580329895 0.7123547792434692
vt 0.5191017985343933 0.6881383657455444
vt 0.4470979869365692 0.6639218926429749
vt 0.4470979869365692 0.6307113766670227
vt 0.5191017985343933 0.6066684722900391
vt 0.591105580329895 0.5826256275177002
vt 0.6631094217300415 0.5585827827453613
vt 0.5914510488510132 0.5350583791732788
vt 0.5197926163673401 0.5115339159965515
vt 0.4481342434883118 0.488009512424469
vt 0.4481342434883118 0.4454600512981415
vt 0.5156057476997375 0.4689410626888275
vt 0.5830772519111633 0.4924221038818359
vt 0.6505488157272339 0.515903115272522
vt 0.7180203199386597 0.539384126663208
vt 0.7180203199386597 0.5746672749519348
vt 0.6475703120231628 0.5988837480545044
vt 0.577120304107666 0.6231001615524292
vt 0.5066702365875244 0.6473166346549988
vt 0.577120304107666 0.6713594794273376
vt 0.6475703120231628 0.6954023241996765
vt 0.7180203199386597 0.7194452285766602
vt 0.7180203199386597 0.7542145848274231
vt 0.6505488157272339 0.7778249382972717
vt 0.5830772519111633 0.8014352917671204
vt 0.5156057476997375 0.8250455856323242
vt 0.4481342434883118 0.8486559391021729
vt 0.4481342434883118 0.8071410059928894
vt 0.5197926163673401 0.7836177349090576
vt 0.5914510488510132 0.7600945234298706
vn 0 0 -1
vn 0 0 -1
vn 0 0 -1
vn 0 0 -1
vn 0 0 -1
vn 0 0 -1
vn 0 0 -1
vn 0 0 -1
vn 0 0 -1
vn 0 0 -1
vn 0 0 -1
vn 0 0 -1
vn 0 0 -1
vn 0 0 -1
vn 0 0 -1
vn 0 0 -1
vn 0 0 -1
vn 0 0 -1
vn 0 0 -1
vn 0 0 -1
vn 0 0 -1
vn 0 0 -1
vn 0 0 -1
vn 0 0 -1
vn 0 0 -1
vn 0 0 -1
vn 0 0 -1
vn 0 0 -1
vn 0 0 -1
vn 0 0 -1
vn 0 0 -1
vn 0.9479966163635254 0.3182804584503174 0
vn 0.9479966163635254 0.3182804584503174 0
vn 0.9479966163635254 0.3182804584503174 0
vn 0.9479966163635254 0.3182804584503174 0
vn 0.9479966163635254 0.3182804584503174 0
vn 0.9479966163635254 0.3182804584503174 0
vn 0.9479966163635254 0.3182804584503174 0
vn 0.9479966163635254 0.3182804584503174 0
vn 0.9479966163635254 0.3182804584503174 0
vn 0.9479966163635254 0.3182804584503174 0
vn 0 1 0
vn 0 1 0
vn 0 1 0
vn 0 1 0
vn 0 1 0
vn 0 1 0
vn -0.9486833214759827 0.3162277638912201 0
vn -0.9486833214759827 0.3162277638912201 0
vn -0.9486833214759827 0.3162277638912201 0
vn -0.9486833214759827 0.3162277638912201 0
vn -0.9486833214759827 0.3162277638912201 0
vn -0.9486833214759827 0.3162277638912201 0
vn -0.9486833214759827 0.3162277638912201 0
vn -0.9486833214759827 0.3162277638912201 0
vn -0.9486833214759827 0.3162277638912201 0
vn -0.9486833214759827 0.3162277638912201 0
vn 0.9502720236778259 0.3114210367202759 0
vn 0.9502720236778259 0.3114210367202759 0
vn 0.9502720236778259 0.3114210367202759 0
vn 0.9502720236778259 0.3114210367202759 0
vn 0.9502720236778259 0.3114210367202759 0
vn 0.9502720236778259 0.3114210367202759 0
vn 0.9502720236778259 0.3114210367202759 0
vn 0.9502720236778259 0.3114210367202759 0
vn 0.9502720236778259 0.3114210367202759 0
vn 0.9502720236778259 0.3114210367202759 0
vn 0 1 0
vn 0 1 0
vn 0 1 0
vn 0 1 0
vn 0 1 0
vn 0 1 0
vn -0.9446181654930115 -0.3281715512275696 0
vn -0.9446181654930115 -0.3281715512275696 0
vn -0.9446181654930115 -0.3281715512275696 0
vn -0.9446181654930115 -0.3281715512275696 0
vn -0.9446181654930115 -0.3281715512275696 0
vn -0.9446181654930115 -0.3281715512275696 0
vn -0.9446181654930115 -0.3281715512275696 0
vn -0.9446181654930115 -0.3281715512275696 0
vn -0.9446181654930115 -0.3281715512275696 0
vn -0.9446181654930115 -0.3281715512275696 0
vn -0.9446181654930115 -0.3281715512275696 0
vn -0.9446181654930115 -0.3281715512275696 0
vn 0 -1 0
vn 0 -1 0
vn 0 -1 0
vn 0 -1 0
vn 0 -1 0
vn 0 -1 0
vn 0.9458624124526978 -0.3245678842067719 0
vn 0.9458624124526978 -0.3245678842067719 0
vn 0.9458624124526978 -0.3245678842067719 0
vn 0.9458624124526978 -0.3245678842067719 0
vn 0.9458624124526978 -0.3245678842067719 0
vn 0.9458624124526978 -0.3245678842067719 0
vn 0.9458624124526978 -0.3245678842067719 0
vn 0.9458624124526978 -0.3245678842067719 0
vn 0.9458624124526978 -0.3245678842067719 0
vn 0.9458624124526978 -0.3245678842067719 0
vn -0.9465749263763428 -0.3224839568138123 0
vn -0.9465749263763428 -0.3224839568138123 0
vn -0.9465749263763428 -0.3224839568138123 0
vn -0.9465749263763428 -0.3224839568138123 0
vn -0.9465749263763428 -0.3224839568138123 0
vn -0.9465749263763428 -0.3224839568138123 0
vn -0.9465749263763428 -0.3224839568138123 0
vn -0.9465749263763428 -0.3224839568138123 0
vn -0.9465749263763428 -0.3224839568138123 0
vn -0.9465749263763428 -0.3224839568138123 0
vn 0 -1 0
vn 0 -1 0
vn 0 -1 0
vn 0 -1 0
vn 0 -1 0
vn 0 -1 0
vn 0.9440568089485168 -0.3297827839851379 0
vn 0.9440568089485168 -0.3297827839851379 0
vn 0.9440568089485168 -0.3297827839851379 0
vn 0.9440568089485168 -0.3297827839851379 0
vn 0.9440568089485168 -0.3297827839851379 0
vn 0.9440568089485168 -0.3297827839851379 0
vn 0.9440568089485168 -0.3297827839851379 0
vn 0.9440568089485168 -0.3297827839851379 0
vn 0.9440568089485168 -0.3297827839851379 0
vn 0.9440568089485168 -0.3297827839851379 0
vn 0.9440568089485168 -0.3297827839851379 0
vn 0.9440568089485168 -0.3297827839851379 0
vn 0 1 0
vn 0 1 0
vn 0 1 0
vn 0 1 0
vn 0 1 0
vn 0 1 0
vn -0.9502766132354736 0.3114069998264313 0
vn -0.9502766132354736 0.3114069998264313 0
vn -0.9502766132354736 0.3114069998264313 0
vn -0.9502766132354736 0.3114069998264313 0
vn -0.9502766132354736 0.3114069998264313 0
vn -0.9502766132354736 0.3114069998264313 0
vn -0.9502766132354736 0.3114069998264313 0
vn -0.9502766132354736 0.3114069998264313 0
vn -0.9502766132354736 0.3114069998264313 0
vn -0.9502766132354736 0.3114069998264313 0
vn 0 0 1
vn 0 0 1
vn 0 0 1
vn 0 0 1
vn 0 0 1
vn 0 0 1
vn 0 0 1
vn 0 0 1
vn 0 0 1
vn 0 0 1
vn 0 0 1
vn 0 0 1
vn 0 0 1
vn 0 0 1
vn 0 0 1
vn 0 0 1
vn 0 0 1
vn 0 0 1
vn 0 0 1
vn 0 0 1
vn 0 0 1
vn 0 0 1
vn 0 0 1
vn 0 0 1
vn 0 0 1
vn 0 0 1
vn 0 0 1
vn 0 0 1
vn 0 0 1
vn 0 0 1
vn 0 0 1
f 15/27/27 20/26/26 13/24/24
f 17/20/20 13/24/24 20/26/26
f 9/23/23 15/27/27 13/24/24
f 28/18/18 23/17/17 20/26/26
f 17/20/20 20/26/26 23/17/17
f 32/19/19 28/18/18 26/31/31
f 26/31/31 28/18/18 20/26/26
f 11/28/28 4/22/22 6/25/25
f 4/22/22 1/21/21 6/25/25
f 11/28/28 9/23/23 4/22/22
f 15/27/27 9/23/23 11/28/28
f 30/30/30 34/29/29 37/14/14
f 26/31/31 30/30/30 32/19/19
f 47/16/16 54/1/1 51/13/13
f 57/9/9 51/13/13 54/1/1
f 43/15/15 49/2/2 47/16/16
f 54/1/1 47/16/16 49/2/2
f 60/7/7 62/10/10 54/1/1
f 62/10/10 60/7/7 66/11/11
f 57/9/9 54/1/1 62/10/10
f 66/11/11 60/7/7 64/6/6
f 37/14/14 32/19/19 30/30/30
f 45/3/3 49/2/2 43/15/15
f 34/29/29 40/4/4 37/14/14
f 45/3/3 37/14/14 40/4/4
f 37/14/14 45/3/3 43/15/15
f 68/5/5 71/12/12 64/6/6
f 71/12/12 68/5/5 73/8/8
f 64/6/6 71/12/12 66/11/11
f 41/41/41 45/36/36 40/32/32
f 42/33/33 46/40/40 41/41/41
f 41/41/41 46/40/40 50/39/39 55/38/38
f 55/38/38 49/37/37 45/36/36 41/41/41
f 55/38/38 54/34/34 49/37/37
f 56/35/35 55/38/38 50/39/39
f 35/47/47 41/46/46 40/44/44 34/42/42
f 36/43/43 42/45/45 41/46/46 35/47/47
f 21/57/57 26/52/52 20/48/48
f 22/49/49 27/56/56 21/57/57
f 21/57/57 27/56/56 31/55/55
f 30/53/53 26/52/52 21/57/57
f 35/54/54 34/50/50 30/53/53
f 36/51/51 35/54/54 31/55/55
f 35/54/54 21/57/57 31/55/55
f 30/53/53 21/57/57 35/54/54
f 7/67/67 11/62/62 6/58/58
f 8/59/59 12/66/66 7/67/67
f 11/62/62 7/67/67 12/66/66
f 12/66/66 16/65/65 15/63/63 11/62/62
f 21/64/64 20/60/60 15/63/63
f 22/61/61 21/64/64 16/65/65
f 15/63/63 16/65/65 21/64/64
f 2/73/73 7/72/72 6/70/70 1/68/68
f 3/69/69 8/71/71 7/72/72 2/73/73
f 18/85/85 13/78/78 17/74/74
f 18/85/85 9/79/79 13/78/78
f 19/75/75 14/84/84 18/85/85
f 18/85/85 14/84/84 10/83/83
f 2/81/81 9/79/79 18/85/85
f 2/81/81 1/76/76 4/80/80
f 18/85/85 10/83/83 2/81/81
f 2/81/81 10/83/83 5/82/82
f 2/81/81 5/82/82 3/77/77
f 4/80/80 9/79/79 2/81/81
f 24/91/91 18/90/90 17/88/88 23/86/86
f 25/87/87 19/89/89 18/90/90 24/91/91
f 38/101/101 32/96/96 37/92/92
f 39/93/93 33/100/100 38/101/101
f 38/101/101 33/100/100 29/99/99
f 28/97/97 32/96/96 38/101/101
f 24/98/98 23/94/94 28/97/97
f 25/95/95 24/98/98 29/99/99
f 24/98/98 38/101/101 29/99/99
f 28/97/97 38/101/101 24/98/98
f 52/111/111 47/106/106 51/102/102
f 53/103/103 48/110/110 52/111/111
f 52/111/111 48/110/110 44/109/109 38/108/108
f 38/108/108 43/107/107 47/106/106 52/111/111
f 38/108/108 37/104/104 43/107/107
f 39/105/105 38/108/108 44/109/109
f 58/117/117 52/116/116 51/114/114 57/112/112
f 59/113/113 53/115/115 52/116/116 58/117/117
f 74/129/129 71/122/122 73/118/118
f 74/129/129 66/123/123 71/122/122
f 75/119/119 72/128/128 74/129/129
f 74/129/129 72/128/128 67/127/127
f 58/125/125 66/123/123 74/129/129
f 58/125/125 57/120/120 62/124/124
f 74/129/129 67/127/127 58/125/125
f 58/125/125 67/127/127 63/126/126
f 58/125/125 63/126/126 59/121/121
f 62/124/124 66/123/123 58/125/125
f 69/135/135 74/134/134 73/132/132 68/130/130
f 70/131/131 75/133/133 74/134/134 69/135/135
f 55/142/142 60/140/140 54/136/136
f 56/137/137 61/145/145 55/142/142
f 55/142/142 61/145/145 65/144/144 69/143/143
f 69/143/143 64/141/141 60/140/140 55/142/142
f 69/143/143 68/138/138 64/141/141
f 70/139/139 69/143/143 65/144/144
f 19/161/161 22/153/153 14/160/160
f 10/159/159 14/160/160 16/154/154
f 29/163/163 22/153/153 25/162/162
f 19/161/161 25/162/162 22/153/153
f 33/164/164 27/152/152 29/163/163
f 16/154/154 14/160/160 22/153/153
f 29/163/163 27/152/152 22/153/153
f 12/155/155 8/156/156 5/158/158
f 5/158/158 8/156/156 3/157/157
f 12/155/155 5/158/158 10/159/159
f 16/154/154 12/155/155 10/159/159
f 31/151/151 39/165/165 36/150/150
f 39/165/165 44/166/166 46/148/148
f 27/152/152 33/164/164 31/151/151
f 48/167/167 53/168/168 56/146/146
f 59/169/169 56/146/146 53/168/168
f 44/166/166 48/167/167 50/147/147
f 56/146/146 50/147/147 48/167/167
f 61/176/176 56/146/146 63/170/170
f 63/170/170 67/171/171 61/176/176
f 59/169/169 63/170/170 56/146/146
f 67/171/171 65/175/175 61/176/176
f 33/164/164 39/165/165 31/151/151
f 46/148/148 44/166/166 50/147/147
f 36/150/150 39/165/165 42/149/149
f 46/148/148 42/149/149 39/165/165
f 70/174/174 65/175/175 72/172/172
f 72/172/172 75/173/173 70/174/174
f 65/175/175 67/171/171 72/172/172
