# Rhino

v 1.664264798164368 -7.825633525848389 0
v 1.664264798164368 -7.825633525848389 15
v 1.664264798164368 -7.825633525848389 30
v 1.664264798164368 25.51323318481445 0
v 1.664264798164368 25.51323318481445 30
v 1.664264798164368 58.85209274291992 0
v 1.664264798164368 58.85209274291992 15
v 1.664264798164368 58.85209274291992 30
v 6.344448089599609 -7.825633525848389 0
v 6.344448089599609 -7.825633525848389 15
v 6.344448089599609 -7.825633525848389 30
v 6.344448089599609 25.51323318481445 0
v 6.344448089599609 25.51323318481445 30
v 6.344448089599609 58.85209274291992 0
v 6.344448089599609 58.85209274291992 15
v 6.344448089599609 58.85209274291992 30
vt 0.8524608016014099 0.008768991567194462
vt 0.9125751256942749 0.008768991567194462
vt 0.8524608016014099 0.885668158531189
vt 0.8524608016014099 0.4472185671329498
vt 0.9125751256942749 0.885668158531189
vt 0.9125751256942749 0.4472185671329498
vt 0.3930742740631104 0.06155041605234146
vt 0 0.06155041605234146
vt 0.3930742740631104 0.1216359883546829
vt 0 0.1216359883546829
vt 0.1965371370315552 0.1216359883546829
vt 0.1965371370315552 0.06155041605234146
vt 0.7876133918762207 0
vt 0.3945391178131104 0
vt 0.7876133918762207 0.8768991827964783
vt 0.3945391178131104 0.8768991827964783
vt 0.7876133918762207 0.4384495913982391
vt 0.5910762548446655 0.8768991827964783
vt 0.3945391178131104 0.4384495913982391
vt 0.5910762548446655 0
vt 0.3930742740631104 0
vt 0 0
vt 0.3930742740631104 0.06008557230234146
vt 0 0.06008557230234146
vt 0.1965371370315552 0.06008557230234146
vt 0.1965371370315552 0
vt 0.3930742740631104 0.1231008321046829
vt 0 0.1231008321046829
vt 0.3930742740631104 0.99853515625
vt 0 0.99853515625
vt 0.3930742740631104 0.5608180165290833
vt 0.1965371370315552 0.1231008321046829
vt 0.1965371370315552 0.99853515625
vt 0 0.5608180165290833
vt 0.7896794080734253 0.008768991567194462
vt 0.8497936725616455 0.008768991567194462
vt 0.8497936725616455 0.4472185671329498
vt 0.8497936725616455 0.885668158531189
vt 0.7896794080734253 0.885668158531189
vt 0.7896794080734253 0.4472185671329498
vn 0 0 -1
vn 0 0 -1
vn 0 0 -1
vn 0 0 -1
vn 0 0 -1
vn 0 0 -1
vn 0 -1 0
vn 0 -1 0
vn 0 -1 0
vn 0 -1 0
vn 0 -1 0
vn 0 -1 0
vn 1 0 0
vn 1 0 0
vn 1 0 0
vn 1 0 0
vn 1 0 0
vn 1 0 0
vn 1 0 0
vn 1 0 0
vn 0 1 0
vn 0 1 0
vn 0 1 0
vn 0 1 0
vn 0 1 0
vn 0 1 0
vn -1 0 0
vn -1 0 0
vn -1 0 0
vn -1 0 0
vn -1 0 0
vn -1 0 0
vn -1 0 0
vn -1 0 0
vn 0 0 1
vn 0 0 1
vn 0 0 1
vn 0 0 1
vn 0 0 1
vn 0 0 1
f 4/4/4 12/6/6 9/2/2 1/1/1
f 6/3/3 14/5/5 12/6/6 4/4/4
f 10/12/12 2/11/11 1/9/9 9/7/7
f 11/8/8 3/10/10 2/11/11 10/12/12
f 15/20/20 12/17/17 14/13/13
f 15/20/20 16/14/14 13/19/19
f 10/18/18 12/17/17 15/20/20
f 15/20/20 13/19/19 10/18/18
f 10/18/18 13/19/19 11/16/16
f 9/15/15 12/17/17 10/18/18
f 7/26/26 15/25/25 14/23/23 6/21/21
f 8/22/22 16/24/24 15/25/25 7/26/26
f 2/32/32 4/31/31 1/27/27
f 2/32/32 3/28/28 5/34/34
f 7/33/33 4/31/31 2/32/32
f 2/32/32 5/34/34 7/33/33
f 7/33/33 5/34/34 8/30/30
f 6/29/29 4/31/31 7/33/33
f 5/40/40 3/35/35 11/36/36 13/37/37
f 8/39/39 5/40/40 13/37/37 16/38/38
