# Rhino

v 1.538003206253052 43.95453643798828 0
v 1.538003206253052 43.95453643798828 15
v 1.538003206253052 43.95453643798828 30
v 4.958169460296631 49.17500305175781 0
v 4.958169460296631 49.17500305175781 30
v 6.002358913421631 43.95453643798828 0
v 6.002358913421631 43.95453643798828 15
v 6.002358913421631 43.95453643798828 30
v 8.378334999084473 54.39546203613281 0
v 8.378334999084473 54.39546203613281 15
v 8.378334999084473 54.39546203613281 30
v 10.07071018218994 47.84297180175781 0
v 10.07071018218994 47.84297180175781 30
v 14.13906955718994 51.73139953613281 0
v 14.13906955718994 51.73139953613281 15
v 14.13906955718994 51.73139953613281 30
vt 0.2417186796665192 0.2907358407974243
vt 0.2417186796665192 0.3936812877655029
vt 0.002393261296674609 0.4484699368476868
vt 0.1220559626817703 0.3696028888225555
vt 0.06345856189727783 0.5813093185424805
vt 0.1525886207818985 0.4874953329563141
vt 0.3919330537319183 0.287830114364624
vt 0.3919330537319183 0.9781479239463806
vt 0.4934136867523193 0.287830114364624
vt 0.4934136867523193 0.9781479239463806
vt 0.4934136867523193 0.6329890489578247
vt 0.3919330537319183 0.6329890489578247
vt 0.7404552698135376 0
vt 0.7404552698135376 0.6917826533317566
vt 0.99853515625 0
vt 0.99853515625 0.6917826533317566
vt 0.8694952130317688 0
vt 0.99853515625 0.3458913266658783
vt 0.8694952130317688 0.6917826533317566
vt 0.7404552698135376 0.3458913266658783
vt 0.2455767691135406 0.287830114364624
vt 0.2455767691135406 0.9781479239463806
vt 0.3904682099819183 0.287830114364624
vt 0.3904682099819183 0.9781479239463806
vt 0.3904682099819183 0.6329890489578247
vt 0.2455767691135406 0.6329890489578247
vt 0.6917826533317566 0
vt 0 0
vt 0.6917826533317566 0.286365270614624
vt 0 0.286365270614624
vt 0.6917826533317566 0.143182635307312
vt 0.3458913266658783 0
vt 0.3458913266658783 0.286365270614624
vt 0 0.143182635307312
vt 0.7365971803665161 0.2907358407974243
vt 0.7365971803665161 0.3936812877655029
vt 0.6474671363830566 0.4874953329563141
vt 0.5583370923995972 0.5813093185424805
vt 0.4972717761993408 0.4484699368476868
vt 0.6169344782829285 0.3696028888225555
vn 0 0 -1
vn 0 0 -1
vn 0 0 -1
vn 0 0 -1
vn 0 0 -1
vn 0 0 -1
vn 0 -1 0
vn 0 -1 0
vn 0 -1 0
vn 0 -1 0
vn 0 -1 0
vn 0 -1 0
vn 0.6909399032592773 -0.7229121923446655 0
vn 0.6909399032592773 -0.7229121923446655 0
vn 0.6909399032592773 -0.7229121923446655 0
vn 0.6909399032592773 -0.7229121923446655 0
vn 0.6909399032592773 -0.7229121923446655 0
vn 0.6909399032592773 -0.7229121923446655 0
vn 0.6909399032592773 -0.7229121923446655 0
vn 0.6909399032592773 -0.7229121923446655 0
vn 0.4197410643100739 0.9076439142227173 0
vn 0.4197410643100739 0.9076439142227173 0
vn 0.4197410643100739 0.9076439142227173 0
vn 0.4197410643100739 0.9076439142227173 0
vn 0.4197410643100739 0.9076439142227173 0
vn 0.4197410643100739 0.9076439142227173 0
vn -0.8364710211753845 0.5480111837387085 0
vn -0.8364710211753845 0.5480111837387085 0
vn -0.8364710211753845 0.5480111837387085 0
vn -0.8364710211753845 0.5480111837387085 0
vn -0.8364710211753845 0.5480111837387085 0
vn -0.8364710211753845 0.5480111837387085 0
vn -0.8364710211753845 0.5480111837387085 0
vn -0.8364710211753845 0.5480111837387085 0
vn 0 0 1
vn 0 0 1
vn 0 0 1
vn 0 0 1
vn 0 0 1
vn 0 0 1
f 4/4/4 6/2/2 1/1/1
f 12/6/6 6/2/2 4/4/4
f 14/5/5 12/6/6 9/3/3
f 4/4/4 9/3/3 12/6/6
f 7/12/12 2/11/11 1/9/9 6/7/7
f 8/8/8 3/10/10 2/11/11 7/12/12
f 15/20/20 12/17/17 14/13/13
f 15/20/20 16/14/14 13/19/19
f 7/18/18 12/17/17 15/20/20
f 15/20/20 13/19/19 7/18/18
f 7/18/18 13/19/19 8/16/16
f 6/15/15 12/17/17 7/18/18
f 10/26/26 15/25/25 14/23/23 9/21/21
f 11/22/22 16/24/24 15/25/25 10/26/26
f 2/32/32 4/31/31 1/27/27
f 2/32/32 3/28/28 5/34/34
f 10/33/33 4/31/31 2/32/32
f 2/32/32 5/34/34 10/33/33
f 10/33/33 5/34/34 11/30/30
f 9/29/29 4/31/31 10/33/33
f 5/40/40 3/35/35 8/36/36
f 13/37/37 5/40/40 8/36/36
f 16/38/38 11/39/39 13/37/37
f 5/40/40 13/37/37 11/39/39
v 1.034096956253052 1.110812544822693 0
v 1.034096956253052 1.110812544822693 15
v 1.034096956253052 1.110812544822693 30
v 1.034096956253052 19.72430610656738 0
v 1.034096956253052 19.72430610656738 30
v 1.034096956253052 38.33783721923828 0
v 1.034096956253052 38.33783721923828 15
v 1.034096956253052 38.33783721923828 30
v 6.578530788421631 1.110812544822693 0
v 6.578530788421631 1.110812544822693 15
v 6.578530788421631 1.110812544822693 30
v 6.578530788421631 19.72430610656738 0
v 6.578530788421631 19.72430610656738 30
v 6.578530788421631 38.33783721923828 0
v 6.578530788421631 38.33783721923828 15
v 6.578530788421631 38.33783721923828 30
vt 0.2799795269966125 0.00620450871065259
vt 0.3709506392478943 0.00620450871065259
vt 0.2799795269966125 0.6266553401947021
vt 0.2799795269966125 0.3164299428462982
vt 0.3709506392478943 0.6266553401947021
vt 0.3709506392478943 0.3164299428462982
vt 0.0924072265625 0
vt 0.0924072265625 0.5
vt 0.183349609375 0
vt 0.183349609375 0.5
vt 0.183349609375 0.25
vt 0.0924072265625 0.25
vt 0.3733251988887787 0.5
vt 0.3733251988887787 0.99853515625
vt 0.9923111796379089 0.5
vt 0.9923111796379089 0.99853515625
vt 0.6828181743621826 0.5
vt 0.9923111796379089 0.749267578125
vt 0.6828181743621826 0.99853515625
vt 0.3733251988887787 0.749267578125
vt 0 0
vt 0 0.5
vt 0.0909423828125 0
vt 0.0909423828125 0.5
vt 0.0909423828125 0.25
vt 0 0.25
vt 0.3733251988887787 0
vt 0.3733251988887787 0.49853515625
vt 0.9923111796379089 0
vt 0.9923111796379089 0.49853515625
vt 0.6828181743621826 0
vt 0.3733251988887787 0.249267578125
vt 0.9923111796379089 0.249267578125
vt 0.6828181743621826 0.49853515625
vt 0.1857241690158844 0.00620450871065259
vt 0.2766952812671661 0.00620450871065259
vt 0.2766952812671661 0.3164299428462982
vt 0.2766952812671661 0.6266553401947021
vt 0.1857241690158844 0.6266553401947021
vt 0.1857241690158844 0.3164299428462982
vn 0 0 -1
vn 0 0 -1
vn 0 0 -1
vn 0 0 -1
vn 0 0 -1
vn 0 0 -1
vn 0 -1 0
vn 0 -1 0
vn 0 -1 0
vn 0 -1 0
vn 0 -1 0
vn 0 -1 0
vn 1 0 0
vn 1 0 0
vn 1 0 0
vn 1 0 0
vn 1 0 0
vn 1 0 0
vn 1 0 0
vn 1 0 0
vn 0 1 0
vn 0 1 0
vn 0 1 0
vn 0 1 0
vn 0 1 0
vn 0 1 0
vn -1 0 0
vn -1 0 0
vn -1 0 0
vn -1 0 0
vn -1 0 0
vn -1 0 0
vn -1 0 0
vn -1 0 0
vn 0 0 1
vn 0 0 1
vn 0 0 1
vn 0 0 1
vn 0 0 1
vn 0 0 1
f 20/44/44 28/46/46 25/42/42 17/41/41
f 22/43/43 30/45/45 28/46/46 20/44/44
f 26/52/52 18/51/51 17/49/49 25/47/47
f 27/48/48 19/50/50 18/51/51 26/52/52
f 31/60/60 28/57/57 30/53/53
f 31/60/60 32/54/54 29/59/59
f 26/58/58 28/57/57 31/60/60
f 31/60/60 29/59/59 26/58/58
f 26/58/58 29/59/59 27/56/56
f 25/55/55 28/57/57 26/58/58
f 23/66/66 31/65/65 30/63/63 22/61/61
f 24/62/62 32/64/64 31/65/65 23/66/66
f 18/72/72 20/71/71 17/67/67
f 18/72/72 19/68/68 21/74/74
f 23/73/73 20/71/71 18/72/72
f 18/72/72 21/74/74 23/73/73
f 23/73/73 21/74/74 24/70/70
f 22/69/69 20/71/71 23/73/73
f 21/80/80 19/75/75 27/76/76 29/77/77
f 24/79/79 21/80/80 29/77/77 32/78/78
