# Rhino

v 1.514837145805359 1.220077037811279 0
v 1.514837145805359 1.220077037811279 15
v 1.514837145805359 1.220077037811279 30
v 1.514837145805359 26.42223358154297 0
v 1.514837145805359 26.42223358154297 30
v 1.514837145805359 51.62438201904297 0
v 1.514837145805359 51.62438201904297 15
v 1.514837145805359 51.62438201904297 30
v 7.203378677368164 1.220077037811279 0
v 7.203378677368164 1.220077037811279 15
v 7.203378677368164 1.220077037811279 30
v 7.203378677368164 12.56114196777344 0
v 7.203378677368164 12.56114196777344 30
v 7.203378677368164 23.90221405029297 0
v 7.203378677368164 23.90221405029297 15
v 7.203378677368164 23.90221405029297 30
v 7.203378677368164 29.23033905029297 0
v 7.203378677368164 29.23033905029297 15
v 7.203378677368164 29.23033905029297 30
v 7.203378677368164 51.62438201904297 0
v 7.203378677368164 51.62438201904297 15
v 7.203378677368164 51.62438201904297 30
v 21.74872779846191 23.90221405029297 0
v 21.74872779846191 23.90221405029297 30
v 21.74872779846191 29.23033905029297 0
v 21.74872779846191 29.23033905029297 30
v 36.29414367675781 1.220077037811279 0
v 36.29414367675781 1.220077037811279 15
v 36.29414367675781 1.220077037811279 30
v 36.29414367675781 12.56114196777344 0
v 36.29414367675781 12.56114196777344 30
v 36.29414367675781 23.90221405029297 0
v 36.29414367675781 23.90221405029297 15
v 36.29414367675781 23.90221405029297 30
v 36.29414367675781 29.23033905029297 0
v 36.29414367675781 29.23033905029297 15
v 36.29414367675781 29.23033905029297 30
v 36.29414367675781 51.62438201904297 0
v 36.29414367675781 51.62438201904297 15
v 36.29414367675781 51.62438201904297 30
v 41.98262023925781 1.220077037811279 0
v 41.98262023925781 1.220077037811279 15
v 41.98262023925781 1.220077037811279 30
v 41.98262023925781 26.42223358154297 0
v 41.98262023925781 26.42223358154297 30
v 41.98262023925781 51.62438201904297 0
v 41.98262023925781 51.62438201904297 15
v 41.98262023925781 51.62438201904297 30
vt 0.8416606187820435 0.4428832530975342
vt 0.8416606187820435 0.5417100191116333
vt 0.8416606187820435 0.6405367255210876
vt 0.995124876499176 0.4428832530975342
vt 0.9183927178382874 0.4428832530975342
vt 0.995124876499176 0.4042337238788605
vt 0.6540961265563965 0.4042337238788605
vt 0.8246105313301086 0.4042337238788605
vt 0.6540961265563965 0.4428832530975342
vt 0.805611252784729 0.4428832530975342
vt 0.805611252784729 0.6405367255210876
vt 0.805611252784729 0.5417100191116333
vt 0.6540961265563965 0.6405367255210876
vt 0.6540961265563965 0.6791862845420837
vt 0.995124876499176 0.6791862845420837
vt 0.8246105313301086 0.6791862845420837
vt 0.995124876499176 0.6405367255210876
vt 0.9183927178382874 0.6405367255210876
vt 0.5291736721992493 0.1976534575223923
vt 0.3253429234027863 0.1976534575223923
vt 0.5291736721992493 0.3938420712947845
vt 0.3253429234027863 0.3938420712947845
vt 0.5291736721992493 0.2957477569580078
vt 0.427258312702179 0.3938420712947845
vt 0.3253429234027863 0.2957477569580078
vt 0.427258312702179 0.1976534575223923
vt 0.4965753555297852 0.5991376638412476
vt 0.4965753555297852 0.8015035390853882
vt 0.6492210030555725 0.5991376638412476
vt 0.6492210030555725 0.8015035390853882
vt 0.5728982090950012 0.5991376638412476
vt 0.6492210030555725 0.7003206014633179
vt 0.5728982090950012 0.8015035390853882
vt 0.4965753555297852 0.7003206014633179
vt 0.203830748796463 0.4392652213573456
vt 0 0.4392652213573456
vt 0.203830748796463 0.4779147505760193
vt 0 0.4779147505760193
vt 0.1019153743982315 0.4779147505760193
vt 0.1019153743982315 0.4392652213573456
vt 0.203830748796463 0
vt 0 0
vt 0.203830748796463 0.3424648344516754
vt 0 0.3424648344516754
vt 0.203830748796463 0.1712324172258377
vt 0.1019153743982315 0.3424648344516754
vt 0 0.1712324172258377
vt 0.1019153743982315 0
vt 0.203830748796463 0.3953069150447845
vt 0 0.3953069150447845
vt 0.203830748796463 0.4339564442634583
vt 0 0.4339564442634583
vt 0.1019153743982315 0.4339564442634583
vt 0.1019153743982315 0.3953069150447845
vt 0.4965753555297852 0.3953069150447845
vt 0.4965753555297852 0.5976728200912476
vt 0.6487284898757935 0.3953069150447845
vt 0.6487284898757935 0.5976728200912476
vt 0.6487284898757935 0.4964898526668549
vt 0.4965753555297852 0.4964898526668549
vt 0.5291736721992493 0
vt 0.3253429234027863 0
vt 0.5291736721992493 0.1961886137723923
vt 0.3253429234027863 0.1961886137723923
vt 0.5291736721992493 0.09809430688619614
vt 0.427258312702179 0.1961886137723923
vt 0.3253429234027863 0.09809430688619614
vt 0.427258312702179 0
vt 0.3424648344516754 0.3953069150447845
vt 0.3424648344516754 0.5976728200912476
vt 0.4946179986000061 0.3953069150447845
vt 0.4946179986000061 0.5976728200912476
vt 0.4946179986000061 0.4964898526668549
vt 0.3424648344516754 0.4964898526668549
vt 0.203830748796463 0.52718186378479
vt 0 0.52718186378479
vt 0.203830748796463 0.5658314228057861
vt 0 0.5658314228057861
vt 0.1019153743982315 0.5658314228057861
vt 0.1019153743982315 0.52718186378479
vt 0 0.5711401700973511
vt 0 0.7749708890914917
vt 0.3409999907016754 0.5711401700973511
vt 0.3409999907016754 0.7749708890914917
vt 0.1704999953508377 0.5711401700973511
vt 0.3409999907016754 0.6730555295944214
vt 0.1704999953508377 0.7749708890914917
vt 0 0.6730555295944214
vt 0.203830748796463 0.4832235276699066
vt 0 0.4832235276699066
vt 0.203830748796463 0.5218730568885803
vt 0 0.5218730568885803
vt 0.1019153743982315 0.5218730568885803
vt 0.1019153743982315 0.4832235276699066
vt 0.3424648344516754 0.5991376638412476
vt 0.3424648344516754 0.8015035390853882
vt 0.4951105117797852 0.5991376638412476
vt 0.4951105117797852 0.8015035390853882
vt 0.4187876880168915 0.5991376638412476
vt 0.3424648344516754 0.7003206014633179
vt 0.4951105117797852 0.7003206014633179
vt 0.4187876880168915 0.8015035390853882
vt 0.8416606187820435 0.04139907285571098
vt 0.8416606187820435 0.1402257978916168
vt 0.8416606187820435 0.2390525341033936
vt 0.9183927178382874 0.2390525341033936
vt 0.995124876499176 0.2390525341033936
vt 0.995124876499176 0.2777020633220673
vt 0.8246105313301086 0.2777020633220673
vt 0.6540961265563965 0.2777020633220673
vt 0.6540961265563965 0.2390525341033936
vt 0.805611252784729 0.2390525341033936
vt 0.805611252784729 0.1402257978916168
vt 0.805611252784729 0.04139907285571098
vt 0.6540961265563965 0.04139907285571098
vt 0.6540961265563965 0.002749525476247072
vt 0.8246105313301086 0.002749525476247072
vt 0.995124876499176 0.002749525476247072
vt 0.995124876499176 0.04139907285571098
vt 0.9183927178382874 0.04139907285571098
vn 0 0 -1
vn 0 0 -1
vn 0 0 -1
vn 0 0 -1
vn 0 0 -1
vn 0 0 -1
vn 0 0 -1
vn 0 0 -1
vn 0 0 -1
vn 0 0 -1
vn 0 0 -1
vn 0 0 -1
vn 0 0 -1
vn 0 0 -1
vn 0 0 -1
vn 0 0 -1
vn 0 0 -1
vn 0 0 -1
vn 0 -1 0
vn 0 -1 0
vn 0 -1 0
vn 0 -1 0
vn 0 -1 0
vn 0 -1 0
vn 0 -1 0
vn 0 -1 0
vn -1 0 0
vn -1 0 0
vn -1 0 0
vn -1 0 0
vn -1 0 0
vn -1 0 0
vn -1 0 0
vn -1 0 0
vn 0 -1 0
vn 0 -1 0
vn 0 -1 0
vn 0 -1 0
vn 0 -1 0
vn 0 -1 0
vn 1 0 0
vn 1 0 0
vn 1 0 0
vn 1 0 0
vn 1 0 0
vn 1 0 0
vn 1 0 0
vn 1 0 0
vn 0 1 0
vn 0 1 0
vn 0 1 0
vn 0 1 0
vn 0 1 0
vn 0 1 0
vn -1 0 0
vn -1 0 0
vn -1 0 0
vn -1 0 0
vn -1 0 0
vn -1 0 0
vn 0 1 0
vn 0 1 0
vn 0 1 0
vn 0 1 0
vn 0 1 0
vn 0 1 0
vn 0 1 0
vn 0 1 0
vn 1 0 0
vn 1 0 0
vn 1 0 0
vn 1 0 0
vn 1 0 0
vn 1 0 0
vn 0 1 0
vn 0 1 0
vn 0 1 0
vn 0 1 0
vn 0 1 0
vn 0 1 0
vn -1 0 0
vn -1 0 0
vn -1 0 0
vn -1 0 0
vn -1 0 0
vn -1 0 0
vn -1 0 0
vn -1 0 0
vn 0 -1 0
vn 0 -1 0
vn 0 -1 0
vn 0 -1 0
vn 0 -1 0
vn 0 -1 0
vn 1 0 0
vn 1 0 0
vn 1 0 0
vn 1 0 0
vn 1 0 0
vn 1 0 0
vn 1 0 0
vn 1 0 0
vn 0 0 1
vn 0 0 1
vn 0 0 1
vn 0 0 1
vn 0 0 1
vn 0 0 1
vn 0 0 1
vn 0 0 1
vn 0 0 1
vn 0 0 1
vn 0 0 1
vn 0 0 1
vn 0 0 1
vn 0 0 1
vn 0 0 1
vn 0 0 1
vn 0 0 1
vn 0 0 1
f 12/5/5 9/4/4 1/6/6
f 4/8/8 14/1/1 12/5/5 1/6/6
f 6/7/7 20/9/9 17/10/10 4/8/8
f 14/1/1 4/8/8 17/10/10
f 23/2/2 14/1/1 17/10/10 25/12/12
f 41/15/15 27/17/17 30/18/18
f 41/15/15 30/18/18 32/3/3 44/16/16
f 25/12/12 35/11/11 32/3/3 23/2/2
f 38/13/13 46/14/14 44/16/16 35/11/11
f 35/11/11 44/16/16 32/3/3
f 33/26/26 23/23/23 32/19/19
f 33/26/26 34/20/20 24/25/25
f 15/24/24 23/23/23 33/26/26
f 33/26/26 24/25/25 15/24/24
f 15/24/24 24/25/25 16/22/22
f 14/21/21 23/23/23 15/24/24
f 28/34/34 30/31/31 27/27/27
f 28/34/34 29/28/28 31/33/33
f 33/32/32 30/31/31 28/34/34
f 28/34/34 31/33/33 33/32/32
f 33/32/32 31/33/33 34/30/30
f 32/29/29 30/31/31 33/32/32
f 42/40/40 28/39/39 27/37/37 41/35/35
f 43/36/36 29/38/38 28/39/39 42/40/40
f 47/48/48 44/45/45 46/41/41
f 47/48/48 48/42/42 45/47/47
f 42/46/46 44/45/45 47/48/48
f 47/48/48 45/47/47 42/46/46
f 42/46/46 45/47/47 43/44/44
f 41/43/43 44/45/45 42/46/46
f 39/54/54 47/53/53 46/51/51 38/49/49
f 40/50/50 48/52/52 47/53/53 39/54/54
f 36/60/60 39/59/59 38/57/57 35/55/55
f 37/56/56 40/58/58 39/59/59 36/60/60
f 18/68/68 25/65/65 17/61/61
f 18/68/68 19/62/62 26/67/67
f 36/66/66 25/65/65 18/68/68
f 18/68/68 26/67/67 36/66/66
f 36/66/66 26/67/67 37/64/64
f 35/63/63 25/65/65 36/66/66
f 21/74/74 18/73/73 17/71/71 20/69/69
f 22/70/70 19/72/72 18/73/73 21/74/74
f 7/80/80 21/79/79 20/77/77 6/75/75
f 8/76/76 22/78/78 21/79/79 7/80/80
f 2/88/88 4/85/85 1/81/81
f 2/88/88 3/82/82 5/87/87
f 7/86/86 4/85/85 2/88/88
f 2/88/88 5/87/87 7/86/86
f 7/86/86 5/87/87 8/84/84
f 6/83/83 4/85/85 7/86/86
f 10/94/94 2/93/93 1/91/91 9/89/89
f 11/90/90 3/92/92 2/93/93 10/94/94
f 15/100/100 12/99/99 14/95/95
f 15/100/100 16/96/96 13/102/102
f 10/101/101 12/99/99 15/100/100
f 15/100/100 13/102/102 10/101/101
f 10/101/101 13/102/102 11/98/98
f 9/97/97 12/99/99 10/101/101
f 13/120/120 3/118/118 11/119/119
f 5/117/117 3/118/118 13/120/120 16/103/103
f 8/116/116 5/117/117 19/114/114 22/115/115
f 16/103/103 19/114/114 5/117/117
f 24/104/104 26/113/113 19/114/114 16/103/103
f 43/108/108 31/106/106 29/107/107
f 43/108/108 45/109/109 34/105/105 31/106/106
f 26/113/113 24/104/104 34/105/105 37/112/112
f 40/111/111 37/112/112 45/109/109 48/110/110
f 37/112/112 34/105/105 45/109/109
