# Rhino

v 1.681092143058777 1.220077037811279 0
v 1.681092143058777 1.220077037811279 15
v 1.681092143058777 1.220077037811279 30
v 1.681092143058777 9.620796203613281 0
v 1.681092143058777 9.620796203613281 30
v 1.681092143058777 18.02151489257812 0
v 1.681092143058777 18.02151489257812 30
v 1.681092143058777 26.42223358154297 0
v 1.681092143058777 26.42223358154297 30
v 1.681092143058777 34.82294845581055 0
v 1.681092143058777 34.82294845581055 30
v 1.681092143058777 43.22366333007812 0
v 1.681092143058777 43.22366333007812 30
v 1.681092143058777 51.62438201904297 0
v 1.681092143058777 51.62438201904297 15
v 1.681092143058777 51.62438201904297 30
v 7.225525856018066 1.220077037811279 0
v 7.225525856018066 1.220077037811279 15
v 7.225525856018066 1.220077037811279 30
v 7.225525856018066 9.37115478515625 0
v 7.225525856018066 9.37115478515625 30
v 7.225525856018066 17.52223205566406 0
v 7.225525856018066 17.52223205566406 30
v 7.225525856018066 25.67330551147461 0
v 7.225525856018066 25.67330551147461 30
v 7.225525856018066 33.82438278198242 0
v 7.225525856018066 33.82438278198242 30
v 7.225525856018066 41.97545623779297 0
v 7.225525856018066 41.97545623779297 15
v 7.225525856018066 41.97545623779297 30
v 7.441834449768066 51.62438201904297 0
v 7.441834449768066 51.62438201904297 15
v 7.441834449768066 51.62438201904297 30
v 11.81597995758057 35.24291229248047 0
v 11.81597995758057 35.24291229248047 30
v 12.03216648101807 44.74779510498047 0
v 12.03216648101807 44.74779510498047 30
v 16.40643310546875 28.51036834716797 0
v 16.40643310546875 28.51036834716797 30
v 16.62249755859375 37.87120819091797 0
v 16.62249755859375 37.87120819091797 30
v 20.9969482421875 21.77782440185547 0
v 20.9969482421875 21.77782440185547 30
v 21.212890625 30.99462127685547 0
v 21.212890625 30.99462127685547 30
v 25.58740234375 15.04527282714844 0
v 25.58740234375 15.04527282714844 15
v 25.58740234375 15.04527282714844 30
v 25.80322265625 24.11803436279297 0
v 25.80322265625 24.11803436279297 15
v 25.80322265625 24.11803436279297 30
v 25.87548828125 15.04527282714844 0
v 25.87548828125 15.04527282714844 15
v 25.87548828125 15.04527282714844 30
v 30.3936767578125 30.99462127685547 0
v 30.3936767578125 30.99462127685547 30
v 30.4658203125 21.79589080810547 0
v 30.4658203125 21.79589080810547 30
v 34.98413848876953 37.87120819091797 0
v 34.98413848876953 37.87120819091797 30
v 35.05615997314453 28.54650115966797 0
v 35.05615997314453 28.54650115966797 30
v 39.57462310791016 44.74779510498047 0
v 39.57462310791016 44.74779510498047 30
v 39.64652252197266 35.29711151123047 0
v 39.64652252197266 35.29711151123047 30
v 44.16501617431641 51.62438201904297 0
v 44.16501617431641 51.62438201904297 15
v 44.16501617431641 51.62438201904297 30
v 44.23679351806641 1.220077037811279 0
v 44.23679351806641 1.220077037811279 15
v 44.23679351806641 1.220077037811279 30
v 44.23679351806641 9.385604858398438 0
v 44.23679351806641 9.385604858398438 30
v 44.23679351806641 17.55113220214844 0
v 44.23679351806641 17.55113220214844 30
v 44.23679351806641 25.71666717529297 0
v 44.23679351806641 25.71666717529297 30
v 44.23679351806641 33.88219451904297 0
v 44.23679351806641 33.88219451904297 30
v 44.23679351806641 42.04772186279297 0
v 44.23679351806641 42.04772186279297 15
v 44.23679351806641 42.04772186279297 30
v 49.92525482177734 1.220077037811279 0
v 49.92525482177734 1.220077037811279 15
v 49.92525482177734 1.220077037811279 30
v 49.92525482177734 9.620796203613281 0
v 49.92525482177734 9.620796203613281 30
v 49.92525482177734 18.02151489257812 0
v 49.92525482177734 18.02151489257812 30
v 49.92525482177734 26.42223358154297 0
v 49.92525482177734 26.42223358154297 30
v 49.92525482177734 34.82294845581055 0
v 49.92525482177734 34.82294845581055 30
v 49.92525482177734 43.22366333007812 0
v 49.92525482177734 43.22366333007812 30
v 49.92525482177734 51.62438201904297 0
v 49.92525482177734 51.62438201904297 15
v 49.92525482177734 51.62438201904297 30
vt 0.1504565924406052 0.4554048478603363
vt 0.1784442663192749 0.4967648983001709
vt 0.2064319401979446 0.5381249189376831
vt 0.2344196140766144 0.5794849991798401
vt 0.2624073028564453 0.6208450198173523
vt 0.1487001031637192 0.4554048478603363
vt 0.03674641251564026 0.6204022765159607
vt 0.06473483145236969 0.5791528820991516
vt 0.09272325783967972 0.5379035472869873
vt 0.1207116842269897 0.4966541826725006
vt 0.03674641251564026 0.3706997931003571
vt 0.03674641251564026 0.4206402897834778
vt 0.03674641251564026 0.4705807864665985
vt 0.03674641251564026 0.5205212831497192
vt 0.03674641251564026 0.5704617500305176
vt 0.002941489918157458 0.3706997931003571
vt 0.002941489918157458 0.6795198917388916
vt 0.002941489918157458 0.6280498504638672
vt 0.002941489918157458 0.5765798687934875
vt 0.002941489918157458 0.5251098275184631
vt 0.002941489918157458 0.4736398160457611
vt 0.002941489918157458 0.4221698045730591
vt 0.03806526586413383 0.6795198917388916
vt 0.1500159800052643 0.5109923481941223
vt 0.1220283061265945 0.5531242489814758
vt 0.09404061734676361 0.5952560901641846
vt 0.06605294346809387 0.6373879909515381
vt 0.261969655752182 0.6795198917388916
vt 0.2339812517166138 0.6373879909515381
vt 0.2059928327798843 0.5952560901641846
vt 0.1780043989419937 0.5531242489814758
vt 0.297090470790863 0.6795198917388916
vt 0.297090470790863 0.3706997931003571
vt 0.297090470790863 0.4221698045730591
vt 0.297090470790863 0.4736398160457611
vt 0.297090470790863 0.5251098275184631
vt 0.297090470790863 0.5765798687934875
vt 0.297090470790863 0.6280498504638672
vt 0.2624073028564453 0.3706997931003571
vt 0.2624073028564453 0.5708159804344177
vt 0.2624073028564453 0.5207869410514832
vt 0.2624073028564453 0.4707578718662262
vt 0.2624073028564453 0.4207288324832916
vt 0.3258213102817535 0
vt 0.3258213102817535 0.1823409497737885
vt 0.5258865356445312 0
vt 0.5258865356445312 0.1823409497737885
vt 0.3758376240730286 0
vt 0.4258539378643036 0
vt 0.4758702516555786 0
vt 0.5258865356445312 0.09117047488689423
vt 0.4758702516555786 0.1823409497737885
vt 0.4258539378643036 0.1823409497737885
vt 0.3758376240730286 0.1823409497737885
vt 0.3258213102817535 0.09117047488689423
vt 0.6770559549331665 0.586712658405304
vt 0.4932501614093781 0.586712658405304
vt 0.6770559549331665 0.8353930115699768
vt 0.4932501614093781 0.8353930115699768
vt 0.6770559549331665 0.6364487409591675
vt 0.6770559549331665 0.686184823513031
vt 0.6770559549331665 0.7359209060668945
vt 0.6770559549331665 0.7856569886207581
vt 0.5851530432701111 0.8353930115699768
vt 0.4932501614093781 0.7856569886207581
vt 0.4932501614093781 0.7359209060668945
vt 0.4932501614093781 0.686184823513031
vt 0.4932501614093781 0.6364487409591675
vt 0.5851530432701111 0.586712658405304
vt 0.8688093423843384 0.0505853034555912
vt 0.6850035190582275 0.0505853034555912
vt 0.8688093423843384 0.08543780446052551
vt 0.6850035190582275 0.08543780446052551
vt 0.776906430721283 0.08543780446052551
vt 0.776906430721283 0.0505853034555912
vt 0.1838057935237885 0
vt 0 0
vt 0.1838057935237885 0.3088200688362122
vt 0 0.3088200688362122
vt 0.1838057935237885 0.05147001519799232
vt 0.1838057935237885 0.1029400303959846
vt 0.1838057935237885 0.1544100344181061
vt 0.1838057935237885 0.2058800607919693
vt 0.1838057935237885 0.2573500573635101
vt 0.09190289676189423 0.3088200688362122
vt 0 0.2573500573635101
vt 0 0.2058800607919693
vt 0 0.1544100344181061
vt 0 0.1029400303959846
vt 0 0.05147001519799232
vt 0.09190289676189423 0
vt 0.8688093423843384 0.0999213308095932
vt 0.6850035190582275 0.0999213308095932
vt 0.8688093423843384 0.1352135986089706
vt 0.6850035190582275 0.1352135986089706
vt 0.776906430721283 0.1352135986089706
vt 0.776906430721283 0.0999213308095932
vt 0.483837753534317 0.3676115870475769
vt 0.3014968037605286 0.3676115870475769
vt 0.483837753534317 0.5702389478683472
vt 0.3014968037605286 0.5702389478683472
vt 0.483837753534317 0.4182684421539307
vt 0.483837753534317 0.468925267457962
vt 0.483837753534317 0.5195820927619934
vt 0.3926672637462616 0.5702389478683472
vt 0.3014968037605286 0.5195820927619934
vt 0.3014968037605286 0.468925267457962
vt 0.3014968037605286 0.4182684421539307
vt 0.3926672637462616 0.3676115870475769
vt 0.3258213102817535 0.1838057935237885
vt 0.3258213102817535 0.3661467432975769
vt 0.5284470319747925 0.1838057935237885
vt 0.5284470319747925 0.3661467432975769
vt 0.3764777481555939 0.1838057935237885
vt 0.4271341860294342 0.1838057935237885
vt 0.4777905941009521 0.1838057935237885
vt 0.5284470319747925 0.2749762833118439
vt 0.4777905941009521 0.3661467432975769
vt 0.4271341860294342 0.3661467432975769
vt 0.3764777481555939 0.3661467432975769
vt 0.3258213102817535 0.2749762833118439
vt 0.6691083908081055 0.3676115870475769
vt 0.485302597284317 0.3676115870475769
vt 0.6691083908081055 0.4014420211315155
vt 0.485302597284317 0.4014420211315155
vt 0.57720547914505 0.4014420211315155
vt 0.57720547914505 0.3676115870475769
vt 0.6850035190582275 0.1498798727989197
vt 0.6850035190582275 0.3336856663227081
vt 0.9938235878944397 0.1498798727989197
vt 0.9938235878944397 0.3336856663227081
vt 0.736473560333252 0.1498798727989197
vt 0.7879435420036316 0.1498798727989197
vt 0.839413583278656 0.1498798727989197
vt 0.8908835649490356 0.1498798727989197
vt 0.9423536062240601 0.1498798727989197
vt 0.9938235878944397 0.2417827695608139
vt 0.9423536062240601 0.3336856663227081
vt 0.8908835649490356 0.3336856663227081
vt 0.839413583278656 0.3336856663227081
vt 0.7879435420036316 0.3336856663227081
vt 0.736473560333252 0.3336856663227081
vt 0.6850035190582275 0.2417827695608139
vt 0.8688093423843384 0.00249856268055737
vt 0.6850035190582275 0.00249856268055737
vt 0.8688093423843384 0.03646853193640709
vt 0.6850035190582275 0.03646853193640709
vt 0.776906430721283 0.03646853193640709
vt 0.776906430721283 0.00249856268055737
vt 0.485302597284317 0.586712658405304
vt 0.3014968037605286 0.586712658405304
vt 0.485302597284317 0.8353930115699768
vt 0.3014968037605286 0.8353930115699768
vt 0.485302597284317 0.6364487409591675
vt 0.485302597284317 0.686184823513031
vt 0.485302597284317 0.7359209060668945
vt 0.485302597284317 0.7856569886207581
vt 0.3933996856212616 0.8353930115699768
vt 0.3014968037605286 0.7856569886207581
vt 0.3014968037605286 0.7359209060668945
vt 0.3014968037605286 0.686184823513031
vt 0.3014968037605286 0.6364487409591675
vt 0.3933996856212616 0.586712658405304
vt 0.485302597284317 0.4029068648815155
vt 0.485302597284317 0.585247814655304
vt 0.6835386753082275 0.4029068648815155
vt 0.6835386753082275 0.585247814655304
vt 0.5348616242408752 0.4029068648815155
vt 0.5844206213951111 0.4029068648815155
vt 0.6339796781539917 0.4029068648815155
vt 0.6835386753082275 0.4940773546695709
vt 0.6339796781539917 0.585247814655304
vt 0.5844206213951111 0.585247814655304
vt 0.5348616242408752 0.585247814655304
vt 0.485302597284317 0.4940773546695709
vt 0.8688093423843384 0
vt 0.6850035190582275 0
vt 0.8688093423843384 0.001765062217600644
vt 0.6850035190582275 0.001765062217600644
vt 0.776906430721283 0
vt 0.776906430721283 0.001765062217600644
vt 0.9111502170562744 0.5612603425979614
vt 0.8699824810028076 0.5893846750259399
vt 0.8288147449493408 0.6175089478492737
vt 0.7876470685005188 0.6456332802772522
vt 0.746479332447052 0.6737576127052307
vt 0.7962757349014282 0.6737576127052307
vt 0.8460721373558044 0.6737576127052307
vt 0.8958685398101807 0.6737576127052307
vt 0.9456649422645569 0.6737576127052307
vt 0.9954613447189331 0.6737576127052307
vt 0.9954613447189331 0.7086101174354553
vt 0.9442306756973267 0.7086101174354553
vt 0.8930000066757202 0.7086101174354553
vt 0.8417693376541138 0.7086101174354553
vt 0.7905386686325073 0.7086101174354553
vt 0.7393080592155457 0.7086101174354553
vt 0.6880773901939392 0.7086101174354553
vt 0.6880773901939392 0.6733178496360779
vt 0.7300133109092712 0.6451928019523621
vt 0.771949291229248 0.6170676946640015
vt 0.8138852119445801 0.5889426469802856
vt 0.8558211922645569 0.5608175992965698
vt 0.8138852119445801 0.5326932668685913
vt 0.771949291229248 0.5045689344406128
vt 0.7300133109092712 0.4764446020126343
vt 0.6880773901939392 0.4483202695846558
vt 0.6880773901939392 0.4130250215530396
vt 0.7393080592155457 0.4130250215530396
vt 0.7905386686325073 0.4130250215530396
vt 0.8417693376541138 0.4130250215530396
vt 0.8930000066757202 0.4130250215530396
vt 0.9442306756973267 0.4130250215530396
vt 0.9954613447189331 0.4130250215530396
vt 0.9954613447189331 0.4469949901103973
vt 0.9457530379295349 0.4469949901103973
vt 0.8960447907447815 0.4469949901103973
vt 0.8463365435600281 0.4469949901103973
vt 0.7966282963752747 0.4469949901103973
vt 0.7469200491905212 0.4469949901103973
vt 0.7879775762557983 0.4751200675964355
vt 0.8290351629257202 0.5032451152801514
vt 0.8700926303863525 0.531370222568512
vt 0.9111502170562744 0.5594952702522278
vn 0 0 -1
vn 0 0 -1
vn 0 0 -1
vn 0 0 -1
vn 0 0 -1
vn 0 0 -1
vn 0 0 -1
vn 0 0 -1
vn 0 0 -1
vn 0 0 -1
vn 0 0 -1
vn 0 0 -1
vn 0 0 -1
vn 0 0 -1
vn 0 0 -1
vn 0 0 -1
vn 0 0 -1
vn 0 0 -1
vn 0 0 -1
vn 0 0 -1
vn 0 0 -1
vn 0 0 -1
vn 0 0 -1
vn 0 0 -1
vn 0 0 -1
vn 0 0 -1
vn 0 0 -1
vn 0 0 -1
vn 0 0 -1
vn 0 0 -1
vn 0 0 -1
vn 0 0 -1
vn 0 0 -1
vn 0 0 -1
vn 0 0 -1
vn 0 0 -1
vn 0 0 -1
vn 0 0 -1
vn 0 0 -1
vn 0 0 -1
vn 0 0 -1
vn 0 0 -1
vn 0 0 -1
vn 0.8269312381744385 -0.5623030662536621 0
vn 0.8269312381744385 -0.5623030662536621 0
vn 0.8269312381744385 -0.5623030662536621 0
vn 0.8269312381744385 -0.5623030662536621 0
vn 0.8269312381744385 -0.5623030662536621 0
vn 0.8269312381744385 -0.5623030662536621 0
vn 0.8269312381744385 -0.5623030662536621 0
vn 0.8269312381744385 -0.5623030662536621 0
vn 0.8269312381744385 -0.5623030662536621 0
vn 0.8269312381744385 -0.5623030662536621 0
vn 0.8269312381744385 -0.5623030662536621 0
vn 0.8269312381744385 -0.5623030662536621 0
vn -1 0 0
vn -1 0 0
vn -1 0 0
vn -1 0 0
vn -1 0 0
vn -1 0 0
vn -1 0 0
vn -1 0 0
vn -1 0 0
vn -1 0 0
vn -1 0 0
vn -1 0 0
vn -1 0 0
vn -1 0 0
vn 0 -1 0
vn 0 -1 0
vn 0 -1 0
vn 0 -1 0
vn 0 -1 0
vn 0 -1 0
vn 1 0 0
vn 1 0 0
vn 1 0 0
vn 1 0 0
vn 1 0 0
vn 1 0 0
vn 1 0 0
vn 1 0 0
vn 1 0 0
vn 1 0 0
vn 1 0 0
vn 1 0 0
vn 1 0 0
vn 1 0 0
vn 1 0 0
vn 1 0 0
vn 0 1 0
vn 0 1 0
vn 0 1 0
vn 0 1 0
vn 0 1 0
vn 0 1 0
vn -0.8317117094993591 0.5552077293395996 0
vn -0.8317117094993591 0.5552077293395996 0
vn -0.8317117094993591 0.5552077293395996 0
vn -0.8317117094993591 0.5552077293395996 0
vn -0.8317117094993591 0.5552077293395996 0
vn -0.8317117094993591 0.5552077293395996 0
vn -0.8317117094993591 0.5552077293395996 0
vn -0.8317117094993591 0.5552077293395996 0
vn -0.8317117094993591 0.5552077293395996 0
vn -0.8317117094993591 0.5552077293395996 0
vn -0.8317117094993591 0.5552077293395996 0
vn -0.8317117094993591 0.5552077293395996 0
vn 0.8317185044288635 0.555197536945343 0
vn 0.8317185044288635 0.555197536945343 0
vn 0.8317185044288635 0.555197536945343 0
vn 0.8317185044288635 0.555197536945343 0
vn 0.8317185044288635 0.555197536945343 0
vn 0.8317185044288635 0.555197536945343 0
vn 0.8317185044288635 0.555197536945343 0
vn 0.8317185044288635 0.555197536945343 0
vn 0.8317185044288635 0.555197536945343 0
vn 0.8317185044288635 0.555197536945343 0
vn 0.8317185044288635 0.555197536945343 0
vn 0.8317185044288635 0.555197536945343 0
vn 0 1 0
vn 0 1 0
vn 0 1 0
vn 0 1 0
vn 0 1 0
vn 0 1 0
vn -1 0 0
vn -1 0 0
vn -1 0 0
vn -1 0 0
vn -1 0 0
vn -1 0 0
vn -1 0 0
vn -1 0 0
vn -1 0 0
vn -1 0 0
vn -1 0 0
vn -1 0 0
vn -1 0 0
vn -1 0 0
vn -1 0 0
vn -1 0 0
vn 0 -1 0
vn 0 -1 0
vn 0 -1 0
vn 0 -1 0
vn 0 -1 0
vn 0 -1 0
vn 1 0 0
vn 1 0 0
vn 1 0 0
vn 1 0 0
vn 1 0 0
vn 1 0 0
vn 1 0 0
vn 1 0 0
vn 1 0 0
vn 1 0 0
vn 1 0 0
vn 1 0 0
vn 1 0 0
vn 1 0 0
vn -0.8262225985527039 -0.5633438229560852 0
vn -0.8262225985527039 -0.5633438229560852 0
vn -0.8262225985527039 -0.5633438229560852 0
vn -0.8262225985527039 -0.5633438229560852 0
vn -0.8262225985527039 -0.5633438229560852 0
vn -0.8262225985527039 -0.5633438229560852 0
vn -0.8262225985527039 -0.5633438229560852 0
vn -0.8262225985527039 -0.5633438229560852 0
vn -0.8262225985527039 -0.5633438229560852 0
vn -0.8262225985527039 -0.5633438229560852 0
vn -0.8262225985527039 -0.5633438229560852 0
vn -0.8262225985527039 -0.5633438229560852 0
vn 0 -1 0
vn 0 -1 0
vn 0 -1 0
vn 0 -1 0
vn 0 -1 0
vn 0 -1 0
vn 0 0 1
vn 0 0 1
vn 0 0 1
vn 0 0 1
vn 0 0 1
vn 0 0 1
vn 0 0 1
vn 0 0 1
vn 0 0 1
vn 0 0 1
vn 0 0 1
vn 0 0 1
vn 0 0 1
vn 0 0 1
vn 0 0 1
vn 0 0 1
vn 0 0 1
vn 0 0 1
vn 0 0 1
vn 0 0 1
vn 0 0 1
vn 0 0 1
vn 0 0 1
vn 0 0 1
vn 0 0 1
vn 0 0 1
vn 0 0 1
vn 0 0 1
vn 0 0 1
vn 0 0 1
vn 0 0 1
vn 0 0 1
vn 0 0 1
vn 0 0 1
vn 0 0 1
vn 0 0 1
vn 0 0 1
vn 0 0 1
vn 0 0 1
vn 0 0 1
vn 0 0 1
vn 0 0 1
vn 0 0 1
f 4/22/22 20/12/12 17/11/11 1/16/16
f 6/21/21 22/13/13 20/12/12 4/22/22
f 8/20/20 24/14/14 22/13/13 6/21/21
f 44/25/25 49/24/24 42/10/10
f 24/14/14 8/20/20 10/19/19 26/15/15
f 26/15/15 10/19/19 12/18/18 28/7/7
f 31/23/23 12/18/18 14/17/17
f 28/7/7 12/18/18 31/23/23
f 38/9/9 34/8/8 40/26/26
f 42/10/10 38/9/9 44/25/25
f 44/25/25 38/9/9 40/26/26
f 36/27/27 28/7/7 31/23/23
f 34/8/8 36/27/27 40/26/26
f 34/8/8 28/7/7 36/27/27
f 49/24/24 46/6/6 42/10/10
f 73/43/43 87/34/34 84/33/33 70/39/39
f 57/2/2 52/1/1 49/24/24
f 46/6/6 49/24/24 52/1/1
f 57/2/2 49/24/24 55/31/31
f 75/42/42 89/35/35 87/34/34 73/43/43
f 89/35/35 75/42/42 77/41/41 91/36/36
f 79/40/40 93/37/37 91/36/36 77/41/41
f 59/30/30 61/3/3 55/31/31
f 57/2/2 55/31/31 61/3/3
f 63/29/29 65/4/4 59/30/30
f 61/3/3 59/30/30 65/4/4
f 81/5/5 65/4/4 63/29/29
f 81/5/5 95/38/38 93/37/37 79/40/40
f 63/29/29 67/28/28 81/5/5
f 97/32/32 95/38/38 67/28/28
f 81/5/5 67/28/28 95/38/38
f 82/55/55 65/48/48 81/44/44
f 82/55/55 61/49/49 65/48/48
f 83/45/45 66/54/54 82/55/55
f 82/55/55 66/54/54 62/53/53
f 53/51/51 61/49/49 82/55/55
f 53/51/51 52/46/46 57/50/50
f 82/55/55 62/53/53 53/51/51
f 53/51/51 62/53/53 58/52/52
f 53/51/51 58/52/52 54/47/47
f 57/50/50 61/49/49 53/51/51
f 71/69/69 73/60/60 70/56/56
f 71/69/69 75/61/61 73/60/60
f 74/68/68 71/69/69 72/57/57
f 71/69/69 74/68/68 76/67/67
f 71/69/69 76/67/67 78/66/66 82/64/64
f 77/62/62 75/61/61 71/69/69
f 82/64/64 79/63/63 77/62/62
f 82/64/64 81/58/58 79/63/63
f 82/64/64 78/66/66 80/65/65
f 80/65/65 83/59/59 82/64/64
f 77/62/62 71/69/69 82/64/64
f 85/75/75 71/74/74 70/72/72 84/70/70
f 86/71/71 72/73/73 71/74/74 85/75/75
f 98/91/91 95/80/80 97/76/76
f 98/91/91 91/82/82 93/81/81
f 98/91/91 93/81/81 95/80/80
f 96/90/90 98/91/91 99/77/77
f 98/91/91 96/90/90 94/89/89
f 92/88/88 98/91/91 94/89/89
f 85/85/85 91/82/82 98/91/91
f 85/85/85 87/84/84 89/83/83
f 87/84/84 85/85/85 84/78/78
f 98/91/91 92/88/88 85/85/85
f 85/85/85 92/88/88 90/87/87
f 85/85/85 88/86/86 86/79/79
f 88/86/86 85/85/85 90/87/87
f 89/83/83 91/82/82 85/85/85
f 68/97/97 98/96/96 97/94/94 67/92/92
f 69/93/93 99/95/95 98/96/96 68/97/97
f 50/109/109 55/102/102 49/98/98
f 50/109/109 59/103/103 55/102/102
f 51/99/99 56/108/108 50/109/109
f 50/109/109 56/108/108 60/107/107
f 68/105/105 59/103/103 50/109/109
f 68/105/105 67/100/100 63/104/104
f 50/109/109 60/107/107 68/105/105
f 68/105/105 60/107/107 64/106/106
f 68/105/105 64/106/106 69/101/101
f 63/104/104 59/103/103 68/105/105
f 32/121/121 36/114/114 31/110/110
f 32/121/121 40/115/115 36/114/114
f 33/111/111 37/120/120 32/121/121
f 32/121/121 37/120/120 41/119/119
f 50/117/117 40/115/115 32/121/121
f 50/117/117 49/112/112 44/116/116
f 32/121/121 41/119/119 50/117/117
f 50/117/117 41/119/119 45/118/118
f 50/117/117 45/118/118 51/113/113
f 44/116/116 40/115/115 50/117/117
f 15/127/127 32/126/126 31/124/124 14/122/122
f 16/123/123 33/125/125 32/126/126 15/127/127
f 2/143/143 4/132/132 1/128/128
f 2/143/143 8/134/134 6/133/133
f 2/143/143 6/133/133 4/132/132
f 5/142/142 2/143/143 3/129/129
f 2/143/143 5/142/142 7/141/141
f 9/140/140 2/143/143 7/141/141
f 15/137/137 8/134/134 2/143/143
f 15/137/137 12/136/136 10/135/135
f 12/136/136 15/137/137 14/130/130
f 2/143/143 9/140/140 15/137/137
f 15/137/137 9/140/140 11/139/139
f 15/137/137 13/138/138 16/131/131
f 13/138/138 15/137/137 11/139/139
f 10/135/135 8/134/134 15/137/137
f 18/149/149 2/148/148 1/146/146 17/144/144
f 19/145/145 3/147/147 2/148/148 18/149/149
f 29/163/163 26/154/154 28/150/150
f 29/163/163 24/155/155 26/154/154
f 27/162/162 29/163/163 30/151/151
f 29/163/163 27/162/162 25/161/161
f 23/160/160 29/163/163 25/161/161
f 22/156/156 24/155/155 29/163/163
f 18/158/158 20/157/157 22/156/156
f 18/158/158 17/152/152 20/157/157
f 18/158/158 23/160/160 21/159/159
f 21/159/159 19/153/153 18/158/158
f 23/160/160 18/158/158 29/163/163
f 22/156/156 29/163/163 18/158/158
f 47/175/175 42/168/168 46/164/164
f 47/175/175 38/169/169 42/168/168
f 48/165/165 43/174/174 47/175/175
f 47/175/175 43/174/174 39/173/173
f 29/171/171 38/169/169 47/175/175
f 29/171/171 28/166/166 34/170/170
f 47/175/175 39/173/173 29/171/171
f 29/171/171 39/173/173 35/172/172
f 29/171/171 35/172/172 30/167/167
f 34/170/170 38/169/169 29/171/171
f 53/180/180 47/181/181 46/178/178 52/176/176
f 54/177/177 48/179/179 47/181/181 53/180/180
f 5/213/213 3/214/214 19/215/215 21/216/216
f 7/212/212 5/213/213 21/216/216 23/217/217
f 9/211/211 7/212/212 23/217/217 25/218/218
f 45/204/204 43/223/223 51/203/203
f 25/218/218 27/219/219 11/210/210 9/211/211
f 27/219/219 30/220/220 13/209/209 11/210/210
f 33/207/207 16/208/208 13/209/209
f 30/220/220 33/207/207 13/209/209
f 39/222/222 41/205/205 35/221/221
f 43/223/223 45/204/204 39/222/222
f 45/204/204 41/205/205 39/222/222
f 37/206/206 33/207/207 30/220/220
f 35/221/221 41/205/205 37/206/206
f 35/221/221 37/206/206 30/220/220
f 51/203/203 43/223/223 48/224/224
f 74/190/190 72/191/191 86/192/192 88/193/193
f 58/183/183 51/203/203 54/182/182
f 48/224/224 54/182/182 51/203/203
f 58/183/183 56/202/202 51/203/203
f 76/189/189 74/190/190 88/193/193 90/194/194
f 90/194/194 92/195/195 78/188/188 76/189/189
f 80/187/187 78/188/188 92/195/195 94/196/196
f 60/201/201 56/202/202 62/184/184
f 58/183/183 62/184/184 56/202/202
f 64/200/200 60/201/201 66/185/185
f 62/184/184 66/185/185 60/201/201
f 83/186/186 64/200/200 66/185/185
f 83/186/186 80/187/187 94/196/196 96/197/197
f 64/200/200 83/186/186 69/199/199
f 99/198/198 69/199/199 96/197/197
f 83/186/186 96/197/197 69/199/199
