# Rhino

v 1.635007739067078 1.220077037811279 0
v 1.635007739067078 1.220077037811279 15
v 1.635007739067078 1.220077037811279 30
v 1.635007739067078 26.42223358154297 0
v 1.635007739067078 26.42223358154297 30
v 1.635007739067078 51.62438201904297 0
v 1.635007739067078 51.62438201904297 15
v 1.635007739067078 51.62438201904297 30
v 6.963621139526367 51.62438201904297 0
v 6.963621139526367 51.62438201904297 15
v 6.963621139526367 51.62438201904297 30
v 7.179929733276367 1.220077037811279 0
v 7.179929733276367 1.220077037811279 15
v 7.179929733276367 1.220077037811279 30
v 7.179929733276367 21.88585662841797 0
v 7.179929733276367 21.88585662841797 30
v 7.179929733276367 42.55162811279297 0
v 7.179929733276367 42.55162811279297 30
v 22.84105491638184 31.42662811279297 0
v 22.84105491638184 31.42662811279297 30
v 23.45311546325684 21.88585662841797 0
v 23.45311546325684 21.88585662841797 30
v 38.71844863891602 11.22886657714844 0
v 38.71844863891602 11.22886657714844 30
v 38.71844863891602 31.42662811279297 0
v 38.71844863891602 31.42662811279297 30
v 38.71844863891602 51.62438201904297 0
v 38.71844863891602 51.62438201904297 15
v 38.71844863891602 51.62438201904297 30
v 39.72626113891602 1.220077037811279 0
v 39.72626113891602 1.220077037811279 15
v 39.72626113891602 1.220077037811279 30
v 44.26282119750977 1.220077037811279 0
v 44.26282119750977 1.220077037811279 15
v 44.26282119750977 1.220077037811279 30
v 44.26282119750977 26.42223358154297 0
v 44.26282119750977 26.42223358154297 30
v 44.26282119750977 51.62438201904297 0
v 44.26282119750977 51.62438201904297 15
v 44.26282119750977 51.62438201904297 30
vt 0.6703203320503235 0.6314405202865601
vt 0.8005387187004089 0.6314405202865601
vt 0.9307571053504944 0.6314405202865601
vt 0.6703203320503235 0.6673443913459778
vt 0.9952855110168457 0.6673443913459778
vt 0.8328028917312622 0.6673443913459778
vt 0.9952855110168457 0.6379668116569519
vt 0.7288139462471008 0.4272073209285736
vt 0.8620496988296509 0.5325870513916016
vt 0.9952855110168457 0.4272073209285736
vt 0.8620496988296509 0.4272073209285736
vt 0.9952855110168457 0.3913002908229828
vt 0.6703203320503235 0.3913002908229828
vt 0.8328028917312622 0.3913002908229828
vt 0.6703203320503235 0.4258065819740295
vt 0.8005387187004089 0.5286235809326172
vt 0.2244190126657486 0
vt 0.2244190126657486 0.1928050816059113
vt 0.4860067367553711 0
vt 0.4860067367553711 0.1928050816059113
vt 0.3552128970623016 0
vt 0.4860067367553711 0.09640254080295563
vt 0.3552128970623016 0.1928050816059113
vt 0 0.3885398507118225
vt 0 0.5813449025154114
vt 0.3327363431453705 0.3885398507118225
vt 0.3327363431453705 0.5813449025154114
vt 0.1663681715726852 0.3885398507118225
vt 0.1663681715726852 0.5813449025154114
vt 0 0.4849423766136169
vt 0.04858620837330818 0
vt 0.04858620837330818 0.1942699253559113
vt 0.08309251815080643 0
vt 0.08309251815080643 0.1942699253559113
vt 0.08309251815080643 0.09713496267795563
vt 0.04858620837330818 0.09713496267795563
vt 0.3406693935394287 0.5828097462654114
vt 0.3406693935394287 0.775614857673645
vt 0.6656058430671692 0.5828097462654114
vt 0.6656058430671692 0.775614857673645
vt 0.5031376481056213 0.5828097462654114
vt 0.6656058430671692 0.6792122721672058
vt 0.5031376481056213 0.775614857673645
vt 0.3406693935394287 0.6792122721672058
vt 0.1650341302156448 0
vt 0.1650341302156448 0.1942699253559113
vt 0.2009411752223969 0
vt 0.2009411752223969 0.1942699253559113
vt 0.2009411752223969 0.09713496267795563
vt 0.1650341302156448 0.09713496267795563
vt 0.2244190126657486 0.1942699253559113
vt 0.2244190126657486 0.3870750069618225
vt 0.4920682013034821 0.1942699253559113
vt 0.4920682013034821 0.3870750069618225
vt 0.3582436144351959 0.1942699253559113
vt 0.4920682013034821 0.2906724512577057
vt 0.3582436144351959 0.3870750069618225
vt 0 0.5828097462654114
vt 0 0.775614857673645
vt 0.3392045497894287 0.5828097462654114
vt 0.3392045497894287 0.775614857673645
vt 0.1696022748947144 0.5828097462654114
vt 0.1696022748947144 0.775614857673645
vt 0 0.6792122721672058
vt 0 0
vt 0 0.1942699253559113
vt 0.02937763370573521 0
vt 0.02937763370573521 0.1942699253559113
vt 0.02937763370573521 0.09713496267795563
vt 0 0.09713496267795563
vt 0.3406693935394287 0.3885398507118225
vt 0.3406693935394287 0.5813449025154114
vt 0.6656058430671692 0.3885398507118225
vt 0.6656058430671692 0.5813449025154114
vt 0.5031376481056213 0.3885398507118225
vt 0.6656058430671692 0.4849423766136169
vt 0.5031376481056213 0.5813449025154114
vt 0.3406693935394287 0.4849423766136169
vt 0.1056544780731201 0
vt 0.1056544780731201 0.1942699253559113
vt 0.141558364033699 0
vt 0.141558364033699 0.1942699253559113
vt 0.1056544780731201 0.09713496267795563
vt 0.141558364033699 0.09713496267795563
vt 0.6703203320503235 0.2429006993770599
vt 0.8005387187004089 0.2429006993770599
vt 0.9307571053504944 0.2429006993770599
vt 0.8005387187004089 0.1400837153196335
vt 0.6703203320503235 0.03726674988865852
vt 0.6703203320503235 0.00276044150814414
vt 0.8328028917312622 0.00276044150814414
vt 0.9952855110168457 0.00276044150814414
vt 0.9952855110168457 0.03866749256849289
vt 0.8620496988296509 0.03866749256849289
vt 0.7288139462471008 0.03866749256849289
vt 0.8620496988296509 0.1440472304821014
vt 0.9952855110168457 0.2494269609451294
vt 0.9952855110168457 0.2788045704364777
vt 0.8328028917312622 0.2788045704364777
vt 0.6703203320503235 0.2788045704364777
vn 0 0 -1
vn 0 0 -1
vn 0 0 -1
vn 0 0 -1
vn 0 0 -1
vn 0 0 -1
vn 0 0 -1
vn 0 0 -1
vn 0 0 -1
vn 0 0 -1
vn 0 0 -1
vn 0 0 -1
vn 0 0 -1
vn 0 0 -1
vn 0 0 -1
vn 0 0 -1
vn -1 0 0
vn -1 0 0
vn -1 0 0
vn -1 0 0
vn -1 0 0
vn -1 0 0
vn -1 0 0
vn 0.7861712574958801 0.6180087327957153 0
vn 0.7861712574958801 0.6180087327957153 0
vn 0.7861712574958801 0.6180087327957153 0
vn 0.7861712574958801 0.6180087327957153 0
vn 0.7861712574958801 0.6180087327957153 0
vn 0.7861712574958801 0.6180087327957153 0
vn 0.7861712574958801 0.6180087327957153 0
vn 0 1 0
vn 0 1 0
vn 0 1 0
vn 0 1 0
vn 0 1 0
vn 0 1 0
vn -1 0 0
vn -1 0 0
vn -1 0 0
vn -1 0 0
vn -1 0 0
vn -1 0 0
vn -1 0 0
vn -1 0 0
vn 0 -1 0
vn 0 -1 0
vn 0 -1 0
vn 0 -1 0
vn 0 -1 0
vn 0 -1 0
vn 1 0 0
vn 1 0 0
vn 1 0 0
vn 1 0 0
vn 1 0 0
vn 1 0 0
vn 1 0 0
vn -0.7856566905975342 -0.6186627745628357 0
vn -0.7856566905975342 -0.6186627745628357 0
vn -0.7856566905975342 -0.6186627745628357 0
vn -0.7856566905975342 -0.6186627745628357 0
vn -0.7856566905975342 -0.6186627745628357 0
vn -0.7856566905975342 -0.6186627745628357 0
vn -0.7856566905975342 -0.6186627745628357 0
vn 0 -1 0
vn 0 -1 0
vn 0 -1 0
vn 0 -1 0
vn 0 -1 0
vn 0 -1 0
vn 1 0 0
vn 1 0 0
vn 1 0 0
vn 1 0 0
vn 1 0 0
vn 1 0 0
vn 1 0 0
vn 1 0 0
vn 0 1 0
vn 0 1 0
vn 0 1 0
vn 0 1 0
vn 0 1 0
vn 0 1 0
vn 0 0 1
vn 0 0 1
vn 0 0 1
vn 0 0 1
vn 0 0 1
vn 0 0 1
vn 0 0 1
vn 0 0 1
vn 0 0 1
vn 0 0 1
vn 0 0 1
vn 0 0 1
vn 0 0 1
vn 0 0 1
vn 0 0 1
vn 0 0 1
f 4/14/14 15/11/11 12/10/10 1/12/12
f 19/16/16 21/9/9 17/8/8
f 15/11/11 4/14/14 6/13/13 17/8/8
f 17/8/8 6/13/13 9/15/15
f 9/15/15 19/16/16 17/8/8
f 30/7/7 21/9/9 23/3/3
f 23/3/3 33/5/5 30/7/7
f 33/5/5 23/3/3 25/2/2 36/6/6
f 27/1/1 38/4/4 36/6/6 25/2/2
f 23/3/3 21/9/9 19/16/16
f 24/18/18 26/23/23 25/21/21 23/17/17
f 25/21/21 26/23/23 28/22/22
f 28/22/22 26/23/23 29/20/20
f 27/19/19 25/21/21 28/22/22
f 19/28/28 9/24/24 10/30/30
f 20/29/29 10/30/30 11/25/25
f 23/26/26 19/28/28 20/29/29 24/27/27
f 10/30/30 20/29/29 19/28/28
f 7/36/36 10/35/35 9/33/33 6/31/31
f 8/32/32 11/34/34 10/35/35 7/36/36
f 2/44/44 4/41/41 1/37/37
f 2/44/44 3/38/38 5/43/43
f 7/42/42 4/41/41 2/44/44
f 2/44/44 5/43/43 7/42/42
f 7/42/42 5/43/43 8/40/40
f 6/39/39 4/41/41 7/42/42
f 13/50/50 2/49/49 1/47/47 12/45/45
f 14/46/46 3/48/48 2/49/49 13/50/50
f 18/52/52 16/57/57 15/55/55 17/51/51
f 15/55/55 16/57/57 13/56/56
f 13/56/56 16/57/57 14/54/54
f 12/53/53 15/55/55 13/56/56
f 21/62/62 30/58/58 31/64/64
f 22/63/63 31/64/64 32/59/59
f 17/60/60 21/62/62 22/63/63 18/61/61
f 31/64/64 22/63/63 21/62/62
f 34/70/70 31/69/69 30/67/67 33/65/65
f 35/66/66 32/68/68 31/69/69 34/70/70
f 39/78/78 36/75/75 38/71/71
f 39/78/78 40/72/72 37/77/77
f 34/76/76 36/75/75 39/78/78
f 39/78/78 37/77/77 34/76/76
f 34/76/76 37/77/77 35/74/74
f 33/73/73 36/75/75 34/76/76
f 28/83/83 39/84/84 38/81/81 27/79/79
f 29/80/80 40/82/82 39/84/84 28/83/83
f 5/91/91 3/92/92 14/93/93 16/94/94
f 20/88/88 18/95/95 22/96/96
f 16/94/94 18/95/95 8/90/90 5/91/91
f 18/95/95 11/89/89 8/90/90
f 11/89/89 18/95/95 20/88/88
f 32/97/97 24/87/87 22/96/96
f 24/87/87 32/97/97 35/98/98
f 35/98/98 37/99/99 26/86/86 24/87/87
f 29/85/85 26/86/86 37/99/99 40/100/100
f 24/87/87 20/88/88 22/96/96
