# Rhino

v 0.4582169055938721 1.220077037811279 0
v 0.4582169055938721 1.220077037811279 15
v 0.4582169055938721 1.220077037811279 30
v 1.177943468093872 51.62438201904297 0
v 1.177943468093872 51.62438201904297 15
v 1.177943468093872 51.62438201904297 30
v 7.010462760925293 1.220077037811279 0
v 7.010462760925293 1.220077037811279 15
v 7.010462760925293 1.220077037811279 30
v 7.874720573425293 51.62438201904297 0
v 7.874720573425293 51.62438201904297 15
v 7.874720573425293 51.62438201904297 30
v 10.14303112030029 14.07310485839844 0
v 10.14303112030029 14.07310485839844 30
v 10.50289440155029 39.27526092529297 0
v 10.50289440155029 39.27526092529297 30
v 15.07512950897217 12.05699157714844 0
v 15.07512950897217 12.05699157714844 30
v 15.61541271209717 41.32750701904297 0
v 15.61541271209717 41.32750701904297 30
v 19.82781600952148 26.92613983154297 0
v 19.82781600952148 26.92613983154297 15
v 19.82781600952148 26.92613983154297 30
v 23.13981246948242 22.89391326904297 0
v 23.13981246948242 22.89391326904297 15
v 23.13981246948242 22.89391326904297 30
v 23.35612106323242 31.03063201904297 0
v 23.35612106323242 31.03063201904297 15
v 23.35612106323242 31.03063201904297 30
v 26.66813278198242 26.99840545654297 0
v 26.66813278198242 26.99840545654297 15
v 26.66813278198242 26.99840545654297 30
v 31.02470016479492 41.32750701904297 0
v 31.02470016479492 41.32750701904297 30
v 31.20463180541992 12.05699157714844 0
v 31.20463180541992 12.05699157714844 30
v 35.99308395385742 39.31139373779297 0
v 35.99308395385742 39.31139373779297 30
v 36.35294723510742 14.10923767089844 0
v 36.35294723510742 14.10923767089844 30
v 38.69303512573242 51.62438201904297 0
v 38.69303512573242 51.62438201904297 15
v 38.69303512573242 51.62438201904297 30
v 39.26920700073242 1.220077037811279 0
v 39.26920700073242 1.220077037811279 15
v 39.26920700073242 1.220077037811279 30
v 45.31803512573242 51.62438201904297 0
v 45.31803512573242 51.62438201904297 15
v 45.31803512573242 51.62438201904297 30
v 46.03776168823242 1.220077037811279 0
v 46.03776168823242 1.220077037811279 15
v 46.03776168823242 1.220077037811279 30
vt 0.2937054634094238 0.5783298015594482
vt 0.3443324565887451 0.5783298015594482
vt 0.1730618923902512 0.7411271929740906
vt 0.2333836853504181 0.6597285270690918
vt 0.0524182952940464 0.5783298015594482
vt 0.1127400919795036 0.6597285270690918
vt 0.00340923247858882 0.5783298015594482
vt 0.1482889205217361 0.7714142799377441
vt 0.07584907859563828 0.6748720407485962
vt 0.008792595937848091 0.9569287300109863
vt 0.07854075729846954 0.8641715049743652
vt 0.05888271704316139 0.9569287300109863
vt 0.1746798306703568 0.8022440671920776
vt 0.1167812719941139 0.879586398601532
vt 0.2893958687782288 0.9569287300109863
vt 0.2320378422737122 0.879586398601532
vt 0.3389491140842438 0.9569287300109863
vt 0.1994527876377106 0.7719570398330688
vt 0.2692009508609772 0.8644428849220276
vt 0.271892637014389 0.6751434206962585
vt 0.574543833732605 0.7238224744796753
vt 0.3492065668106079 0.7238224744796753
vt 0.574543833732605 0.7731978893280029
vt 0.3492065668106079 0.7731978893280029
vt 0.4618752002716064 0.7731978893280029
vt 0.4618752002716064 0.7238224744796753
vt 0.7355937361717224 0.5
vt 0.7355937361717224 0.7253372669219971
vt 0.976324737071991 0.5
vt 0.976324737071991 0.7253372669219971
vt 0.8559592366218567 0.5
vt 0.976324737071991 0.6126686334609985
vt 0.8559592366218567 0.7253372669219971
vt 0.7355937361717224 0.6126686334609985
vt 0 0
vt 0 0.2253372818231583
vt 0.2320302575826645 0
vt 0.2320302575826645 0.2253372818231583
vt 0.1160151287913322 0
vt 0.2320302575826645 0.1126686409115791
vt 0.1160151287913322 0.2253372818231583
vt 0 0.1126686409115791
vt 0.574543833732605 0.6237593293190002
vt 0.3492065668106079 0.6237593293190002
vt 0.574543833732605 0.6720564961433411
vt 0.3492065668106079 0.6720564961433411
vt 0.4618752002716064 0.6720564961433411
vt 0.4618752002716064 0.6237593293190002
vt 0.3492065668106079 0.7746627330780029
vt 0.3492065668106079 0.99853515625
vt 0.4449083209037781 0.7746627330780029
vt 0.4449083209037781 0.99853515625
vt 0.540610134601593 0.7746627330780029
vt 0.540610134601593 0.99853515625
vt 0.540610134601593 0.8865989446640015
vt 0.3492065668106079 0.8865989446640015
vt 0.542074978351593 0.7746627330780029
vt 0.542074978351593 0.99853515625
vt 0.7341288924217224 0.7746627330780029
vt 0.7341288924217224 0.99853515625
vt 0.6381019353866577 0.7746627330780029
vt 0.7341288924217224 0.8865989446640015
vt 0.6381019353866577 0.99853515625
vt 0.542074978351593 0.8865989446640015
vt 0.574543833732605 0.6735213398933411
vt 0.3492065668106079 0.6735213398933411
vt 0.574543833732605 0.7223576307296753
vt 0.3492065668106079 0.7223576307296753
vt 0.4618752002716064 0.7223576307296753
vt 0.4618752002716064 0.6735213398933411
vt 0 0.2872719168663025
vt 0 0.5126091837882996
vt 0.2324631959199905 0.2872719168663025
vt 0.2324631959199905 0.5126091837882996
vt 0.1162315979599953 0.2872719168663025
vt 0.2324631959199905 0.399940550327301
vt 0.1162315979599953 0.5126091837882996
vt 0 0.399940550327301
vt 0.7355937361717224 0
vt 0.7355937361717224 0.2253372818231583
vt 0.976324737071991 0
vt 0.976324737071991 0.2253372818231583
vt 0.8559592366218567 0
vt 0.976324737071991 0.1126686409115791
vt 0.8559592366218567 0.2253372818231583
vt 0.7355937361717224 0.1126686409115791
vt 0.574543833732605 0.574543833732605
vt 0.3492065668106079 0.574543833732605
vt 0.574543833732605 0.6222944855690002
vt 0.3492065668106079 0.6222944855690002
vt 0.4618752002716064 0.6222944855690002
vt 0.4618752002716064 0.574543833732605
vt 0.5017402172088623 0.3492065668106079
vt 0.5017402172088623 0.573078989982605
vt 0.7046706080436707 0.3492065668106079
vt 0.7046706080436707 0.573078989982605
vt 0.6032053828239441 0.3492065668106079
vt 0.7046706080436707 0.4611427783966064
vt 0.6032053828239441 0.573078989982605
vt 0.5017402172088623 0.4611427783966064
vt 0.2678866386413574 0.3492065668106079
vt 0.2678866386413574 0.573078989982605
vt 0.4708170294761658 0.3492065668106079
vt 0.4708170294761658 0.573078989982605
vt 0.3693518340587616 0.3492065668106079
vt 0.2678866386413574 0.4611427783966064
vt 0.4708170294761658 0.4611427783966064
vt 0.3693518340587616 0.573078989982605
vt 0.6502715349197388 0.2937054634094238
vt 0.6502715349197388 0.3443324565887451
vt 0.5534579157829285 0.271892637014389
vt 0.4566443264484406 0.1994527876377106
vt 0.3641584813594818 0.2692009508609772
vt 0.2716726362705231 0.3389491140842438
vt 0.2716726362705231 0.2893958687782288
vt 0.3490149676799774 0.2320378422737122
vt 0.4263572990894318 0.1746798306703568
vt 0.3490149676799774 0.1167812719941139
vt 0.2716726362705231 0.05888271704316139
vt 0.2716726362705231 0.008792595937848091
vt 0.3644298613071442 0.07854075729846954
vt 0.4571871161460876 0.1482889205217361
vt 0.5537293553352356 0.07584907859563828
vt 0.6502715349197388 0.00340923247858882
vt 0.6502715349197388 0.0524182952940464
vt 0.56887286901474 0.1127400919795036
vt 0.4874741733074188 0.1730618923902512
vt 0.56887286901474 0.2333836853504181
vn 0 0 -1
vn 0 0 -1
vn 0 0 -1
vn 0 0 -1
vn 0 0 -1
vn 0 0 -1
vn 0 0 -1
vn 0 0 -1
vn 0 0 -1
vn 0 0 -1
vn 0 0 -1
vn 0 0 -1
vn 0 0 -1
vn 0 0 -1
vn 0 0 -1
vn 0 0 -1
vn 0 0 -1
vn 0 0 -1
vn 0 0 -1
vn 0 0 -1
vn 0 -1 0
vn 0 -1 0
vn 0 -1 0
vn 0 -1 0
vn 0 -1 0
vn 0 -1 0
vn 0.7994654178619385 0.6007121205329895 0
vn 0.7994654178619385 0.6007121205329895 0
vn 0.7994654178619385 0.6007121205329895 0
vn 0.7994654178619385 0.6007121205329895 0
vn 0.7994654178619385 0.6007121205329895 0
vn 0.7994654178619385 0.6007121205329895 0
vn 0.7994654178619385 0.6007121205329895 0
vn 0.7994654178619385 0.6007121205329895 0
vn 0.7971878051757812 -0.6037313938140869 0
vn 0.7971878051757812 -0.6037313938140869 0
vn 0.7971878051757812 -0.6037313938140869 0
vn 0.7971878051757812 -0.6037313938140869 0
vn 0.7971878051757812 -0.6037313938140869 0
vn 0.7971878051757812 -0.6037313938140869 0
vn 0.7971878051757812 -0.6037313938140869 0
vn 0.7971878051757812 -0.6037313938140869 0
vn 0 1 0
vn 0 1 0
vn 0 1 0
vn 0 1 0
vn 0 1 0
vn 0 1 0
vn -0.8020218014717102 0.5972947478294373 0
vn -0.8020218014717102 0.5972947478294373 0
vn -0.8020218014717102 0.5972947478294373 0
vn -0.8020218014717102 0.5972947478294373 0
vn -0.8020218014717102 0.5972947478294373 0
vn -0.8020218014717102 0.5972947478294373 0
vn -0.8020218014717102 0.5972947478294373 0
vn -0.8020218014717102 0.5972947478294373 0
vn 0.7993263006210327 0.6008971929550171 0
vn 0.7993263006210327 0.6008971929550171 0
vn 0.7993263006210327 0.6008971929550171 0
vn 0.7993263006210327 0.6008971929550171 0
vn 0.7993263006210327 0.6008971929550171 0
vn 0.7993263006210327 0.6008971929550171 0
vn 0.7993263006210327 0.6008971929550171 0
vn 0.7993263006210327 0.6008971929550171 0
vn 0 1 0
vn 0 1 0
vn 0 1 0
vn 0 1 0
vn 0 1 0
vn 0 1 0
vn -0.798038125038147 -0.6026069521903992 0
vn -0.798038125038147 -0.6026069521903992 0
vn -0.798038125038147 -0.6026069521903992 0
vn -0.798038125038147 -0.6026069521903992 0
vn -0.798038125038147 -0.6026069521903992 0
vn -0.798038125038147 -0.6026069521903992 0
vn -0.798038125038147 -0.6026069521903992 0
vn -0.798038125038147 -0.6026069521903992 0
vn -0.7986544966697693 0.6017898321151733 0
vn -0.7986544966697693 0.6017898321151733 0
vn -0.7986544966697693 0.6017898321151733 0
vn -0.7986544966697693 0.6017898321151733 0
vn -0.7986544966697693 0.6017898321151733 0
vn -0.7986544966697693 0.6017898321151733 0
vn -0.7986544966697693 0.6017898321151733 0
vn -0.7986544966697693 0.6017898321151733 0
vn 0 -1 0
vn 0 -1 0
vn 0 -1 0
vn 0 -1 0
vn 0 -1 0
vn 0 -1 0
vn 0.8022326231002808 -0.5970115661621094 0
vn 0.8022326231002808 -0.5970115661621094 0
vn 0.8022326231002808 -0.5970115661621094 0
vn 0.8022326231002808 -0.5970115661621094 0
vn 0.8022326231002808 -0.5970115661621094 0
vn 0.8022326231002808 -0.5970115661621094 0
vn 0.8022326231002808 -0.5970115661621094 0
vn 0.8022326231002808 -0.5970115661621094 0
vn -0.8022326231002808 -0.5970115661621094 0
vn -0.8022326231002808 -0.5970115661621094 0
vn -0.8022326231002808 -0.5970115661621094 0
vn -0.8022326231002808 -0.5970115661621094 0
vn -0.8022326231002808 -0.5970115661621094 0
vn -0.8022326231002808 -0.5970115661621094 0
vn -0.8022326231002808 -0.5970115661621094 0
vn -0.8022326231002808 -0.5970115661621094 0
vn 0 0 1
vn 0 0 1
vn 0 0 1
vn 0 0 1
vn 0 0 1
vn 0 0 1
vn 0 0 1
vn 0 0 1
vn 0 0 1
vn 0 0 1
vn 0 0 1
vn 0 0 1
vn 0 0 1
vn 0 0 1
vn 0 0 1
vn 0 0 1
vn 0 0 1
vn 0 0 1
vn 0 0 1
vn 0 0 1
f 13/9/9 7/5/5 1/7/7
f 17/6/6 13/9/9 21/8/8
f 7/5/5 13/9/9 17/6/6
f 24/3/3 17/6/6 21/8/8
f 15/11/11 4/10/10 10/12/12
f 19/14/14 21/8/8 15/11/11
f 21/8/8 19/14/14 27/13/13
f 10/12/12 19/14/14 15/11/11
f 30/18/18 24/3/3 21/8/8
f 39/20/20 35/4/4 30/18/18
f 21/8/8 27/13/13 30/18/18
f 50/2/2 44/1/1 39/20/20
f 35/4/4 39/20/20 44/1/1
f 33/16/16 30/18/18 27/13/13
f 41/15/15 47/17/17 37/19/19
f 33/16/16 41/15/15 37/19/19
f 33/16/16 37/19/19 30/18/18
f 35/4/4 24/3/3 30/18/18
f 51/26/26 45/25/25 44/23/23 50/21/21
f 52/22/22 46/24/24 45/25/25 51/26/26
f 31/34/34 39/31/31 30/27/27
f 31/34/34 32/28/28 40/33/33
f 51/32/32 39/31/31 31/34/34
f 31/34/34 40/33/33 51/32/32
f 51/32/32 40/33/33 52/30/30
f 50/29/29 39/31/31 51/32/32
f 48/42/42 37/39/39 47/35/35
f 48/42/42 49/36/36 38/41/41
f 31/40/40 37/39/39 48/42/42
f 48/42/42 38/41/41 31/40/40
f 31/40/40 38/41/41 32/38/38
f 30/37/37 37/39/39 31/40/40
f 42/48/48 48/47/47 47/45/45 41/43/43
f 43/44/44 49/46/46 48/47/47 42/48/48
f 28/56/56 33/51/51 27/49/49
f 28/56/56 29/50/50 34/52/52
f 34/52/52 33/51/51 28/56/56
f 33/51/51 34/52/52 42/55/55
f 42/55/55 34/52/52 43/54/54
f 41/53/53 33/51/51 42/55/55
f 11/64/64 19/61/61 10/57/57
f 11/64/64 12/58/58 20/63/63
f 28/62/62 19/61/61 11/64/64
f 11/64/64 20/63/63 28/62/62
f 28/62/62 20/63/63 29/60/60
f 27/59/59 19/61/61 28/62/62
f 5/70/70 11/69/69 10/67/67 4/65/65
f 6/66/66 12/68/68 11/69/69 5/70/70
f 22/78/78 15/75/75 21/71/71
f 22/78/78 23/72/72 16/77/77
f 5/76/76 15/75/75 22/78/78
f 22/78/78 16/77/77 5/76/76
f 5/76/76 16/77/77 6/74/74
f 4/73/73 15/75/75 5/76/76
f 2/86/86 13/83/83 1/79/79
f 2/86/86 3/80/80 14/85/85
f 22/84/84 13/83/83 2/86/86
f 2/86/86 14/85/85 22/84/84
f 22/84/84 14/85/85 23/82/82
f 21/81/81 13/83/83 22/84/84
f 8/92/92 2/91/91 1/89/89 7/87/87
f 9/88/88 3/90/90 2/91/91 8/92/92
f 25/100/100 17/97/97 24/93/93
f 25/100/100 26/94/94 18/99/99
f 8/98/98 17/97/97 25/100/100
f 25/100/100 18/99/99 8/98/98
f 8/98/98 18/99/99 9/96/96
f 7/95/95 17/97/97 8/98/98
f 45/106/106 35/105/105 44/101/101
f 45/106/106 46/102/102 36/108/108
f 25/107/107 35/105/105 45/106/106
f 45/106/106 36/108/108 25/107/107
f 25/107/107 36/108/108 26/104/104
f 24/103/103 35/105/105 25/107/107
f 14/123/123 3/124/124 9/125/125
f 18/126/126 23/122/122 14/123/123
f 9/125/125 18/126/126 14/123/123
f 26/127/127 23/122/122 18/126/126
f 16/121/121 12/119/119 6/120/120
f 20/118/118 16/121/121 23/122/122
f 23/122/122 29/117/117 20/118/118
f 12/119/119 16/121/121 20/118/118
f 32/112/112 23/122/122 26/127/127
f 40/111/111 32/112/112 36/128/128
f 23/122/122 32/112/112 29/117/117
f 52/110/110 40/111/111 46/109/109
f 36/128/128 46/109/109 40/111/111
f 34/116/116 29/117/117 32/112/112
f 43/115/115 38/113/113 49/114/114
f 34/116/116 38/113/113 43/115/115
f 34/116/116 32/112/112 38/113/113
f 36/128/128 32/112/112 26/127/127
