# Rhino

v 2.103916168212891 1.391163110733032 0
v 2.103916168212891 1.391163110733032 15
v 2.103916168212891 1.391163110733032 30
v 2.103916168212891 20.00469017028809 0
v 2.103916168212891 20.00469017028809 30
v 2.103916168212891 38.61821365356445 0
v 2.103916168212891 38.61821365356445 15
v 2.103916168212891 38.61821365356445 30
v 7.648319244384766 1.391163110733032 0
v 7.648319244384766 1.391163110733032 15
v 7.648319244384766 1.391163110733032 30
v 7.648319244384766 20.00469017028809 0
v 7.648319244384766 20.00469017028809 30
v 7.648319244384766 38.61821365356445 0
v 7.648319244384766 38.61821365356445 15
v 7.648319244384766 38.61821365356445 30
vt 0.2799795269966125 0.00620450871065259
vt 0.3709506392478943 0.00620450871065259
vt 0.2799795269966125 0.6266553401947021
vt 0.2799795269966125 0.3164299428462982
vt 0.3709506392478943 0.6266553401947021
vt 0.3709506392478943 0.3164299428462982
vt 0.0924072265625 0
vt 0.0924072265625 0.5
vt 0.183349609375 0
vt 0.183349609375 0.5
vt 0.183349609375 0.25
vt 0.0924072265625 0.25
vt 0.3733251988887787 0.5
vt 0.3733251988887787 0.99853515625
vt 0.9923111796379089 0.5
vt 0.9923111796379089 0.99853515625
vt 0.6828181743621826 0.5
vt 0.9923111796379089 0.749267578125
vt 0.6828181743621826 0.99853515625
vt 0.3733251988887787 0.749267578125
vt 0 0
vt 0 0.5
vt 0.0909423828125 0
vt 0.0909423828125 0.5
vt 0.0909423828125 0.25
vt 0 0.25
vt 0.3733251988887787 0
vt 0.3733251988887787 0.49853515625
vt 0.9923111796379089 0
vt 0.9923111796379089 0.49853515625
vt 0.6828181743621826 0
vt 0.3733251988887787 0.249267578125
vt 0.9923111796379089 0.249267578125
vt 0.6828181743621826 0.49853515625
vt 0.1857241690158844 0.00620450871065259
vt 0.2766952812671661 0.00620450871065259
vt 0.2766952812671661 0.3164299428462982
vt 0.2766952812671661 0.6266553401947021
vt 0.1857241690158844 0.6266553401947021
vt 0.1857241690158844 0.3164299428462982
vn 0 0 -1
vn 0 0 -1
vn 0 0 -1
vn 0 0 -1
vn 0 0 -1
vn 0 0 -1
vn 0 -1 0
vn 0 -1 0
vn 0 -1 0
vn 0 -1 0
vn 0 -1 0
vn 0 -1 0
vn 1 0 0
vn 1 0 0
vn 1 0 0
vn 1 0 0
vn 1 0 0
vn 1 0 0
vn 1 0 0
vn 1 0 0
vn 0 1 0
vn 0 1 0
vn 0 1 0
vn 0 1 0
vn 0 1 0
vn 0 1 0
vn -1 0 0
vn -1 0 0
vn -1 0 0
vn -1 0 0
vn -1 0 0
vn -1 0 0
vn -1 0 0
vn -1 0 0
vn 0 0 1
vn 0 0 1
vn 0 0 1
vn 0 0 1
vn 0 0 1
vn 0 0 1
f 4/4/4 12/6/6 9/2/2 1/1/1
f 6/3/3 14/5/5 12/6/6 4/4/4
f 10/12/12 2/11/11 1/9/9 9/7/7
f 11/8/8 3/10/10 2/11/11 10/12/12
f 15/20/20 12/17/17 14/13/13
f 15/20/20 16/14/14 13/19/19
f 10/18/18 12/17/17 15/20/20
f 15/20/20 13/19/19 10/18/18
f 10/18/18 13/19/19 11/16/16
f 9/15/15 12/17/17 10/18/18
f 7/26/26 15/25/25 14/23/23 6/21/21
f 8/22/22 16/24/24 15/25/25 7/26/26
f 2/32/32 4/31/31 1/27/27
f 2/32/32 3/28/28 5/34/34
f 7/33/33 4/31/31 2/32/32
f 2/32/32 5/34/34 7/33/33
f 7/33/33 5/34/34 8/30/30
f 6/29/29 4/31/31 7/33/33
f 5/40/40 3/35/35 11/36/36 13/37/37
f 8/39/39 5/40/40 13/37/37 16/38/38
v 1.743564605712891 46.75492477416992 0
v 1.743564605712891 46.75492477416992 15
v 1.743564605712891 46.75492477416992 30
v 1.743564605712891 49.81522750854492 0
v 1.743564605712891 49.81522750854492 30
v 1.743564605712891 52.87553024291992 0
v 1.743564605712891 52.87553024291992 15
v 1.743564605712891 52.87553024291992 30
v 4.911777496337891 46.75492477416992 0
v 4.911777496337891 46.75492477416992 30
v 4.911777496337891 52.87553024291992 0
v 4.911777496337891 52.87553024291992 30
v 8.079959869384766 46.75492477416992 0
v 8.079959869384766 46.75492477416992 15
v 8.079959869384766 46.75492477416992 30
v 8.079959869384766 49.81522750854492 0
v 8.079959869384766 49.81522750854492 30
v 8.079959869384766 52.87553024291992 0
v 8.079959869384766 52.87553024291992 15
v 8.079959869384766 52.87553024291992 30
vt 0.002005074173212051 0.4800045192241669
vt 0.1022587791085243 0.4800045192241669
vt 0.2025124728679657 0.4800045192241669
vt 0.002005074173212051 0.6750698089599609
vt 0.002005074173212051 0.5775371789932251
vt 0.2025124728679657 0.6750698089599609
vt 0.1022587791085243 0.6750698089599609
vt 0.2025124728679657 0.5775371789932251
vt 0.407925933599472 0
vt 0.407925933599472 0.9546428918838501
vt 0.6084045767784119 0
vt 0.6084045767784119 0.9546428918838501
vt 0.5081652402877808 0
vt 0.6084045767784119 0.477321445941925
vt 0.5081652402877808 0.9546428918838501
vt 0.407925933599472 0.477321445941925
vt 0.8049347400665283 0
vt 0.8049347400665283 0.9546428918838501
vt 0.99853515625 0
vt 0.99853515625 0.9546428918838501
vt 0.9017349481582642 0
vt 0.99853515625 0.477321445941925
vt 0.9017349481582642 0.9546428918838501
vt 0.8049347400665283 0.477321445941925
vt 0.2059824019670486 0
vt 0.2059824019670486 0.9546428918838501
vt 0.406461089849472 0
vt 0.406461089849472 0.9546428918838501
vt 0.3062217235565186 0
vt 0.406461089849472 0.477321445941925
vt 0.3062217235565186 0.9546428918838501
vt 0.2059824019670486 0.477321445941925
vt 0.6098694205284119 0
vt 0.6098694205284119 0.9546428918838501
vt 0.8034698963165283 0
vt 0.8034698963165283 0.9546428918838501
vt 0.7066696882247925 0
vt 0.6098694205284119 0.477321445941925
vt 0.8034698963165283 0.477321445941925
vt 0.7066696882247925 0.9546428918838501
vt 0.002005074173212051 0.001950652804225683
vt 0.1022587791085243 0.001950652804225683
vt 0.2025124728679657 0.001950652804225683
vt 0.2025124728679657 0.09948328882455826
vt 0.2025124728679657 0.1970159262418747
vt 0.1022587791085243 0.1970159262418747
vt 0.002005074173212051 0.1970159262418747
vt 0.002005074173212051 0.09948328882455826
vn 0 0 -1
vn 0 0 -1
vn 0 0 -1
vn 0 0 -1
vn 0 0 -1
vn 0 0 -1
vn 0 0 -1
vn 0 0 -1
vn 0 -1 0
vn 0 -1 0
vn 0 -1 0
vn 0 -1 0
vn 0 -1 0
vn 0 -1 0
vn 0 -1 0
vn 0 -1 0
vn 1 0 0
vn 1 0 0
vn 1 0 0
vn 1 0 0
vn 1 0 0
vn 1 0 0
vn 1 0 0
vn 1 0 0
vn 0 1 0
vn 0 1 0
vn 0 1 0
vn 0 1 0
vn 0 1 0
vn 0 1 0
vn 0 1 0
vn 0 1 0
vn -1 0 0
vn -1 0 0
vn -1 0 0
vn -1 0 0
vn -1 0 0
vn -1 0 0
vn -1 0 0
vn -1 0 0
vn 0 0 1
vn 0 0 1
vn 0 0 1
vn 0 0 1
vn 0 0 1
vn 0 0 1
vn 0 0 1
vn 0 0 1
f 20/45/45 25/42/42 17/41/41
f 20/45/45 22/44/44 27/47/47
f 32/48/48 25/42/42 20/45/45
f 20/45/45 27/47/47 32/48/48
f 32/48/48 27/47/47 34/46/46
f 29/43/43 25/42/42 32/48/48
f 30/56/56 25/53/53 29/49/49
f 30/56/56 31/50/50 26/55/55
f 18/54/54 25/53/53 30/56/56
f 30/56/56 26/55/55 18/54/54
f 18/54/54 26/55/55 19/52/52
f 17/51/51 25/53/53 18/54/54
f 35/64/64 32/61/61 34/57/57
f 35/64/64 36/58/58 33/63/63
f 30/62/62 32/61/61 35/64/64
f 35/64/64 33/63/63 30/62/62
f 30/62/62 33/63/63 31/60/60
f 29/59/59 32/61/61 30/62/62
f 23/72/72 27/69/69 22/65/65
f 23/72/72 24/66/66 28/71/71
f 35/70/70 27/69/69 23/72/72
f 23/72/72 28/71/71 35/70/70
f 35/70/70 28/71/71 36/68/68
f 34/67/67 27/69/69 35/70/70
f 18/78/78 20/77/77 17/73/73
f 18/78/78 19/74/74 21/80/80
f 23/79/79 20/77/77 18/78/78
f 18/78/78 21/80/80 23/79/79
f 23/79/79 21/80/80 24/76/76
f 22/75/75 20/77/77 23/79/79
f 21/88/88 19/81/81 26/82/82
f 21/88/88 28/86/86 24/87/87
f 33/84/84 21/88/88 26/82/82
f 21/88/88 33/84/84 28/86/86
f 33/84/84 36/85/85 28/86/86
f 31/83/83 33/84/84 26/82/82
