# Rhino

v 0.7722672820091248 51.62438201904297 0
v 0.7722672820091248 51.62438201904297 15
v 0.7722672820091248 51.62438201904297 30
v 5.27263355255127 38.93334197998047 0
v 5.27263355255127 38.93334197998047 30
v 6.96465015411377 51.62438201904297 0
v 6.96465015411377 51.62438201904297 15
v 6.96465015411377 51.62438201904297 30
v 9.77299976348877 26.24230194091797 0
v 9.77299976348877 26.24230194091797 30
v 10.5649881362915 41.12950897216797 0
v 10.5649881362915 41.12950897216797 30
v 14.1653299331665 30.63463592529297 0
v 14.1653299331665 30.63463592529297 30
v 14.273362159729 13.55125427246094 0
v 14.273362159729 13.55125427246094 30
v 17.76567077636719 20.13976287841797 0
v 17.76567077636719 20.13976287841797 30
v 18.77372741699219 0.8602137565612793 0
v 18.77372741699219 0.8602137565612793 15
v 18.77372741699219 0.8602137565612793 30
v 21.36601257324219 9.644882202148438 0
v 21.36601257324219 9.644882202148438 30
v 23.52616882324219 0.8602137565612793 0
v 23.52616882324219 0.8602137565612793 15
v 23.52616882324219 0.8602137565612793 30
v 24.82231140136719 20.17577362060547 0
v 24.82231140136719 20.17577362060547 30
v 27.00053405761719 11.08506774902344 0
v 27.00053405761719 11.08506774902344 30
v 28.27861022949219 30.70665740966797 0
v 28.27861022949219 30.70665740966797 30
v 30.47489929199219 21.30992889404297 0
v 30.47489929199219 21.30992889404297 30
v 31.73490905761719 41.23754119873047 0
v 31.73490905761719 41.23754119873047 30
v 33.94926452636719 31.53478240966797 0
v 33.94926452636719 31.53478240966797 30
v 35.19120788574219 51.76842498779297 0
v 35.19120788574219 51.76842498779297 15
v 35.19120788574219 51.76842498779297 30
v 37.42366027832031 41.75963592529297 0
v 37.42366027832031 41.75963592529297 15
v 37.42366027832031 41.75963592529297 30
v 39.87190246582031 51.76842498779297 0
v 39.87190246582031 51.76842498779297 15
v 39.87190246582031 51.76842498779297 30
v 40.87995910644531 31.53478240966797 0
v 40.87995910644531 31.53478240966797 30
v 43.32820129394531 41.23754119873047 0
v 43.32820129394531 41.23754119873047 30
v 44.33625793457031 21.30992889404297 0
v 44.33625793457031 21.30992889404297 30
v 46.78450012207031 30.70665740966797 0
v 46.78450012207031 30.70665740966797 30
v 47.79255676269531 11.08506774902344 0
v 47.79255676269531 11.08506774902344 30
v 50.24079895019531 20.17577362060547 0
v 50.24079895019531 20.17577362060547 30
v 51.24885559082031 0.8602137565612793 0
v 51.24885559082031 0.8602137565612793 15
v 51.24885559082031 0.8602137565612793 30
v 53.69709777832031 9.644882202148438 0
v 53.69709777832031 9.644882202148438 30
v 56.07307434082031 0.8602137565612793 0
v 56.07307434082031 0.8602137565612793 15
v 56.07307434082031 0.8602137565612793 30
v 57.29731750488281 20.13976287841797 0
v 57.29731750488281 20.13976287841797 30
v 60.57345581054688 13.55125427246094 0
v 60.57345581054688 13.55125427246094 30
v 60.89755249023438 30.63463592529297 0
v 60.89755249023438 30.63463592529297 30
v 64.49777221679688 41.12950897216797 0
v 64.49777221679688 41.12950897216797 30
v 65.07382202148438 26.24230194091797 0
v 65.07382202148438 26.24230194091797 30
v 68.09799194335938 51.62438201904297 0
v 68.09799194335938 51.62438201904297 15
v 68.09799194335938 51.62438201904297 30
v 69.57418823242188 38.93334197998047 0
v 69.57418823242188 38.93334197998047 30
v 74.07455444335938 51.62438201904297 0
v 74.07455444335938 51.62438201904297 15
v 74.07455444335938 51.62438201904297 30
vt 0.3396976888179779 0.6164291501045227
vt 0.3985234200954437 0.5970923900604248
vt 0.4573491513729095 0.5777556896209717
vt 0.5161749124526978 0.5584189295768738
vt 0.5750006437301636 0.5390821695327759
vt 0.3396976888179779 0.642615795135498
vt 0.5750006437301636 0.7199627757072449
vt 0.5161749124526978 0.700626015663147
vt 0.4573491513729095 0.6812893152236938
vt 0.3985234200954437 0.6619525551795959
vt 0.3405022919178009 0.8005304932594299
vt 0.3991268873214722 0.7803885936737061
vt 0.4577514827251434 0.7602466344833374
vt 0.5163760781288147 0.7401047348976135
vt 0.3405022919178009 0.8339672088623047
vt 0.6240720152854919 0.7332555055618286
vt 0.5531795620918274 0.75843346118927
vt 0.4822871685028076 0.7836113572120667
vt 0.4113947153091431 0.8087893128395081
vt 0.6240720152854919 0.7062657475471497
vt 0.3956069946289062 0.6289187669754028
vt 0.4527232348918915 0.6482555270195007
vt 0.5098394751548767 0.6675922274589539
vt 0.5669557452201843 0.6869289875030518
vt 0.6240720152854919 0.5511674284934998
vt 0.5669557452201843 0.5706052780151367
vt 0.5098394751548767 0.5900431275367737
vt 0.4527232348918915 0.6094809174537659
vt 0.6240720152854919 0.5245792865753174
vt 0.3405022919178009 0.4238675236701965
vt 0.4113947153091431 0.4490454792976379
vt 0.4822871685028076 0.474223405122757
vt 0.5531795620918274 0.499401330947876
vt 0.3405022919178009 0.4585116803646088
vt 0.5163760781288147 0.5189395546913147
vt 0.4577514827251434 0.4987969100475311
vt 0.3991268873214722 0.4786542952060699
vt 0.796807587146759 0
vt 0.6283805966377258 0
vt 0.796807587146759 0.2489029318094254
vt 0.6283805966377258 0.2489029318094254
vt 0.796807587146759 0.06222573295235634
vt 0.796807587146759 0.1244514659047127
vt 0.796807587146759 0.1866772025823593
vt 0.7125940918922424 0.2489029318094254
vt 0.6283805966377258 0.1866772025823593
vt 0.6283805966377258 0.1244514659047127
vt 0.6283805966377258 0.06222573295235634
vt 0.795342743396759 0.4197658002376556
vt 0.6283805966377258 0.4197658002376556
vt 0.795342743396759 0.668931245803833
vt 0.6283805966377258 0.668931245803833
vt 0.795342743396759 0.4820571541786194
vt 0.795342743396759 0.5443485379219055
vt 0.795342743396759 0.6066399216651917
vt 0.6283805966377258 0.6066399216651917
vt 0.6283805966377258 0.5443485379219055
vt 0.6283805966377258 0.4820571541786194
vt 0.7118616700172424 0.4197658002376556
vt 0.796807587146759 0.4197658002376556
vt 0.796807587146759 0.5881927609443665
vt 0.8301081657409668 0.4197658002376556
vt 0.8301081657409668 0.5881927609443665
vt 0.8301081657409668 0.5039792656898499
vt 0.796807587146759 0.5039792656898499
vt 0 0.4197665452957153
vt 0 0.5877120494842529
vt 0.3023905158042908 0.4197665452957153
vt 0.3023905158042908 0.5877120494842529
vt 0.07559762895107269 0.4197665452957153
vt 0.1511952579021454 0.4197665452957153
vt 0.2267928868532181 0.4197665452957153
vt 0.3023905158042908 0.5037392973899841
vt 0.2267928868532181 0.5877120494842529
vt 0.1511952579021454 0.5877120494842529
vt 0.07559762895107269 0.5877120494842529
vt 0 0.5037392973899841
vt 0.02879043854773045 0
vt 0.02879043854773045 0.1684269607067108
vt 0.0554717481136322 0
vt 0.0554717481136322 0.1684269607067108
vt 0.0554717481136322 0.08421348035335541
vt 0.02879043854773045 0.08421348035335541
vt 0.1669621169567108 0.5891768932342529
vt 0 0.5891768932342529
vt 0.1669621169567108 0.710433304309845
vt 0 0.710433304309845
vt 0.1669621169567108 0.831689715385437
vt 0 0.831689715385437
vt 0.1669621169567108 0.6498050689697266
vt 0.1669621169567108 0.7710614800453186
vt 0.08348105847835541 0.831689715385437
vt 0 0.7710614800453186
vt 0 0.6498050689697266
vt 0.08348105847835541 0.5891768932342529
vt 0.99853515625 0.4197658002376556
vt 0.8315730094909668 0.4197658002376556
vt 0.99853515625 0.6621484160423279
vt 0.8315730094909668 0.6621484160423279
vt 0.99853515625 0.4803614318370819
vt 0.99853515625 0.5409570932388306
vt 0.99853515625 0.6015527248382568
vt 0.9150540828704834 0.6621484160423279
vt 0.8315730094909668 0.6015527248382568
vt 0.8315730094909668 0.5409570932388306
vt 0.8315730094909668 0.4803614318370819
vt 0.9150540828704834 0.4197658002376556
vt 0.05802237242460251 0
vt 0.05802237242460251 0.1684269607067108
vt 0.08510665595531464 0
vt 0.08510665595531464 0.1684269607067108
vt 0.08510665595531464 0.08421348035335541
vt 0.05802237242460251 0.08421348035335541
vt 0.2928842008113861 0
vt 0.1244572252035141 0
vt 0.2928842008113861 0.3023905158042908
vt 0.1244572252035141 0.3023905158042908
vt 0.2928842008113861 0.07559762895107269
vt 0.2928842008113861 0.1511952579021454
vt 0.2928842008113861 0.2267928868532181
vt 0.2086707055568695 0.3023905158042908
vt 0.1244572252035141 0.2267928868532181
vt 0.1244572252035141 0.1511952579021454
vt 0.1244572252035141 0.07559762895107269
vt 0.2086707055568695 0
vt 0.08769580721855164 0
vt 0.08769580721855164 0.1684269607067108
vt 0.1212496161460876 0
vt 0.1212496161460876 0.1684269607067108
vt 0.1212496161460876 0.08421348035335541
vt 0.08769580721855164 0.08421348035335541
vt 0.9826172590255737 0
vt 0.8141903281211853 0
vt 0.9826172590255737 0.2491645961999893
vt 0.8141903281211853 0.2491645961999893
vt 0.9826172590255737 0.06229114904999733
vt 0.9826172590255737 0.1245822980999947
vt 0.9826172590255737 0.1868734508752823
vt 0.8984037637710571 0.2491645961999893
vt 0.8141903281211853 0.1868734508752823
vt 0.8141903281211853 0.1245822980999947
vt 0.8141903281211853 0.06229114904999733
vt 0.3353890776634216 0.5891768932342529
vt 0.1684269607067108 0.5891768932342529
vt 0.3353890776634216 0.8380682468414307
vt 0.1684269607067108 0.8380682468414307
vt 0.3353890776634216 0.6513997316360474
vt 0.3353890776634216 0.7136225700378418
vt 0.3353890776634216 0.7758454084396362
vt 0.1684269607067108 0.7758454084396362
vt 0.1684269607067108 0.7136225700378418
vt 0.1684269607067108 0.6513997316360474
vt 0.2519080340862274 0.5891768932342529
vt 0 0
vt 0 0.1684269607067108
vt 0.02627833373844624 0
vt 0.02627833373844624 0.1684269607067108
vt 0 0.08421348035335541
vt 0.02627833373844624 0.08421348035335541
vt 0.3118432462215424 0.1966626197099686
vt 0.3709660768508911 0.1773258745670319
vt 0.4300888776779175 0.1579891294240952
vt 0.4892117083072662 0.1386523693799973
vt 0.548334538936615 0.1193156242370605
vt 0.4894138872623444 0.09917300194501877
vt 0.4304932355880737 0.07903037965297699
vt 0.3715725839138031 0.05888777226209641
vt 0.3126519322395325 0.03874514997005463
vt 0.3126519322395325 0.004100997000932693
vt 0.383902370929718 0.02927892841398716
vt 0.4551528096199036 0.05445685982704163
vt 0.5264032483100891 0.07963479310274124
vt 0.5976536870002747 0.1048127189278603
vt 0.5976536870002747 0.1314009130001068
vt 0.5402489900588989 0.1508387476205826
vt 0.4828442931175232 0.1702765673398972
vt 0.4254395961761475 0.1897143870592117
vt 0.3680348992347717 0.2091522216796875
vt 0.4254395961761475 0.2284889668226242
vt 0.4828442931175232 0.2478257119655609
vt 0.5402489900588989 0.2671624720096588
vt 0.5976536870002747 0.2864992022514343
vt 0.5976536870002747 0.3134889900684357
vt 0.5264032483100891 0.3386668860912323
vt 0.4551528096199036 0.3638448417186737
vt 0.383902370929718 0.3890227675437927
vt 0.3126519322395325 0.4142006933689117
vt 0.3126519322395325 0.380763977766037
vt 0.3715725839138031 0.3606220483779907
vt 0.4304932355880737 0.3404801189899445
vt 0.4894138872623444 0.3203381896018982
vt 0.548334538936615 0.3001962602138519
vt 0.4892117083072662 0.280859500169754
vt 0.4300888776779175 0.2615227699279785
vt 0.3709660768508911 0.2421860098838806
vt 0.3118432462215424 0.2228492647409439
vn 0 0 -1
vn 0 0 -1
vn 0 0 -1
vn 0 0 -1
vn 0 0 -1
vn 0 0 -1
vn 0 0 -1
vn 0 0 -1
vn 0 0 -1
vn 0 0 -1
vn 0 0 -1
vn 0 0 -1
vn 0 0 -1
vn 0 0 -1
vn 0 0 -1
vn 0 0 -1
vn 0 0 -1
vn 0 0 -1
vn 0 0 -1
vn 0 0 -1
vn 0 0 -1
vn 0 0 -1
vn 0 0 -1
vn 0 0 -1
vn 0 0 -1
vn 0 0 -1
vn 0 0 -1
vn 0 0 -1
vn 0 0 -1
vn 0 0 -1
vn 0 0 -1
vn 0 0 -1
vn 0 0 -1
vn 0 0 -1
vn 0 0 -1
vn 0 0 -1
vn 0 0 -1
vn -0.9501346945762634 0.3118398487567902 0
vn -0.9501346945762634 0.3118398487567902 0
vn -0.9501346945762634 0.3118398487567902 0
vn -0.9501346945762634 0.3118398487567902 0
vn -0.9501346945762634 0.3118398487567902 0
vn -0.9501346945762634 0.3118398487567902 0
vn -0.9501346945762634 0.3118398487567902 0
vn -0.9501346945762634 0.3118398487567902 0
vn -0.9501346945762634 0.3118398487567902 0
vn -0.9501346945762634 0.3118398487567902 0
vn -0.9501346945762634 0.3118398487567902 0
vn 0.9458878636360168 0.3244936466217041 0
vn 0.9458878636360168 0.3244936466217041 0
vn 0.9458878636360168 0.3244936466217041 0
vn 0.9458878636360168 0.3244936466217041 0
vn 0.9458878636360168 0.3244936466217041 0
vn 0.9458878636360168 0.3244936466217041 0
vn 0.9458878636360168 0.3244936466217041 0
vn 0.9458878636360168 0.3244936466217041 0
vn 0.9458878636360168 0.3244936466217041 0
vn 0.9458878636360168 0.3244936466217041 0
vn 0.9458878636360168 0.3244936466217041 0
vn 0 1 0
vn 0 1 0
vn 0 1 0
vn 0 1 0
vn 0 1 0
vn 0 1 0
vn -0.9424957633018494 -0.3342181444168091 0
vn -0.9424957633018494 -0.3342181444168091 0
vn -0.9424957633018494 -0.3342181444168091 0
vn -0.9424957633018494 -0.3342181444168091 0
vn -0.9424957633018494 -0.3342181444168091 0
vn -0.9424957633018494 -0.3342181444168091 0
vn -0.9424957633018494 -0.3342181444168091 0
vn -0.9424957633018494 -0.3342181444168091 0
vn -0.9424957633018494 -0.3342181444168091 0
vn -0.9424957633018494 -0.3342181444168091 0
vn -0.9424957633018494 -0.3342181444168091 0
vn -0.9424957633018494 -0.3342181444168091 0
vn 0 -1 0
vn 0 -1 0
vn 0 -1 0
vn 0 -1 0
vn 0 -1 0
vn 0 -1 0
vn 0.9468315839767456 -0.3217296600341797 0
vn 0.9468315839767456 -0.3217296600341797 0
vn 0.9468315839767456 -0.3217296600341797 -7.143833525495406e-17
vn 0.9468315839767456 -0.3217296600341797 -7.143833525495406e-17
vn 0.9468315839767456 -0.3217296600341797 0
vn 0.9468315839767456 -0.3217296600341797 0
vn 0.9468315839767456 -0.3217296600341797 0
vn 0.9468315839767456 -0.3217296600341797 0
vn 0.9468315839767456 -0.3217296600341797 0
vn 0.9468315839767456 -0.3217296600341797 0
vn 0.9468315839767456 -0.3217296600341797 0
vn 0.9468315839767456 -0.3217296600341797 0
vn -0.9473403096199036 -0.3202286660671234 0
vn -0.9473403096199036 -0.3202286660671234 0
vn -0.9473403096199036 -0.3202286660671234 0
vn -0.9473403096199036 -0.3202286660671234 0
vn -0.9473403096199036 -0.3202286660671234 0
vn -0.9473403096199036 -0.3202286660671234 0
vn -0.9473403096199036 -0.3202286660671234 0
vn -0.9473403096199036 -0.3202286660671234 0
vn -0.9473403096199036 -0.3202286660671234 0
vn -0.9473403096199036 -0.3202286660671234 0
vn -0.9473403096199036 -0.3202286660671234 0
vn -0.9473403096199036 -0.3202286660671234 0
vn 0 -1 0
vn 0 -1 0
vn 0 -1 0
vn 0 -1 0
vn 0 -1 0
vn 0 -1 0
vn 0.9424957633018494 -0.3342181444168091 0
vn 0.9424957633018494 -0.3342181444168091 0
vn 0.9424957633018494 -0.3342181444168091 0
vn 0.9424957633018494 -0.3342181444168091 0
vn 0.9424957633018494 -0.3342181444168091 0
vn 0.9424957633018494 -0.3342181444168091 0
vn 0.9424957633018494 -0.3342181444168091 0
vn 0.9424957633018494 -0.3342181444168091 0
vn 0.9424957633018494 -0.3342181444168091 0
vn 0.9424957633018494 -0.3342181444168091 0
vn 0.9424957633018494 -0.3342181444168091 0
vn 0.9424957633018494 -0.3342181444168091 0
vn 0 1 0
vn 0 1 0
vn 0 1 0
vn 0 1 0
vn 0 1 0
vn 0 1 0
vn -0.945891261100769 0.3244838118553162 0
vn -0.945891261100769 0.3244838118553162 0
vn -0.945891261100769 0.3244838118553162 0
vn -0.945891261100769 0.3244838118553162 0
vn -0.945891261100769 0.3244838118553162 0
vn -0.945891261100769 0.3244838118553162 0
vn -0.945891261100769 0.3244838118553162 0
vn -0.945891261100769 0.3244838118553162 0
vn -0.945891261100769 0.3244838118553162 0
vn -0.945891261100769 0.3244838118553162 0
vn -0.945891261100769 0.3244838118553162 0
vn 0.9501346945762634 0.3118398487567902 0
vn 0.9501346945762634 0.3118398487567902 0
vn 0.9501346945762634 0.3118398487567902 0
vn 0.9501346945762634 0.3118398487567902 0
vn 0.9501346945762634 0.3118398487567902 0
vn 0.9501346945762634 0.3118398487567902 0
vn 0.9501346945762634 0.3118398487567902 0
vn 0.9501346945762634 0.3118398487567902 0
vn 0.9501346945762634 0.3118398487567902 0
vn 0.9501346945762634 0.3118398487567902 0
vn 0.9501346945762634 0.3118398487567902 0
vn 0 1 0
vn 0 1 0
vn 0 1 0
vn 0 1 0
vn 0 1 0
vn 0 1 0
vn 0 0 1
vn 0 0 1
vn 0 0 1
vn 0 0 1
vn 0 0 1
vn 0 0 1
vn 0 0 1
vn 0 0 1
vn 0 0 1
vn 0 0 1
vn 0 0 1
vn 0 0 1
vn 0 0 1
vn 0 0 1
vn 0 0 1
vn 0 0 1
vn 0 0 1
vn 0 0 1
vn 0 0 1
vn 0 0 1
vn 0 0 1
vn 0 0 1
vn 0 0 1
vn 0 0 1
vn 0 0 1
vn 0 0 1
vn 0 0 1
vn 0 0 1
vn 0 0 1
vn 0 0 1
vn 0 0 1
vn 0 0 1
vn 0 0 1
vn 0 0 1
vn 0 0 1
vn 0 0 1
vn 0 0 1
f 17/35/35 22/5/5 15/33/33
f 17/35/35 9/32/32 13/36/36
f 15/33/33 9/32/32 17/35/35
f 22/5/5 19/29/29 15/33/33
f 29/26/26 24/25/25 22/5/5
f 19/29/29 22/5/5 24/25/25
f 33/27/27 29/26/26 27/4/4
f 29/26/26 22/5/5 27/4/4
f 33/27/27 27/4/4 31/3/3
f 1/30/30 11/37/37 4/31/31
f 13/36/36 4/31/31 11/37/37
f 11/37/37 1/30/30 6/34/34
f 42/21/21 35/2/2 39/1/1
f 31/3/3 35/2/2 37/28/28
f 37/28/28 35/2/2 42/21/21
f 37/28/28 33/27/27 31/3/3
f 13/36/36 9/32/32 4/31/31
f 58/8/8 63/7/7 56/24/24
f 58/8/8 52/23/23 54/9/9
f 56/24/24 52/23/23 58/8/8
f 63/7/7 60/20/20 56/24/24
f 70/17/17 65/16/16 63/7/7
f 60/20/20 63/7/7 65/16/16
f 76/18/18 70/17/17 68/14/14
f 68/14/14 70/17/17 63/7/7
f 68/14/14 72/13/13 76/18/18
f 50/10/10 54/9/9 48/22/22
f 52/23/23 48/22/22 54/9/9
f 45/6/6 50/10/10 42/21/21
f 48/22/22 42/21/21 50/10/10
f 39/1/1 45/6/6 42/21/21
f 74/12/12 81/19/19 72/13/13
f 76/18/18 72/13/13 81/19/19
f 78/11/11 83/15/15 74/12/12
f 81/19/19 74/12/12 83/15/15
f 27/42/42 22/38/38 23/39/39 28/48/48
f 28/48/48 32/47/47 31/43/43 27/42/42
f 40/45/45 39/40/40 35/44/44
f 31/43/43 32/47/47 40/45/45
f 40/45/45 32/47/47 36/46/46
f 40/45/45 36/46/46 41/41/41
f 35/44/44 31/43/43 40/45/45
f 7/59/59 11/53/53 6/49/49
f 8/50/50 12/58/58 7/59/59
f 7/59/59 12/58/58 14/57/57
f 13/54/54 11/53/53 7/59/59
f 17/55/55 13/54/54 14/57/57 18/56/56
f 22/51/51 17/55/55 18/56/56 23/52/52
f 7/59/59 14/57/57 13/54/54
f 2/65/65 7/64/64 6/62/62 1/60/60
f 3/61/61 8/63/63 7/64/64 2/65/65
f 20/77/77 15/70/70 19/66/66
f 20/77/77 9/71/71 15/70/70
f 21/67/67 16/76/76 20/77/77
f 20/77/77 16/76/76 10/75/75
f 2/73/73 9/71/71 20/77/77
f 2/73/73 1/68/68 4/72/72
f 20/77/77 10/75/75 2/73/73
f 2/73/73 10/75/75 5/74/74
f 2/73/73 5/74/74 3/69/69
f 4/72/72 9/71/71 2/73/73
f 25/83/83 20/82/82 19/80/80 24/78/78
f 26/79/79 21/81/81 20/82/82 25/83/83
f 43/95/95 37/90/90 42/84/84
f 38/94/94 34/87/87 33/86/86 37/90/90
f 44/85/85 38/94/94 43/95/95
f 37/90/90 43/95/95 38/94/94
f 25/92/92 24/88/88 29/91/91
f 30/93/93 25/92/92 29/91/91
f 29/91/91 33/86/86 34/87/87 30/93/93
f 25/92/92 30/93/93 26/89/89
f 61/107/107 56/100/100 60/96/96
f 61/107/107 52/101/101 56/100/100
f 62/97/97 57/106/106 61/107/107
f 61/107/107 57/106/106 53/105/105
f 43/103/103 52/101/101 61/107/107
f 43/103/103 42/98/98 48/102/102
f 61/107/107 53/105/105 43/103/103
f 43/103/103 53/105/105 49/104/104
f 43/103/103 49/104/104 44/99/99
f 48/102/102 52/101/101 43/103/103
f 66/113/113 61/112/112 60/110/110 65/108/108
f 67/109/109 62/111/111 61/112/112 66/113/113
f 84/125/125 81/118/118 83/114/114
f 84/125/125 76/119/119 81/118/118
f 85/115/115 82/124/124 84/125/125
f 84/125/125 82/124/124 77/123/123
f 66/121/121 76/119/119 84/125/125
f 66/121/121 65/116/116 70/120/120
f 84/125/125 77/123/123 66/121/121
f 66/121/121 77/123/123 71/122/122
f 66/121/121 71/122/122 67/117/117
f 70/120/120 76/119/119 66/121/121
f 79/131/131 84/130/130 83/128/128 78/126/126
f 80/127/127 85/129/129 84/130/130 79/131/131
f 68/136/136 63/132/132 64/133/133 69/142/142
f 69/142/142 73/141/141 72/137/137 68/136/136
f 79/139/139 78/134/134 74/138/138
f 72/137/137 73/141/141 79/139/139
f 79/139/139 73/141/141 75/140/140
f 79/139/139 75/140/140 80/135/135
f 74/138/138 72/137/137 79/139/139
f 46/153/153 50/147/147 45/143/143
f 47/144/144 51/152/152 46/153/153
f 46/153/153 51/152/152 55/151/151
f 54/148/148 50/147/147 46/153/153
f 58/149/149 54/148/148 55/151/151 59/150/150
f 63/145/145 58/149/149 59/150/150 64/146/146
f 46/153/153 55/151/151 54/148/148
f 40/158/158 46/159/159 45/156/156 39/154/154
f 41/155/155 47/157/157 46/159/159 40/158/158
f 18/165/165 16/172/172 23/164/164
f 18/165/165 14/166/166 10/171/171
f 16/172/172 18/165/165 10/171/171
f 23/164/164 16/172/172 21/173/173
f 30/175/175 23/164/164 26/174/174
f 21/173/173 26/174/174 23/164/164
f 34/176/176 28/163/163 30/175/175
f 30/175/175 28/163/163 23/164/164
f 34/176/176 32/162/162 28/163/163
f 3/169/169 5/170/170 12/167/167
f 14/166/166 12/167/167 5/170/170
f 12/167/167 8/168/168 3/169/169
f 44/178/178 41/160/160 36/161/161
f 32/162/162 38/177/177 36/161/161
f 38/177/177 44/178/178 36/161/161
f 38/177/177 32/162/162 34/176/176
f 14/166/166 5/170/170 10/171/171
f 59/193/193 55/194/194 53/180/180
f 57/181/181 59/193/193 53/180/180
f 64/192/192 57/181/181 62/182/182
f 71/184/184 64/192/192 67/183/183
f 62/182/182 67/183/183 64/192/192
f 77/185/185 69/191/191 71/184/184
f 59/193/193 57/181/181 64/192/192
f 71/184/184 69/191/191 64/192/192
f 69/191/191 77/185/185 73/190/190
f 51/195/195 49/179/179 55/194/194
f 53/180/180 55/194/194 49/179/179
f 47/196/196 44/178/178 51/195/195
f 49/179/179 51/195/195 44/178/178
f 41/160/160 44/178/178 47/196/196
f 75/189/189 73/190/190 82/186/186
f 77/185/185 82/186/186 73/190/190
f 80/188/188 75/189/189 85/187/187
f 82/186/186 85/187/187 75/189/189
