# Rhino

v 0.5215131640434265 -7.969676494598389 0
v 0.5215131640434265 -7.969676494598389 15
v 0.5215131640434265 -7.969676494598389 30
v 0.5215131640434265 -3.649364233016968 0
v 0.5215131640434265 -3.649364233016968 15
v 0.5215131640434265 -3.649364233016968 30
v 0.5215131640434265 47.47513961791992 0
v 0.5215131640434265 47.47513961791992 15
v 0.5215131640434265 47.47513961791992 30
v 0.5215131640434265 51.79545211791992 0
v 0.5215131640434265 51.79545211791992 15
v 0.5215131640434265 51.79545211791992 30
v 15.93067741394043 -3.649364233016968 0
v 15.93067741394043 -3.649364233016968 15
v 15.93067741394043 -3.649364233016968 30
v 15.93067741394043 21.91289329528809 0
v 15.93067741394043 21.91289329528809 30
v 15.93067741394043 47.47513961791992 0
v 15.93067741394043 47.47513961791992 15
v 15.93067741394043 47.47513961791992 30
v 21.11536979675293 -7.969676494598389 0
v 21.11536979675293 -7.969676494598389 15
v 21.11536979675293 -7.969676494598389 30
v 21.11536979675293 21.91289329528809 0
v 21.11536979675293 21.91289329528809 30
v 21.11536979675293 51.79545211791992 0
v 21.11536979675293 51.79545211791992 15
v 21.11536979675293 51.79545211791992 30
vt 0.4608688354492188 0.9954412579536438
vt 0.4608688354492188 0.8129488825798035
vt 0.9932117462158203 0.9954412579536438
vt 0.7270402908325195 0.9954412579536438
vt 0.9932117462158203 0.8129488825798035
vt 0.9547296166419983 0.8129488825798035
vt 0.9547296166419983 0.9494979977607727
vt 0.4993509352207184 0.9494979977607727
vt 0.7270402908325195 0.9494979977607727
vt 0.4993509352207184 0.8129488825798035
vt 0.2664734721183777 0.499365508556366
vt 0 0.499365508556366
vt 0.2664734721183777 0.6832939982414246
vt 0 0.6832939982414246
vt 0.1332367360591888 0.6832939982414246
vt 0.1332367360591888 0.499365508556366
vt 0.516419529914856 0.5358766317367554
vt 0.516419529914856 0.8038150072097778
vt 0.5550054311752319 0.5358766317367554
vt 0.5550054311752319 0.8038150072097778
vt 0.5550054311752319 0.6698458194732666
vt 0.516419529914856 0.6698458194732666
vt 0.8452319502830505 0.6735002994537354
vt 0.5772936344146729 0.6735002994537354
vt 0.8452319502830505 0.8096591234207153
vt 0.5772936344146729 0.8096591234207153
vt 0.7112628221511841 0.8096591234207153
vt 0.7112628221511841 0.6735002994537354
vt 0.4555453956127167 0
vt 0.4555453956127167 0.2664734721183777
vt 0.9121525883674622 0
vt 0.9121525883674622 0.2664734721183777
vt 0.6838489770889282 0
vt 0.9121525883674622 0.1332367360591888
vt 0.6838489770889282 0.2664734721183777
vt 0.4555453956127167 0.1332367360591888
vt 0.8452319502830505 0.5358766317367554
vt 0.5772936344146729 0.5358766317367554
vt 0.8452319502830505 0.6720354557037354
vt 0.5772936344146729 0.6720354557037354
vt 0.7112628221511841 0.6720354557037354
vt 0.7112628221511841 0.5358766317367554
vt 0.4555453956127167 0.5358766317367554
vt 0.4555453956127167 0.8038150072097778
vt 0.4941312968730927 0.5358766317367554
vt 0.4941312968730927 0.8038150072097778
vt 0.4941312968730927 0.6698458194732666
vt 0.4555453956127167 0.6698458194732666
vt 0.2664734721183777 0
vt 0 0
vt 0.2664734721183777 0.1839285045862198
vt 0 0.1839285045862198
vt 0.1332367360591888 0.1839285045862198
vt 0.1332367360591888 0
vt 0.4555453956127167 0.2679383158683777
vt 0.4555453956127167 0.5344117879867554
vt 0.9893243908882141 0.2679383158683777
vt 0.9893243908882141 0.5344117879867554
vt 0.7224348783493042 0.2679383158683777
vt 0.4555453956127167 0.4011750817298889
vt 0.9893243908882141 0.4011750817298889
vt 0.7224348783493042 0.5344117879867554
vt 0.4522556066513062 0.5391167998313904
vt 0.2697632610797882 0.5391167998313904
vt 0.2697632610797882 0.5005308985710144
vt 0.4063123464584351 0.5005308985710144
vt 0.4063123464584351 0.2722273170948029
vt 0.4063123464584351 0.04392369836568832
vt 0.2697632610797882 0.04392369836568832
vt 0.2697632610797882 0.005337790586054325
vt 0.4522556066513062 0.005337790586054325
vt 0.4522556066513062 0.2722273170948029
vn 0 0 -1
vn 0 0 -1
vn 0 0 -1
vn 0 0 -1
vn 0 0 -1
vn 0 0 -1
vn 0 0 -1
vn 0 0 -1
vn 0 0 -1
vn 0 0 -1
vn 0 1 0
vn 0 1 0
vn 0 1 0
vn 0 1 0
vn 0 1 0
vn 0 1 0
vn -1 0 0
vn -1 0 0
vn -1 0 0
vn -1 0 0
vn -1 0 0
vn -1 0 0
vn 0 -1 0
vn 0 -1 0
vn 0 -1 0
vn 0 -1 0
vn 0 -1 0
vn 0 -1 0
vn -1 0 0
vn -1 0 0
vn -1 0 0
vn -1 0 0
vn -1 0 0
vn -1 0 0
vn -1 0 0
vn -1 0 0
vn 0 1 0
vn 0 1 0
vn 0 1 0
vn 0 1 0
vn 0 1 0
vn 0 1 0
vn -1 0 0
vn -1 0 0
vn -1 0 0
vn -1 0 0
vn -1 0 0
vn -1 0 0
vn 0 -1 0
vn 0 -1 0
vn 0 -1 0
vn 0 -1 0
vn 0 -1 0
vn 0 -1 0
vn 1 0 0
vn 1 0 0
vn 1 0 0
vn 1 0 0
vn 1 0 0
vn 1 0 0
vn 1 0 0
vn 1 0 0
vn 0 0 1
vn 0 0 1
vn 0 0 1
vn 0 0 1
vn 0 0 1
vn 0 0 1
vn 0 0 1
vn 0 0 1
vn 0 0 1
vn 0 0 1
f 13/7/7 21/3/3 1/5/5 4/6/6
f 7/10/10 10/2/2 26/1/1 18/8/8
f 16/9/9 24/4/4 21/3/3 13/7/7
f 24/4/4 16/9/9 18/8/8 26/1/1
f 11/16/16 27/15/15 26/13/13 10/11/11
f 12/12/12 28/14/14 27/15/15 11/16/16
f 8/22/22 11/21/21 10/19/19 7/17/17
f 9/18/18 12/20/20 11/21/21 8/22/22
f 19/28/28 8/27/27 7/25/25 18/23/23
f 20/24/24 9/26/26 8/27/27 19/28/28
f 14/36/36 16/33/33 13/29/29
f 14/36/36 15/30/30 17/35/35
f 19/34/34 16/33/33 14/36/36
f 14/36/36 17/35/35 19/34/34
f 19/34/34 17/35/35 20/32/32
f 18/31/31 16/33/33 19/34/34
f 5/42/42 14/41/41 13/39/39 4/37/37
f 6/38/38 15/40/40 14/41/41 5/42/42
f 2/48/48 5/47/47 4/45/45 1/43/43
f 3/44/44 6/46/46 5/47/47 2/48/48
f 22/54/54 2/53/53 1/51/51 21/49/49
f 23/50/50 3/52/52 2/53/53 22/54/54
f 27/60/60 24/59/59 26/55/55
f 27/60/60 28/56/56 25/62/62
f 22/61/61 24/59/59 27/60/60
f 27/60/60 25/62/62 22/61/61
f 22/61/61 25/62/62 23/58/58
f 21/57/57 24/59/59 22/61/61
f 15/68/68 6/69/69 3/70/70 23/71/71
f 9/65/65 20/66/66 28/63/63 12/64/64
f 17/67/67 15/68/68 23/71/71 25/72/72
f 25/72/72 28/63/63 20/66/66 17/67/67
