# Rhino

v 1.524232983589172 -10.12983322143555 0
v 1.524232983589172 -10.12983322143555 15
v 1.524232983589172 -10.12983322143555 30
v 1.524232983589172 -5.593211650848389 0
v 1.524232983589172 -5.593211650848389 15
v 1.524232983589172 -5.593211650848389 30
v 23.27009963989258 -10.12983322143555 0
v 23.27009963989258 -10.12983322143555 30
v 23.27009963989258 -5.593211650848389 0
v 23.27009963989258 -5.593211650848389 30
v 45.01600646972656 -10.12983322143555 0
v 45.01600646972656 -10.12983322143555 15
v 45.01600646972656 -10.12983322143555 30
v 45.01600646972656 -5.593211650848389 0
v 45.01600646972656 -5.593211650848389 15
v 45.01600646972656 -5.593211650848389 30
vt 0.2223415076732635 0.7105607390403748
vt 0.2223415076732635 0.3587979972362518
vt 0.2223415076732635 0.007035255432128906
vt 0.294290155172348 0.7105607390403748
vt 0.294290155172348 0.007035255432128906
vt 0.294290155172348 0.3587979972362518
vt 0.2964744865894318 0.4852825999259949
vt 0.2964744865894318 0.9691003561019897
vt 0.99853515625 0.4852825999259949
vt 0.99853515625 0.9691003561019897
vt 0.6475048065185547 0.4852825999259949
vt 0.99853515625 0.7271915078163147
vt 0.6475048065185547 0.9691003561019897
vt 0.2964744865894318 0.7271915078163147
vt 0.07338477671146393 0
vt 0.07338477671146393 0.4852825999259949
vt 0.1453047096729279 0
vt 0.1453047096729279 0.4852825999259949
vt 0.1453047096729279 0.2426412999629974
vt 0.07338477671146393 0.2426412999629974
vt 0.2964744865894318 0
vt 0.2964744865894318 0.4838177561759949
vt 0.99853515625 0
vt 0.99853515625 0.4838177561759949
vt 0.6475048065185547 0
vt 0.99853515625 0.2419088780879974
vt 0.6475048065185547 0.4838177561759949
vt 0.2964744865894318 0.2419088780879974
vt 0 0
vt 0 0.4852825999259949
vt 0.07191993296146393 0
vt 0.07191993296146393 0.4852825999259949
vt 0 0.2426412999629974
vt 0.07191993296146393 0.2426412999629974
vt 0.1474890410900116 0.7105607390403748
vt 0.1474890410900116 0.3587979972362518
vt 0.1474890410900116 0.007035255432128906
vt 0.2194376885890961 0.007035255432128906
vt 0.2194376885890961 0.3587979972362518
vt 0.2194376885890961 0.7105607390403748
vn 0 0 -1
vn 0 0 -1
vn 0 0 -1
vn 0 0 -1
vn 0 0 -1
vn 0 0 -1
vn 0 1 0
vn 0 1 0
vn 0 1 0
vn 0 1 0
vn 0 1 0
vn 0 1 0
vn 0 1 0
vn 0 1 0
vn -1 0 0
vn -1 0 0
vn -1 0 0
vn -1 0 0
vn -1 0 0
vn -1 0 0
vn 0 -1 0
vn 0 -1 0
vn 0 -1 0
vn 0 -1 0
vn 0 -1 0
vn 0 -1 0
vn 0 -1 0
vn 0 -1 0
vn 1 0 0
vn 1 0 0
vn 1 0 0
vn 1 0 0
vn 1 0 0
vn 1 0 0
vn 0 0 1
vn 0 0 1
vn 0 0 1
vn 0 0 1
vn 0 0 1
vn 0 0 1
f 4/3/3 9/2/2 7/6/6 1/5/5
f 11/4/4 7/6/6 9/2/2 14/1/1
f 5/14/14 9/11/11 4/7/7
f 5/14/14 6/8/8 10/13/13
f 15/12/12 9/11/11 5/14/14
f 5/14/14 10/13/13 15/12/12
f 15/12/12 10/13/13 16/10/10
f 14/9/9 9/11/11 15/12/12
f 2/20/20 5/19/19 4/17/17 1/15/15
f 3/16/16 6/18/18 5/19/19 2/20/20
f 12/28/28 7/25/25 11/21/21
f 12/28/28 13/22/22 8/27/27
f 2/26/26 7/25/25 12/28/28
f 12/28/28 8/27/27 2/26/26
f 2/26/26 8/27/27 3/24/24
f 1/23/23 7/25/25 2/26/26
f 15/33/33 12/34/34 11/31/31 14/29/29
f 16/30/30 13/32/32 12/34/34 15/33/33
f 6/37/37 3/38/38 8/39/39 10/36/36
f 13/40/40 16/35/35 10/36/36 8/39/39
