# Rhino

v 1.286241173744202 1.391163110733032 0
v 1.286241173744202 1.391163110733032 15
v 1.286241173744202 1.391163110733032 30
v 1.286241173744202 27.67338943481445 0
v 1.286241173744202 27.67338943481445 30
v 1.286241173744202 53.95560836791992 0
v 1.286241173744202 53.95560836791992 15
v 1.286241173744202 53.95560836791992 30
v 6.830674648284912 1.391163110733032 0
v 6.830674648284912 1.391163110733032 15
v 6.830674648284912 1.391163110733032 30
v 6.830674648284912 11.11186695098877 0
v 6.830674648284912 11.11186695098877 15
v 6.830674648284912 11.11186695098877 30
v 6.830674648284912 17.66460227966309 0
v 6.830674648284912 17.66460227966309 15
v 6.830674648284912 17.66460227966309 30
v 6.830674648284912 35.81010818481445 0
v 6.830674648284912 35.81010818481445 30
v 6.830674648284912 53.95560836791992 0
v 6.830674648284912 53.95560836791992 15
v 6.830674648284912 53.95560836791992 30
v 14.39178657531738 18.74468040466309 0
v 14.39178657531738 18.74468040466309 15
v 14.39178657531738 18.74468040466309 30
v 16.87567329406738 28.14140701293945 0
v 16.87567329406738 28.14140701293945 30
v 18.20770454406738 22.63286209106445 0
v 18.20770454406738 22.63286209106445 15
v 18.20770454406738 22.63286209106445 30
v 26.27230644226074 12.01201343536377 0
v 26.27230644226074 12.01201343536377 30
v 26.92049980163574 38.61821365356445 0
v 26.92049980163574 38.61821365356445 15
v 26.92049980163574 38.61821365356445 30
v 27.71249198913574 1.391163110733032 0
v 27.71249198913574 1.391163110733032 15
v 27.71249198913574 1.391163110733032 30
v 33.83315658569336 38.61821365356445 0
v 33.83315658569336 38.61821365356445 15
v 33.83315658569336 38.61821365356445 30
v 34.33700180053711 1.391163110733032 0
v 34.33700180053711 1.391163110733032 15
v 34.33700180053711 1.391163110733032 30
vt 0.5533419847488403 0.003935304936021566
vt 0.4927442669868469 0.08344964683055878
vt 0.4321465492248535 0.1629640012979507
vt 0.5035657286643982 0.003935304936021566
vt 0.4034739434719086 0.1338546127080917
vt 0.346660703420639 0.07671058923006058
vt 0.346660703420639 0.003935304936021566
vt 0.3050001263618469 0.003935304936021566
vt 0.3050001263618469 0.3974657654762268
vt 0.3050001263618469 0.2007005512714386
vt 0.346660703420639 0.3974657654762268
vt 0.346660703420639 0.1257684677839279
vt 0.346660703420639 0.261617124080658
vt 0.4976147413253784 0.2826403677463531
vt 0.4221377372741699 0.2042044252157211
vt 0.5495556592941284 0.2826403677463531
vt 0.7765116691589355 0
vt 0.7765116691589355 0.2254184633493423
vt 0.9769196510314941 0
vt 0.9769196510314941 0.2254184633493423
vt 0.8767156600952148 0
vt 0.9769196510314941 0.1127092316746712
vt 0.8767156600952148 0.2254184633493423
vt 0.7765116691589355 0.1127092316746712
vt 0.1643801033496857 0.6028173565864563
vt 0.1643801033496857 0.8282358050346375
vt 0.3308797180652618 0.6028173565864563
vt 0.3308797180652618 0.8282358050346375
vt 0.3308797180652618 0.7155265808105469
vt 0.1643801033496857 0.7155265808105469
vt 0.2254184633493423 0.5466902852058411
vt 0 0.5466902852058411
vt 0.2254184633493423 0.5986312031745911
vt 0 0.5986312031745911
vt 0.1127092316746712 0.5986312031745911
vt 0.1127092316746712 0.5466902852058411
vt 0.5577630400657654 0.4028659462928772
vt 0.3323445618152618 0.4028659462928772
vt 0.5577630400657654 0.6195200085639954
vt 0.3323445618152618 0.6195200085639954
vt 0.5577630400657654 0.5111929774284363
vt 0.4450537860393524 0.6195200085639954
vt 0.3323445618152618 0.5111929774284363
vt 0.4450537860393524 0.4028659462928772
vt 0.3323445618152618 0.6209848523139954
vt 0.3323445618152618 0.8449384570121765
vt 0.6035685539245605 0.6209848523139954
vt 0.6035685539245605 0.8449384570121765
vt 0.46795654296875 0.6209848523139954
vt 0.6035685539245605 0.7329616546630859
vt 0.46795654296875 0.8449384570121765
vt 0.3323445618152618 0.7329616546630859
vt 0.2254184633493423 0.4478841423988342
vt 0 0.4478841423988342
vt 0.2254184633493423 0.4895447492599487
vt 0 0.4895447492599487
vt 0.1127092316746712 0.4895447492599487
vt 0.1127092316746712 0.4478841423988342
vt 0.6050333976745605 0.4232016503810883
vt 0.6050333976745605 0.6486201286315918
vt 0.99853515625 0.4232016503810883
vt 0.99853515625 0.6486201286315918
vt 0.8017842769622803 0.4232016503810883
vt 0.99853515625 0.5359109044075012
vt 0.8017842769622803 0.6486201286315918
vt 0.6050333976745605 0.5359109044075012
vt 0.2254184633493423 0.4028659462928772
vt 0 0.4028659462928772
vt 0.2254184633493423 0.4445265233516693
vt 0 0.4445265233516693
vt 0.1127092316746712 0.4445265233516693
vt 0.1127092316746712 0.4028659462928772
vt 0.6050333976745605 0
vt 0.6050333976745605 0.2254184633493423
vt 0.6780742406845093 0
vt 0.6780742406845093 0.2254184633493423
vt 0.6780742406845093 0.1127092316746712
vt 0.6050333976745605 0.1127092316746712
vt 0.6864861249923706 0
vt 0.6864861249923706 0.2254184633493423
vt 0.7672144174575806 0
vt 0.7672144174575806 0.2254184633493423
vt 0.7672144174575806 0.1127092316746712
vt 0.6864861249923706 0.1127092316746712
vt 0 0.6028173565864563
vt 0 0.8282358050346375
vt 0.1629152595996857 0.6028173565864563
vt 0.1629152595996857 0.8282358050346375
vt 0.1629152595996857 0.7155265808105469
vt 0 0.7155265808105469
vt 0.2254184633493423 0.4929023385047913
vt 0 0.4929023385047913
vt 0.2254184633493423 0.5426785945892334
vt 0 0.5426785945892334
vt 0.1127092316746712 0.4929023385047913
vt 0.1127092316746712 0.5426785945892334
vt 0.2508252859115601 0.003935304936021566
vt 0.1902275830507278 0.08344964683055878
vt 0.1296298503875732 0.1629640012979507
vt 0.2470389604568481 0.2826403677463531
vt 0.1950980573892593 0.2826403677463531
vt 0.1196210384368896 0.2042044252157211
vt 0.04414400830864906 0.1257684677839279
vt 0.04414400830864906 0.261617124080658
vt 0.04414400830864906 0.3974657654762268
vt 0.002483418909832835 0.3974657654762268
vt 0.002483418909832835 0.2007005512714386
vt 0.002483418909832835 0.003935304936021566
vt 0.04414400830864906 0.003935304936021566
vt 0.04414400830864906 0.07671058923006058
vt 0.1009572371840477 0.1338546127080917
vt 0.2010490596294403 0.003935304936021566
vn 0 0 -1
vn 0 0 -1
vn 0 0 -1
vn 0 0 -1
vn 0 0 -1
vn 0 0 -1
vn 0 0 -1
vn 0 0 -1
vn 0 0 -1
vn 0 0 -1
vn 0 0 -1
vn 0 0 -1
vn 0 0 -1
vn 0 0 -1
vn 0 0 -1
vn 0 0 -1
vn 0.7964203357696533 0.6047434210777283 0
vn 0.7964203357696533 0.6047434210777283 0
vn 0.7964203357696533 0.6047434210777283 0
vn 0.7964203357696533 0.6047434210777283 0
vn 0.7964203357696533 0.6047434210777283 0
vn 0.7964203357696533 0.6047434210777283 0
vn 0.7964203357696533 0.6047434210777283 0
vn 0.7964203357696533 0.6047434210777283 0
vn 0.7151102423667908 -0.6990116834640503 0
vn 0.7151102423667908 -0.6990116834640503 0
vn 0.7151102423667908 -0.6990116834640503 0
vn 0.7151102423667908 -0.6990116834640503 0
vn 0.7151102423667908 -0.6990116834640503 0
vn 0.7151102423667908 -0.6990116834640503 0
vn 0 1 0
vn 0 1 0
vn 0 1 0
vn 0 1 0
vn 0 1 0
vn 0 1 0
vn -0.7218281626701355 0.692072331905365 0
vn -0.7218281626701355 0.692072331905365 0
vn -0.7218281626701355 0.692072331905365 0
vn -0.7218281626701355 0.692072331905365 0
vn -0.7218281626701355 0.692072331905365 0
vn -0.7218281626701355 0.692072331905365 0
vn -0.7218281626701355 0.692072331905365 0
vn -0.7218281626701355 0.692072331905365 0
vn 1 0 0
vn 1 0 0
vn 1 0 0
vn 1 0 0
vn 1 0 0
vn 1 0 0
vn 1 0 0
vn 1 0 0
vn 0 1 0
vn 0 1 0
vn 0 1 0
vn 0 1 0
vn 0 1 0
vn 0 1 0
vn -1 0 0
vn -1 0 0
vn -1 0 0
vn -1 0 0
vn -1 0 0
vn -1 0 0
vn -1 0 0
vn -1 0 0
vn 0 -1 0
vn 0 -1 0
vn 0 -1 0
vn 0 -1 0
vn 0 -1 0
vn 0 -1 0
vn 1 0 0
vn 1 0 0
vn 1 0 0
vn 1 0 0
vn 1 0 0
vn 1 0 0
vn 0.7104393243789673 -0.7037584781646729 0
vn 0.7104393243789673 -0.7037584781646729 0
vn 0.7104393243789673 -0.7037584781646729 0
vn 0.7104393243789673 -0.7037584781646729 0
vn 0.7104393243789673 -0.7037584781646729 0
vn 0.7104393243789673 -0.7037584781646729 0
vn -0.793243408203125 -0.6089047193527222 0
vn -0.793243408203125 -0.6089047193527222 0
vn -0.793243408203125 -0.6089047193527222 0
vn -0.793243408203125 -0.6089047193527222 0
vn -0.793243408203125 -0.6089047193527222 0
vn -0.793243408203125 -0.6089047193527222 0
vn 0 -1 0
vn 0 -1 0
vn 0 -1 0
vn 0 -1 0
vn 0 -1 0
vn 0 -1 0
vn 0 0 1
vn 0 0 1
vn 0 0 1
vn 0 0 1
vn 0 0 1
vn 0 0 1
vn 0 0 1
vn 0 0 1
vn 0 0 1
vn 0 0 1
vn 0 0 1
vn 0 0 1
vn 0 0 1
vn 0 0 1
vn 0 0 1
vn 0 0 1
f 12/6/6 9/7/7 1/8/8
f 1/8/8 15/12/12 12/6/6
f 23/5/5 12/6/6 15/12/12
f 4/10/10 15/12/12 1/8/8
f 6/9/9 20/11/11 18/13/13 4/10/10
f 18/13/13 15/12/12 4/10/10
f 15/12/12 26/15/15 23/5/5
f 28/3/3 31/2/2 23/5/5
f 36/4/4 23/5/5 31/2/2
f 31/2/2 42/1/1 36/4/4
f 33/14/14 28/3/3 26/15/15
f 23/5/5 26/15/15 28/3/3
f 28/3/3 33/14/14 39/16/16
f 29/24/24 31/21/21 28/17/17
f 29/24/24 30/18/18 32/23/23
f 43/22/22 31/21/21 29/24/24
f 29/24/24 32/23/23 43/22/22
f 43/22/22 32/23/23 44/20/20
f 42/19/19 31/21/21 43/22/22
f 40/30/30 29/29/29 28/27/27 39/25/25
f 41/26/26 30/28/28 29/29/29 40/30/30
f 34/36/36 40/35/35 39/33/33 33/31/31
f 35/32/32 41/34/34 40/35/35 34/36/36
f 16/44/44 26/41/41 15/37/37
f 16/44/44 17/38/38 27/43/43
f 34/42/42 26/41/41 16/44/44
f 16/44/44 27/43/43 34/42/42
f 34/42/42 27/43/43 35/40/40
f 33/39/39 26/41/41 34/42/42
f 21/52/52 18/49/49 20/45/45
f 21/52/52 22/46/46 19/51/51
f 16/50/50 18/49/49 21/52/52
f 21/52/52 19/51/51 16/50/50
f 16/50/50 19/51/51 17/48/48
f 15/47/47 18/49/49 16/50/50
f 7/58/58 21/57/57 20/55/55 6/53/53
f 8/54/54 22/56/56 21/57/57 7/58/58
f 2/66/66 4/63/63 1/59/59
f 2/66/66 3/60/60 5/65/65
f 7/64/64 4/63/63 2/66/66
f 2/66/66 5/65/65 7/64/64
f 7/64/64 5/65/65 8/62/62
f 6/61/61 4/63/63 7/64/64
f 10/72/72 2/71/71 1/69/69 9/67/67
f 11/68/68 3/70/70 2/71/71 10/72/72
f 13/78/78 10/77/77 9/75/75 12/73/73
f 14/74/74 11/76/76 10/77/77 13/78/78
f 24/84/84 13/83/83 12/81/81 23/79/79
f 25/80/80 14/82/82 13/83/83 24/84/84
f 37/90/90 24/89/89 23/87/87 36/85/85
f 38/86/86 25/88/88 24/89/89 37/90/90
f 43/95/95 37/96/96 36/93/93 42/91/91
f 44/92/92 38/94/94 37/96/96 43/95/95
f 14/110/110 3/108/108 11/109/109
f 3/108/108 14/110/110 17/103/103
f 25/111/111 17/103/103 14/110/110
f 5/107/107 3/108/108 17/103/103
f 8/106/106 5/107/107 19/104/104 22/105/105
f 19/104/104 5/107/107 17/103/103
f 17/103/103 25/111/111 27/102/102
f 30/99/99 25/111/111 32/98/98
f 38/112/112 32/98/98 25/111/111
f 32/98/98 38/112/112 44/97/97
f 35/101/101 27/102/102 30/99/99
f 25/111/111 30/99/99 27/102/102
f 30/99/99 41/100/100 35/101/101
