# Rhino

g object_1
v 0.5124350190162659 20.52354621887207 0
v 0.5124350190162659 26.35606575012207 0
v 20.5305061340332 20.52354621887207 0
v 10.52146816253662 20.52354621887207 0
v 20.5305061340332 26.35606575012207 0
v 10.52146816253662 26.35606575012207 0
v 0.5124350190162659 26.35606575012207 0
v 0.5124350190162659 26.35606575012207 30
v 0.5124350190162659 20.52354621887207 0
v 0.5124350190162659 20.52354621887207 30
v 0.5124350190162659 20.52354621887207 15
v 0.5124350190162659 26.35606575012207 15
v 20.5305061340332 26.35606575012207 0
v 20.5305061340332 26.35606575012207 30
v 0.5124350190162659 26.35606575012207 0
v 0.5124350190162659 26.35606575012207 30
v 10.52146816253662 26.35606575012207 0
v 0.5124350190162659 26.35606575012207 15
v 10.52146816253662 26.35606575012207 30
v 20.5305061340332 26.35606575012207 15
v 20.5305061340332 20.52354621887207 0
v 20.5305061340332 20.52354621887207 30
v 20.5305061340332 26.35606575012207 0
v 20.5305061340332 26.35606575012207 30
v 20.5305061340332 26.35606575012207 15
v 20.5305061340332 20.52354621887207 15
v 0.5124350190162659 20.52354621887207 0
v 0.5124350190162659 20.52354621887207 30
v 20.5305061340332 20.52354621887207 0
v 20.5305061340332 20.52354621887207 30
v 10.52146816253662 20.52354621887207 0
v 0.5124350190162659 20.52354621887207 15
v 20.5305061340332 20.52354621887207 15
v 10.52146816253662 20.52354621887207 30
v 0.5124350190162659 20.52354621887207 30
v 0.5124350190162659 26.35606575012207 30
v 10.52146816253662 26.35606575012207 30
v 20.5305061340332 26.35606575012207 30
v 20.5305061340332 20.52354621887207 30
v 10.52146816253662 20.52354621887207 30
vt 0.1200921460986137 0.4042188823223114
vt 0.2352642714977264 0.4042188823223114
vt 0.1200921460986137 0.8044356107711792
vt 0.1200921460986137 0.6043272614479065
vt 0.2352642714977264 0.8044356107711792
vt 0.2352642714977264 0.6043272614479065
vt 0.7547058463096619 0
vt 0.7547058463096619 0.5997833013534546
vt 0.8698492050170898 0
vt 0.8698492050170898 0.5997833013534546
vt 0.8698492050170898 0.2998916506767273
vt 0.7547058463096619 0.2998916506767273
vt 0.2378808408975601 0.4002167284488678
vt 0.2378808408975601 0.99853515625
vt 0.6366327404975891 0.4002167284488678
vt 0.6366327404975891 0.99853515625
vt 0.437256783246994 0.4002167284488678
vt 0.6366327404975891 0.6993759274482727
vt 0.437256783246994 0.99853515625
vt 0.2378808408975601 0.6993759274482727
vt 0.6380975842475891 0
vt 0.6380975842475891 0.5997833013534546
vt 0.7532410025596619 0
vt 0.7532410025596619 0.5997833013534546
vt 0.7532410025596619 0.2998916506767273
vt 0.6380975842475891 0.2998916506767273
vt 0.5997833013534546 0
vt 0 0
vt 0.5997833013534546 0.3987518846988678
vt 0 0.3987518846988678
vt 0.5997833013534546 0.1993759423494339
vt 0.2998916506767273 0
vt 0.2998916506767273 0.3987518846988678
vt 0 0.1993759423494339
vt 0.001151724834926426 0.4042188823223114
vt 0.116323858499527 0.4042188823223114
vt 0.116323858499527 0.6043272614479065
vt 0.116323858499527 0.8044356107711792
vt 0.001151724834926426 0.8044356107711792
vt 0.001151724834926426 0.6043272614479065
vn 0 0 -1
vn 0 0 -1
vn 0 0 -1
vn 0 0 -1
vn 0 0 -1
vn 0 0 -1
vn -1 0 0
vn -1 0 0
vn -1 0 0
vn -1 0 0
vn -1 0 0
vn -1 0 0
vn 0 1 0
vn 0 1 0
vn 0 1 0
vn 0 1 0
vn 0 1 0
vn 0 1 0
vn 0 1 0
vn 0 1 0
vn 1 0 0
vn 1 0 0
vn 1 0 0
vn 1 0 0
vn 1 0 0
vn 1 0 0
vn 0 -1 0
vn 0 -1 0
vn 0 -1 0
vn 0 -1 0
vn 0 -1 0
vn 0 -1 0
vn 0 -1 0
vn 0 -1 0
vn 0 0 1
vn 0 0 1
vn 0 0 1
vn 0 0 1
vn 0 0 1
vn 0 0 1
f 1/1/1 2/2/2 6/6/6 4/4/4
f 5/5/5 3/3/3 4/4/4 6/6/6
f 12/12/12 7/7/7 9/9/9 11/11/11
f 8/8/8 12/12/12 11/11/11 10/10/10
f 20/20/20 13/13/13 17/17/17
f 20/20/20 19/19/19 14/14/14
f 19/19/19 20/20/20 17/17/17
f 17/17/17 18/18/18 19/19/19
f 18/18/18 16/16/16 19/19/19
f 15/15/15 18/18/18 17/17/17
f 26/26/26 21/21/21 23/23/23 25/25/25
f 22/22/22 26/26/26 25/25/25 24/24/24
f 32/32/32 27/27/27 31/31/31
f 32/32/32 34/34/34 28/28/28
f 33/33/33 32/32/32 31/31/31
f 32/32/32 33/33/33 34/34/34
f 33/33/33 30/30/30 34/34/34
f 29/29/29 33/33/33 31/31/31
f 35/35/35 40/40/40 37/37/37 36/36/36
f 38/38/38 37/37/37 40/40/40 39/39/39
