# Rhino

g object_1
v 13.09402275085449 18.93956184387207 0
v 9.205350875854492 18.93956184387207 0
v 12.66189384460449 39.24522399902344 0
v 21.59060478210449 38.66905212402344 0
v 21.59060478210449 42.62950134277344 0
v 12.73367118835449 42.05332946777344 0
v 13.38210868835449 52.20616149902344 0
v 8.917753219604492 52.20616149902344 0
v 9.565702438354492 42.05332946777344 0
v 0.7087843418121338 42.62950134277344 0
v 0.7087843418121338 38.66905212402344 0
v 9.637479782104492 39.24522399902344 0
v 9.205350875854492 18.93956184387207 0
v 9.205350875854492 18.93956184387207 30
v 13.09402275085449 18.93956184387207 0
v 13.09402275085449 18.93956184387207 30
v 13.09402275085449 18.93956184387207 15
v 9.205350875854492 18.93956184387207 15
v 9.637479782104492 39.24522399902344 0
v 9.637479782104492 39.24522399902344 30
v 9.205350875854492 18.93956184387207 0
v 9.205350875854492 18.93956184387207 30
v 9.205350875854492 18.93956184387207 15
v 9.637479782104492 39.24522399902344 15
v 0.7087843418121338 38.66905212402344 0
v 0.7087843418121338 38.66905212402344 30
v 9.637479782104492 39.24522399902344 0
v 9.637479782104492 39.24522399902344 30
v 9.637479782104492 39.24522399902344 15
v 0.7087843418121338 38.66905212402344 15
v 0.7087843418121338 42.62950134277344 0
v 0.7087843418121338 42.62950134277344 30
v 0.7087843418121338 38.66905212402344 0
v 0.7087843418121338 38.66905212402344 30
v 0.7087843418121338 38.66905212402344 15
v 0.7087843418121338 42.62950134277344 15
v 9.565702438354492 42.05332946777344 0
v 9.565702438354492 42.05332946777344 30
v 0.7087843418121338 42.62950134277344 0
v 0.7087843418121338 42.62950134277344 30
v 0.7087843418121338 42.62950134277344 15
v 9.565702438354492 42.05332946777344 15
v 8.917753219604492 52.20616149902344 0
v 8.917753219604492 52.20616149902344 30
v 9.565702438354492 42.05332946777344 0
v 9.565702438354492 42.05332946777344 30
v 9.565702438354492 42.05332946777344 15
v 8.917753219604492 52.20616149902344 15
v 13.38210868835449 52.20616149902344 0
v 13.38210868835449 52.20616149902344 30
v 8.917753219604492 52.20616149902344 0
v 8.917753219604492 52.20616149902344 30
v 8.917753219604492 52.20616149902344 15
v 13.38210868835449 52.20616149902344 15
v 12.73367118835449 42.05332946777344 0
v 12.73367118835449 42.05332946777344 30
v 13.38210868835449 52.20616149902344 0
v 13.38210868835449 52.20616149902344 30
v 13.38210868835449 52.20616149902344 15
v 12.73367118835449 42.05332946777344 15
v 21.59060478210449 42.62950134277344 0
v 21.59060478210449 42.62950134277344 30
v 12.73367118835449 42.05332946777344 0
v 12.73367118835449 42.05332946777344 30
v 12.73367118835449 42.05332946777344 15
v 21.59060478210449 42.62950134277344 15
v 21.59060478210449 38.66905212402344 0
v 21.59060478210449 38.66905212402344 30
v 21.59060478210449 42.62950134277344 0
v 21.59060478210449 42.62950134277344 30
v 21.59060478210449 42.62950134277344 15
v 21.59060478210449 38.66905212402344 15
v 12.66189384460449 39.24522399902344 0
v 12.66189384460449 39.24522399902344 30
v 21.59060478210449 38.66905212402344 0
v 21.59060478210449 38.66905212402344 30
v 21.59060478210449 38.66905212402344 15
v 12.66189384460449 39.24522399902344 15
v 13.09402275085449 18.93956184387207 0
v 13.09402275085449 18.93956184387207 30
v 12.66189384460449 39.24522399902344 0
v 12.66189384460449 39.24522399902344 30
v 13.09402275085449 18.93956184387207 15
v 12.66189384460449 39.24522399902344 15
v 13.09402275085449 18.93956184387207 30
v 9.205350875854492 18.93956184387207 30
v 9.637479782104492 39.24522399902344 30
v 0.7087843418121338 38.66905212402344 30
v 0.7087843418121338 42.62950134277344 30
v 9.565702438354492 42.05332946777344 30
v 8.917753219604492 52.20616149902344 30
v 13.38210868835449 52.20616149902344 30
v 12.73367118835449 42.05332946777344 30
v 21.59060478210449 42.62950134277344 30
v 21.59060478210449 38.66905212402344 30
v 12.66189384460449 39.24522399902344 30
vt 0.8661147952079773 0.4069668054580688
vt 0.8188458681106567 0.4069668054580688
vt 0.8608620762825012 0.1610170751810074
vt 0.9693953394889832 0.167995885014534
vt 0.9693953394889832 0.1200254410505295
vt 0.8617345094680786 0.1270042508840561
vt 0.8696166276931763 0.004029374569654465
vt 0.8153499960899353 0.004029374569654465
vt 0.8232261538505554 0.1270042508840561
vt 0.7155653238296509 0.1200254410505295
vt 0.7155653238296509 0.167995885014534
vt 0.8240986466407776 0.1610170751810074
vt 0.4937644898891449 0
vt 0.4937644898891449 0.3646662533283234
vt 0.5410333871841431 0
vt 0.5410333871841431 0.3646662533283234
vt 0.5410333871841431 0.1823331266641617
vt 0.4937644898891449 0.1823331266641617
vt 0.2468822449445724 0.4124610424041748
vt 0.2468822449445724 0.7771273255348206
vt 0.4922996461391449 0.4124610424041748
vt 0.4922996461391449 0.7771273255348206
vt 0.4922996461391449 0.5947941541671753
vt 0.2468822449445724 0.5947941541671753
vt 0.3698272705078125 0
vt 0.3698272705078125 0.3646662533283234
vt 0.478586345911026 0
vt 0.478586345911026 0.3646662533283234
vt 0.478586345911026 0.1823331266641617
vt 0.3698272705078125 0.1823331266641617
vt 0.5995175838470459 0
vt 0.5995175838470459 0.3646662533283234
vt 0.6476590037345886 0
vt 0.6476590037345886 0.3646662533283234
vt 0.6476590037345886 0.1823331266641617
vt 0.5995175838470459 0.1823331266641617
vt 0.1229450330138206 0
vt 0.1229450330138206 0.3646662533283234
vt 0.230833426117897 0
vt 0.230833426117897 0.3646662533283234
vt 0.230833426117897 0.1823331266641617
vt 0.1229450330138206 0.1823331266641617
vt 0.4937644898891449 0.4124610424041748
vt 0.4937644898891449 0.7771273255348206
vt 0.615963876247406 0.4124610424041748
vt 0.615963876247406 0.7771273255348206
vt 0.615963876247406 0.5947941541671753
vt 0.4937644898891449 0.5947941541671753
vt 0.6528776884078979 0
vt 0.6528776884078979 0.3646662533283234
vt 0.7071443796157837 0
vt 0.7071443796157837 0.3646662533283234
vt 0.7071443796157837 0.1823331266641617
vt 0.6528776884078979 0.1823331266641617
vt 0.617428719997406 0.4124610424041748
vt 0.617428719997406 0.7771273255348206
vt 0.7396284937858582 0.4124610424041748
vt 0.7396284937858582 0.7771273255348206
vt 0.7396284937858582 0.5947941541671753
vt 0.617428719997406 0.5947941541671753
vt 0 0
vt 0 0.3646662533283234
vt 0.1078883931040764 0
vt 0.1078883931040764 0.3646662533283234
vt 0.1078883931040764 0.1823331266641617
vt 0 0.1823331266641617
vt 0.5461574792861938 0
vt 0.5461574792861938 0.3646662533283234
vt 0.5942988991737366 0
vt 0.5942988991737366 0.3646662533283234
vt 0.5942988991737366 0.1823331266641617
vt 0.5461574792861938 0.1823331266641617
vt 0.2458900660276413 0
vt 0.2458900660276413 0.3646662533283234
vt 0.3546491265296936 0
vt 0.3546491265296936 0.3646662533283234
vt 0.3546491265296936 0.1823331266641617
vt 0.2458900660276413 0.1823331266641617
vt 0 0.4124610424041748
vt 0 0.7771273255348206
vt 0.2454174011945724 0.4124610424041748
vt 0.2454174011945724 0.7771273255348206
vt 0 0.5947941541671753
vt 0.2454174011945724 0.5947941541671753
vt 0.8933150172233582 0.8194278478622437
vt 0.8463135361671448 0.8194278478622437
vt 0.8515365719795227 0.573478102684021
vt 0.7436172962188721 0.5804569125175476
vt 0.7436172962188721 0.5324864983558655
vt 0.8506690263748169 0.5394653081893921
vt 0.842837393283844 0.4164904356002808
vt 0.8967970013618469 0.4164904356002808
vt 0.888959527015686 0.5394653081893921
vt 0.9960111975669861 0.5324864983558655
vt 0.9960111975669861 0.5804569125175476
vt 0.8880919814109802 0.573478102684021
vn 0 0 -1
vn 0 0 -1
vn 0 0 -1
vn 0 0 -1
vn 0 0 -1
vn 0 0 -1
vn 0 0 -1
vn 0 0 -1
vn 0 0 -1
vn 0 0 -1
vn 0 0 -1
vn 0 0 -1
vn 0 -1 0
vn 0 -1 0
vn 0 -1 0
vn 0 -1 0
vn 0 -1 0
vn 0 -1 0
vn -0.9997736215591431 0.02127638272941113 0
vn -0.9997736215591431 0.02127638272941113 0
vn -0.9997736215591431 0.02127638272941113 0
vn -0.9997736215591431 0.02127638272941113 0
vn -0.9997736215591431 0.02127638272941113 0
vn -0.9997736215591431 0.02127638272941113 0
vn 0.06439629942178726 -0.9979243874549866 0
vn 0.06439629942178726 -0.9979243874549866 0
vn 0.06439629942178726 -0.9979243874549866 0
vn 0.06439629942178726 -0.9979243874549866 0
vn 0.06439629942178726 -0.9979243874549866 0
vn 0.06439629942178726 -0.9979243874549866 0
vn -1 0 0
vn -1 0 0
vn -1 0 0
vn -1 0 0
vn -1 0 0
vn -1 0 0
vn 0.0649159848690033 0.9978907108306885 0
vn 0.0649159848690033 0.9978907108306885 0
vn 0.0649159848690033 0.9978907108306885 0
vn 0.0649159848690033 0.9978907108306885 0
vn 0.0649159848690033 0.9978907108306885 0
vn 0.0649159848690033 0.9978907108306885 0
vn -0.9979697465896606 -0.06368998438119888 0
vn -0.9979697465896606 -0.06368998438119888 0
vn -0.9979697465896606 -0.06368998438119888 0
vn -0.9979697465896606 -0.06368998438119888 0
vn -0.9979697465896606 -0.06368998438119888 0
vn -0.9979697465896606 -0.06368998438119888 0
vn 0 1 0
vn 0 1 0
vn 0 1 0
vn 0 1 0
vn 0 1 0
vn 0 1 0
vn 0.9979667067527771 -0.06373778730630875 0
vn 0.9979667067527771 -0.06373778730630875 0
vn 0.9979667067527771 -0.06373778730630875 0
vn 0.9979667067527771 -0.06373778730630875 0
vn 0.9979667067527771 -0.06373778730630875 0
vn 0.9979667067527771 -0.06373778730630875 0
vn -0.0649159848690033 0.9978907108306885 0
vn -0.0649159848690033 0.9978907108306885 0
vn -0.0649159848690033 0.9978907108306885 0
vn -0.0649159848690033 0.9978907108306885 0
vn -0.0649159848690033 0.9978907108306885 0
vn -0.0649159848690033 0.9978907108306885 0
vn 1 0 0
vn 1 0 0
vn 1 0 0
vn 1 0 0
vn 1 0 0
vn 1 0 0
vn -0.06439629942178726 -0.9979243874549866 0
vn -0.06439629942178726 -0.9979243874549866 0
vn -0.06439629942178726 -0.9979243874549866 0
vn -0.06439629942178726 -0.9979243874549866 0
vn -0.06439629942178726 -0.9979243874549866 0
vn -0.06439629942178726 -0.9979243874549866 0
vn 0.9997736215591431 0.02127638272941113 0
vn 0.9997736215591431 0.02127638272941113 0
vn 0.9997736215591431 0.02127638272941113 0
vn 0.9997736215591431 0.02127638272941113 0
vn 0.9997736215591431 0.02127638272941113 0
vn 0.9997736215591431 0.02127638272941113 0
vn 0 0 1
vn 0 0 1
vn 0 0 1
vn 0 0 1
vn 0 0 1
vn 0 0 1
vn 0 0 1
vn 0 0 1
vn 0 0 1
vn 0 0 1
vn 0 0 1
vn 0 0 1
f 6/6/6 9/9/9 8/8/8 7/7/7
f 11/11/11 10/10/10 9/9/9
f 9/9/9 12/12/12 11/11/11
f 1/1/1 2/2/2 12/12/12 3/3/3
f 9/9/9 6/6/6 3/3/3 12/12/12
f 4/4/4 6/6/6 5/5/5
f 6/6/6 4/4/4 3/3/3
f 18/18/18 13/13/13 15/15/15 17/17/17
f 14/14/14 18/18/18 17/17/17 16/16/16
f 24/24/24 19/19/19 21/21/21 23/23/23
f 20/20/20 24/24/24 23/23/23 22/22/22
f 30/30/30 25/25/25 27/27/27 29/29/29
f 26/26/26 30/30/30 29/29/29 28/28/28
f 36/36/36 31/31/31 33/33/33 35/35/35
f 32/32/32 36/36/36 35/35/35 34/34/34
f 42/42/42 37/37/37 39/39/39 41/41/41
f 38/38/38 42/42/42 41/41/41 40/40/40
f 48/48/48 43/43/43 45/45/45 47/47/47
f 44/44/44 48/48/48 47/47/47 46/46/46
f 54/54/54 49/49/49 51/51/51 53/53/53
f 50/50/50 54/54/54 53/53/53 52/52/52
f 60/60/60 55/55/55 57/57/57 59/59/59
f 56/56/56 60/60/60 59/59/59 58/58/58
f 66/66/66 61/61/61 63/63/63 65/65/65
f 62/62/62 66/66/66 65/65/65 64/64/64
f 72/72/72 67/67/67 69/69/69 71/71/71
f 68/68/68 72/72/72 71/71/71 70/70/70
f 78/78/78 73/73/73 75/75/75 77/77/77
f 74/74/74 78/78/78 77/77/77 76/76/76
f 83/83/83 79/79/79 81/81/81 84/84/84
f 80/80/80 83/83/83 84/84/84 82/82/82
f 93/93/93 92/92/92 91/91/91 90/90/90
f 88/88/88 90/90/90 89/89/89
f 90/90/90 88/88/88 87/87/87
f 85/85/85 96/96/96 87/87/87 86/86/86
f 90/90/90 87/87/87 96/96/96 93/93/93
f 95/95/95 94/94/94 93/93/93
f 93/93/93 96/96/96 95/95/95
