# Rhino

g object_1
v 5.218249320983887 44.64561462402344 0
v 0.6098510026931763 44.64561462402344 0
v 10.61863994598389 49.46983337402344 0
v 16.01902389526367 44.64561462402344 0
v 20.77146530151367 44.64561462402344 0
v 13.13865947723389 54.07823181152344 0
v 8.242175102233887 54.07823181152344 0
v 0.6098510026931763 44.64561462402344 0
v 0.6098510026931763 44.64561462402344 30
v 5.218249320983887 44.64561462402344 0
v 5.218249320983887 44.64561462402344 30
v 5.218249320983887 44.64561462402344 15
v 0.6098510026931763 44.64561462402344 15
v 8.242175102233887 54.07823181152344 0
v 8.242175102233887 54.07823181152344 30
v 0.6098510026931763 44.64561462402344 0
v 0.6098510026931763 44.64561462402344 30
v 0.6098510026931763 44.64561462402344 15
v 8.242175102233887 54.07823181152344 15
v 13.13865947723389 54.07823181152344 0
v 13.13865947723389 54.07823181152344 30
v 8.242175102233887 54.07823181152344 0
v 8.242175102233887 54.07823181152344 30
v 8.242175102233887 54.07823181152344 15
v 13.13865947723389 54.07823181152344 15
v 20.77146530151367 44.64561462402344 0
v 20.77146530151367 44.64561462402344 30
v 13.13865947723389 54.07823181152344 0
v 13.13865947723389 54.07823181152344 30
v 13.13865947723389 54.07823181152344 15
v 20.77146530151367 44.64561462402344 15
v 16.01902389526367 44.64561462402344 0
v 16.01902389526367 44.64561462402344 30
v 20.77146530151367 44.64561462402344 0
v 20.77146530151367 44.64561462402344 30
v 20.77146530151367 44.64561462402344 15
v 16.01902389526367 44.64561462402344 15
v 10.61863994598389 49.46983337402344 0
v 10.61863994598389 49.46983337402344 30
v 16.01902389526367 44.64561462402344 0
v 16.01902389526367 44.64561462402344 30
v 16.01902389526367 44.64561462402344 15
v 10.61863994598389 49.46983337402344 15
v 5.218249320983887 44.64561462402344 0
v 5.218249320983887 44.64561462402344 30
v 10.61863994598389 49.46983337402344 0
v 10.61863994598389 49.46983337402344 30
v 5.218249320983887 44.64561462402344 15
v 10.61863994598389 49.46983337402344 15
v 5.218249320983887 44.64561462402344 30
v 0.6098510026931763 44.64561462402344 30
v 8.242175102233887 54.07823181152344 30
v 13.13865947723389 54.07823181152344 30
v 20.77146530151367 44.64561462402344 30
v 16.01902389526367 44.64561462402344 30
v 10.61863994598389 49.46983337402344 30
vt 0.1886568665504456 0.5108250975608826
vt 0.1886568665504456 0.4213326871395111
vt 0.2816058993339539 0.6156975626945496
vt 0.1886568665504456 0.7205700278282166
vt 0.1886568665504456 0.8128596544265747
vt 0.3703967034816742 0.6646348834037781
vt 0.3703967034816742 0.5695480108261108
vt 0.5825825929641724 0
vt 0 0
vt 0.5825825929641724 0.08802758157253265
vt 0 0.08802758157253265
vt 0.2912912964820862 0.08802758157253265
vt 0.2912912964820862 0
vt 0.7500118613243103 0
vt 0.7500118613243103 0.5825825929641724
vt 0.9841763973236084 0
vt 0.9841763973236084 0.5825825929641724
vt 0.9841763973236084 0.2912912964820862
vt 0.7500118613243103 0.2912912964820862
vt 0.5143019556999207 0.4174174070358276
vt 0.5143019556999207 0.99853515625
vt 0.6079239845275879 0.4174174070358276
vt 0.6079239845275879 0.99853515625
vt 0.6079239845275879 0.7079762816429138
vt 0.5143019556999207 0.7079762816429138
vt 0.5825825929641724 0.1817820817232132
vt 0 0.1817820817232132
vt 0.5825825929641724 0.4159525632858276
vt 0 0.4159525632858276
vt 0.2912912964820862 0.4159525632858276
vt 0.2912912964820862 0.1817820817232132
vt 0.5825825929641724 0.08949242532253265
vt 0 0.08949242532253265
vt 0.5825825929641724 0.1803172379732132
vt 0 0.1803172379732132
vt 0.2912912964820862 0.1803172379732132
vt 0.2912912964820862 0.08949242532253265
vt 0.6093888282775879 0
vt 0.6093888282775879 0.5825825929641724
vt 0.7485470175743103 0
vt 0.7485470175743103 0.5825825929641724
vt 0.7485470175743103 0.2912912964820862
vt 0.6093888282775879 0.2912912964820862
vt 0.3736789226531982 0.4174174070358276
vt 0.3736789226531982 0.99853515625
vt 0.5128371119499207 0.4174174070358276
vt 0.5128371119499207 0.99853515625
vt 0.3736789226531982 0.7079762816429138
vt 0.5128371119499207 0.7079762816429138
vt 0.001817403710447252 0.5108250975608826
vt 0.001817403710447252 0.4213326871395111
vt 0.1835572272539139 0.5695480108261108
vt 0.1835572272539139 0.6646348834037781
vt 0.001817403710447252 0.8128596544265747
vt 0.001817403710447252 0.7205700278282166
vt 0.09476643800735474 0.6156975626945496
vn 0 0 -1
vn 0 0 -1
vn 0 0 -1
vn 0 0 -1
vn 0 0 -1
vn 0 0 -1
vn 0 0 -1
vn 0 -1 0
vn 0 -1 0
vn 0 -1 0
vn 0 -1 0
vn 0 -1 0
vn 0 -1 0
vn -0.7773901224136353 0.6290187835693359 0
vn -0.7773901224136353 0.6290187835693359 0
vn -0.7773901224136353 0.6290187835693359 0
vn -0.7773901224136353 0.6290187835693359 0
vn -0.7773901224136353 0.6290187835693359 0
vn -0.7773901224136353 0.6290187835693359 0
vn 0 1 0
vn 0 1 0
vn 0 1 0
vn 0 1 0
vn 0 1 0
vn 0 1 0
vn 0.7773704528808594 0.6290431022644043 0
vn 0.7773704528808594 0.6290431022644043 0
vn 0.7773704528808594 0.6290431022644043 0
vn 0.7773704528808594 0.6290431022644043 0
vn 0.7773704528808594 0.6290431022644043 0
vn 0.7773704528808594 0.6290431022644043 0
vn 0 -1 0
vn 0 -1 0
vn 0 -1 0
vn 0 -1 0
vn 0 -1 0
vn 0 -1 0
vn -0.6662033200263977 -0.7457701563835144 0
vn -0.6662033200263977 -0.7457701563835144 0
vn -0.6662033200263977 -0.7457701563835144 0
vn -0.6662033200263977 -0.7457701563835144 0
vn -0.6662033200263977 -0.7457701563835144 0
vn -0.6662033200263977 -0.7457701563835144 0
vn 0.6662033200263977 -0.7457701563835144 0
vn 0.6662033200263977 -0.7457701563835144 0
vn 0.6662033200263977 -0.7457701563835144 0
vn 0.6662033200263977 -0.7457701563835144 0
vn 0.6662033200263977 -0.7457701563835144 0
vn 0.6662033200263977 -0.7457701563835144 0
vn 0 0 1
vn 0 0 1
vn 0 0 1
vn 0 0 1
vn 0 0 1
vn 0 0 1
vn 0 0 1
f 3/3/3 1/1/1 2/2/2
f 7/7/7 3/3/3 2/2/2
f 5/5/5 3/3/3 6/6/6
f 7/7/7 6/6/6 3/3/3
f 3/3/3 5/5/5 4/4/4
f 13/13/13 8/8/8 10/10/10 12/12/12
f 9/9/9 13/13/13 12/12/12 11/11/11
f 19/19/19 14/14/14 16/16/16 18/18/18
f 15/15/15 19/19/19 18/18/18 17/17/17
f 25/25/25 20/20/20 22/22/22 24/24/24
f 21/21/21 25/25/25 24/24/24 23/23/23
f 31/31/31 26/26/26 28/28/28 30/30/30
f 27/27/27 31/31/31 30/30/30 29/29/29
f 37/37/37 32/32/32 34/34/34 36/36/36
f 33/33/33 37/37/37 36/36/36 35/35/35
f 43/43/43 38/38/38 40/40/40 42/42/42
f 39/39/39 43/43/43 42/42/42 41/41/41
f 48/48/48 44/44/44 46/46/46 49/49/49
f 45/45/45 48/48/48 49/49/49 47/47/47
f 56/56/56 51/51/51 50/50/50
f 52/52/52 51/51/51 56/56/56
f 54/54/54 53/53/53 56/56/56
f 52/52/52 56/56/56 53/53/53
f 56/56/56 55/55/55 54/54/54
