# Rhino

v 0.7483713626861572 43.95453643798828 0
v 0.7483713626861572 43.95453643798828 15
v 0.7483713626861572 43.95453643798828 30
v 5.356769561767578 43.95453643798828 0
v 5.356769561767578 43.95453643798828 15
v 5.356769561767578 43.95453643798828 30
v 8.380695343017578 53.38716125488281 0
v 8.380695343017578 53.38716125488281 15
v 8.380695343017578 53.38716125488281 30
v 10.75716018676758 48.77876281738281 0
v 10.75716018676758 48.77876281738281 15
v 10.75716018676758 48.77876281738281 30
v 13.27717971801758 53.38716125488281 0
v 13.27717971801758 53.38716125488281 15
v 13.27717971801758 53.38716125488281 30
v 16.15753555297852 43.95453643798828 0
v 16.15753555297852 43.95453643798828 15
v 16.15753555297852 43.95453643798828 30
v 20.90994644165039 43.95453643798828 0
v 20.90994644165039 43.95453643798828 15
v 20.90994644165039 43.95453643798828 30
vt 0.3703967034816742 0.5108250975608826
vt 0.2774476408958435 0.6156975626945496
vt 0.3703967034816742 0.4213326871395111
vt 0.1886568665504456 0.5695480108261108
vt 0.1886568665504456 0.6646348834037781
vt 0.3703967034816742 0.8128596544265747
vt 0.3703967034816742 0.7205700278282166
vt 0.6093888282775879 0
vt 0.6093888282775879 0.5825825929641724
vt 0.7485470175743103 0
vt 0.7485470175743103 0.5825825929641724
vt 0.7485470175743103 0.2912912964820862
vt 0.6093888282775879 0.2912912964820862
vt 0.3736789226531982 0.4174174070358276
vt 0.3736789226531982 0.99853515625
vt 0.5128371119499207 0.4174174070358276
vt 0.5128371119499207 0.99853515625
vt 0.5128371119499207 0.7079762816429138
vt 0.3736789226531982 0.7079762816429138
vt 0.5825825929641724 0.08949242532253265
vt 0 0.08949242532253265
vt 0.5825825929641724 0.1803172379732132
vt 0 0.1803172379732132
vt 0.2912912964820862 0.1803172379732132
vt 0.2912912964820862 0.08949242532253265
vt 0.5825825929641724 0.1817820817232132
vt 0 0.1817820817232132
vt 0.5825825929641724 0.4159525632858276
vt 0 0.4159525632858276
vt 0.2912912964820862 0.4159525632858276
vt 0.2912912964820862 0.1817820817232132
vt 0.5143019556999207 0.4174174070358276
vt 0.5143019556999207 0.99853515625
vt 0.6079239845275879 0.4174174070358276
vt 0.6079239845275879 0.99853515625
vt 0.6079239845275879 0.7079762816429138
vt 0.5143019556999207 0.7079762816429138
vt 0.7500118613243103 0
vt 0.7500118613243103 0.5825825929641724
vt 0.9841763973236084 0
vt 0.9841763973236084 0.5825825929641724
vt 0.9841763973236084 0.2912912964820862
vt 0.7500118613243103 0.2912912964820862
vt 0.5825825929641724 0
vt 0 0
vt 0.5825825929641724 0.08802758157253265
vt 0 0.08802758157253265
vt 0.2912912964820862 0
vt 0.2912912964820862 0.08802758157253265
vt 0.1835572272539139 0.5108250975608826
vt 0.09060818701982498 0.6156975626945496
vt 0.1835572272539139 0.7205700278282166
vt 0.1835572272539139 0.8128596544265747
vt 0.001817403710447252 0.6646348834037781
vt 0.001817403710447252 0.5695480108261108
vt 0.1835572272539139 0.4213326871395111
vn 0 0 -1
vn 0 0 -1
vn 0 0 -1
vn 0 0 -1
vn 0 0 -1
vn 0 0 -1
vn 0 0 -1
vn 0.6662033200263977 -0.7457701563835144 0
vn 0.6662033200263977 -0.7457701563835144 0
vn 0.6662033200263977 -0.7457701563835144 0
vn 0.6662033200263977 -0.7457701563835144 0
vn 0.6662033200263977 -0.7457701563835144 0
vn 0.6662033200263977 -0.7457701563835144 0
vn -0.6662033200263977 -0.7457701563835144 0
vn -0.6662033200263977 -0.7457701563835144 0
vn -0.6662033200263977 -0.7457701563835144 0
vn -0.6662033200263977 -0.7457701563835144 0
vn -0.6662033200263977 -0.7457701563835144 0
vn -0.6662033200263977 -0.7457701563835144 0
vn 0 -1 0
vn 0 -1 0
vn 0 -1 0
vn 0 -1 0
vn 0 -1 0
vn 0 -1 0
vn 0.7773704528808594 0.6290431022644043 0
vn 0.7773704528808594 0.6290431022644043 0
vn 0.7773704528808594 0.6290431022644043 0
vn 0.7773704528808594 0.6290431022644043 0
vn 0.7773704528808594 0.6290431022644043 0
vn 0.7773704528808594 0.6290431022644043 0
vn 0 1 0
vn 0 1 0
vn 0 1 0
vn 0 1 0
vn 0 1 0
vn 0 1 0
vn -0.7773901224136353 0.6290187835693359 0
vn -0.7773901224136353 0.6290187835693359 0
vn -0.7773901224136353 0.6290187835693359 0
vn -0.7773901224136353 0.6290187835693359 0
vn -0.7773901224136353 0.6290187835693359 0
vn -0.7773901224136353 0.6290187835693359 0
vn 0 -1 0
vn 0 -1 0
vn 0 -1 0
vn 0 -1 0
vn 0 -1 0
vn 0 -1 0
vn 0 0 1
vn 0 0 1
vn 0 0 1
vn 0 0 1
vn 0 0 1
vn 0 0 1
vn 0 0 1
f 10/2/2 1/3/3 7/4/4
f 4/1/1 1/3/3 10/2/2
f 10/2/2 19/6/6 16/7/7
f 7/4/4 13/5/5 10/2/2
f 19/6/6 10/2/2 13/5/5
f 11/13/13 5/12/12 4/10/10 10/8/8
f 12/9/9 6/11/11 5/12/12 11/13/13
f 17/19/19 11/18/18 10/16/16 16/14/14
f 18/15/15 12/17/17 11/18/18 17/19/19
f 20/25/25 17/24/24 16/22/22 19/20/20
f 21/21/21 18/23/23 17/24/24 20/25/25
f 14/31/31 20/30/30 19/28/28 13/26/26
f 15/27/27 21/29/29 20/30/30 14/31/31
f 8/37/37 14/36/36 13/34/34 7/32/32
f 9/33/33 15/35/35 14/36/36 8/37/37
f 2/43/43 8/42/42 7/40/40 1/38/38
f 3/39/39 9/41/41 8/42/42 2/43/43
f 5/48/48 2/49/49 1/46/46 4/44/44
f 6/45/45 3/47/47 2/49/49 5/48/48
f 12/51/51 9/55/55 3/56/56
f 6/50/50 12/51/51 3/56/56
f 12/51/51 18/52/52 21/53/53
f 9/55/55 12/51/51 15/54/54
f 21/53/53 15/54/54 12/51/51
v 8.093097686767578 1.110812544822693 0
v 8.093097686767578 1.110812544822693 15
v 8.093097686767578 1.110812544822693 30
v 8.093097686767578 19.72430610656738 0
v 8.093097686767578 19.72430610656738 30
v 8.093097686767578 38.33783721923828 0
v 8.093097686767578 38.33783721923828 15
v 8.093097686767578 38.33783721923828 30
v 13.63753128051758 1.110812544822693 0
v 13.63753128051758 1.110812544822693 15
v 13.63753128051758 1.110812544822693 30
v 13.63753128051758 19.72430610656738 0
v 13.63753128051758 19.72430610656738 30
v 13.63753128051758 38.33783721923828 0
v 13.63753128051758 38.33783721923828 15
v 13.63753128051758 38.33783721923828 30
vt 0.2799795269966125 0.00620450871065259
vt 0.3709506392478943 0.00620450871065259
vt 0.2799795269966125 0.6266553401947021
vt 0.2799795269966125 0.3164299428462982
vt 0.3709506392478943 0.6266553401947021
vt 0.3709506392478943 0.3164299428462982
vt 0.0924072265625 0
vt 0.0924072265625 0.5
vt 0.183349609375 0
vt 0.183349609375 0.5
vt 0.183349609375 0.25
vt 0.0924072265625 0.25
vt 0.3733251988887787 0.5
vt 0.3733251988887787 0.99853515625
vt 0.9923111796379089 0.5
vt 0.9923111796379089 0.99853515625
vt 0.6828181743621826 0.5
vt 0.9923111796379089 0.749267578125
vt 0.6828181743621826 0.99853515625
vt 0.3733251988887787 0.749267578125
vt 0 0
vt 0 0.5
vt 0.0909423828125 0
vt 0.0909423828125 0.5
vt 0.0909423828125 0.25
vt 0 0.25
vt 0.3733251988887787 0
vt 0.3733251988887787 0.49853515625
vt 0.9923111796379089 0
vt 0.9923111796379089 0.49853515625
vt 0.6828181743621826 0
vt 0.3733251988887787 0.249267578125
vt 0.9923111796379089 0.249267578125
vt 0.6828181743621826 0.49853515625
vt 0.1857241690158844 0.00620450871065259
vt 0.2766952812671661 0.00620450871065259
vt 0.2766952812671661 0.3164299428462982
vt 0.2766952812671661 0.6266553401947021
vt 0.1857241690158844 0.6266553401947021
vt 0.1857241690158844 0.3164299428462982
vn 0 0 -1
vn 0 0 -1
vn 0 0 -1
vn 0 0 -1
vn 0 0 -1
vn 0 0 -1
vn 0 -1 0
vn 0 -1 0
vn 0 -1 0
vn 0 -1 0
vn 0 -1 0
vn 0 -1 0
vn 1 0 0
vn 1 0 0
vn 1 0 0
vn 1 0 0
vn 1 0 0
vn 1 0 0
vn 1 0 0
vn 1 0 0
vn 0 1 0
vn 0 1 0
vn 0 1 0
vn 0 1 0
vn 0 1 0
vn 0 1 0
vn -1 0 0
vn -1 0 0
vn -1 0 0
vn -1 0 0
vn -1 0 0
vn -1 0 0
vn -1 0 0
vn -1 0 0
vn 0 0 1
vn 0 0 1
vn 0 0 1
vn 0 0 1
vn 0 0 1
vn 0 0 1
f 25/60/60 33/62/62 30/58/58 22/57/57
f 27/59/59 35/61/61 33/62/62 25/60/60
f 31/68/68 23/67/67 22/65/65 30/63/63
f 32/64/64 24/66/66 23/67/67 31/68/68
f 36/76/76 33/73/73 35/69/69
f 36/76/76 37/70/70 34/75/75
f 31/74/74 33/73/73 36/76/76
f 36/76/76 34/75/75 31/74/74
f 31/74/74 34/75/75 32/72/72
f 30/71/71 33/73/73 31/74/74
f 28/82/82 36/81/81 35/79/79 27/77/77
f 29/78/78 37/80/80 36/81/81 28/82/82
f 23/88/88 25/87/87 22/83/83
f 23/88/88 24/84/84 26/90/90
f 28/89/89 25/87/87 23/88/88
f 23/88/88 26/90/90 28/89/89
f 28/89/89 26/90/90 29/86/86
f 27/85/85 25/87/87 28/89/89
f 26/96/96 24/91/91 32/92/92 34/93/93
f 29/95/95 26/96/96 34/93/93 37/94/94
