# Rhino

g object_1
v 26.51317977905273 66.10362243652344 0
v 31.12157821655273 66.10362243652344 0
v 21.11278915405273 61.27891540527344 0
v 15.71240615844727 66.10362243652344 0
v 10.95996475219727 66.10362243652344 0
v 18.59276962280273 56.67051696777344 0
v 23.48876571655273 56.67051696777344 0
v 31.12157821655273 66.10362243652344 0
v 31.12157821655273 66.10362243652344 30
v 26.51317977905273 66.10362243652344 0
v 26.51317977905273 66.10362243652344 30
v 26.51317977905273 66.10362243652344 15
v 31.12157821655273 66.10362243652344 15
v 23.48876571655273 56.67051696777344 0
v 23.48876571655273 56.67051696777344 30
v 31.12157821655273 66.10362243652344 0
v 31.12157821655273 66.10362243652344 30
v 31.12157821655273 66.10362243652344 15
v 23.48876571655273 56.67051696777344 15
v 18.59276962280273 56.67051696777344 0
v 18.59276962280273 56.67051696777344 30
v 23.48876571655273 56.67051696777344 0
v 23.48876571655273 56.67051696777344 30
v 23.48876571655273 56.67051696777344 15
v 18.59276962280273 56.67051696777344 15
v 10.95996475219727 66.10362243652344 0
v 10.95996475219727 66.10362243652344 30
v 18.59276962280273 56.67051696777344 0
v 18.59276962280273 56.67051696777344 30
v 18.59276962280273 56.67051696777344 15
v 10.95996475219727 66.10362243652344 15
v 15.71240615844727 66.10362243652344 0
v 15.71240615844727 66.10362243652344 30
v 10.95996475219727 66.10362243652344 0
v 10.95996475219727 66.10362243652344 30
v 10.95996475219727 66.10362243652344 15
v 15.71240615844727 66.10362243652344 15
v 21.11278915405273 61.27891540527344 0
v 21.11278915405273 61.27891540527344 30
v 15.71240615844727 66.10362243652344 0
v 15.71240615844727 66.10362243652344 30
v 15.71240615844727 66.10362243652344 15
v 21.11278915405273 61.27891540527344 15
v 26.51317977905273 66.10362243652344 0
v 26.51317977905273 66.10362243652344 30
v 21.11278915405273 61.27891540527344 0
v 21.11278915405273 61.27891540527344 30
v 26.51317977905273 66.10362243652344 15
v 21.11278915405273 61.27891540527344 15
v 26.51317977905273 66.10362243652344 30
v 31.12157821655273 66.10362243652344 30
v 23.48876571655273 56.67051696777344 30
v 18.59276962280273 56.67051696777344 30
v 10.95996475219727 66.10362243652344 30
v 15.71240615844727 66.10362243652344 30
v 21.11278915405273 61.27891540527344 30
vt 0.370413213968277 0.723369300365448
vt 0.370413213968277 0.8128610253334045
vt 0.2774554193019867 0.6184976100921631
vt 0.370413213968277 0.5136259198188782
vt 0.370413213968277 0.4213369488716125
vt 0.1886652410030365 0.5695606470108032
vt 0.1886652410030365 0.6646373271942139
vt 0.5825783014297485 0
vt 0 0
vt 0.5825783014297485 0.08802691847085953
vt 0 0.08802691847085953
vt 0.2912891507148743 0.08802691847085953
vt 0.2912891507148743 0
vt 0.5825783014297485 0.1817807406187057
vt 0 0.1817807406187057
vt 0.5825783014297485 0.4159568846225739
vt 0 0.4159568846225739
vt 0.2912891507148743 0.4159568846225739
vt 0.2912891507148743 0.1817807406187057
vt 0.5143238306045532 0.4174217283725739
vt 0.5143238306045532 0.99853515625
vt 0.6079356670379639 0.4174217283725739
vt 0.6079356670379639 0.99853515625
vt 0.6079356670379639 0.7079784274101257
vt 0.5143238306045532 0.7079784274101257
vt 0.7500288486480713 0
vt 0.7500288486480713 0.5825783014297485
vt 0.9842049479484558 0
vt 0.9842049479484558 0.5825783014297485
vt 0.9842049479484558 0.2912891507148743
vt 0.7500288486480713 0.2912891507148743
vt 0.5825783014297485 0.08949176222085953
vt 0 0.08949176222085953
vt 0.5825783014297485 0.1803158968687057
vt 0 0.1803158968687057
vt 0.2912891507148743 0.1803158968687057
vt 0.2912891507148743 0.08949176222085953
vt 0.6094005107879639 0
vt 0.6094005107879639 0.5825783014297485
vt 0.7485640048980713 0
vt 0.7485640048980713 0.5825783014297485
vt 0.7485640048980713 0.2912891507148743
vt 0.6094005107879639 0.2912891507148743
vt 0.3736955225467682 0.4174217283725739
vt 0.3736955225467682 0.99853515625
vt 0.5128589868545532 0.4174217283725739
vt 0.5128589868545532 0.99853515625
vt 0.3736955225467682 0.7079784274101257
vt 0.5128589868545532 0.7079784274101257
vt 0.1835654377937317 0.723369300365448
vt 0.1835654377937317 0.8128610253334045
vt 0.001817484968341887 0.6646373271942139
vt 0.001817484968341887 0.5695606470108032
vt 0.1835654377937317 0.4213369488716125
vt 0.1835654377937317 0.5136259198188782
vt 0.09060764312744141 0.6184976100921631
vn 0 0 -1
vn 0 0 -1
vn 0 0 -1
vn 0 0 -1
vn 0 0 -1
vn 0 0 -1
vn 0 0 -1
vn 0 1 0
vn 0 1 0
vn 0 1 0
vn 0 1 0
vn 0 1 0
vn 0 1 0
vn 0.7773863673210144 -0.6290234327316284 0
vn 0.7773863673210144 -0.6290234327316284 0
vn 0.7773863673210144 -0.6290234327316284 0
vn 0.7773863673210144 -0.6290234327316284 0
vn 0.7773863673210144 -0.6290234327316284 0
vn 0.7773863673210144 -0.6290234327316284 0
vn 0 -1 0
vn 0 -1 0
vn 0 -1 0
vn 0 -1 0
vn 0 -1 0
vn 0 -1 0
vn -0.7773863673210144 -0.6290234327316284 0
vn -0.7773863673210144 -0.6290234327316284 0
vn -0.7773863673210144 -0.6290234327316284 0
vn -0.7773863673210144 -0.6290234327316284 0
vn -0.7773863673210144 -0.6290234327316284 0
vn -0.7773863673210144 -0.6290234327316284 0
vn 0 1 0
vn 0 1 0
vn 0 1 0
vn 0 1 0
vn 0 1 0
vn 0 1 0
vn 0.6662408709526062 0.7457366585731506 0
vn 0.6662408709526062 0.7457366585731506 0
vn 0.6662408709526062 0.7457366585731506 0
vn 0.6662408709526062 0.7457366585731506 0
vn 0.6662408709526062 0.7457366585731506 0
vn 0.6662408709526062 0.7457366585731506 0
vn -0.6662408709526062 0.7457366585731506 0
vn -0.6662408709526062 0.7457366585731506 0
vn -0.6662408709526062 0.7457366585731506 0
vn -0.6662408709526062 0.7457366585731506 0
vn -0.6662408709526062 0.7457366585731506 0
vn -0.6662408709526062 0.7457366585731506 0
vn 0 0 1
vn 0 0 1
vn 0 0 1
vn 0 0 1
vn 0 0 1
vn 0 0 1
vn 0 0 1
f 3/3/3 6/6/6 5/5/5
f 4/4/4 3/3/3 5/5/5
f 3/3/3 1/1/1 2/2/2
f 6/6/6 3/3/3 7/7/7
f 2/2/2 7/7/7 3/3/3
f 13/13/13 8/8/8 10/10/10 12/12/12
f 9/9/9 13/13/13 12/12/12 11/11/11
f 19/19/19 14/14/14 16/16/16 18/18/18
f 15/15/15 19/19/19 18/18/18 17/17/17
f 25/25/25 20/20/20 22/22/22 24/24/24
f 21/21/21 25/25/25 24/24/24 23/23/23
f 31/31/31 26/26/26 28/28/28 30/30/30
f 27/27/27 31/31/31 30/30/30 29/29/29
f 37/37/37 32/32/32 34/34/34 36/36/36
f 33/33/33 37/37/37 36/36/36 35/35/35
f 43/43/43 38/38/38 40/40/40 42/42/42
f 39/39/39 43/43/43 42/42/42 41/41/41
f 48/48/48 44/44/44 46/46/46 49/49/49
f 45/45/45 48/48/48 49/49/49 47/47/47
f 56/56/56 54/54/54 53/53/53
f 55/55/55 54/54/54 56/56/56
f 56/56/56 51/51/51 50/50/50
f 53/53/53 52/52/52 56/56/56
f 51/51/51 56/56/56 52/52/52
g object_2
v 1.670871615409851 47.09385681152344 0
v 1.670871615409851 52.20616149902344 0
v 33.20995712280273 47.09385681152344 0
v 17.44043350219727 47.09385681152344 0
v 0.5907935500144958 5.618272304534912 0
v 11.46387100219727 19.44346809387207 0
v 22.33691024780273 33.26866149902344 0
v 0.5907935500144958 1.801866173744202 0
v 40.986328125 1.801866173744202 0
v 20.78857040405273 1.801866173744202 0
v 40.986328125 6.914170742034912 0
v 8.295871734619141 6.914170742034912 0
v 24.64110946655273 6.914170742034912 0
v 40.986328125 48.38975524902344 0
v 30.08947372436523 34.56455993652344 0
v 19.19268417358398 20.73936653137207 0
v 40.986328125 52.20616149902344 0
v 21.32860946655273 52.20616149902344 0
v 1.670871615409851 52.20616149902344 0
v 1.670871615409851 52.20616149902344 30
v 1.670871615409851 47.09385681152344 0
v 1.670871615409851 47.09385681152344 30
v 1.670871615409851 47.09385681152344 15
v 1.670871615409851 52.20616149902344 15
v 40.986328125 52.20616149902344 0
v 40.986328125 52.20616149902344 30
v 1.670871615409851 52.20616149902344 0
v 1.670871615409851 52.20616149902344 30
v 21.32860946655273 52.20616149902344 0
v 1.670871615409851 52.20616149902344 15
v 21.32860946655273 52.20616149902344 30
v 40.986328125 52.20616149902344 15
v 40.986328125 48.38975524902344 0
v 40.986328125 48.38975524902344 30
v 40.986328125 52.20616149902344 0
v 40.986328125 52.20616149902344 30
v 40.986328125 52.20616149902344 15
v 40.986328125 48.38975524902344 15
v 8.295871734619141 6.914170742034912 0
v 8.295871734619141 6.914170742034912 30
v 40.986328125 48.38975524902344 0
v 40.986328125 48.38975524902344 30
v 19.19268417358398 20.73936653137207 0
v 30.08947372436523 34.56455993652344 0
v 40.986328125 48.38975524902344 15
v 30.08947372436523 34.56455993652344 30
v 19.19268417358398 20.73936653137207 30
v 8.295871734619141 6.914170742034912 15
v 40.986328125 6.914170742034912 0
v 40.986328125 6.914170742034912 30
v 8.295871734619141 6.914170742034912 0
v 8.295871734619141 6.914170742034912 30
v 24.64110946655273 6.914170742034912 0
v 8.295871734619141 6.914170742034912 15
v 24.64110946655273 6.914170742034912 30
v 40.986328125 6.914170742034912 15
v 40.986328125 1.801866173744202 0
v 40.986328125 1.801866173744202 30
v 40.986328125 6.914170742034912 0
v 40.986328125 6.914170742034912 30
v 40.986328125 6.914170742034912 15
v 40.986328125 1.801866173744202 15
v 0.5907935500144958 1.801866173744202 0
v 0.5907935500144958 1.801866173744202 30
v 40.986328125 1.801866173744202 0
v 40.986328125 1.801866173744202 30
v 20.78857040405273 1.801866173744202 0
v 40.986328125 1.801866173744202 15
v 20.78857040405273 1.801866173744202 30
v 0.5907935500144958 1.801866173744202 15
v 0.5907935500144958 5.618272304534912 0
v 0.5907935500144958 5.618272304534912 30
v 0.5907935500144958 1.801866173744202 0
v 0.5907935500144958 1.801866173744202 30
v 0.5907935500144958 1.801866173744202 15
v 0.5907935500144958 5.618272304534912 15
v 33.20995712280273 47.09385681152344 0
v 33.20995712280273 47.09385681152344 30
v 0.5907935500144958 5.618272304534912 0
v 0.5907935500144958 5.618272304534912 30
v 22.33691024780273 33.26866149902344 0
v 11.46387100219727 19.44346809387207 0
v 0.5907935500144958 5.618272304534912 15
v 11.46387100219727 19.44346809387207 30
v 22.33691024780273 33.26866149902344 30
v 33.20995712280273 47.09385681152344 15
v 1.670871615409851 47.09385681152344 0
v 1.670871615409851 47.09385681152344 30
v 33.20995712280273 47.09385681152344 0
v 33.20995712280273 47.09385681152344 30
v 17.44043350219727 47.09385681152344 0
v 1.670871615409851 47.09385681152344 15
v 33.20995712280273 47.09385681152344 15
v 17.44043350219727 47.09385681152344 30
v 1.670871615409851 47.09385681152344 30
v 1.670871615409851 52.20616149902344 30
v 21.32860946655273 52.20616149902344 30
v 40.986328125 52.20616149902344 30
v 40.986328125 48.38975524902344 30
v 30.08947372436523 34.56455993652344 30
v 19.19268417358398 20.73936653137207 30
v 8.295871734619141 6.914170742034912 30
v 24.64110946655273 6.914170742034912 30
v 40.986328125 6.914170742034912 30
v 40.986328125 1.801866173744202 30
v 20.78857040405273 1.801866173744202 30
v 0.5907935500144958 1.801866173744202 30
v 0.5907935500144958 5.618272304534912 30
v 11.46387100219727 19.44346809387207 30
v 22.33691024780273 33.26866149902344 30
v 33.20995712280273 47.09385681152344 30
v 17.44043350219727 47.09385681152344 30
vt 0.6260654330253601 0.04178624972701073
vt 0.6260654330253601 0.003750135889276862
vt 0.8616181612014771 0.04178624972701073
vt 0.743841826915741 0.04178624972701073
vt 0.6179987788200378 0.3503692150115967
vt 0.699205219745636 0.2475082278251648
vt 0.7804117202758789 0.1446472406387329
vt 0.6179987788200378 0.3787636756896973
vt 0.9196967482566833 0.3787636756896973
vt 0.7688477635383606 0.3787636756896973
vt 0.9196967482566833 0.3407275974750519
vt 0.6755449175834656 0.3407275974750519
vt 0.7976208329200745 0.3407275974750519
vt 0.9196967482566833 0.03214462101459503
vt 0.8383128046989441 0.1350056082010269
vt 0.7569288611412048 0.2378665953874588
vt 0.9196967482566833 0.003750135889276862
vt 0.7728810906410217 0.003750135889276862
vt 0.5672107338905334 0
vt 0.5672107338905334 0.2240580916404724
vt 0.6053925156593323 0
vt 0.6053925156593323 0.2240580916404724
vt 0.6053925156593323 0.1120290458202362
vt 0.5672107338905334 0.1120290458202362
vt 0.2225932478904724 0
vt 0 0
vt 0.2225932478904724 0.2936313450336456
vt 0 0.2936313450336456
vt 0.2225932478904724 0.1468156725168228
vt 0.1112966239452362 0.2936313450336456
vt 0 0.1468156725168228
vt 0.1112966239452362 0
vt 0.4837779402732849 0
vt 0.4837779402732849 0.2240580916404724
vt 0.5122811794281006 0
vt 0.5122811794281006 0.2240580916404724
vt 0.5122811794281006 0.1120290458202362
vt 0.4837779402732849 0.1120290458202362
vt 0.4466513395309448 0.3606323301792145
vt 0.2240580916404724 0.3606323301792145
vt 0.4466513395309448 0.7550487518310547
vt 0.2240580916404724 0.7550487518310547
vt 0.4466513395309448 0.4921044707298279
vt 0.4466513395309448 0.6235765814781189
vt 0.3353547155857086 0.7550487518310547
vt 0.2240580916404724 0.6235765814781189
vt 0.2240580916404724 0.4921044707298279
vt 0.3353547155857086 0.3606323301792145
vt 0.4481161832809448 0.6080367565155029
vt 0.4481161832809448 0.8306300044059753
vt 0.6908031702041626 0.6080367565155029
vt 0.6908031702041626 0.8306300044059753
vt 0.5694596767425537 0.6080367565155029
vt 0.6908031702041626 0.7193334102630615
vt 0.5694596767425537 0.8306300044059753
vt 0.4481161832809448 0.7193334102630615
vt 0.519439697265625 0
vt 0.519439697265625 0.2240580916404724
vt 0.5576214790344238 0
vt 0.5576214790344238 0.2240580916404724
vt 0.5576214790344238 0.1120290458202362
vt 0.519439697265625 0.1120290458202362
vt 0.4466513395309448 0
vt 0.2240580916404724 0
vt 0.4466513395309448 0.3016979992389679
vt 0.2240580916404724 0.3016979992389679
vt 0.4466513395309448 0.1508489996194839
vt 0.3353547155857086 0.3016979992389679
vt 0.2240580916404724 0.1508489996194839
vt 0.3353547155857086 0
vt 0.4481161832809448 0
vt 0.4481161832809448 0.2240580916404724
vt 0.4766193926334381 0
vt 0.4766193926334381 0.2240580916404724
vt 0.4766193926334381 0.1120290458202362
vt 0.4481161832809448 0.1120290458202362
vt 0.2225932478904724 0.3606323301792145
vt 0 0.3606323301792145
vt 0.2225932478904724 0.7547193765640259
vt 0 0.7547193765640259
vt 0.2225932478904724 0.4919946789741516
vt 0.2225932478904724 0.6233570575714111
vt 0.1112966239452362 0.7547193765640259
vt 0 0.6233570575714111
vt 0 0.4919946789741516
vt 0.1112966239452362 0.3606323301792145
vt 0.4481161832809448 0.3839786648750305
vt 0.4481161832809448 0.6065719127655029
vt 0.6836689114570618 0.3839786648750305
vt 0.6836689114570618 0.6065719127655029
vt 0.5658925771713257 0.3839786648750305
vt 0.4481161832809448 0.4952752888202667
vt 0.6836689114570618 0.4952752888202667
vt 0.5658925771713257 0.6065719127655029
vt 0.7032989263534546 0.4259249567985535
vt 0.7032989263534546 0.3877431750297546
vt 0.8494157195091248 0.3877431750297546
vt 0.9955325126647949 0.3877431750297546
vt 0.9955325126647949 0.4162464141845703
vt 0.9145359992980957 0.519501268863678
vt 0.8335394263267517 0.6227561831474304
vt 0.7525429129600525 0.7260110974311829
vt 0.8740377426147461 0.7260110974311829
vt 0.9955325126647949 0.7260110974311829
vt 0.9955325126647949 0.7641928791999817
vt 0.8454015851020813 0.7641928791999817
vt 0.6952706575393677 0.7641928791999817
vt 0.6952706575393677 0.735689640045166
vt 0.7760905623435974 0.6324347257614136
vt 0.8569104671478271 0.5291798710823059
vt 0.9377304315567017 0.4259249567985535
vt 0.8205146789550781 0.4259249567985535
vn 0 0 -1
vn 0 0 -1
vn 0 0 -1
vn 0 0 -1
vn 0 0 -1
vn 0 0 -1
vn 0 0 -1
vn 0 0 -1
vn 0 0 -1
vn 0 0 -1
vn 0 0 -1
vn 0 0 -1
vn 0 0 -1
vn 0 0 -1
vn 0 0 -1
vn 0 0 -1
vn 0 0 -1
vn 0 0 -1
vn -1 0 0
vn -1 0 0
vn -1 0 0
vn -1 0 0
vn -1 0 0
vn -1 0 0
vn 0 1 0
vn 0 1 0
vn 0 1 0
vn 0 1 0
vn 0 1 0
vn 0 1 0
vn 0 1 0
vn 0 1 0
vn 1 0 0
vn 1 0 0
vn 1 0 0
vn 1 0 0
vn 1 0 0
vn 1 0 0
vn 0.7853748202323914 -0.6190205216407776 0
vn 0.7853748202323914 -0.6190205216407776 0
vn 0.7853748202323914 -0.6190205216407776 0
vn 0.7853748202323914 -0.6190205216407776 0
vn 0.7853748202323914 -0.6190205216407776 0
vn 0.7853748202323914 -0.6190205216407776 0
vn 0.7853748202323914 -0.6190205216407776 0
vn 0.7853748202323914 -0.6190205216407776 0
vn 0.7853748202323914 -0.6190205216407776 0
vn 0.7853748202323914 -0.6190205216407776 0
vn 0 1 0
vn 0 1 0
vn 0 1 0
vn 0 1 0
vn 0 1 0
vn 0 1 0
vn 0 1 0
vn 0 1 0
vn 1 0 0
vn 1 0 0
vn 1 0 0
vn 1 0 0
vn 1 0 0
vn 1 0 0
vn 0 -1 0
vn 0 -1 0
vn 0 -1 0
vn 0 -1 0
vn 0 -1 0
vn 0 -1 0
vn 0 -1 0
vn 0 -1 0
vn -1 0 0
vn -1 0 0
vn -1 0 0
vn -1 0 0
vn -1 0 0
vn -1 0 0
vn -0.786031186580658 0.6181868314743042 0
vn -0.786031186580658 0.6181868314743042 0
vn -0.786031186580658 0.6181868314743042 0
vn -0.786031186580658 0.6181868314743042 0
vn -0.786031186580658 0.6181868314743042 0
vn -0.786031186580658 0.6181868314743042 0
vn -0.786031186580658 0.6181868314743042 0
vn -0.786031186580658 0.6181868314743042 0
vn -0.786031186580658 0.6181868314743042 0
vn -0.786031186580658 0.6181868314743042 0
vn 0 -1 0
vn 0 -1 0
vn 0 -1 0
vn 0 -1 0
vn 0 -1 0
vn 0 -1 0
vn 0 -1 0
vn 0 -1 0
vn 0 0 1
vn 0 0 1
vn 0 0 1
vn 0 0 1
vn 0 0 1
vn 0 0 1
vn 0 0 1
vn 0 0 1
vn 0 0 1
vn 0 0 1
vn 0 0 1
vn 0 0 1
vn 0 0 1
vn 0 0 1
vn 0 0 1
vn 0 0 1
vn 0 0 1
vn 0 0 1
f 60/60/60 57/57/57 58/58/58 74/74/74
f 68/68/68 69/69/69 66/66/66 64/64/64
f 63/63/63 72/72/72 62/62/62
f 68/68/68 64/64/64 61/61/61
f 68/68/68 62/62/62 72/72/72
f 61/61/61 62/62/62 68/68/68
f 74/74/74 73/73/73 59/59/59 60/60/60
f 59/59/59 73/73/73 70/70/70
f 71/71/71 59/59/59 70/70/70
f 63/63/63 71/71/71 72/72/72
f 69/69/69 67/67/67 65/65/65 66/66/66
f 71/71/71 63/63/63 59/59/59
f 80/80/80 75/75/75 77/77/77 79/79/79
f 76/76/76 80/80/80 79/79/79 78/78/78
f 88/88/88 81/81/81 85/85/85
f 88/88/88 87/87/87 82/82/82
f 86/86/86 88/88/88 85/85/85
f 88/88/88 86/86/86 87/87/87
f 86/86/86 84/84/84 87/87/87
f 83/83/83 86/86/86 85/85/85
f 94/94/94 89/89/89 91/91/91 93/93/93
f 90/90/90 94/94/94 93/93/93 92/92/92
f 104/104/104 95/95/95 99/99/99
f 96/96/96 104/104/104 103/103/103
f 99/99/99 103/103/103 104/104/104
f 103/103/103 99/99/99 100/100/100 102/102/102
f 101/101/101 100/100/100 97/97/97
f 98/98/98 102/102/102 101/101/101
f 100/100/100 101/101/101 102/102/102
f 112/112/112 105/105/105 109/109/109
f 112/112/112 111/111/111 106/106/106
f 111/111/111 112/112/112 109/109/109
f 109/109/109 110/110/110 111/111/111
f 110/110/110 108/108/108 111/111/111
f 107/107/107 110/110/110 109/109/109
f 118/118/118 113/113/113 115/115/115 117/117/117
f 114/114/114 118/118/118 117/117/117 116/116/116
f 126/126/126 119/119/119 123/123/123
f 126/126/126 125/125/125 120/120/120
f 124/124/124 126/126/126 123/123/123
f 126/126/126 124/124/124 125/125/125
f 124/124/124 122/122/122 125/125/125
f 121/121/121 124/124/124 123/123/123
f 132/132/132 127/127/127 129/129/129 131/131/131
f 128/128/128 132/132/132 131/131/131 130/130/130
f 142/142/142 133/133/133 137/137/137
f 134/134/134 142/142/142 141/141/141
f 137/137/137 141/141/141 142/142/142
f 141/141/141 137/137/137 138/138/138 140/140/140
f 139/139/139 138/138/138 135/135/135
f 136/136/136 140/140/140 139/139/139
f 138/138/138 139/139/139 140/140/140
f 148/148/148 143/143/143 147/147/147
f 148/148/148 150/150/150 144/144/144
f 149/149/149 148/148/148 147/147/147
f 148/148/148 149/149/149 150/150/150
f 149/149/149 146/146/146 150/150/150
f 145/145/145 149/149/149 147/147/147
f 168/168/168 153/153/153 152/152/152 151/151/151
f 158/158/158 163/163/163 162/162/162 159/159/159
f 166/166/166 165/165/165 157/157/157
f 158/158/158 164/164/164 163/163/163
f 158/158/158 157/157/157 165/165/165
f 164/164/164 158/158/158 165/165/165
f 166/166/166 156/156/156 167/167/167
f 153/153/153 168/168/168 167/167/167 154/154/154
f 167/167/167 155/155/155 154/154/154
f 156/156/156 155/155/155 167/167/167
f 166/166/166 157/157/157 156/156/156
f 159/159/159 162/162/162 161/161/161 160/160/160
