# Rhino

g object_1
v 5.431822776794434 49.13409423828125 0
v 5.431822776794434 36.53302001953125 0
v 5.431822776794434 23.93194770812988 0
v 0.6071166396141052 49.13409423828125 0
v 0.6071166396141052 23.93194770812988 0
v 0.6071166396141052 36.53302001953125 0
v 5.431822776794434 23.93194770812988 0
v 5.431822776794434 23.93194770812988 30
v 5.431822776794434 49.13409423828125 0
v 5.431822776794434 49.13409423828125 30
v 5.431822776794434 36.53302001953125 0
v 5.431822776794434 49.13409423828125 15
v 5.431822776794434 36.53302001953125 30
v 5.431822776794434 23.93194770812988 15
v 0.6071166396141052 23.93194770812988 0
v 0.6071166396141052 23.93194770812988 30
v 5.431822776794434 23.93194770812988 0
v 5.431822776794434 23.93194770812988 30
v 5.431822776794434 23.93194770812988 15
v 0.6071166396141052 23.93194770812988 15
v 0.6071166396141052 49.13409423828125 0
v 0.6071166396141052 49.13409423828125 30
v 0.6071166396141052 23.93194770812988 0
v 0.6071166396141052 23.93194770812988 30
v 0.6071166396141052 36.53302001953125 0
v 0.6071166396141052 23.93194770812988 15
v 0.6071166396141052 36.53302001953125 30
v 0.6071166396141052 49.13409423828125 15
v 5.431822776794434 49.13409423828125 0
v 5.431822776794434 49.13409423828125 30
v 0.6071166396141052 49.13409423828125 0
v 0.6071166396141052 49.13409423828125 30
v 5.431822776794434 49.13409423828125 15
v 0.6071166396141052 49.13409423828125 15
v 5.431822776794434 49.13409423828125 30
v 5.431822776794434 36.53302001953125 30
v 5.431822776794434 23.93194770812988 30
v 0.6071166396141052 23.93194770812988 30
v 0.6071166396141052 36.53302001953125 30
v 0.6071166396141052 49.13409423828125 30
vt 0.1928614228963852 0.005000000353902578
vt 0.1928614228963852 0.2549999952316284
vt 0.1928614228963852 0.5049999952316284
vt 0.09857739508152008 0.005000000353902578
vt 0.09857739508152008 0.5049999952316284
vt 0.09857739508152008 0.2549999952316284
vt 0.9804319143295288 0.5
vt 0.3867094218730927 0.5
vt 0.9804319143295288 0.99853515625
vt 0.3867094218730927 0.99853515625
vt 0.9804319143295288 0.749267578125
vt 0.6835706830024719 0.99853515625
vt 0.3867094218730927 0.749267578125
vt 0.6835706830024719 0.5
vt 0.2909892797470093 0
vt 0.2909892797470093 0.5951873660087585
vt 0.3852445781230927 0
vt 0.3852445781230927 0.5951873660087585
vt 0.3852445781230927 0.2975936830043793
vt 0.2909892797470093 0.2975936830043793
vt 0.9804319143295288 0
vt 0.3867094218730927 0
vt 0.9804319143295288 0.49853515625
vt 0.3867094218730927 0.49853515625
vt 0.9804319143295288 0.249267578125
vt 0.6835706830024719 0.49853515625
vt 0.3867094218730927 0.249267578125
vt 0.6835706830024719 0
vt 0.1952691078186035 0
vt 0.1952691078186035 0.5951873660087585
vt 0.2895244359970093 0
vt 0.2895244359970093 0.5951873660087585
vt 0.1952691078186035 0.2975936830043793
vt 0.2895244359970093 0.2975936830043793
vt 0.09522686898708344 0.005000000353902578
vt 0.09522686898708344 0.2549999952316284
vt 0.09522686898708344 0.5049999952316284
vt 0.00094284035731107 0.5049999952316284
vt 0.00094284035731107 0.2549999952316284
vt 0.00094284035731107 0.005000000353902578
vn 0 0 -1
vn 0 0 -1
vn 0 0 -1
vn 0 0 -1
vn 0 0 -1
vn 0 0 -1
vn 1 0 0
vn 1 0 0
vn 1 0 0
vn 1 0 0
vn 1 0 0
vn 1 0 0
vn 1 0 0
vn 1 0 0
vn 0 -1 0
vn 0 -1 0
vn 0 -1 0
vn 0 -1 0
vn 0 -1 0
vn 0 -1 0
vn -1 0 0
vn -1 0 0
vn -1 0 0
vn -1 0 0
vn -1 0 0
vn -1 0 0
vn -1 0 0
vn -1 0 0
vn 0 1 0
vn 0 1 0
vn 0 1 0
vn 0 1 0
vn 0 1 0
vn 0 1 0
vn 0 0 1
vn 0 0 1
vn 0 0 1
vn 0 0 1
vn 0 0 1
vn 0 0 1
f 6/6/6 4/4/4 1/1/1 2/2/2
f 5/5/5 6/6/6 2/2/2 3/3/3
f 14/14/14 7/7/7 11/11/11
f 14/14/14 13/13/13 8/8/8
f 12/12/12 14/14/14 11/11/11
f 14/14/14 12/12/12 13/13/13
f 12/12/12 10/10/10 13/13/13
f 9/9/9 12/12/12 11/11/11
f 20/20/20 15/15/15 17/17/17 19/19/19
f 16/16/16 20/20/20 19/19/19 18/18/18
f 28/28/28 21/21/21 25/25/25
f 28/28/28 27/27/27 22/22/22
f 26/26/26 28/28/28 25/25/25
f 28/28/28 26/26/26 27/27/27
f 26/26/26 24/24/24 27/27/27
f 23/23/23 26/26/26 25/25/25
f 33/33/33 29/29/29 31/31/31 34/34/34
f 30/30/30 33/33/33 34/34/34 32/32/32
f 39/39/39 36/36/36 35/35/35 40/40/40
f 38/38/38 37/37/37 36/36/36 39/39/39
g object_2
v 5.431822776794434 13.13116264343262 0
v 5.431822776794434 0.5300888419151306 0
v 5.431822776794434 -12.07098579406738 0
v 0.6071166396141052 13.13116264343262 0
v 0.6071166396141052 -12.07098579406738 0
v 0.6071166396141052 0.5300888419151306 0
v 5.431822776794434 -12.07098579406738 0
v 5.431822776794434 -12.07098579406738 30
v 5.431822776794434 13.13116264343262 0
v 5.431822776794434 13.13116264343262 30
v 5.431822776794434 0.5300888419151306 0
v 5.431822776794434 13.13116264343262 15
v 5.431822776794434 0.5300888419151306 30
v 5.431822776794434 -12.07098579406738 15
v 0.6071166396141052 -12.07098579406738 0
v 0.6071166396141052 -12.07098579406738 30
v 5.431822776794434 -12.07098579406738 0
v 5.431822776794434 -12.07098579406738 30
v 5.431822776794434 -12.07098579406738 15
v 0.6071166396141052 -12.07098579406738 15
v 0.6071166396141052 13.13116264343262 0
v 0.6071166396141052 13.13116264343262 30
v 0.6071166396141052 -12.07098579406738 0
v 0.6071166396141052 -12.07098579406738 30
v 0.6071166396141052 0.5300888419151306 0
v 0.6071166396141052 -12.07098579406738 15
v 0.6071166396141052 0.5300888419151306 30
v 0.6071166396141052 13.13116264343262 15
v 5.431822776794434 13.13116264343262 0
v 5.431822776794434 13.13116264343262 30
v 0.6071166396141052 13.13116264343262 0
v 0.6071166396141052 13.13116264343262 30
v 5.431822776794434 13.13116264343262 15
v 0.6071166396141052 13.13116264343262 15
v 5.431822776794434 13.13116264343262 30
v 5.431822776794434 0.5300888419151306 30
v 5.431822776794434 -12.07098579406738 30
v 0.6071166396141052 -12.07098579406738 30
v 0.6071166396141052 0.5300888419151306 30
v 0.6071166396141052 13.13116264343262 30
vt 0.1928614228963852 0.005000000353902578
vt 0.1928614228963852 0.2549999952316284
vt 0.1928614228963852 0.5049999952316284
vt 0.09857739508152008 0.005000000353902578
vt 0.09857739508152008 0.5049999952316284
vt 0.09857739508152008 0.2549999952316284
vt 0.9804319143295288 0.5
vt 0.3867094218730927 0.5
vt 0.9804319143295288 0.99853515625
vt 0.3867094218730927 0.99853515625
vt 0.9804319143295288 0.749267578125
vt 0.6835706830024719 0.99853515625
vt 0.3867094218730927 0.749267578125
vt 0.6835706830024719 0.5
vt 0.2909892797470093 0
vt 0.2909892797470093 0.5951873660087585
vt 0.3852445781230927 0
vt 0.3852445781230927 0.5951873660087585
vt 0.3852445781230927 0.2975936830043793
vt 0.2909892797470093 0.2975936830043793
vt 0.9804319143295288 0
vt 0.3867094218730927 0
vt 0.9804319143295288 0.49853515625
vt 0.3867094218730927 0.49853515625
vt 0.9804319143295288 0.249267578125
vt 0.6835706830024719 0.49853515625
vt 0.3867094218730927 0.249267578125
vt 0.6835706830024719 0
vt 0.1952691078186035 0
vt 0.1952691078186035 0.5951873660087585
vt 0.2895244359970093 0
vt 0.2895244359970093 0.5951873660087585
vt 0.1952691078186035 0.2975936830043793
vt 0.2895244359970093 0.2975936830043793
vt 0.09522686898708344 0.005000000353902578
vt 0.09522686898708344 0.2549999952316284
vt 0.09522686898708344 0.5049999952316284
vt 0.00094284035731107 0.5049999952316284
vt 0.00094284035731107 0.2549999952316284
vt 0.00094284035731107 0.005000000353902578
vn 0 0 -1
vn 0 0 -1
vn 0 0 -1
vn 0 0 -1
vn 0 0 -1
vn 0 0 -1
vn 1 0 0
vn 1 0 0
vn 1 0 0
vn 1 0 0
vn 1 0 0
vn 1 0 0
vn 1 0 0
vn 1 0 0
vn 0 -1 0
vn 0 -1 0
vn 0 -1 0
vn 0 -1 0
vn 0 -1 0
vn 0 -1 0
vn -1 0 0
vn -1 0 0
vn -1 0 0
vn -1 0 0
vn -1 0 0
vn -1 0 0
vn -1 0 0
vn -1 0 0
vn 0 1 0
vn 0 1 0
vn 0 1 0
vn 0 1 0
vn 0 1 0
vn 0 1 0
vn 0 0 1
vn 0 0 1
vn 0 0 1
vn 0 0 1
vn 0 0 1
vn 0 0 1
f 46/46/46 44/44/44 41/41/41 42/42/42
f 45/45/45 46/46/46 42/42/42 43/43/43
f 54/54/54 47/47/47 51/51/51
f 54/54/54 53/53/53 48/48/48
f 52/52/52 54/54/54 51/51/51 49/49/49
f 54/54/54 52/52/52 50/50/50 53/53/53
f 60/60/60 55/55/55 57/57/57 59/59/59
f 56/56/56 60/60/60 59/59/59 58/58/58
f 68/68/68 61/61/61 65/65/65
f 68/68/68 67/67/67 62/62/62
f 66/66/66 68/68/68 65/65/65
f 68/68/68 66/66/66 67/67/67
f 66/66/66 64/64/64 67/67/67
f 63/63/63 66/66/66 65/65/65
f 73/73/73 69/69/69 71/71/71 74/74/74
f 70/70/70 73/73/73 74/74/74 72/72/72
f 79/79/79 76/76/76 75/75/75 80/80/80
f 78/78/78 77/77/77 76/76/76 79/79/79
