# Rhino

v 2.03645396232605 21.63275337219238 0
v 2.03645396232605 21.63275337219238 15
v 2.03645396232605 21.63275337219238 30
v 7.076982021331787 21.63275337219238 0
v 7.076982021331787 21.63275337219238 15
v 7.076982021331787 21.63275337219238 30
v 12.69366645812988 6.871524333953857 0
v 12.69366645812988 6.871524333953857 15
v 12.69366645812988 6.871524333953857 30
v 12.69366645812988 36.39398956298828 0
v 12.69366645812988 36.39398956298828 15
v 12.69366645812988 36.39398956298828 30
v 17.80597114562988 6.871524333953857 0
v 17.80597114562988 6.871524333953857 15
v 17.80597114562988 6.871524333953857 30
v 17.87823677062988 36.39398956298828 0
v 17.87823677062988 36.39398956298828 15
v 17.87823677062988 36.39398956298828 30
vt 0.5142284035682678 0.4227175116539001
vt 0.4404759407043457 0.4227175116539001
vt 0.3605762422084808 0.2134514302015305
vt 0.5132004022598267 0.00418532220646739
vt 0.4404759407043457 0.00418532220646739
vt 0.2888728082180023 0.2134514302015305
vt 0.07272449135780334 0.4283677041530609
vt 0.07272449135780334 0.8551291823387146
vt 0.145012155175209 0.4283677041530609
vt 0.145012155175209 0.8551291823387146
vt 0.145012155175209 0.6417484283447266
vt 0.07272449135780334 0.6417484283447266
vt 0.5717736482620239 0.6873596906661987
vt 0.146476998925209 0.6873596906661987
vt 0.5717736482620239 0.9448868632316589
vt 0.146476998925209 0.9448868632316589
vt 0.3591253161430359 0.9448868632316589
vt 0.3591253161430359 0.6873596906661987
vt 0.5717736482620239 0.4283677041530609
vt 0.146476998925209 0.4283677041530609
vt 0.5717736482620239 0.6858948469161987
vt 0.146476998925209 0.6858948469161987
vt 0.3591253161430359 0.6858948469161987
vt 0.3591253161430359 0.4283677041530609
vt 0 0.4283677041530609
vt 0 0.8551291823387146
vt 0.07125964760780334 0.4283677041530609
vt 0.07125964760780334 0.8551291823387146
vt 0.07125964760780334 0.6417484283447266
vt 0 0.6417484283447266
vt 0.99853515625 0
vt 0.5732384920120239 0
vt 0.99853515625 0.2595910131931305
vt 0.5732384920120239 0.2595910131931305
vt 0.785886824131012 0.2595910131931305
vt 0.785886824131012 0
vt 0.99853515625 0.4726244211196899
vt 0.5732384920120239 0.4726244211196899
vt 0.99853515625 0.7328211665153503
vt 0.5732384920120239 0.7328211665153503
vt 0.785886824131012 0.4726244211196899
vt 0.785886824131012 0.7328211665153503
vt 0.2276091873645782 0.4227175116539001
vt 0.1538566946983337 0.4227175116539001
vt 0.002253556391224265 0.2134514302015305
vt 0.1538566946983337 0.00418532220646739
vt 0.2265811860561371 0.00418532220646739
vt 0.07395699620246887 0.2134514302015305
vn 0 0 -1
vn 0 0 -1
vn 0 0 -1
vn 0 0 -1
vn 0 0 -1
vn 0 0 -1
vn 0 1 0
vn 0 1 0
vn 0 1 0
vn 0 1 0
vn 0 1 0
vn 0 1 0
vn -0.8107746839523315 0.5853583812713623 0
vn -0.8107746839523315 0.5853583812713623 0
vn -0.8107746839523315 0.5853583812713623 0
vn -0.8107746839523315 0.5853583812713623 0
vn -0.8107746839523315 0.5853583812713623 0
vn -0.8107746839523315 0.5853583812713623 0
vn -0.8107746839523315 -0.5853583812713623 0
vn -0.8107746839523315 -0.5853583812713623 0
vn -0.8107746839523315 -0.5853583812713623 0
vn -0.8107746839523315 -0.5853583812713623 0
vn -0.8107746839523315 -0.5853583812713623 0
vn -0.8107746839523315 -0.5853583812713623 0
vn 0 -1 0
vn 0 -1 0
vn 0 -1 0
vn 0 -1 0
vn 0 -1 0
vn 0 -1 0
vn 0.8089038133621216 0.5879409909248352 0
vn 0.8089038133621216 0.5879409909248352 0
vn 0.8089038133621216 0.5879409909248352 0
vn 0.8089038133621216 0.5879409909248352 0
vn 0.8089038133621216 0.5879409909248352 0
vn 0.8089038133621216 0.5879409909248352 0
vn 0.8070207238197327 -0.5905231237411499 0
vn 0.8070207238197327 -0.5905231237411499 0
vn 0.8070207238197327 -0.5905231237411499 0
vn 0.8070207238197327 -0.5905231237411499 0
vn 0.8070207238197327 -0.5905231237411499 0
vn 0.8070207238197327 -0.5905231237411499 0
vn 0 0 1
vn 0 0 1
vn 0 0 1
vn 0 0 1
vn 0 0 1
vn 0 0 1
f 4/3/3 7/5/5 1/6/6
f 13/4/4 7/5/5 4/3/3
f 10/2/2 4/3/3 1/6/6
f 10/2/2 16/1/1 4/3/3
f 11/12/12 17/11/11 16/9/9 10/7/7
f 12/8/8 18/10/10 17/11/11 11/12/12
f 2/18/18 11/17/17 10/15/15 1/13/13
f 3/14/14 12/16/16 11/17/17 2/18/18
f 8/24/24 2/23/23 1/21/21 7/19/19
f 9/20/20 3/22/22 2/23/23 8/24/24
f 14/30/30 8/29/29 7/27/27 13/25/25
f 15/26/26 9/28/28 8/29/29 14/30/30
f 5/36/36 14/35/35 13/33/33 4/31/31
f 6/32/32 15/34/34 14/35/35 5/36/36
f 17/41/41 5/42/42 4/39/39 16/37/37
f 18/38/38 6/40/40 5/42/42 17/41/41
f 6/48/48 3/45/45 9/46/46
f 15/47/47 6/48/48 9/46/46
f 12/44/44 3/45/45 6/48/48
f 12/44/44 6/48/48 18/43/43
v 14.70977973937988 21.63275337219238 0
v 14.70977973937988 21.63275337219238 15
v 14.70977973937988 21.63275337219238 30
v 19.75030517578125 21.63275337219238 0
v 19.75030517578125 21.63275337219238 15
v 19.75030517578125 21.63275337219238 30
v 25.36663818359375 6.871524333953857 0
v 25.36663818359375 6.871524333953857 15
v 25.36663818359375 6.871524333953857 30
v 25.36663818359375 36.39398956298828 0
v 25.36663818359375 36.39398956298828 15
v 25.36663818359375 36.39398956298828 30
v 30.55096435546875 6.871524333953857 0
v 30.55096435546875 6.871524333953857 15
v 30.55096435546875 6.871524333953857 30
v 30.55096435546875 36.39398956298828 0
v 30.55096435546875 36.39398956298828 15
v 30.55096435546875 36.39398956298828 30
vt 0.5142068266868591 0.4222819209098816
vt 0.4405300617218018 0.4222819209098816
vt 0.3607193529605865 0.2132314741611481
vt 0.5142068266868591 0.004181009251624346
vt 0.4405300617218018 0.004181009251624346
vt 0.289089560508728 0.2132314741611481
vt 0.07367675751447678 0.4279277920722961
vt 0.07367675751447678 0.8542510271072388
vt 0.1458886712789536 0.4279277920722961
vt 0.1458886712789536 0.8542510271072388
vt 0.1458886712789536 0.6410893797874451
vt 0.07367675751447678 0.6410893797874451
vt 0.5722119212150574 0.6866497397422791
vt 0.1473535150289536 0.6866497397422791
vt 0.5722119212150574 0.9439069032669067
vt 0.1473535150289536 0.9439069032669067
vt 0.3597827255725861 0.9439069032669067
vt 0.3597827255725861 0.6866497397422791
vt 0.5722119212150574 0.4279277920722961
vt 0.1473535150289536 0.4279277920722961
vt 0.5722119212150574 0.6851848959922791
vt 0.1473535150289536 0.6851848959922791
vt 0.3597827255725861 0.6851848959922791
vt 0.3597827255725861 0.4279277920722961
vt 0 0.4279277920722961
vt 0 0.8542510271072388
vt 0.07221191376447678 0.4279277920722961
vt 0.07221191376447678 0.8542510271072388
vt 0.07221191376447678 0.6410893797874451
vt 0 0.6410893797874451
vt 0.99853515625 0.4726858735084534
vt 0.5736767649650574 0.4726858735084534
vt 0.99853515625 0.7326112985610962
vt 0.5736767649650574 0.7326112985610962
vt 0.7861059308052063 0.7326112985610962
vt 0.7861059308052063 0.4726858735084534
vt 0.99853515625 0
vt 0.5736767649650574 0
vt 0.99853515625 0.2599254548549652
vt 0.5736767649650574 0.2599254548549652
vt 0.7861059308052063 0
vt 0.7861059308052063 0.2599254548549652
vt 0.2273684293031693 0.4222819209098816
vt 0.1536916792392731 0.4222819209098816
vt 0.002251172671094537 0.2132314741611481
vt 0.1536916792392731 0.004181009251624346
vt 0.2273684293031693 0.004181009251624346
vt 0.07388097047805786 0.2132314741611481
vn 0 0 -1
vn 0 0 -1
vn 0 0 -1
vn 0 0 -1
vn 0 0 -1
vn 0 0 -1
vn 0 1 0
vn 0 1 0
vn 0 1 0
vn 0 1 0
vn 0 1 0
vn 0 1 0
vn -0.8107874393463135 0.5853407382965088 0
vn -0.8107874393463135 0.5853407382965088 0
vn -0.8107874393463135 0.5853407382965088 0
vn -0.8107874393463135 0.5853407382965088 0
vn -0.8107874393463135 0.5853407382965088 0
vn -0.8107874393463135 0.5853407382965088 0
vn -0.8107874393463135 -0.5853407382965088 0
vn -0.8107874393463135 -0.5853407382965088 0
vn -0.8107874393463135 -0.5853407382965088 0
vn -0.8107874393463135 -0.5853407382965088 0
vn -0.8107874393463135 -0.5853407382965088 0
vn -0.8107874393463135 -0.5853407382965088 0
vn 0 -1 0
vn 0 -1 0
vn 0 -1 0
vn 0 -1 0
vn 0 -1 0
vn 0 -1 0
vn 0.8070334196090698 0.5905057787895203 0
vn 0.8070334196090698 0.5905057787895203 0
vn 0.8070334196090698 0.5905057787895203 0
vn 0.8070334196090698 0.5905057787895203 0
vn 0.8070334196090698 0.5905057787895203 0
vn 0.8070334196090698 0.5905057787895203 0
vn 0.8070334196090698 -0.5905057787895203 0
vn 0.8070334196090698 -0.5905057787895203 0
vn 0.8070334196090698 -0.5905057787895203 0
vn 0.8070334196090698 -0.5905057787895203 0
vn 0.8070334196090698 -0.5905057787895203 0
vn 0.8070334196090698 -0.5905057787895203 0
vn 0 0 1
vn 0 0 1
vn 0 0 1
vn 0 0 1
vn 0 0 1
vn 0 0 1
f 22/51/51 25/53/53 19/54/54
f 31/52/52 25/53/53 22/51/51
f 28/50/50 22/51/51 19/54/54
f 28/50/50 34/49/49 22/51/51
f 29/60/60 35/59/59 34/57/57 28/55/55
f 30/56/56 36/58/58 35/59/59 29/60/60
f 20/66/66 29/65/65 28/63/63 19/61/61
f 21/62/62 30/64/64 29/65/65 20/66/66
f 26/72/72 20/71/71 19/69/69 25/67/67
f 27/68/68 21/70/70 20/71/71 26/72/72
f 32/78/78 26/77/77 25/75/75 31/73/73
f 33/74/74 27/76/76 26/77/77 32/78/78
f 23/84/84 32/83/83 31/81/81 22/79/79
f 24/80/80 33/82/82 32/83/83 23/84/84
f 35/89/89 23/90/90 22/87/87 34/85/85
f 36/86/86 24/88/88 23/90/90 35/89/89
f 24/96/96 21/93/93 27/94/94
f 33/95/95 24/96/96 27/94/94
f 30/92/92 21/93/93 24/96/96
f 30/92/92 24/96/96 36/91/91
