# Rhino

g object_1
v 0.4334502816200256 43.80548095703125 0
v 0.4334502816200256 48.63018798828125 0
v 23.18735885620117 43.80548095703125 0
v 11.81040287017822 43.80548095703125 0
v 23.18735885620117 48.63018798828125 0
v 11.81040287017822 48.63018798828125 0
v 0.4334502816200256 48.63018798828125 0
v 0.4334502816200256 48.63018798828125 30
v 0.4334502816200256 43.80548095703125 0
v 0.4334502816200256 43.80548095703125 30
v 0.4334502816200256 43.80548095703125 15
v 0.4334502816200256 48.63018798828125 15
v 23.18735885620117 48.63018798828125 0
v 23.18735885620117 48.63018798828125 30
v 0.4334502816200256 48.63018798828125 0
v 0.4334502816200256 48.63018798828125 30
v 11.81040287017822 48.63018798828125 0
v 0.4334502816200256 48.63018798828125 15
v 11.81040287017822 48.63018798828125 30
v 23.18735885620117 48.63018798828125 15
v 23.18735885620117 43.80548095703125 0
v 23.18735885620117 43.80548095703125 30
v 23.18735885620117 48.63018798828125 0
v 23.18735885620117 48.63018798828125 30
v 23.18735885620117 48.63018798828125 15
v 23.18735885620117 43.80548095703125 15
v 0.4334502816200256 43.80548095703125 0
v 0.4334502816200256 43.80548095703125 30
v 23.18735885620117 43.80548095703125 0
v 23.18735885620117 43.80548095703125 30
v 11.81040287017822 43.80548095703125 0
v 0.4334502816200256 43.80548095703125 15
v 23.18735885620117 43.80548095703125 15
v 11.81040287017822 43.80548095703125 30
v 0.4334502816200256 43.80548095703125 30
v 0.4334502816200256 48.63018798828125 30
v 11.81040287017822 48.63018798828125 30
v 23.18735885620117 48.63018798828125 30
v 23.18735885620117 43.80548095703125 30
v 11.81040287017822 43.80548095703125 30
vt 0.1003951355814934 0.004597508814185858
vt 0.19644396007061 0.004597508814185858
vt 0.1003951355814934 0.4643483757972717
vt 0.1003951355814934 0.2344729453325272
vt 0.19644396007061 0.4643483757972717
vt 0.19644396007061 0.2344729453325272
vt 0.2963542342185974 0
vt 0.2963542342185974 0.6061608195304871
vt 0.3923743367195129 0
vt 0.3923743367195129 0.6061608195304871
vt 0.3923743367195129 0.3030804097652435
vt 0.2963542342185974 0.3030804097652435
vt 0.99853515625 0.4597508907318115
vt 0.3938391804695129 0.4597508907318115
vt 0.99853515625 0.918036937713623
vt 0.3938391804695129 0.918036937713623
vt 0.99853515625 0.6888939142227173
vt 0.6961871385574341 0.918036937713623
vt 0.3938391804695129 0.6888939142227173
vt 0.6961871385574341 0.4597508907318115
vt 0.1988692879676819 0
vt 0.1988692879676819 0.6061608195304871
vt 0.2948893904685974 0
vt 0.2948893904685974 0.6061608195304871
vt 0.2948893904685974 0.3030804097652435
vt 0.1988692879676819 0.3030804097652435
vt 0.99853515625 0
vt 0.3938391804695129 0
vt 0.99853515625 0.4582860469818115
vt 0.3938391804695129 0.4582860469818115
vt 0.99853515625 0.2291430234909058
vt 0.6961871385574341 0
vt 0.6961871385574341 0.4582860469818115
vt 0.3938391804695129 0.2291430234909058
vt 0.000960491131991148 0.004597508814185858
vt 0.0970093160867691 0.004597508814185858
vt 0.0970093160867691 0.2344729453325272
vt 0.0970093160867691 0.4643483757972717
vt 0.000960491131991148 0.4643483757972717
vt 0.000960491131991148 0.2344729453325272
vn 0 0 -1
vn 0 0 -1
vn 0 0 -1
vn 0 0 -1
vn 0 0 -1
vn 0 0 -1
vn -1 0 0
vn -1 0 0
vn -1 0 0
vn -1 0 0
vn -1 0 0
vn -1 0 0
vn 0 1 0
vn 0 1 0
vn 0 1 0
vn 0 1 0
vn 0 1 0
vn 0 1 0
vn 0 1 0
vn 0 1 0
vn 1 0 0
vn 1 0 0
vn 1 0 0
vn 1 0 0
vn 1 0 0
vn 1 0 0
vn 0 -1 0
vn 0 -1 0
vn 0 -1 0
vn 0 -1 0
vn 0 -1 0
vn 0 -1 0
vn 0 -1 0
vn 0 -1 0
vn 0 0 1
vn 0 0 1
vn 0 0 1
vn 0 0 1
vn 0 0 1
vn 0 0 1
f 1/1/1 2/2/2 6/6/6 4/4/4
f 5/5/5 3/3/3 4/4/4 6/6/6
f 12/12/12 7/7/7 9/9/9 11/11/11
f 8/8/8 12/12/12 11/11/11 10/10/10
f 20/20/20 13/13/13 17/17/17
f 20/20/20 19/19/19 14/14/14
f 18/18/18 20/20/20 17/17/17
f 20/20/20 18/18/18 19/19/19
f 18/18/18 16/16/16 19/19/19
f 15/15/15 18/18/18 17/17/17
f 26/26/26 21/21/21 23/23/23 25/25/25
f 22/22/22 26/26/26 25/25/25 24/24/24
f 32/32/32 27/27/27 31/31/31
f 32/32/32 34/34/34 28/28/28
f 33/33/33 32/32/32 31/31/31
f 32/32/32 33/33/33 34/34/34
f 33/33/33 30/30/30 34/34/34
f 29/29/29 33/33/33 31/31/31
f 35/35/35 40/40/40 37/37/37 36/36/36
f 38/38/38 37/37/37 40/40/40 39/39/39
