# Rhino

g object_1
v 10.056884765625 63.40446472167969 0
v 15.817626953125 66.06852722167969 0
v 18.1934814453125 55.62761306762695 0
v 14.125244140625 59.51604080200195 0
v 22.65771484375 55.62761306762695 0
v 19.237548828125 60.84806823730469 0
v 15.817626953125 66.06852722167969 0
v 15.817626953125 66.06852722167969 30
v 10.056884765625 63.40446472167969 0
v 10.056884765625 63.40446472167969 30
v 10.056884765625 63.40446472167969 15
v 15.817626953125 66.06852722167969 15
v 22.65771484375 55.62761306762695 0
v 22.65771484375 55.62761306762695 30
v 15.817626953125 66.06852722167969 0
v 15.817626953125 66.06852722167969 30
v 19.237548828125 60.84806823730469 0
v 15.817626953125 66.06852722167969 15
v 19.237548828125 60.84806823730469 30
v 22.65771484375 55.62761306762695 15
v 18.1934814453125 55.62761306762695 0
v 18.1934814453125 55.62761306762695 30
v 22.65771484375 55.62761306762695 0
v 22.65771484375 55.62761306762695 30
v 22.65771484375 55.62761306762695 15
v 18.1934814453125 55.62761306762695 15
v 10.056884765625 63.40446472167969 0
v 10.056884765625 63.40446472167969 30
v 18.1934814453125 55.62761306762695 0
v 18.1934814453125 55.62761306762695 30
v 14.125244140625 59.51604080200195 0
v 10.056884765625 63.40446472167969 15
v 18.1934814453125 55.62761306762695 15
v 14.125244140625 59.51604080200195 30
v 10.056884765625 63.40446472167969 30
v 15.817626953125 66.06852722167969 30
v 19.237548828125 60.84806823730469 30
v 22.65771484375 55.62761306762695 30
v 18.1934814453125 55.62761306762695 30
v 14.125244140625 59.51604080200195 30
vt 0.1806533634662628 0.2907358407974243
vt 0.2417186796665192 0.423575222492218
vt 0.002393261296674609 0.4783638715744019
vt 0.09152330458164215 0.3845498561859131
vt 0.002393261296674609 0.5813093185424805
vt 0.1220559626817703 0.5024423003196716
vt 0.2455767691135406 0.287830114364624
vt 0.2455767691135406 0.9781479239463806
vt 0.3904682099819183 0.287830114364624
vt 0.3904682099819183 0.9781479239463806
vt 0.3904682099819183 0.6329890489578247
vt 0.2455767691135406 0.6329890489578247
vt 0.6917826533317566 0
vt 0 0
vt 0.6917826533317566 0.286365270614624
vt 0 0.286365270614624
vt 0.6917826533317566 0.143182635307312
vt 0.3458913266658783 0.286365270614624
vt 0 0.143182635307312
vt 0.3458913266658783 0
vt 0.3919330537319183 0.287830114364624
vt 0.3919330537319183 0.9781479239463806
vt 0.4934136867523193 0.287830114364624
vt 0.4934136867523193 0.9781479239463806
vt 0.4934136867523193 0.6329890489578247
vt 0.3919330537319183 0.6329890489578247
vt 0.7404552698135376 0
vt 0.7404552698135376 0.6917826533317566
vt 0.99853515625 0
vt 0.99853515625 0.6917826533317566
vt 0.8694952130317688 0
vt 0.7404552698135376 0.3458913266658783
vt 0.99853515625 0.3458913266658783
vt 0.8694952130317688 0.6917826533317566
vt 0.6755318641662598 0.2907358407974243
vt 0.7365971803665161 0.423575222492218
vt 0.6169344782829285 0.5024423003196716
vt 0.4972717761993408 0.5813093185424805
vt 0.4972717761993408 0.4783638715744019
vt 0.5864018201828003 0.3845498561859131
vn 0 0 -1
vn 0 0 -1
vn 0 0 -1
vn 0 0 -1
vn 0 0 -1
vn 0 0 -1
vn -0.4197410643100739 0.9076439142227173 0
vn -0.4197410643100739 0.9076439142227173 0
vn -0.4197410643100739 0.9076439142227173 0
vn -0.4197410643100739 0.9076439142227173 0
vn -0.4197410643100739 0.9076439142227173 0
vn -0.4197410643100739 0.9076439142227173 0
vn 0.8364710211753845 0.5480111837387085 0
vn 0.8364710211753845 0.5480111837387085 0
vn 0.8364710211753845 0.5480111837387085 0
vn 0.8364710211753845 0.5480111837387085 0
vn 0.8364710211753845 0.5480111837387085 0
vn 0.8364710211753845 0.5480111837387085 0
vn 0.8364710211753845 0.5480111837387085 0
vn 0.8364710211753845 0.5480111837387085 0
vn 0 -1 0
vn 0 -1 0
vn 0 -1 0
vn 0 -1 0
vn 0 -1 0
vn 0 -1 0
vn -0.6909399032592773 -0.7229121923446655 0
vn -0.6909399032592773 -0.7229121923446655 0
vn -0.6909399032592773 -0.7229121923446655 0
vn -0.6909399032592773 -0.7229121923446655 0
vn -0.6909399032592773 -0.7229121923446655 0
vn -0.6909399032592773 -0.7229121923446655 0
vn -0.6909399032592773 -0.7229121923446655 0
vn -0.6909399032592773 -0.7229121923446655 0
vn 0 0 1
vn 0 0 1
vn 0 0 1
vn 0 0 1
vn 0 0 1
vn 0 0 1
f 4/4/4 1/1/1 2/2/2
f 6/6/6 4/4/4 2/2/2
f 5/5/5 3/3/3 6/6/6
f 4/4/4 6/6/6 3/3/3
f 12/12/12 7/7/7 9/9/9 11/11/11
f 8/8/8 12/12/12 11/11/11 10/10/10
f 20/20/20 13/13/13 17/17/17
f 20/20/20 19/19/19 14/14/14
f 18/18/18 20/20/20 17/17/17 15/15/15
f 20/20/20 18/18/18 16/16/16 19/19/19
f 26/26/26 21/21/21 23/23/23 25/25/25
f 22/22/22 26/26/26 25/25/25 24/24/24
f 32/32/32 27/27/27 31/31/31
f 32/32/32 34/34/34 28/28/28
f 33/33/33 32/32/32 31/31/31
f 32/32/32 33/33/33 34/34/34
f 33/33/33 30/30/30 34/34/34
f 29/29/29 33/33/33 31/31/31
f 40/40/40 36/36/36 35/35/35
f 37/37/37 36/36/36 40/40/40
f 38/38/38 37/37/37 39/39/39
f 40/40/40 39/39/39 37/37/37
g object_2
v 37.2752685546875 45.97868728637695 0
v 21.90185546875 45.97868728637695 0
v 6.528564453125 45.97868728637695 0
v 37.2752685546875 51.16325759887695 0
v 0.840118408203125 51.16325759887695 0
v 19.0576171875 51.16325759887695 0
v 0.840118408203125 0.7589421272277832 0
v 0.840118408203125 25.96110534667969 0
v 37.6351318359375 0.7589421272277832 0
v 19.237548828125 0.7589421272277832 0
v 37.6351318359375 5.943511962890625 0
v 6.528564453125 5.943511962890625 0
v 22.081787109375 5.943511962890625 0
v 6.528564453125 23.58512878417969 0
v 34.0345458984375 23.58512878417969 0
v 20.281494140625 23.58512878417969 0
v 34.0345458984375 28.76921081542969 0
v 6.528564453125 28.76921081542969 0
v 20.281494140625 28.76921081542969 0
v 6.528564453125 45.97868728637695 0
v 6.528564453125 45.97868728637695 30
v 37.2752685546875 45.97868728637695 0
v 37.2752685546875 45.97868728637695 30
v 21.90185546875 45.97868728637695 0
v 37.2752685546875 45.97868728637695 15
v 21.90185546875 45.97868728637695 30
v 6.528564453125 45.97868728637695 15
v 6.528564453125 28.76921081542969 0
v 6.528564453125 28.76921081542969 30
v 6.528564453125 45.97868728637695 0
v 6.528564453125 45.97868728637695 30
v 6.528564453125 45.97868728637695 15
v 6.528564453125 28.76921081542969 15
v 34.0345458984375 28.76921081542969 0
v 34.0345458984375 28.76921081542969 30
v 6.528564453125 28.76921081542969 0
v 6.528564453125 28.76921081542969 30
v 20.281494140625 28.76921081542969 0
v 6.528564453125 28.76921081542969 15
v 20.281494140625 28.76921081542969 30
v 34.0345458984375 28.76921081542969 15
v 34.0345458984375 23.58512878417969 0
v 34.0345458984375 23.58512878417969 30
v 34.0345458984375 28.76921081542969 0
v 34.0345458984375 28.76921081542969 30
v 34.0345458984375 28.76921081542969 15
v 34.0345458984375 23.58512878417969 15
v 6.528564453125 23.58512878417969 0
v 6.528564453125 23.58512878417969 30
v 34.0345458984375 23.58512878417969 0
v 34.0345458984375 23.58512878417969 30
v 20.281494140625 23.58512878417969 0
v 34.0345458984375 23.58512878417969 15
v 20.281494140625 23.58512878417969 30
v 6.528564453125 23.58512878417969 15
v 6.528564453125 5.943511962890625 0
v 6.528564453125 5.943511962890625 30
v 6.528564453125 23.58512878417969 0
v 6.528564453125 23.58512878417969 30
v 6.528564453125 23.58512878417969 15
v 6.528564453125 5.943511962890625 15
v 37.6351318359375 5.943511962890625 0
v 37.6351318359375 5.943511962890625 30
v 6.528564453125 5.943511962890625 0
v 6.528564453125 5.943511962890625 30
v 22.081787109375 5.943511962890625 0
v 6.528564453125 5.943511962890625 15
v 22.081787109375 5.943511962890625 30
v 37.6351318359375 5.943511962890625 15
v 37.6351318359375 0.7589421272277832 0
v 37.6351318359375 0.7589421272277832 30
v 37.6351318359375 5.943511962890625 0
v 37.6351318359375 5.943511962890625 30
v 37.6351318359375 5.943511962890625 15
v 37.6351318359375 0.7589421272277832 15
v 0.840118408203125 0.7589421272277832 0
v 0.840118408203125 0.7589421272277832 30
v 37.6351318359375 0.7589421272277832 0
v 37.6351318359375 0.7589421272277832 30
v 19.237548828125 0.7589421272277832 0
v 37.6351318359375 0.7589421272277832 15
v 19.237548828125 0.7589421272277832 30
v 0.840118408203125 0.7589421272277832 15
v 0.840118408203125 51.16325759887695 0
v 0.840118408203125 51.16325759887695 30
v 0.840118408203125 0.7589421272277832 0
v 0.840118408203125 0.7589421272277832 30
v 0.840118408203125 25.96110534667969 0
v 0.840118408203125 0.7589421272277832 15
v 0.840118408203125 25.96110534667969 30
v 0.840118408203125 51.16325759887695 15
v 37.2752685546875 51.16325759887695 0
v 37.2752685546875 51.16325759887695 30
v 0.840118408203125 51.16325759887695 0
v 0.840118408203125 51.16325759887695 30
v 19.0576171875 51.16325759887695 0
v 0.840118408203125 51.16325759887695 15
v 19.0576171875 51.16325759887695 30
v 37.2752685546875 51.16325759887695 15
v 37.2752685546875 45.97868728637695 0
v 37.2752685546875 45.97868728637695 30
v 37.2752685546875 51.16325759887695 0
v 37.2752685546875 51.16325759887695 30
v 37.2752685546875 45.97868728637695 15
v 37.2752685546875 51.16325759887695 15
v 37.2752685546875 45.97868728637695 30
v 21.90185546875 45.97868728637695 30
v 6.528564453125 45.97868728637695 30
v 6.528564453125 28.76921081542969 30
v 20.281494140625 28.76921081542969 30
v 34.0345458984375 28.76921081542969 30
v 34.0345458984375 23.58512878417969 30
v 20.281494140625 23.58512878417969 30
v 6.528564453125 23.58512878417969 30
v 6.528564453125 5.943511962890625 30
v 22.081787109375 5.943511962890625 30
v 37.6351318359375 5.943511962890625 30
v 37.6351318359375 0.7589421272277832 30
v 19.237548828125 0.7589421272277832 30
v 0.840118408203125 0.7589421272277832 30
v 0.840118408203125 25.96110534667969 30
v 0.840118408203125 51.16325759887695 30
v 19.0576171875 51.16325759887695 30
v 37.2752685546875 51.16325759887695 30
vt 0.7211564183235168 0.4717208445072174
vt 0.6070002317428589 0.4717208445072174
vt 0.4928439855575562 0.4717208445072174
vt 0.7211564183235168 0.4330204427242279
vt 0.4506041705608368 0.4330204427242279
vt 0.5858802795410156 0.4330204427242279
vt 0.4506041705608368 0.8092649579048157
vt 0.4506041705608368 0.6211426854133606
vt 0.7238286137580872 0.8092649579048157
vt 0.5872163772583008 0.8092649579048157
vt 0.7238286137580872 0.7705645561218262
vt 0.4928439855575562 0.7705645561218262
vt 0.6083362698554993 0.7705645561218262
vt 0.4928439855575562 0.6388782262802124
vt 0.6970924139022827 0.6388782262802124
vt 0.5949681997299194 0.6388782262802124
vt 0.6970924139022827 0.600181519985199
vt 0.4928439855575562 0.600181519985199
vt 0.5949681997299194 0.600181519985199
vt 0.4478719532489777 0.2053220272064209
vt 0.4478719532489777 0.4277931451797485
vt 0.6773844361305237 0.2053220272064209
vt 0.6773844361305237 0.4277931451797485
vt 0.5626282095909119 0.2053220272064209
vt 0.6773844361305237 0.3165575861930847
vt 0.5626282095909119 0.4277931451797485
vt 0.4478719532489777 0.3165575861930847
vt 0.2224711328744888 0.634089469909668
vt 0 0.634089469909668
vt 0.2224711328744888 0.7625501751899719
vt 0 0.7625501751899719
vt 0.1112355664372444 0.7625501751899719
vt 0.1112355664372444 0.634089469909668
vt 0.6718078851699829 0
vt 0.4478719532489777 0
vt 0.6718078851699829 0.2038571834564209
vt 0.4478719532489777 0.2038571834564209
vt 0.6718078851699829 0.1019285917282104
vt 0.5598399043083191 0.2038571834564209
vt 0.4478719532489777 0.1019285917282104
vt 0.5598399043083191 0
vt 0.2224711328744888 0.4144394099712372
vt 0 0.4144394099712372
vt 0.2224711328744888 0.4531361758708954
vt 0 0.4531361758708954
vt 0.1112355664372444 0.4531361758708954
vt 0.1112355664372444 0.4144394099712372
vt 0.4464071094989777 0.1619425714015961
vt 0.2239359766244888 0.1619425714015961
vt 0.4464071094989777 0.367264598608017
vt 0.2239359766244888 0.367264598608017
vt 0.4464071094989777 0.2646035850048065
vt 0.3351715207099915 0.367264598608017
vt 0.2239359766244888 0.2646035850048065
vt 0.3351715207099915 0.1619425714015961
vt 0.4464071094989777 0
vt 0.2239359766244888 0
vt 0.4464071094989777 0.1316863000392914
vt 0.2239359766244888 0.1316863000392914
vt 0.3351715207099915 0.1316863000392914
vt 0.3351715207099915 0
vt 0.7280256748199463 0.4292579889297485
vt 0.7280256748199463 0.6517291069030762
vt 0.9602243900299072 0.4292579889297485
vt 0.9602243900299072 0.6517291069030762
vt 0.8441250324249268 0.4292579889297485
vt 0.9602243900299072 0.5404935479164124
vt 0.8441250324249268 0.6517291069030762
vt 0.7280256748199463 0.5404935479164124
vt 0.2224711328744888 0.5608705282211304
vt 0 0.5608705282211304
vt 0.2224711328744888 0.5995709300041199
vt 0 0.5995709300041199
vt 0.1112355664372444 0.5995709300041199
vt 0.1112355664372444 0.5608705282211304
vt 0.2224711328744888 0
vt 0 0
vt 0.2224711328744888 0.2746605277061462
vt 0 0.2746605277061462
vt 0.2224711328744888 0.1373302638530731
vt 0.1112355664372444 0.2746605277061462
vt 0 0.1373302638530731
vt 0.1112355664372444 0
vt 0.4464071094989777 0.4144394099712372
vt 0.2239359766244888 0.4144394099712372
vt 0.4464071094989777 0.790683925151825
vt 0.2239359766244888 0.790683925151825
vt 0.4464071094989777 0.6025616526603699
vt 0.3351715207099915 0.790683925151825
vt 0.2239359766244888 0.6025616526603699
vt 0.3351715207099915 0.4144394099712372
vt 0.7280256748199463 0.6531939506530762
vt 0.7280256748199463 0.8756650686264038
vt 0.99853515625 0.6531939506530762
vt 0.99853515625 0.8756650686264038
vt 0.8632804155349731 0.6531939506530762
vt 0.99853515625 0.76442950963974
vt 0.8632804155349731 0.8756650686264038
vt 0.7280256748199463 0.76442950963974
vt 0.2224711328744888 0.487651526927948
vt 0 0.487651526927948
vt 0.2224711328744888 0.5263519287109375
vt 0 0.5263519287109375
vt 0.1112355664372444 0.487651526927948
vt 0.1112355664372444 0.5263519287109375
vt 0.9712267518043518 0.04246283695101738
vt 0.8564704656600952 0.04246283695101738
vt 0.7417142391204834 0.04246283695101738
vt 0.7417142391204834 0.1709235012531281
vt 0.8443752527236938 0.1709235012531281
vt 0.9470362663269043 0.1709235012531281
vt 0.9470362663269043 0.2096202522516251
vt 0.8443752527236938 0.2096202522516251
vt 0.7417142391204834 0.2096202522516251
vt 0.7417142391204834 0.3413065671920776
vt 0.8578135967254639 0.3413065671920776
vt 0.9739129543304443 0.3413065671920776
vt 0.9739129543304443 0.3800069391727448
vt 0.8365826606750488 0.3800069391727448
vt 0.6992524266242981 0.3800069391727448
vt 0.6992524266242981 0.1918846964836121
vt 0.6992524266242981 0.003762445179745555
vt 0.835239589214325 0.003762445179745555
vt 0.9712267518043518 0.003762445179745555
vn 0 0 -1
vn 0 0 -1
vn 0 0 -1
vn 0 0 -1
vn 0 0 -1
vn 0 0 -1
vn 0 0 -1
vn 0 0 -1
vn 0 0 -1
vn 0 0 -1
vn 0 0 -1
vn 0 0 -1
vn 0 0 -1
vn 0 0 -1
vn 0 0 -1
vn 0 0 -1
vn 0 0 -1
vn 0 0 -1
vn 0 0 -1
vn 0 -1 0
vn 0 -1 0
vn 0 -1 0
vn 0 -1 0
vn 0 -1 0
vn 0 -1 0
vn 0 -1 0
vn 0 -1 0
vn 1 0 0
vn 1 0 0
vn 1 0 0
vn 1 0 0
vn 1 0 0
vn 1 0 0
vn 0 1 0
vn 0 1 0
vn 0 1 0
vn 0 1 0
vn 0 1 0
vn 0 1 0
vn 0 1 0
vn 0 1 0
vn 1 0 0
vn 1 0 0
vn 1 0 0
vn 1 0 0
vn 1 0 0
vn 1 0 0
vn 0 -1 0
vn 0 -1 0
vn 0 -1 0
vn 0 -1 0
vn 0 -1 0
vn 0 -1 0
vn 0 -1 0
vn 0 -1 0
vn 1 0 0
vn 1 0 0
vn 1 0 0
vn 1 0 0
vn 1 0 0
vn 1 0 0
vn 0 1 0
vn 0 1 0
vn 0 1 0
vn 0 1 0
vn 0 1 0
vn 0 1 0
vn 0 1 0
vn 0 1 0
vn 1 0 0
vn 1 0 0
vn 1 0 0
vn 1 0 0
vn 1 0 0
vn 1 0 0
vn 0 -1 0
vn 0 -1 0
vn 0 -1 0
vn 0 -1 0
vn 0 -1 0
vn 0 -1 0
vn 0 -1 0
vn 0 -1 0
vn -1 0 0
vn -1 0 0
vn -1 0 0
vn -1 0 0
vn -1 0 0
vn -1 0 0
vn -1 0 0
vn -1 0 0
vn 0 1 0
vn 0 1 0
vn 0 1 0
vn 0 1 0
vn 0 1 0
vn 0 1 0
vn 0 1 0
vn 0 1 0
vn 1 0 0
vn 1 0 0
vn 1 0 0
vn 1 0 0
vn 1 0 0
vn 1 0 0
vn 0 0 1
vn 0 0 1
vn 0 0 1
vn 0 0 1
vn 0 0 1
vn 0 0 1
vn 0 0 1
vn 0 0 1
vn 0 0 1
vn 0 0 1
vn 0 0 1
vn 0 0 1
vn 0 0 1
vn 0 0 1
vn 0 0 1
vn 0 0 1
vn 0 0 1
vn 0 0 1
vn 0 0 1
f 48/48/48 45/45/45 43/43/43 58/58/58
f 45/45/45 46/46/46 42/42/42 43/43/43
f 54/54/54 58/58/58 59/59/59 56/56/56
f 47/47/47 48/48/48 54/54/54 52/52/52
f 52/52/52 53/53/53 50/50/50 47/47/47
f 54/54/54 48/48/48 58/58/58
f 41/41/41 42/42/42 46/46/46 44/44/44
f 57/57/57 55/55/55 56/56/56 59/59/59
f 53/53/53 51/51/51 49/49/49 50/50/50
f 67/67/67 60/60/60 64/64/64
f 67/67/67 66/66/66 61/61/61
f 65/65/65 67/67/67 64/64/64
f 67/67/67 65/65/65 66/66/66
f 65/65/65 63/63/63 66/66/66
f 62/62/62 65/65/65 64/64/64
f 73/73/73 68/68/68 70/70/70 72/72/72
f 69/69/69 73/73/73 72/72/72 71/71/71
f 81/81/81 74/74/74 78/78/78
f 81/81/81 80/80/80 75/75/75
f 80/80/80 81/81/81 78/78/78
f 78/78/78 79/79/79 80/80/80
f 79/79/79 77/77/77 80/80/80
f 76/76/76 79/79/79 78/78/78
f 87/87/87 82/82/82 84/84/84 86/86/86
f 83/83/83 87/87/87 86/86/86 85/85/85
f 95/95/95 88/88/88 92/92/92
f 95/95/95 94/94/94 89/89/89
f 94/94/94 95/95/95 92/92/92
f 92/92/92 93/93/93 94/94/94
f 93/93/93 91/91/91 94/94/94
f 90/90/90 93/93/93 92/92/92
f 101/101/101 96/96/96 98/98/98 100/100/100
f 97/97/97 101/101/101 100/100/100 99/99/99
f 109/109/109 102/102/102 106/106/106
f 109/109/109 108/108/108 103/103/103
f 107/107/107 109/109/109 106/106/106
f 109/109/109 107/107/107 108/108/108
f 107/107/107 105/105/105 108/108/108
f 104/104/104 107/107/107 106/106/106
f 115/115/115 110/110/110 112/112/112 114/114/114
f 111/111/111 115/115/115 114/114/114 113/113/113
f 123/123/123 116/116/116 120/120/120
f 123/123/123 122/122/122 117/117/117
f 121/121/121 123/123/123 120/120/120
f 123/123/123 121/121/121 122/122/122
f 121/121/121 119/119/119 122/122/122
f 118/118/118 121/121/121 120/120/120
f 131/131/131 124/124/124 128/128/128
f 131/131/131 130/130/130 125/125/125
f 129/129/129 131/131/131 128/128/128
f 131/131/131 129/129/129 130/130/130
f 129/129/129 127/127/127 130/130/130
f 126/126/126 129/129/129 128/128/128
f 139/139/139 132/132/132 136/136/136
f 139/139/139 138/138/138 133/133/133
f 137/137/137 139/139/139 136/136/136
f 139/139/139 137/137/137 138/138/138
f 137/137/137 135/135/135 138/138/138
f 134/134/134 137/137/137 136/136/136
f 144/144/144 140/140/140 142/142/142 145/145/145
f 141/141/141 144/144/144 145/145/145 143/143/143
f 161/161/161 149/149/149 148/148/148 162/162/162
f 162/162/162 148/148/148 147/147/147 163/163/163
f 154/154/154 153/153/153 150/150/150 149/149/149
f 160/160/160 155/155/155 154/154/154 161/161/161
f 155/155/155 160/160/160 159/159/159 156/156/156
f 154/154/154 149/149/149 161/161/161
f 146/146/146 164/164/164 163/163/163 147/147/147
f 151/151/151 150/150/150 153/153/153 152/152/152
f 156/156/156 159/159/159 158/158/158 157/157/157
