# Rhino

g object_1
v 1.230093479156494 55.62761306762695 0
v 4.650503158569336 60.84806823730469 0
v 8.071401596069336 66.06852722167969 0
v 5.694448471069336 55.62761306762695 0
v 13.83165550231934 63.40446472167969 0
v 9.763296127319336 59.51604080200195 0
v 8.071401596069336 66.06852722167969 0
v 8.071401596069336 66.06852722167969 30
v 1.230093479156494 55.62761306762695 0
v 1.230093479156494 55.62761306762695 30
v 4.650503158569336 60.84806823730469 0
v 1.230093479156494 55.62761306762695 15
v 4.650503158569336 60.84806823730469 30
v 8.071401596069336 66.06852722167969 15
v 13.83165550231934 63.40446472167969 0
v 13.83165550231934 63.40446472167969 30
v 8.071401596069336 66.06852722167969 0
v 8.071401596069336 66.06852722167969 30
v 8.071401596069336 66.06852722167969 15
v 13.83165550231934 63.40446472167969 15
v 5.694448471069336 55.62761306762695 0
v 5.694448471069336 55.62761306762695 30
v 13.83165550231934 63.40446472167969 0
v 13.83165550231934 63.40446472167969 30
v 9.763296127319336 59.51604080200195 0
v 13.83165550231934 63.40446472167969 15
v 9.763296127319336 59.51604080200195 30
v 5.694448471069336 55.62761306762695 15
v 1.230093479156494 55.62761306762695 0
v 1.230093479156494 55.62761306762695 30
v 5.694448471069336 55.62761306762695 0
v 5.694448471069336 55.62761306762695 30
v 1.230093479156494 55.62761306762695 15
v 5.694448471069336 55.62761306762695 15
v 1.230093479156494 55.62761306762695 30
v 4.650503158569336 60.84806823730469 30
v 8.071401596069336 66.06852722167969 30
v 13.83165550231934 63.40446472167969 30
v 9.763296127319336 59.51604080200195 30
v 5.694448471069336 55.62761306762695 30
vt 0.002393285976722836 0.2907449901103973
vt 0.1220572218298912 0.3696184754371643
vt 0.2417211532592773 0.4484919607639313
vt 0.002393285976722836 0.3936914801597595
vt 0.180655226111412 0.5813214182853699
vt 0.09152424335479736 0.4875064790248871
vt 0.6917897462844849 0
vt 0 0
vt 0.6917897462844849 0.2863743603229523
vt 0 0.2863743603229523
vt 0.6917897462844849 0.1431871801614761
vt 0.3458948731422424 0.2863743603229523
vt 0 0.1431871801614761
vt 0.3458948731422424 0
vt 0.2455792874097824 0.2878392040729523
vt 0.2455792874097824 0.9781641364097595
vt 0.3904620110988617 0.2878392040729523
vt 0.3904620110988617 0.9781641364097595
vt 0.3904620110988617 0.6330016851425171
vt 0.2455792874097824 0.6330016851425171
vt 0.7404526472091675 0
vt 0.7404526472091675 0.6917897462844849
vt 0.99853515625 0
vt 0.99853515625 0.6917897462844849
vt 0.8694939017295837 0
vt 0.99853515625 0.3458948731422424
vt 0.8694939017295837 0.6917897462844849
vt 0.7404526472091675 0.3458948731422424
vt 0.3919268548488617 0.2878392040729523
vt 0.3919268548488617 0.9781641364097595
vt 0.4934085011482239 0.2878392040729523
vt 0.4934085011482239 0.9781641364097595
vt 0.3919268548488617 0.6330016851425171
vt 0.4934085011482239 0.6330016851425171
vt 0.4972666501998901 0.2907449901103973
vt 0.6169306039810181 0.3696184754371643
vt 0.7365944981575012 0.4484919607639313
vt 0.6755285859107971 0.5813214182853699
vt 0.5863975882530212 0.4875064790248871
vt 0.4972666501998901 0.3936914801597595
vn 0 0 -1
vn 0 0 -1
vn 0 0 -1
vn 0 0 -1
vn 0 0 -1
vn 0 0 -1
vn -0.8364530801773071 0.5480385422706604 0
vn -0.8364530801773071 0.5480385422706604 0
vn -0.8364530801773071 0.5480385422706604 0
vn -0.8364530801773071 0.5480385422706604 0
vn -0.8364530801773071 0.5480385422706604 0
vn -0.8364530801773071 0.5480385422706604 0
vn -0.8364530801773071 0.5480385422706604 0
vn -0.8364530801773071 0.5480385422706604 0
vn 0.4197703897953033 0.9076303243637085 0
vn 0.4197703897953033 0.9076303243637085 0
vn 0.4197703897953033 0.9076303243637085 0
vn 0.4197703897953033 0.9076303243637085 0
vn 0.4197703897953033 0.9076303243637085 0
vn 0.4197703897953033 0.9076303243637085 0
vn 0.6909399032592773 -0.7229121923446655 0
vn 0.6909399032592773 -0.7229121923446655 0
vn 0.6909399032592773 -0.7229121923446655 0
vn 0.6909399032592773 -0.7229121923446655 0
vn 0.6909399032592773 -0.7229121923446655 0
vn 0.6909399032592773 -0.7229121923446655 0
vn 0.6909399032592773 -0.7229121923446655 0
vn 0.6909399032592773 -0.7229121923446655 0
vn 0 -1 0
vn 0 -1 0
vn 0 -1 0
vn 0 -1 0
vn 0 -1 0
vn 0 -1 0
vn 0 0 1
vn 0 0 1
vn 0 0 1
vn 0 0 1
vn 0 0 1
vn 0 0 1
f 4/4/4 1/1/1 2/2/2
f 6/6/6 4/4/4 2/2/2
f 6/6/6 3/3/3 5/5/5
f 2/2/2 3/3/3 6/6/6
f 14/14/14 7/7/7 11/11/11
f 14/14/14 13/13/13 8/8/8
f 12/12/12 14/14/14 11/11/11
f 14/14/14 12/12/12 13/13/13
f 12/12/12 10/10/10 13/13/13
f 9/9/9 12/12/12 11/11/11
f 20/20/20 15/15/15 17/17/17 19/19/19
f 16/16/16 20/20/20 19/19/19 18/18/18
f 28/28/28 21/21/21 25/25/25
f 28/28/28 27/27/27 22/22/22
f 26/26/26 28/28/28 25/25/25
f 28/28/28 26/26/26 27/27/27
f 26/26/26 24/24/24 27/27/27
f 23/23/23 26/26/26 25/25/25
f 33/33/33 29/29/29 31/31/31 34/34/34
f 30/30/30 33/33/33 34/34/34 32/32/32
f 40/40/40 36/36/36 35/35/35
f 39/39/39 36/36/36 40/40/40
f 39/39/39 38/38/38 37/37/37
f 36/36/36 39/39/39 37/37/37
g object_2
v 6.342885971069336 51.16325759887695 0
v 6.342885971069336 25.96110534667969 0
v 6.342885971069336 0.7589421272277832 0
v 0.6544097661972046 51.16325759887695 0
v 0.6544097661972046 0.7589421272277832 0
v 0.6544097661972046 25.96110534667969 0
v 6.342885971069336 0.7589421272277832 0
v 6.342885971069336 0.7589421272277832 30
v 6.342885971069336 51.16325759887695 0
v 6.342885971069336 51.16325759887695 30
v 6.342885971069336 25.96110534667969 0
v 6.342885971069336 51.16325759887695 15
v 6.342885971069336 25.96110534667969 30
v 6.342885971069336 0.7589421272277832 15
v 0.6544097661972046 0.7589421272277832 0
v 0.6544097661972046 0.7589421272277832 30
v 6.342885971069336 0.7589421272277832 0
v 6.342885971069336 0.7589421272277832 30
v 6.342885971069336 0.7589421272277832 15
v 0.6544097661972046 0.7589421272277832 15
v 0.6544097661972046 51.16325759887695 0
v 0.6544097661972046 51.16325759887695 30
v 0.6544097661972046 0.7589421272277832 0
v 0.6544097661972046 0.7589421272277832 30
v 0.6544097661972046 25.96110534667969 0
v 0.6544097661972046 0.7589421272277832 15
v 0.6544097661972046 25.96110534667969 30
v 0.6544097661972046 51.16325759887695 15
v 6.342885971069336 51.16325759887695 0
v 6.342885971069336 51.16325759887695 30
v 0.6544097661972046 51.16325759887695 0
v 0.6544097661972046 51.16325759887695 30
v 6.342885971069336 51.16325759887695 15
v 0.6544097661972046 51.16325759887695 15
v 6.342885971069336 51.16325759887695 30
v 6.342885971069336 25.96110534667969 30
v 6.342885971069336 0.7589421272277832 30
v 0.6544097661972046 0.7589421272277832 30
v 0.6544097661972046 25.96110534667969 30
v 0.6544097661972046 51.16325759887695 30
vt 0.1603329330682755 0.007061704993247986
vt 0.1603329330682755 0.3601469397544861
vt 0.1603329330682755 0.713232159614563
vt 0.08207279443740845 0.007061704993247986
vt 0.08207279443740845 0.713232159614563
vt 0.08207279443740845 0.3601469397544861
vt 0.1625803858041763 0.5796962380409241
vt 0.1625803858041763 0.99853515625
vt 0.8672860264778137 0.5796962380409241
vt 0.8672860264778137 0.99853515625
vt 0.514933168888092 0.5796962380409241
vt 0.8672860264778137 0.7891157269477844
vt 0.514933168888092 0.99853515625
vt 0.1625803858041763 0.7891157269477844
vt 0.5828841328620911 0.07969626784324646
vt 0.1625803858041763 0.07969626784324646
vt 0.5828841328620911 0.1579276919364929
vt 0.1625803858041763 0.1579276919364929
vt 0.3727322518825531 0.1579276919364929
vt 0.3727322518825531 0.07969626784324646
vt 0.1625803858041763 0.1593925356864929
vt 0.1625803858041763 0.5782313942909241
vt 0.8672860264778137 0.1593925356864929
vt 0.8672860264778137 0.5782313942909241
vt 0.514933168888092 0.1593925356864929
vt 0.8672860264778137 0.3688119649887085
vt 0.514933168888092 0.5782313942909241
vt 0.1625803858041763 0.3688119649887085
vt 0.5828841328620911 0
vt 0.1625803858041763 0
vt 0.5828841328620911 0.07823142409324646
vt 0.1625803858041763 0.07823142409324646
vt 0.3727322518825531 0
vt 0.3727322518825531 0.07823142409324646
vt 0.07904274016618729 0.007061704993247986
vt 0.07904274016618729 0.3601469397544861
vt 0.07904274016618729 0.713232159614563
vt 0.0007826014771126211 0.713232159614563
vt 0.0007826014771126211 0.3601469397544861
vt 0.0007826014771126211 0.007061704993247986
vn 0 0 -1
vn 0 0 -1
vn 0 0 -1
vn 0 0 -1
vn 0 0 -1
vn 0 0 -1
vn 1 0 0
vn 1 0 0
vn 1 0 0
vn 1 0 0
vn 1 0 0
vn 1 0 0
vn 1 0 0
vn 1 0 0
vn 0 -1 0
vn 0 -1 0
vn 0 -1 0
vn 0 -1 0
vn 0 -1 0
vn 0 -1 0
vn -1 0 0
vn -1 0 0
vn -1 0 0
vn -1 0 0
vn -1 0 0
vn -1 0 0
vn -1 0 0
vn -1 0 0
vn 0 1 0
vn 0 1 0
vn 0 1 0
vn 0 1 0
vn 0 1 0
vn 0 1 0
vn 0 0 1
vn 0 0 1
vn 0 0 1
vn 0 0 1
vn 0 0 1
vn 0 0 1
f 46/46/46 44/44/44 41/41/41 42/42/42
f 45/45/45 46/46/46 42/42/42 43/43/43
f 54/54/54 47/47/47 51/51/51
f 54/54/54 53/53/53 48/48/48
f 52/52/52 54/54/54 51/51/51
f 54/54/54 52/52/52 53/53/53
f 52/52/52 50/50/50 53/53/53
f 49/49/49 52/52/52 51/51/51
f 60/60/60 55/55/55 57/57/57 59/59/59
f 56/56/56 60/60/60 59/59/59 58/58/58
f 68/68/68 61/61/61 65/65/65
f 68/68/68 67/67/67 62/62/62
f 66/66/66 68/68/68 65/65/65
f 68/68/68 66/66/66 67/67/67
f 66/66/66 64/64/64 67/67/67
f 63/63/63 66/66/66 65/65/65
f 73/73/73 69/69/69 71/71/71 74/74/74
f 70/70/70 73/73/73 74/74/74 72/72/72
f 79/79/79 76/76/76 75/75/75 80/80/80
f 78/78/78 77/77/77 76/76/76 79/79/79
