# Rhino

g object_1
v 0.6604658365249634 55.62761306762695 0
v 0.6604658365249634 59.04802322387695 0
v 0.6604658365249634 62.46842956542969 0
v 7.140935897827148 55.62761306762695 0
v 3.900701284408569 55.62761306762695 0
v 7.140935897827148 62.46842956542969 0
v 7.140935897827148 59.04802322387695 0
v 3.900701284408569 62.46842956542969 0
v 0.6604658365249634 62.46842956542969 0
v 0.6604658365249634 62.46842956542969 30
v 0.6604658365249634 55.62761306762695 0
v 0.6604658365249634 55.62761306762695 30
v 0.6604658365249634 59.04802322387695 0
v 0.6604658365249634 55.62761306762695 15
v 0.6604658365249634 59.04802322387695 30
v 0.6604658365249634 62.46842956542969 15
v 7.140935897827148 62.46842956542969 0
v 7.140935897827148 62.46842956542969 30
v 0.6604658365249634 62.46842956542969 0
v 0.6604658365249634 62.46842956542969 30
v 3.900701284408569 62.46842956542969 0
v 0.6604658365249634 62.46842956542969 15
v 3.900701284408569 62.46842956542969 30
v 7.140935897827148 62.46842956542969 15
v 7.140935897827148 55.62761306762695 0
v 7.140935897827148 55.62761306762695 30
v 7.140935897827148 62.46842956542969 0
v 7.140935897827148 62.46842956542969 30
v 7.140935897827148 59.04802322387695 0
v 7.140935897827148 62.46842956542969 15
v 7.140935897827148 59.04802322387695 30
v 7.140935897827148 55.62761306762695 15
v 0.6604658365249634 55.62761306762695 0
v 0.6604658365249634 55.62761306762695 30
v 7.140935897827148 55.62761306762695 0
v 7.140935897827148 55.62761306762695 30
v 3.900701284408569 55.62761306762695 0
v 0.6604658365249634 55.62761306762695 15
v 7.140935897827148 55.62761306762695 15
v 3.900701284408569 55.62761306762695 30
v 0.6604658365249634 55.62761306762695 30
v 0.6604658365249634 59.04802322387695 30
v 0.6604658365249634 62.46842956542969 30
v 3.900701284408569 62.46842956542969 30
v 7.140935897827148 62.46842956542969 30
v 7.140935897827148 59.04802322387695 30
v 7.140935897827148 55.62761306762695 30
v 3.900701284408569 55.62761306762695 30
vt 0.002020379062741995 0.4480876922607422
vt 0.103039026260376 0.4480876922607422
vt 0.2040576785802841 0.4480876922607422
vt 0.002020379062741995 0.6408427953720093
vt 0.002020379062741995 0.5444652438163757
vt 0.2040576785802841 0.6408427953720093
vt 0.103039026260376 0.6408427953720093
vt 0.2040576785802841 0.5444652438163757
vt 0.4110163152217865 0
vt 0.4110163152217865 0.8908554315567017
vt 0.613024890422821 0
vt 0.613024890422821 0.8908554315567017
vt 0.5120205879211426 0
vt 0.613024890422821 0.4454277157783508
vt 0.5120205879211426 0.8908554315567017
vt 0.4110163152217865 0.4454277157783508
vt 0.8072448968887329 0
vt 0.8072448968887329 0.8908554315567017
vt 0.99853515625 0
vt 0.99853515625 0.8908554315567017
vt 0.9028900265693665 0
vt 0.99853515625 0.4454277157783508
vt 0.9028900265693665 0.8908554315567017
vt 0.8072448968887329 0.4454277157783508
vt 0.207542896270752 0
vt 0.207542896270752 0.8908554315567017
vt 0.4095514714717865 0
vt 0.4095514714717865 0.8908554315567017
vt 0.3085471987724304 0
vt 0.4095514714717865 0.4454277157783508
vt 0.3085471987724304 0.8908554315567017
vt 0.207542896270752 0.4454277157783508
vt 0.614489734172821 0
vt 0.614489734172821 0.8908554315567017
vt 0.8057800531387329 0
vt 0.8057800531387329 0.8908554315567017
vt 0.7101348638534546 0
vt 0.614489734172821 0.4454277157783508
vt 0.8057800531387329 0.4454277157783508
vt 0.7101348638534546 0.8908554315567017
vt 0.002020379062741995 0.001927551347762346
vt 0.103039026260376 0.001927551347762346
vt 0.2040576785802841 0.001927551347762346
vt 0.2040576785802841 0.0983051136136055
vt 0.2040576785802841 0.1946826726198196
vt 0.103039026260376 0.1946826726198196
vt 0.002020379062741995 0.1946826726198196
vt 0.002020379062741995 0.0983051136136055
vn 0 0 -1
vn 0 0 -1
vn 0 0 -1
vn 0 0 -1
vn 0 0 -1
vn 0 0 -1
vn 0 0 -1
vn 0 0 -1
vn -1 0 0
vn -1 0 0
vn -1 0 0
vn -1 0 0
vn -1 0 0
vn -1 0 0
vn -1 0 0
vn -1 0 0
vn 0 1 0
vn 0 1 0
vn 0 1 0
vn 0 1 0
vn 0 1 0
vn 0 1 0
vn 0 1 0
vn 0 1 0
vn 1 0 0
vn 1 0 0
vn 1 0 0
vn 1 0 0
vn 1 0 0
vn 1 0 0
vn 1 0 0
vn 1 0 0
vn 0 -1 0
vn 0 -1 0
vn 0 -1 0
vn 0 -1 0
vn 0 -1 0
vn 0 -1 0
vn 0 -1 0
vn 0 -1 0
vn 0 0 1
vn 0 0 1
vn 0 0 1
vn 0 0 1
vn 0 0 1
vn 0 0 1
vn 0 0 1
vn 0 0 1
f 2/2/2 3/3/3 8/8/8
f 2/2/2 5/5/5 1/1/1
f 7/7/7 2/2/2 8/8/8
f 2/2/2 7/7/7 5/5/5
f 7/7/7 4/4/4 5/5/5
f 6/6/6 7/7/7 8/8/8
f 16/16/16 9/9/9 13/13/13
f 16/16/16 15/15/15 10/10/10
f 14/14/14 16/16/16 13/13/13
f 16/16/16 14/14/14 15/15/15
f 14/14/14 12/12/12 15/15/15
f 11/11/11 14/14/14 13/13/13
f 24/24/24 17/17/17 21/21/21
f 24/24/24 23/23/23 18/18/18
f 22/22/22 24/24/24 21/21/21
f 24/24/24 22/22/22 23/23/23
f 22/22/22 20/20/20 23/23/23
f 19/19/19 22/22/22 21/21/21
f 32/32/32 25/25/25 29/29/29
f 32/32/32 31/31/31 26/26/26
f 30/30/30 32/32/32 29/29/29 27/27/27
f 32/32/32 30/30/30 28/28/28 31/31/31
f 38/38/38 33/33/33 37/37/37
f 38/38/38 40/40/40 34/34/34
f 39/39/39 38/38/38 37/37/37
f 38/38/38 39/39/39 40/40/40
f 39/39/39 36/36/36 40/40/40
f 35/35/35 39/39/39 37/37/37
f 42/42/42 44/44/44 43/43/43
f 42/42/42 41/41/41 48/48/48
f 46/46/46 44/44/44 42/42/42
f 42/42/42 48/48/48 46/46/46
f 46/46/46 48/48/48 47/47/47
f 45/45/45 44/44/44 46/46/46
g object_2
v 13.04572105407715 51.16325759887695 0
v 13.04572105407715 25.96110534667969 0
v 13.04572105407715 0.7589421272277832 0
v 7.357244491577148 51.16325759887695 0
v 7.357244491577148 0.7589421272277832 0
v 7.357244491577148 25.96110534667969 0
v 13.04572105407715 0.7589421272277832 0
v 13.04572105407715 0.7589421272277832 30
v 13.04572105407715 51.16325759887695 0
v 13.04572105407715 51.16325759887695 30
v 13.04572105407715 25.96110534667969 0
v 13.04572105407715 51.16325759887695 15
v 13.04572105407715 25.96110534667969 30
v 13.04572105407715 0.7589421272277832 15
v 7.357244491577148 0.7589421272277832 0
v 7.357244491577148 0.7589421272277832 30
v 13.04572105407715 0.7589421272277832 0
v 13.04572105407715 0.7589421272277832 30
v 13.04572105407715 0.7589421272277832 15
v 7.357244491577148 0.7589421272277832 15
v 7.357244491577148 51.16325759887695 0
v 7.357244491577148 51.16325759887695 30
v 7.357244491577148 0.7589421272277832 0
v 7.357244491577148 0.7589421272277832 30
v 7.357244491577148 25.96110534667969 0
v 7.357244491577148 0.7589421272277832 15
v 7.357244491577148 25.96110534667969 30
v 7.357244491577148 51.16325759887695 15
v 13.04572105407715 51.16325759887695 0
v 13.04572105407715 51.16325759887695 30
v 7.357244491577148 51.16325759887695 0
v 7.357244491577148 51.16325759887695 30
v 13.04572105407715 51.16325759887695 15
v 7.357244491577148 51.16325759887695 15
v 13.04572105407715 51.16325759887695 30
v 13.04572105407715 25.96110534667969 30
v 13.04572105407715 0.7589421272277832 30
v 7.357244491577148 0.7589421272277832 30
v 7.357244491577148 25.96110534667969 30
v 7.357244491577148 51.16325759887695 30
vt 0.1603329330682755 0.007061704993247986
vt 0.1603329330682755 0.3601469397544861
vt 0.1603329330682755 0.713232159614563
vt 0.08207279443740845 0.007061704993247986
vt 0.08207279443740845 0.713232159614563
vt 0.08207279443740845 0.3601469397544861
vt 0.1625803858041763 0.5796962380409241
vt 0.1625803858041763 0.99853515625
vt 0.8672860264778137 0.5796962380409241
vt 0.8672860264778137 0.99853515625
vt 0.514933168888092 0.5796962380409241
vt 0.8672860264778137 0.7891157269477844
vt 0.514933168888092 0.99853515625
vt 0.1625803858041763 0.7891157269477844
vt 0.5828841328620911 0.07969626784324646
vt 0.1625803858041763 0.07969626784324646
vt 0.5828841328620911 0.1579276919364929
vt 0.1625803858041763 0.1579276919364929
vt 0.3727322518825531 0.1579276919364929
vt 0.3727322518825531 0.07969626784324646
vt 0.1625803858041763 0.1593925356864929
vt 0.1625803858041763 0.5782313942909241
vt 0.8672860264778137 0.1593925356864929
vt 0.8672860264778137 0.5782313942909241
vt 0.514933168888092 0.1593925356864929
vt 0.8672860264778137 0.3688119649887085
vt 0.514933168888092 0.5782313942909241
vt 0.1625803858041763 0.3688119649887085
vt 0.5828841328620911 0
vt 0.1625803858041763 0
vt 0.5828841328620911 0.07823142409324646
vt 0.1625803858041763 0.07823142409324646
vt 0.3727322518825531 0
vt 0.3727322518825531 0.07823142409324646
vt 0.07904274016618729 0.007061704993247986
vt 0.07904274016618729 0.3601469397544861
vt 0.07904274016618729 0.713232159614563
vt 0.0007826014771126211 0.713232159614563
vt 0.0007826014771126211 0.3601469397544861
vt 0.0007826014771126211 0.007061704993247986
vn 0 0 -1
vn 0 0 -1
vn 0 0 -1
vn 0 0 -1
vn 0 0 -1
vn 0 0 -1
vn 1 0 0
vn 1 0 0
vn 1 0 0
vn 1 0 0
vn 1 0 0
vn 1 0 0
vn 1 0 0
vn 1 0 0
vn 0 -1 0
vn 0 -1 0
vn 0 -1 0
vn 0 -1 0
vn 0 -1 0
vn 0 -1 0
vn -1 0 0
vn -1 0 0
vn -1 0 0
vn -1 0 0
vn -1 0 0
vn -1 0 0
vn -1 0 0
vn -1 0 0
vn 0 1 0
vn 0 1 0
vn 0 1 0
vn 0 1 0
vn 0 1 0
vn 0 1 0
vn 0 0 1
vn 0 0 1
vn 0 0 1
vn 0 0 1
vn 0 0 1
vn 0 0 1
f 54/54/54 52/52/52 49/49/49 50/50/50
f 53/53/53 54/54/54 50/50/50 51/51/51
f 62/62/62 55/55/55 59/59/59
f 62/62/62 61/61/61 56/56/56
f 60/60/60 62/62/62 59/59/59
f 62/62/62 60/60/60 61/61/61
f 60/60/60 58/58/58 61/61/61
f 57/57/57 60/60/60 59/59/59
f 68/68/68 63/63/63 65/65/65 67/67/67
f 64/64/64 68/68/68 67/67/67 66/66/66
f 76/76/76 69/69/69 73/73/73
f 76/76/76 75/75/75 70/70/70
f 74/74/74 76/76/76 73/73/73
f 76/76/76 74/74/74 75/75/75
f 74/74/74 72/72/72 75/75/75
f 71/71/71 74/74/74 73/73/73
f 81/81/81 77/77/77 79/79/79 82/82/82
f 78/78/78 81/81/81 82/82/82 80/80/80
f 87/87/87 84/84/84 83/83/83 88/88/88
f 86/86/86 85/85/85 84/84/84 87/87/87
g object_3
v 13.33380699157715 55.62761306762695 0
v 13.33380699157715 59.04802322387695 0
v 13.33380699157715 62.46842956542969 0
v 19.81427001953125 55.62761306762695 0
v 16.57403564453125 55.62761306762695 0
v 19.81427001953125 62.46842956542969 0
v 19.81427001953125 59.04802322387695 0
v 16.57403564453125 62.46842956542969 0
v 13.33380699157715 62.46842956542969 0
v 13.33380699157715 62.46842956542969 30
v 13.33380699157715 55.62761306762695 0
v 13.33380699157715 55.62761306762695 30
v 13.33380699157715 59.04802322387695 0
v 13.33380699157715 55.62761306762695 15
v 13.33380699157715 59.04802322387695 30
v 13.33380699157715 62.46842956542969 15
v 19.81427001953125 62.46842956542969 0
v 19.81427001953125 62.46842956542969 30
v 13.33380699157715 62.46842956542969 0
v 13.33380699157715 62.46842956542969 30
v 16.57403564453125 62.46842956542969 0
v 13.33380699157715 62.46842956542969 15
v 16.57403564453125 62.46842956542969 30
v 19.81427001953125 62.46842956542969 15
v 19.81427001953125 55.62761306762695 0
v 19.81427001953125 55.62761306762695 30
v 19.81427001953125 62.46842956542969 0
v 19.81427001953125 62.46842956542969 30
v 19.81427001953125 59.04802322387695 0
v 19.81427001953125 62.46842956542969 15
v 19.81427001953125 59.04802322387695 30
v 19.81427001953125 55.62761306762695 15
v 13.33380699157715 55.62761306762695 0
v 13.33380699157715 55.62761306762695 30
v 19.81427001953125 55.62761306762695 0
v 19.81427001953125 55.62761306762695 30
v 16.57403564453125 55.62761306762695 0
v 13.33380699157715 55.62761306762695 15
v 19.81427001953125 55.62761306762695 15
v 16.57403564453125 55.62761306762695 30
v 13.33380699157715 55.62761306762695 30
v 13.33380699157715 59.04802322387695 30
v 13.33380699157715 62.46842956542969 30
v 16.57403564453125 62.46842956542969 30
v 19.81427001953125 62.46842956542969 30
v 19.81427001953125 59.04802322387695 30
v 19.81427001953125 55.62761306762695 30
v 16.57403564453125 55.62761306762695 30
vt 0.002020379062741995 0.4480876922607422
vt 0.103039026260376 0.4480876922607422
vt 0.2040576785802841 0.4480876922607422
vt 0.002020379062741995 0.6408427953720093
vt 0.002020379062741995 0.5444652438163757
vt 0.2040576785802841 0.6408427953720093
vt 0.103039026260376 0.6408427953720093
vt 0.2040576785802841 0.5444652438163757
vt 0.4110163152217865 0
vt 0.4110163152217865 0.8908554315567017
vt 0.613024890422821 0
vt 0.613024890422821 0.8908554315567017
vt 0.5120205879211426 0
vt 0.613024890422821 0.4454277157783508
vt 0.5120205879211426 0.8908554315567017
vt 0.4110163152217865 0.4454277157783508
vt 0.8072448968887329 0
vt 0.8072448968887329 0.8908554315567017
vt 0.99853515625 0
vt 0.99853515625 0.8908554315567017
vt 0.9028900265693665 0
vt 0.99853515625 0.4454277157783508
vt 0.9028900265693665 0.8908554315567017
vt 0.8072448968887329 0.4454277157783508
vt 0.207542896270752 0
vt 0.207542896270752 0.8908554315567017
vt 0.4095514714717865 0
vt 0.4095514714717865 0.8908554315567017
vt 0.3085471987724304 0
vt 0.4095514714717865 0.4454277157783508
vt 0.3085471987724304 0.8908554315567017
vt 0.207542896270752 0.4454277157783508
vt 0.614489734172821 0
vt 0.614489734172821 0.8908554315567017
vt 0.8057800531387329 0
vt 0.8057800531387329 0.8908554315567017
vt 0.7101348638534546 0
vt 0.614489734172821 0.4454277157783508
vt 0.8057800531387329 0.4454277157783508
vt 0.7101348638534546 0.8908554315567017
vt 0.002020379062741995 0.001927551347762346
vt 0.103039026260376 0.001927551347762346
vt 0.2040576785802841 0.001927551347762346
vt 0.2040576785802841 0.0983051136136055
vt 0.2040576785802841 0.1946826726198196
vt 0.103039026260376 0.1946826726198196
vt 0.002020379062741995 0.1946826726198196
vt 0.002020379062741995 0.0983051136136055
vn 0 0 -1
vn 0 0 -1
vn 0 0 -1
vn 0 0 -1
vn 0 0 -1
vn 0 0 -1
vn 0 0 -1
vn 0 0 -1
vn -1 0 0
vn -1 0 0
vn -1 0 0
vn -1 0 0
vn -1 0 0
vn -1 0 0
vn -1 0 0
vn -1 0 0
vn 0 1 0
vn 0 1 0
vn 0 1 0
vn 0 1 0
vn 0 1 0
vn 0 1 0
vn 0 1 0
vn 0 1 0
vn 1 0 0
vn 1 0 0
vn 1 0 0
vn 1 0 0
vn 1 0 0
vn 1 0 0
vn 1 0 0
vn 1 0 0
vn 0 -1 0
vn 0 -1 0
vn 0 -1 0
vn 0 -1 0
vn 0 -1 0
vn 0 -1 0
vn 0 -1 0
vn 0 -1 0
vn 0 0 1
vn 0 0 1
vn 0 0 1
vn 0 0 1
vn 0 0 1
vn 0 0 1
vn 0 0 1
vn 0 0 1
f 90/90/90 91/91/91 96/96/96
f 90/90/90 93/93/93 89/89/89
f 95/95/95 90/90/90 96/96/96
f 90/90/90 95/95/95 93/93/93
f 95/95/95 92/92/92 93/93/93
f 94/94/94 95/95/95 96/96/96
f 104/104/104 97/97/97 101/101/101
f 104/104/104 103/103/103 98/98/98
f 102/102/102 104/104/104 101/101/101
f 104/104/104 102/102/102 103/103/103
f 102/102/102 100/100/100 103/103/103
f 99/99/99 102/102/102 101/101/101
f 112/112/112 105/105/105 109/109/109
f 112/112/112 111/111/111 106/106/106
f 110/110/110 112/112/112 109/109/109
f 112/112/112 110/110/110 111/111/111
f 110/110/110 108/108/108 111/111/111
f 107/107/107 110/110/110 109/109/109
f 120/120/120 113/113/113 117/117/117
f 120/120/120 119/119/119 114/114/114
f 118/118/118 120/120/120 117/117/117 115/115/115
f 120/120/120 118/118/118 116/116/116 119/119/119
f 126/126/126 121/121/121 125/125/125
f 126/126/126 128/128/128 122/122/122
f 127/127/127 126/126/126 125/125/125
f 126/126/126 127/127/127 128/128/128
f 127/127/127 124/124/124 128/128/128
f 123/123/123 127/127/127 125/125/125
f 130/130/130 132/132/132 131/131/131
f 130/130/130 129/129/129 136/136/136
f 134/134/134 132/132/132 130/130/130
f 130/130/130 136/136/136 134/134/134
f 134/134/134 136/136/136 135/135/135
f 133/133/133 132/132/132 134/134/134
