# Rhino

v 1.264618873596191 1.378173112869263 0
v 1.264618873596191 1.378173112869263 15
v 1.264618873596191 1.378173112869263 30
v 1.264618873596191 5.158446311950684 0
v 1.264618873596191 5.158446311950684 30
v 1.264618873596191 8.938719749450684 0
v 1.264618873596191 8.938719749450684 15
v 1.264618873596191 8.938719749450684 30
v 4.576882362365723 1.378173112869263 0
v 4.576882362365723 1.378173112869263 30
v 4.576882362365723 8.938719749450684 0
v 4.576882362365723 8.938719749450684 30
v 7.889138221740723 1.378173112869263 0
v 7.889138221740723 1.378173112869263 15
v 7.889138221740723 1.378173112869263 30
v 7.889138221740723 5.158446311950684 0
v 7.889138221740723 5.158446311950684 30
v 7.889138221740723 8.938719749450684 0
v 7.889138221740723 8.938719749450684 15
v 7.889138221740723 8.938719749450684 30
vt 0.2101835459470749 0.4175571501255035
vt 0.2101835459470749 0.5093554854393005
vt 0.2101835459470749 0.6011537909507751
vt 0.002081031445413828 0.4175571501255035
vt 0.1061322838068008 0.4175571501255035
vt 0.002081031445413828 0.6011537909507751
vt 0.002081031445413828 0.5093554854393005
vt 0.1061322838068008 0.6011537909507751
vt 0.816403329372406 0
vt 0.816403329372406 0.8299775123596191
vt 0.99853515625 0
vt 0.99853515625 0.8299775123596191
vt 0.9074692726135254 0
vt 0.99853515625 0.4149887561798096
vt 0.9074692726135254 0.8299775123596191
vt 0.816403329372406 0.4149887561798096
vt 0.423268049955368 0
vt 0.423268049955368 0.8299775123596191
vt 0.631341814994812 0
vt 0.631341814994812 0.8299775123596191
vt 0.5273049473762512 0
vt 0.631341814994812 0.4149887561798096
vt 0.5273049473762512 0.8299775123596191
vt 0.423268049955368 0.4149887561798096
vt 0.632806658744812 0
vt 0.632806658744812 0.8299775123596191
vt 0.814938485622406 0
vt 0.814938485622406 0.8299775123596191
vt 0.7238726019859314 0
vt 0.814938485622406 0.4149887561798096
vt 0.7238726019859314 0.8299775123596191
vt 0.632806658744812 0.4149887561798096
vt 0.2137294113636017 0
vt 0.2137294113636017 0.8299775123596191
vt 0.421803206205368 0
vt 0.421803206205368 0.8299775123596191
vt 0.3177663087844849 0
vt 0.2137294113636017 0.4149887561798096
vt 0.421803206205368 0.4149887561798096
vt 0.3177663087844849 0.8299775123596191
vt 0.2101835459470749 0.001835966715589166
vt 0.2101835459470749 0.09363429993391037
vt 0.2101835459470749 0.1854326277971268
vt 0.1061322838068008 0.1854326277971268
vt 0.002081031445413828 0.1854326277971268
vt 0.002081031445413828 0.09363429993391037
vt 0.002081031445413828 0.001835966715589166
vt 0.1061322838068008 0.001835966715589166
vn 0 0 -1
vn 0 0 -1
vn 0 0 -1
vn 0 0 -1
vn 0 0 -1
vn 0 0 -1
vn 0 0 -1
vn 0 0 -1
vn 0 -1 0
vn 0 -1 0
vn 0 -1 0
vn 0 -1 0
vn 0 -1 0
vn 0 -1 0
vn 0 -1 0
vn 0 -1 0
vn 1 0 0
vn 1 0 0
vn 1 0 0
vn 1 0 0
vn 1 0 0
vn 1 0 0
vn 1 0 0
vn 1 0 0
vn 0 1 0
vn 0 1 0
vn 0 1 0
vn 0 1 0
vn 0 1 0
vn 0 1 0
vn 0 1 0
vn 0 1 0
vn -1 0 0
vn -1 0 0
vn -1 0 0
vn -1 0 0
vn -1 0 0
vn -1 0 0
vn -1 0 0
vn -1 0 0
vn 0 0 1
vn 0 0 1
vn 0 0 1
vn 0 0 1
vn 0 0 1
vn 0 0 1
vn 0 0 1
vn 0 0 1
f 4/5/5 9/2/2 1/1/1
f 4/5/5 6/4/4 11/7/7
f 16/8/8 9/2/2 4/5/5
f 4/5/5 11/7/7 16/8/8
f 16/8/8 11/7/7 18/6/6
f 13/3/3 9/2/2 16/8/8
f 14/16/16 9/13/13 13/9/9
f 14/16/16 15/10/10 10/15/15
f 2/14/14 9/13/13 14/16/16
f 14/16/16 10/15/15 2/14/14
f 2/14/14 10/15/15 3/12/12
f 1/11/11 9/13/13 2/14/14
f 19/24/24 16/21/21 18/17/17
f 19/24/24 20/18/18 17/23/23
f 14/22/22 16/21/21 19/24/24
f 19/24/24 17/23/23 14/22/22
f 14/22/22 17/23/23 15/20/20
f 13/19/19 16/21/21 14/22/22
f 7/32/32 11/29/29 6/25/25
f 7/32/32 8/26/26 12/31/31
f 19/30/30 11/29/29 7/32/32
f 7/32/32 12/31/31 19/30/30
f 19/30/30 12/31/31 20/28/28
f 18/27/27 11/29/29 19/30/30
f 2/38/38 4/37/37 1/33/33
f 2/38/38 3/34/34 5/40/40
f 7/39/39 4/37/37 2/38/38
f 2/38/38 5/40/40 7/39/39
f 7/39/39 5/40/40 8/36/36
f 6/35/35 4/37/37 7/39/39
f 5/48/48 3/41/41 10/42/42
f 5/48/48 12/46/46 8/47/47
f 17/44/44 5/48/48 10/42/42
f 5/48/48 17/44/44 12/46/46
f 17/44/44 20/45/45 12/46/46
f 15/43/43 17/44/44 10/42/42
