# Rhino

v 0.9117164611816406 47.894287109375 0
v 0.9117164611816406 47.894287109375 15
v 0.9117164611816406 47.894287109375 30
v 2.279880523681641 43.285888671875 0
v 2.279880523681641 43.285888671875 15
v 2.279880523681641 43.285888671875 30
v 11.78476333618164 1.378173112869263 0
v 11.78476333618164 1.378173112869263 15
v 11.78476333618164 1.378173112869263 30
v 11.78476333618164 23.80810356140137 0
v 11.78476333618164 23.80810356140137 30
v 11.78476333618164 46.238037109375 0
v 11.78476333618164 46.238037109375 15
v 11.78476333618164 46.238037109375 30
v 13.22470474243164 52.142333984375 0
v 13.22470474243164 52.142333984375 15
v 13.22470474243164 52.142333984375 30
v 17.40097045898438 1.378173112869263 0
v 17.40097045898438 1.378173112869263 15
v 17.40097045898438 1.378173112869263 30
v 17.40097045898438 26.76025199890137 0
v 17.40097045898438 26.76025199890137 30
v 17.40097045898438 52.142333984375 0
v 17.40097045898438 52.142333984375 15
v 17.40097045898438 52.142333984375 30
vt 0.006003882735967636 0.345407247543335
vt 0.05624540522694588 0.2008542269468307
vt 0.006003882735967636 0.3944361507892609
vt 0.6063903570175171 0.3944361507892609
vt 0.3061971068382263 0.3944361507892609
vt 0.6063903570175171 0.3285025060176849
vt 0.07583384215831757 0.3285025060176849
vt 0.3411120772361755 0.3285025060176849
vt 0.1107488051056862 0.2169163078069687
vt 0.99853515625 0
vt 0.6451907157897949 0
vt 0.99853515625 0.1540486067533493
vt 0.6451907157897949 0.1540486067533493
vt 0.8218629360198975 0.1540486067533493
vt 0.8218629360198975 0
vt 0.04939263686537743 0.3978368043899536
vt 0.04939263686537743 0.7526460886001587
vt 0.1047824770212173 0.3978368043899536
vt 0.1047824770212173 0.7526460886001587
vt 0.1047824770212173 0.5752414464950562
vt 0.04939263686537743 0.5752414464950562
vt 0.1726701110601425 0.3978368043899536
vt 0.1726701110601425 0.7526460886001587
vt 0.2889166474342346 0.3978368043899536
vt 0.2889166474342346 0.7526460886001587
vt 0.2889166474342346 0.5752414464950562
vt 0.1726701110601425 0.5752414464950562
vt 0.99853515625 0.2246184051036835
vt 0.6451907157897949 0.2246184051036835
vt 0.99853515625 0.7551748752593994
vt 0.6451907157897949 0.7551748752593994
vt 0.99853515625 0.4898966550827026
vt 0.8218629360198975 0.7551748752593994
vt 0.6451907157897949 0.4898966550827026
vt 0.8218629360198975 0.2246184051036835
vt 0.1062473207712173 0.3978368043899536
vt 0.1062473207712173 0.7526460886001587
vt 0.1712052673101425 0.3978368043899536
vt 0.1712052673101425 0.7526460886001587
vt 0.1712052673101425 0.5752414464950562
vt 0.1062473207712173 0.5752414464950562
vt 0.6437258720397949 0.3978368043899536
vt 0.2903814911842346 0.3978368043899536
vt 0.6437258720397949 0.9967584609985352
vt 0.2903814911842346 0.9967584609985352
vt 0.6437258720397949 0.6972976326942444
vt 0.4670536816120148 0.9967584609985352
vt 0.2903814911842346 0.6972976326942444
vt 0.4670536816120148 0.3978368043899536
vt 0 0.3978368043899536
vt 0 0.7526460886001587
vt 0.04792779311537743 0.3978368043899536
vt 0.04792779311537743 0.7526460886001587
vt 0 0.5752414464950562
vt 0.04792779311537743 0.5752414464950562
vt 0.006003882735967636 0.1464888453483582
vt 0.05624540522694588 0.001935819280333817
vt 0.1107488051056862 0.01799790188670158
vt 0.07583384215831757 0.1295840889215469
vt 0.3411120772361755 0.1295840889215469
vt 0.6063903570175171 0.1295840889215469
vt 0.6063903570175171 0.1955177336931229
vt 0.3061971068382263 0.1955177336931229
vt 0.006003882735967636 0.1955177336931229
vn 0 0 -1
vn 0 0 -1
vn 0 0 -1
vn 0 0 -1
vn 0 0 -1
vn 0 0 -1
vn 0 0 -1
vn 0 0 -1
vn 0 0 -1
vn -0.3261408805847168 0.9453212022781372 0
vn -0.3261408805847168 0.9453212022781372 0
vn -0.3261408805847168 0.9453212022781372 0
vn -0.3261408805847168 0.9453212022781372 0
vn -0.3261408805847168 0.9453212022781372 0
vn -0.3261408805847168 0.9453212022781372 0
vn -0.9586442708969116 -0.2846070528030396 0
vn -0.9586442708969116 -0.2846070528030396 0
vn -0.9586442708969116 -0.2846070528030396 0
vn -0.9586442708969116 -0.2846070528030396 0
vn -0.9586442708969116 -0.2846070528030396 0
vn -0.9586442708969116 -0.2846070528030396 0
vn 0.2966152429580688 -0.9549970626831055 0
vn 0.2966152429580688 -0.9549970626831055 0
vn 0.2966152429580688 -0.9549970626831055 0
vn 0.2966152429580688 -0.9549970626831055 0
vn 0.2966152429580688 -0.9549970626831055 0
vn 0.2966152429580688 -0.9549970626831055 0
vn -1 0 0
vn -1 0 0
vn -1 0 0
vn -1 0 0
vn -1 0 0
vn -1 0 0
vn -1 0 0
vn -1 0 0
vn 0 -1 0
vn 0 -1 0
vn 0 -1 0
vn 0 -1 0
vn 0 -1 0
vn 0 -1 0
vn 1 0 0
vn 1 0 0
vn 1 0 0
vn 1 0 0
vn 1 0 0
vn 1 0 0
vn 1 0 0
vn 1 0 0
vn 0 1 0
vn 0 1 0
vn 0 1 0
vn 0 1 0
vn 0 1 0
vn 0 1 0
vn 0 0 1
vn 0 0 1
vn 0 0 1
vn 0 0 1
vn 0 0 1
vn 0 0 1
vn 0 0 1
vn 0 0 1
vn 0 0 1
f 10/8/8 21/5/5 18/4/4 7/6/6
f 4/9/9 1/2/2 12/7/7
f 12/7/7 23/3/3 21/5/5 10/8/8
f 15/1/1 23/3/3 12/7/7
f 1/2/2 15/1/1 12/7/7
f 2/15/15 16/14/14 15/12/12 1/10/10
f 3/11/11 17/13/13 16/14/14 2/15/15
f 5/21/21 2/20/20 1/18/18 4/16/16
f 6/17/17 3/19/19 2/20/20 5/21/21
f 13/27/27 5/26/26 4/24/24 12/22/22
f 14/23/23 6/25/25 5/26/26 13/27/27
f 8/35/35 10/32/32 7/28/28
f 8/35/35 9/29/29 11/34/34
f 13/33/33 10/32/32 8/35/35
f 8/35/35 11/34/34 13/33/33
f 13/33/33 11/34/34 14/31/31
f 12/30/30 10/32/32 13/33/33
f 19/41/41 8/40/40 7/38/38 18/36/36
f 20/37/37 9/39/39 8/40/40 19/41/41
f 24/49/49 21/46/46 23/42/42
f 24/49/49 25/43/43 22/48/48
f 19/47/47 21/46/46 24/49/49
f 24/49/49 22/48/48 19/47/47
f 19/47/47 22/48/48 20/45/45
f 18/44/44 21/46/46 19/47/47
f 16/54/54 24/55/55 23/52/52 15/50/50
f 17/51/51 25/53/53 24/55/55 16/54/54
f 11/60/60 9/61/61 20/62/62 22/63/63
f 6/58/58 14/59/59 3/57/57
f 14/59/59 11/60/60 22/63/63 25/64/64
f 17/56/56 14/59/59 25/64/64
f 3/57/57 14/59/59 17/56/56
