# Rhino

v 0.7150296568870544 51.62438201904297 0
v 0.7150296568870544 51.62438201904297 15
v 0.7150296568870544 51.62438201904297 30
v 7.051943778991699 51.62438201904297 0
v 7.051943778991699 51.62438201904297 15
v 7.051943778991699 51.62438201904297 30
v 11.5519437789917 26.24230194091797 0
v 11.5519437789917 26.24230194091797 30
v 16.01660346984863 29.91442108154297 0
v 16.01660346984863 29.91442108154297 30
v 22.38891792297363 0.8602137565612793 0
v 22.38891792297363 0.8602137565612793 15
v 22.38891792297363 0.8602137565612793 30
v 24.98120307922363 8.204452514648438 0
v 24.98120307922363 8.204452514648438 30
v 27.42945289611816 0.8602137565612793 0
v 27.42945289611816 0.8602137565612793 15
v 27.42945289611816 0.8602137565612793 30
v 33.9819450378418 29.91442108154297 0
v 33.9819450378418 29.91442108154297 30
v 38.2664909362793 26.24230194091797 0
v 38.2664909362793 26.24230194091797 30
v 42.9827995300293 51.62438201904297 0
v 42.9827995300293 51.62438201904297 15
v 42.9827995300293 51.62438201904297 30
v 49.1032829284668 51.62438201904297 0
v 49.1032829284668 51.62438201904297 15
v 49.1032829284668 51.62438201904297 30
vt 0.003839932382106781 0.7213320732116699
vt 0.1680591851472855 0.6532483696937561
vt 0.3322784602642059 0.5851647257804871
vt 0.003839932382106781 0.7676297426223755
vt 0.3878320157527924 0.6036837697029114
vt 0.1958359628915787 0.6856567859649658
vt 0.3878320157527924 0.5655560493469238
vt 0.003839932382106781 0.4016101062297821
vt 0.1958359628915787 0.4835830926895142
vt 0.003839932382106781 0.4495440125465393
vt 0.1680591851472855 0.5173543691635132
vt 0.6444533467292786 0.2748609781265259
vt 0.6444533467292786 0.5003232359886169
vt 0.99853515625 0.2748609781265259
vt 0.99853515625 0.5003232359886169
vt 0.8214942812919617 0.2748609781265259
vt 0.99853515625 0.3875921070575714
vt 0.8214942812919617 0.5003232359886169
vt 0.6444533467292786 0.0479339137673378
vt 0.6444533467292786 0.2733961343765259
vt 0.99853515625 0.0479339137673378
vt 0.99853515625 0.2733961343765259
vt 0.8214942812919617 0.0479339137673378
vt 0.8214942812919617 0.2733961343765259
vt 0.6444533467292786 0.1606650352478027
vt 0.8713804483413696 0
vt 0.6444533467292786 0
vt 0.8713804483413696 0.0464690700173378
vt 0.6444533467292786 0.0464690700173378
vt 0.7579169273376465 0.0464690700173378
vt 0.7579169273376465 0
vt 0 0.1079069375991821
vt 0 0.3348340094089508
vt 0.4160614311695099 0.1079069375991821
vt 0.4160614311695099 0.3348340094089508
vt 0.2080307155847549 0.1079069375991821
vt 0.4160614311695099 0.2213704735040665
vt 0.2080307155847549 0.3348340094089508
vt 0 0.2213704735040665
vt 0.2269270718097687 0
vt 0 0
vt 0.2269270718097687 0.03812773898243904
vt 0 0.03812773898243904
vt 0.1134635359048843 0.03812773898243904
vt 0.1134635359048843 0
vt 0.6429885029792786 0
vt 0.4175262749195099 0
vt 0.6429885029792786 0.4175262749195099
vt 0.4175262749195099 0.4175262749195099
vt 0.6429885029792786 0.2087631374597549
vt 0.5302574038505554 0.4175262749195099
vt 0.4175262749195099 0.2087631374597549
vt 0.5302574038505554 0
vt 0.2269270718097687 0.04873231798410416
vt 0 0.04873231798410416
vt 0.2269270718097687 0.09503002464771271
vt 0 0.09503002464771271
vt 0.1134635359048843 0.04873231798410416
vt 0.1134635359048843 0.09503002464771271
vt 0.4213662147521973 0.823901355266571
vt 0.5855854749679565 0.7560848593711853
vt 0.7498047351837158 0.6882683038711548
vt 0.5855854749679565 0.6207240223884583
vt 0.4213662147521973 0.5531797409057617
vt 0.4213662147521973 0.5054339170455933
vt 0.6133622527122498 0.5870852470397949
vt 0.8053582906723022 0.6687365770339966
vt 0.8053582906723022 0.7067147493362427
vt 0.6133622527122498 0.7883660793304443
vt 0.4213662147521973 0.870017409324646
vn 0 0 -1
vn 0 0 -1
vn 0 0 -1
vn 0 0 -1
vn 0 0 -1
vn 0 0 -1
vn 0 0 -1
vn 0 0 -1
vn 0 0 -1
vn 0 0 -1
vn 0 0 -1
vn -0.9237565398216248 0.3829802274703979 0
vn -0.9237565398216248 0.3829802274703979 0
vn -0.9237565398216248 0.3829802274703979 0
vn -0.9237565398216248 0.3829802274703979 0
vn -0.9237565398216248 0.3829802274703979 0
vn -0.9237565398216248 0.3829802274703979 0
vn -0.9237565398216248 0.3829802274703979 0
vn 0.9242998361587524 0.3816671073436737 0
vn 0.9242998361587524 0.3816671073436737 0
vn 0.9242998361587524 0.3816671073436737 0
vn 0.9242998361587524 0.3816671073436737 0
vn 0.9242998361587524 0.3816671073436737 0
vn 0.9242998361587524 0.3816671073436737 0
vn 0.9242998361587524 0.3816671073436737 0
vn 0 1 0
vn 0 1 0
vn 0 1 0
vn 0 1 0
vn 0 1 0
vn 0 1 0
vn -0.9196836352348328 -0.3926602005958557 0
vn -0.9196836352348328 -0.3926602005958557 0
vn -0.9196836352348328 -0.3926602005958557 0
vn -0.9196836352348328 -0.3926602005958557 0
vn -0.9196836352348328 -0.3926602005958557 0
vn -0.9196836352348328 -0.3926602005958557 0
vn -0.9196836352348328 -0.3926602005958557 0
vn -0.9196836352348328 -0.3926602005958557 0
vn 0 -1 0
vn 0 -1 0
vn 0 -1 0
vn 0 -1 0
vn 0 -1 0
vn 0 -1 0
vn 0.9196836352348328 -0.3926602005958557 0
vn 0.9196836352348328 -0.3926602005958557 0
vn 0.9196836352348328 -0.3926602005958557 0
vn 0.9196836352348328 -0.3926602005958557 0
vn 0.9196836352348328 -0.3926602005958557 0
vn 0.9196836352348328 -0.3926602005958557 0
vn 0.9196836352348328 -0.3926602005958557 0
vn 0.9196836352348328 -0.3926602005958557 0
vn 0 1 0
vn 0 1 0
vn 0 1 0
vn 0 1 0
vn 0 1 0
vn 0 1 0
vn 0 0 1
vn 0 0 1
vn 0 0 1
vn 0 0 1
vn 0 0 1
vn 0 0 1
vn 0 0 1
vn 0 0 1
vn 0 0 1
vn 0 0 1
vn 0 0 1
f 14/3/3 7/9/9 9/11/11
f 1/8/8 4/10/10 7/9/9
f 9/11/11 7/9/9 4/10/10
f 14/3/3 11/7/7 7/9/9
f 21/6/6 16/5/5 14/3/3
f 11/7/7 14/3/3 16/5/5
f 19/2/2 21/6/6 14/3/3
f 19/2/2 23/1/1 21/6/6
f 26/4/4 21/6/6 23/1/1
f 15/13/13 20/18/18 19/16/16 14/12/12
f 19/16/16 20/18/18 24/17/17
f 24/17/17 20/18/18 25/15/15
f 23/14/14 19/16/16 24/17/17
f 9/23/23 4/19/19 5/25/25
f 10/24/24 5/25/25 6/20/20
f 14/21/21 9/23/23 10/24/24 15/22/22
f 5/25/25 10/24/24 9/23/23
f 2/31/31 5/30/30 4/28/28 1/26/26
f 3/27/27 6/29/29 5/30/30 2/31/31
f 12/39/39 7/36/36 11/32/32
f 12/39/39 13/33/33 8/38/38
f 2/37/37 7/36/36 12/39/39
f 12/39/39 8/38/38 2/37/37
f 2/37/37 8/38/38 3/35/35
f 1/34/34 7/36/36 2/37/37
f 17/45/45 12/44/44 11/42/42 16/40/40
f 18/41/41 13/43/43 12/44/44 17/45/45
f 27/53/53 21/50/50 26/46/46
f 27/53/53 28/47/47 22/52/52
f 17/51/51 21/50/50 27/53/53
f 27/53/53 22/52/52 17/51/51
f 17/51/51 22/52/52 18/49/49
f 16/48/48 21/50/50 17/51/51
f 24/58/58 27/59/59 26/56/56 23/54/54
f 25/55/55 28/57/57 27/59/59 24/58/58
f 15/62/62 10/63/63 8/66/66
f 3/65/65 8/66/66 6/64/64
f 10/63/63 6/64/64 8/66/66
f 15/62/62 8/66/66 13/67/67
f 22/69/69 15/62/62 18/68/68
f 13/67/67 18/68/68 15/62/62
f 20/61/61 15/62/62 22/69/69
f 20/61/61 22/69/69 25/60/60
f 28/70/70 25/60/60 22/69/69
