# Rhino

v -0.1556383520364761 0 -0.1679341644048691
v -0.1556383520364761 5 -0.1679341644048691
v -0.1556383520364761 10 -0.1679341644048691
v 0.220808207988739 0 -1.16793417930603
v 0.220808207988739 10 -1.16793417930603
v 0.5387115478515625 0 -0.1679341644048691
v 0.5387115478515625 10 -0.1679341644048691
v 0.597254753112793 0 -2.16793417930603
v 0.597254753112793 10 -2.16793417930603
v 0.9737013578414917 0 -3.16793417930603
v 0.9737013578414917 10 -3.16793417930603
v 1.23306143283844 0 -0.1679341644048691
v 1.23306143283844 5 -0.1679341644048691
v 1.23306143283844 10 -0.1679341644048691
v 1.350147843360901 0 -4.167933940887451
v 1.350147843360901 10 -4.167933940887451
v 1.593851089477539 0 -1.166345834732056
v 1.593851089477539 10 -1.166345834732056
v 1.7265944480896 0 -5.167933940887451
v 1.7265944480896 10 -5.167933940887451
v 1.954640746116638 0 -2.164757490158081
v 1.954640746116638 10 -2.164757490158081
v 2.103040933609009 0 -6.167933940887451
v 2.103040933609009 10 -6.167933940887451
v 2.315430402755737 0 -3.163168907165527
v 2.315430402755737 5 -3.163168907165527
v 2.315430402755737 10 -3.163168907165527
v 2.479487657546997 0 -7.167933940887451
v 2.479487657546997 10 -7.167933940887451
v 2.703449487686157 0 -4.265960216522217
v 2.703449487686157 5 -4.265960216522217
v 2.703449487686157 10 -4.265960216522217
v 2.855934143066406 0 -8.167934417724609
v 2.855934143066406 10 -8.167934417724609
v 3.026118040084839 0 -5.149554252624512
v 3.026118040084839 10 -5.149554252624512
v 3.232380628585815 0 -9.167934417724609
v 3.232380628585815 10 -9.167934417724609
v 3.304198265075684 0 -3.163168907165527
v 3.304198265075684 10 -3.163168907165527
v 3.348786354064941 0 -6.033148765563965
v 3.348786354064941 10 -6.033148765563965
v 3.608827352523804 0 -10.16793441772461
v 3.608827352523804 5 -10.16793441772461
v 3.608827352523804 10 -10.16793441772461
v 3.671454906463623 0 -6.91674280166626
v 3.671454906463623 10 -6.91674280166626
v 3.747243404388428 0 -4.265960216522217
v 3.747243404388428 10 -4.265960216522217
v 3.994123458862305 0 -7.800337314605713
v 3.994123458862305 10 -7.800337314605713
v 4.292966365814209 0 -3.163168907165527
v 4.292966365814209 10 -3.163168907165527
v 4.316792011260986 0 -8.683931350708008
v 4.316792011260986 5 -8.683931350708008
v 4.316792011260986 10 -8.683931350708008
v 4.374654293060303 0 -10.16793441772461
v 4.374654293060303 10 -10.16793441772461
v 4.620399951934814 0 -7.800337314605713
v 4.620399951934814 10 -7.800337314605713
v 4.791037559509277 0 -4.265960216522217
v 4.791037559509277 10 -4.265960216522217
v 4.924007892608643 0 -6.91674280166626
v 4.924007892608643 10 -6.91674280166626
v 5.140481472015381 0 -10.16793441772461
v 5.140481472015381 5 -10.16793441772461
v 5.140481472015381 10 -10.16793441772461
v 5.227615356445312 0 -6.033148765563965
v 5.227615356445312 10 -6.033148765563965
v 5.281733989715576 0 -3.163168907165527
v 5.281733989715576 10 -3.163168907165527
v 5.503313541412354 0 -9.167934417724609
v 5.503313541412354 10 -9.167934417724609
v 5.531223297119141 0 -5.149554252624512
v 5.531223297119141 10 -5.149554252624512
v 5.834831237792969 0 -4.265960216522217
v 5.834831237792969 5 -4.265960216522217
v 5.834831237792969 10 -4.265960216522217
v 5.866145133972168 0 -8.167934417724609
v 5.866145133972168 10 -8.167934417724609
v 6.228977203369141 0 -7.167933940887451
v 6.228977203369141 10 -7.167933940887451
v 6.270502090454102 0 -3.163168907165527
v 6.270502090454102 5 -3.163168907165527
v 6.270502090454102 10 -3.163168907165527
v 6.591808795928955 0 -6.167933940887451
v 6.591808795928955 10 -6.167933940887451
v 6.60860013961792 0 -2.164757490158081
v 6.60860013961792 10 -2.164757490158081
v 6.946698665618896 0 -1.166345834732056
v 6.946698665618896 10 -1.166345834732056
v 6.954640865325928 0 -5.167933940887451
v 6.954640865325928 10 -5.167933940887451
v 7.284797191619873 0 -0.1679341644048691
v 7.284797191619873 5 -0.1679341644048691
v 7.284797191619873 10 -0.1679341644048691
v 7.317472457885742 0 -4.167933940887451
v 7.317472457885742 10 -4.167933940887451
v 7.680304527282715 0 -3.16793417930603
v 7.680304527282715 10 -3.16793417930603
v 8.026798248291016 0 -0.1679341644048691
v 8.026798248291016 10 -0.1679341644048691
v 8.043136596679688 0 -2.16793417930603
v 8.043136596679688 10 -2.16793417930603
v 8.405967712402344 0 -1.16793417930603
v 8.405967712402344 10 -1.16793417930603
v 8.768799781799316 0 -0.1679341644048691
v 8.768799781799316 5 -0.1679341644048691
v 8.768799781799316 10 -0.1679341644048691
vn 0 -1 0
vn 0 -1 0
vn 0 -1 0
vn 0 -1 0
vn 0 -1 0
vn 0 -1 0
vn 0 -1 0
vn 0 -1 0
vn 0 -1 0
vn 0 -1 0
vn 0 -1 0
vn 0 -1 0
vn 0 -1 0
vn 0 -1 0
vn 0 -1 0
vn 0 -1 0
vn 0 -1 0
vn 0 -1 0
vn 0 -1 0
vn 0 -1 0
vn 0 -1 0
vn 0 -1 0
vn 0 -1 0
vn 0 -1 0
vn 0 -1 0
vn 0 -1 0
vn 0 -1 0
vn 0 -1 0
vn 0 -1 0
vn 0 -1 0
vn 0 -1 0
vn 0 -1 0
vn 0 -1 0
vn 0 -1 0
vn 0 -1 0
vn 0 -1 0
vn 0 -1 0
vn 0 -1 0
vn 0 -1 0
vn 0 -1 0
vn 0 -1 0
vn 0 -1 0
vn 0 -1 0
vn 0 -1 0
vn 0 -1 0
vn 0 -1 0
vn 0 -1 0
vn 0 -1 0
vn 0 -1 0
vn -0.9358833432197571 0 -0.3523100614547729
vn -0.9358833432197571 0 -0.3523100614547729
vn -0.9358833432197571 -3.911427420341928e-17 \
 -0.3523100614547729
vn -0.9358833432197571 -3.911427420341928e-17 \
 -0.3523100614547729
vn -0.9358833432197571 0 -0.3523100614547729
vn -0.9358833432197571 0 -0.3523100614547729
vn -0.9358833432197571 0 -0.3523100614547729
vn -0.9358833432197571 0 -0.3523100614547729
vn -0.9358833432197571 0 -0.3523100614547729
vn -0.9358833432197571 0 -0.3523100614547729
vn -0.9358833432197571 0 -0.3523100614547729
vn -0.9358833432197571 0 -0.3523100614547729
vn -0.9358833432197571 0 -0.3523100614547729
vn -0.9358833432197571 0 -0.3523100614547729
vn -0.9358833432197571 0 -0.3523100614547729
vn -0.9358833432197571 0 -0.3523100614547729
vn -0.9358833432197571 0 -0.3523100614547729
vn -0.9358833432197571 0 -0.3523100614547729
vn -0.9358833432197571 0 -0.3523100614547729
vn -0.9358833432197571 0 -0.3523100614547729
vn -0.9358833432197571 0 -0.3523100614547729
vn -0.9358833432197571 0 -0.3523100614547729
vn -0.9358833432197571 0 -0.3523100614547729
vn -0.9358833432197571 0 -0.3523100614547729
vn 0 0 1
vn 0 0 1
vn 0 0 1
vn 0 0 1
vn 0 0 1
vn 0 0 1
vn 0 0 1
vn 0 0 1
vn 0.9404780268669128 0 0.3398545384407043
vn 0.9404780268669128 0 0.3398545384407043
vn 0.9404780268669128 0 0.3398545384407043
vn 0.9404780268669128 0 0.3398545384407043
vn 0.9404780268669128 0 0.3398545384407043
vn 0.9404780268669128 0 0.3398545384407043
vn 0.9404780268669128 0 0.3398545384407043
vn 0.9404780268669128 0 0.3398545384407043
vn 0.9404780268669128 0 0.3398545384407043
vn 0.9404780268669128 0 0.3398545384407043
vn 0 0 1
vn 0 0 1
vn 0 0 1
vn 0 0 1
vn 0 0 1
vn 0 0 1
vn 0 0 1
vn 0 0 1
vn 0 0 1
vn 0 0 1
vn 0 0 1
vn 0 0 1
vn -0.9471656680107117 0 0.3207447528839111
vn -0.9471656680107117 0 0.3207447528839111
vn -0.9471656680107117 0 0.3207447528839111
vn -0.9471656680107117 0 0.3207447528839111
vn -0.9471656680107117 0 0.3207447528839111
vn -0.9471656680107117 0 0.3207447528839111
vn -0.9471656680107117 0 0.3207447528839111
vn -0.9471656680107117 0 0.3207447528839111
vn -0.9471656680107117 0 0.3207447528839111
vn -0.9471656680107117 0 0.3207447528839111
vn 0 0 1
vn 0 0 1
vn 0 0 1
vn 0 0 1
vn 0 0 1
vn 0 0 1
vn 0 0 1
vn 0 0 1
vn 0.9400360584259033 0 -0.3410750329494476
vn 0.9400360584259033 0 -0.3410750329494476
vn 0.9400360584259033 0 -0.3410750329494476
vn 0.9400360584259033 0 -0.3410750329494476
vn 0.9400360584259033 0 -0.3410750329494476
vn 0.9400360584259033 0 -0.3410750329494476
vn 0.9400360584259033 0 -0.3410750329494476
vn 0.9400360584259033 0 -0.3410750329494476
vn 0.9400360584259033 0 -0.3410750329494476
vn 0.9400360584259033 0 -0.3410750329494476
vn 0.9400360584259033 0 -0.3410750329494476
vn 0.9400360584259033 0 -0.3410750329494476
vn 0.9400360584259033 0 -0.3410750329494476
vn 0.9400360584259033 0 -0.3410750329494476
vn 0.9400360584259033 0 -0.3410750329494476
vn 0.9400360584259033 0 -0.3410750329494476
vn 0.9400360584259033 0 -0.3410750329494476
vn 0.9400360584259033 0 -0.3410750329494476
vn 0.9400360584259033 0 -0.3410750329494476
vn 0.9400360584259033 0 -0.3410750329494476
vn 0.9400360584259033 0 -0.3410750329494476
vn 0.9400360584259033 0 -0.3410750329494476
vn 0.9400360584259033 0 -0.3410750329494476
vn 0.9400360584259033 0 -0.3410750329494476
vn 0 0 -1
vn 0 0 -1
vn 0 0 -1
vn 0 0 -1
vn 0 0 -1
vn 0 0 -1
vn 0 0 -1
vn 0 0 -1
vn 0 0 -1
vn 0 0 -1
vn 0 0 -1
vn 0 0 -1
vn 0 0 -1
vn 0 0 -1
vn 0 0 -1
vn 0 0 -1
vn 0 0 -1
vn 0 0 -1
vn 0.9393277168273926 0 0.3430210649967194
vn 0.9393277168273926 0 0.3430210649967194
vn 0.9393277168273926 0 0.3430210649967194
vn 0.9393277168273926 0 0.3430210649967194
vn 0.9393277168273926 0 0.3430210649967194
vn 0.9393277168273926 0 0.3430210649967194
vn 0.9393277168273926 0 0.3430210649967194
vn 0.9393277168273926 0 0.3430210649967194
vn 0.9393277168273926 0 0.3430210649967194
vn 0.9393277168273926 0 0.3430210649967194
vn 0.9393277168273926 0 0.3430210649967194
vn 0.9393277168273926 0 0.3430210649967194
vn 0.9393277168273926 0 0.3430210649967194
vn 0.9393277168273926 0 0.3430210649967194
vn -0.945728600025177 0 0.3249575793743134
vn -0.945728600025177 0 0.3249575793743134
vn -0.945728600025177 0 0.3249575793743134
vn -0.945728600025177 0 0.3249575793743134
vn -0.945728600025177 0 0.3249575793743134
vn -0.945728600025177 0 0.3249575793743134
vn -0.945728600025177 0 0.3249575793743134
vn -0.945728600025177 0 0.3249575793743134
vn -0.945728600025177 0 0.3249575793743134
vn -0.945728600025177 0 0.3249575793743134
vn -0.945728600025177 0 0.3249575793743134
vn -0.945728600025177 0 0.3249575793743134
vn -0.945728600025177 0 0.3249575793743134
vn -0.945728600025177 0 0.3249575793743134
vn 0 1 0
vn 0 1 0
vn 0 1 0
vn 0 1 0
vn 0 1 0
vn 0 1 0
vn 0 1 0
vn 0 1 0
vn 0 1 0
vn 0 1 0
vn 0 1 0
vn 0 1 0
vn 0 1 0
vn 0 1 0
vn 0 1 0
vn 0 1 0
vn 0 1 0
vn 0 1 0
vn 0 1 0
vn 0 1 0
vn 0 1 0
vn 0 1 0
vn 0 1 0
vn 0 1 0
vn 0 1 0
vn 0 1 0
vn 0 1 0
vn 0 1 0
vn 0 1 0
vn 0 1 0
vn 0 1 0
vn 0 1 0
vn 0 1 0
vn 0 1 0
vn 0 1 0
vn 0 1 0
vn 0 1 0
vn 0 1 0
vn 0 1 0
vn 0 1 0
vn 0 1 0
vn 0 1 0
vn 0 1 0
vn 0 1 0
vn 0 1 0
vn 0 1 0
vn 0 1 0
vn 0 1 0
vn 0 1 0
f 4//10 6//42 1//11
f 4//10 12//39 6//42
f 8//9 17//40 4//10
f 21//41 8//9 10//8
f 12//39 4//10 17//40
f 10//8 25//35 21//41
f 15//7 25//35 10//8
f 25//35 30//45 48//44 39//36
f 15//7 30//45 25//35
f 52//37 39//36 48//44
f 17//40 8//9 21//41
f 35//46 30//45 19//6
f 15//7 19//6 30//45
f 23//5 35//46 19//6
f 28//4 41//47 23//5
f 46//48 28//4 33//3
f 35//46 23//5 41//47
f 46//48 33//3 50//49
f 54//12 37//2 43//1
f 50//49 33//3 37//2
f 50//49 37//2 54//12
f 41//47 28//4 46//48
f 52//37 48//44 61//43
f 90//34 88//33 103//22
f 94//30 90//34 101//31
f 76//17 83//32 70//38 61//43
f 52//37 61//43 70//38
f 83//32 99//23 88//33
f 105//21 107//20 101//31
f 90//34 103//22 105//21
f 83//32 97//24 99//23
f 99//23 103//22 88//33
f 90//34 105//21 101//31
f 97//24 83//32 76//17
f 63//14 59//13 79//28
f 59//13 54//12 72//29
f 65//18 72//29 57//19
f 57//19 72//29 54//12
f 43//1 57//19 54//12
f 81//27 68//15 63//14
f 92//25 76//17 74//16
f 97//24 76//17 92//25
f 86//26 92//25 74//16
f 79//28 59//13 72//29
f 86//26 68//15 81//27
f 79//28 81//27 63//14
f 68//15 86//26 74//16
f 2//73 4//56 1//50
f 2//73 8//57 4//56
f 15//59 10//58 11//70 16//69
f 16//69 20//53 19//52 15//59
f 2//73 10//58 8//57
f 3//51 5//72 2//73
f 9//71 2//73 5//72
f 2//73 9//71 11//70
f 10//58 2//73 11//70
f 28//61 23//60 24//68 29//67
f 44//64 33//62 28//61
f 44//64 43//54 37//63
f 33//62 44//64 37//63
f 44//64 28//61 29//67
f 23//60 19//52 20//53 24//68
f 44//64 34//66 38//65
f 44//64 38//65 45//55
f 34//66 44//64 29//67
f 13//81 6//78 12//74
f 13//81 14//75 7//80
f 2//79 6//78 13//81
f 13//81 7//80 2//79
f 2//79 7//80 3//77
f 1//76 6//78 2//79
f 26//91 21//86 25//82
f 27//83 22//90 26//91
f 26//91 22//90 18//89
f 17//87 21//86 26//91
f 13//88 12//84 17//87
f 14//85 13//88 18//89
f 13//88 26//91 18//89
f 17//87 26//91 13//88
f 84//103 70//96 83//92
f 84//103 52//97 70//96
f 85//93 71//102 84//103
f 84//103 71//102 53//101
f 26//99 52//97 84//103
f 26//99 25//94 39//98
f 84//103 53//101 26//99
f 26//99 53//101 40//100
f 26//99 40//100 27//95
f 39//98 52//97 26//99
f 95//113 90//108 94//104
f 96//105 91//112 95//113
f 95//113 91//112 89//111 84//110
f 84//110 88//109 90//108 95//113
f 84//110 83//106 88//109
f 85//107 84//110 89//111
f 108//121 101//118 107//114
f 108//121 109//115 102//120
f 95//119 94//116 101//118 108//121
f 108//121 102//120 96//117 95//119
f 66//145 72//126 65//122
f 66//145 79//127 72//126
f 66//145 86//129 81//128
f 66//145 92//130 86//129
f 66//145 81//128 79//127
f 67//123 73//144 66//145
f 80//143 66//145 73//144
f 66//145 80//143 82//142
f 66//145 82//142 87//141
f 93//140 66//145 87//141
f 108//135 92//130 66//145
f 108//135 99//132 97//131
f 108//135 103//133 99//132
f 108//135 107//124 105//134
f 103//133 108//135 105//134
f 66//145 93//140 108//135
f 108//135 93//140 98//139
f 108//135 98//139 100//138
f 108//135 104//137 106//136
f 108//135 106//136 109//125
f 104//137 108//135 100//138
f 97//131 92//130 108//135
f 44//151 57//150 43//146
f 44//151 45//147 58//153
f 66//152 57//150 44//151
f 44//151 58//153 66//152
f 66//152 58//153 67//149
f 65//148 57//150 66//152
f 31//163 48//158 30//154
f 32//155 49//162 31//163
f 31//163 49//162 62//161
f 77//160 61//159 48//158 31//163
f 77//160 76//156 61//159
f 78//157 77//160 62//161
f 77//160 31//163 62//161
f 55//177 50//168 54//164
f 50//168 51//176 47//175 46//169
f 51//176 55//177 56//165
f 50//168 55//177 51//176
f 47//175 42//174 41//170 46//169
f 35//171 41//170 42//174 36//173
f 31//172 30//166 35//171
f 36//173 32//167 31//172
f 36//173 31//172 35//171
f 77//186 74//182 76//178
f 77//186 68//183 74//182
f 75//191 77//186 78//179
f 77//186 75//191 69//190
f 64//189 77//186 69//190
f 55//187 63//184 68//183 77//186
f 55//187 59//185 63//184
f 55//187 54//180 59//185
f 55//187 64//189 60//188
f 60//188 56//181 55//187
f 64//189 55//187 77//186
f 5//201 3//202 7//203
f 5//201 7//203 14//204
f 9//200 5//201 18//205
f 22//206 11//199 9//200
f 14//204 18//205 5//201
f 11//199 22//206 27//207
f 16//198 11//199 27//207
f 27//207 40//208 49//230 32//231
f 16//198 27//207 32//231
f 53//209 49//230 40//208
f 18//205 22//206 9//200
f 36//232 20//197 32//231
f 16//198 32//231 20//197
f 24//196 20//197 36//232
f 29//195 24//196 42//233
f 47//234 34//194 29//195
f 36//232 42//233 24//196
f 47//234 51//235 34//194
f 56//236 45//192 38//193
f 51//235 38//193 34//194
f 51//235 56//236 38//193
f 42//233 47//234 29//195
f 53//209 62//229 49//230
f 91//213 104//218 89//212
f 96//214 102//215 91//213
f 78//228 62//229 71//210 85//211
f 53//209 71//210 62//229
f 85//211 89//212 100//219
f 106//217 102//215 109//216
f 91//213 106//217 104//218
f 85//211 100//219 98//220
f 100//219 89//212 104//218
f 91//213 102//215 106//217
f 98//220 78//228 85//211
f 64//238 80//224 60//237
f 60//237 73//225 56//236
f 67//226 58//227 73//225
f 58//227 56//236 73//225
f 45//192 56//236 58//227
f 82//223 64//238 69//239
f 93//221 75//240 78//228
f 98//220 93//221 78//228
f 87//222 75//240 93//221
f 80//224 73//225 60//237
f 87//222 82//223 69//239
f 80//224 64//238 82//223
f 69//239 75//240 87//222
