# Rhino

v 13.23637676239014 19.68597221374512 0
v 13.23637676239014 19.68597221374512 30
v 13.25200176239014 19.53216361999512 0
v 13.25200176239014 19.53216361999512 30
v 13.39213848114014 19.48089408874512 0
v 13.39213848114014 19.48089408874512 30
v 15.08159160614014 32.28021240234375 0
v 15.08159160614014 32.28021240234375 30
v 15.15190410614014 32.49505615234375 0
v 15.15190410614014 32.49505615234375 30
v 15.48686504364014 32.53363037109375 0
v 15.48686504364014 32.53363037109375 30
v 22.99516677856445 19.47454643249512 0
v 22.99516677856445 19.47454643249512 30
v 23.20122146606445 19.51751518249512 0
v 23.20122146606445 19.51751518249512 30
v 24.26469802856445 26.61273002624512 0
v 24.26469802856445 26.61273002624512 30
v 24.73637771606445 32.53460693359375 0
v 24.73637771606445 32.53460693359375 30
v 25.03422927856445 32.51702880859375 0
v 25.03422927856445 32.51702880859375 30
v 25.05815505981445 32.01019287109375 0
v 25.05815505981445 32.01019287109375 30
v 25.08520889282227 32.38414001464844 0
v 25.08520889282227 32.38414001464844 30
v 25.09343338012695 32.25555419921875 0
v 25.09343338012695 32.25555419921875 30
vn 0.9760620594024658 -0.217492088675499 0
vn 0.9760620594024658 -0.217492088675499 0
vn 0.9893769025802612 -0.1453731507062912 0
vn 0.9893769025802612 -0.1453731507062912 0
vn 0.991360604763031 -0.1311646401882172 0
vn 0.991360604763031 -0.1311646401882172 0
vn 0.9985694885253906 -0.05346899107098579 0
vn 0.9985694885253906 -0.05346899107098579 0
vn 0.9801825284957886 0.198096439242363 0
vn 0.9801825284957886 0.198096439242363 0
vn 0.864033579826355 0.5034341812133789 0
vn 0.864033579826355 0.5034341812133789 0
vn 0.0629815086722374 0.9980146884918213 0
vn 0.0629815086722374 0.9980146884918213 0
vn 0.0003167563991155475 0.9999999403953552 0
vn 0.0003167563991155475 0.9999999403953552 0
vn 0 1 0
vn 0 1 0
vn -0.1186254620552063 0.9929390549659729 0
vn -0.1186254620552063 0.9929390549659729 0
vn -0.9486833214759827 0.3162277638912201 0
vn -0.9486833214759827 0.3162277638912201 0
vn -0.9893800616264343 0.1453515291213989 0
vn -0.9893800616264343 0.1453515291213989 0
vn -0.9884880185127258 0.1512991786003113 0
vn -0.9884880185127258 0.1512991786003113 0
vn -0.9933310151100159 -0.1152973473072052 0
vn -0.9933310151100159 -0.1152973473072052 0
vn -0.3615278601646423 -0.9323613047599792 0
vn -0.3615278601646423 -0.9323613047599792 0
vn -0.001372786937281489 -0.9999990463256836 0
vn -0.001372786937281489 -0.9999990463256836 0
vn 0 -1 0
vn 0 -1 0
vn 0.2124296426773071 -0.9771763682365417 0
vn 0.2124296426773071 -0.9771763682365417 0
f 15//1 17//3 18//4 16//2
f 17//3 23//5 24//6 18//4
f 23//5 27//7 28//8 24//6
f 27//7 25//9 26//10 28//8
f 25//9 21//11 22//12 26//10
f 21//13 19//15 20//16 22//14
f 19//15 11//17 12//18 20//16
f 11//17 9//19 10//20 12//18
f 9//21 7//23 8//24 10//22
f 7//23 1//25 2//26 8//24
f 1//25 3//27 4//28 2//26
f 3//29 5//31 6//32 4//30
f 5//31 13//33 14//34 6//32
f 13//33 15//35 16//36 14//34
v 0.04576440900564194 12.85442924499512 0
v 0.04576440900564194 12.85442924499512 30
v 0.04594751447439194 15.45745658874512 0
v 0.04594751447439194 15.45745658874512 30
v 0.04741235822439194 18.99798393249512 0
v 0.04741235822439194 18.99798393249512 30
v 0.04838892072439194 13.08001518249512 0
v 0.04838892072439194 13.08001518249512 30
v 0.09624048322439194 19.55901908874512 0
v 0.09624048322439194 19.55901908874512 30
v 0.1533693969249725 12.62591361999512 0
v 0.1533693969249725 12.62591361999512 30
v 0.6465334296226501 19.60247611999512 0
v 0.6465334296226501 19.60247611999512 30
v 0.6807131171226501 12.61175346374512 0
v 0.6807131171226501 12.61175346374512 30
v 2.226123332977295 32.67041015625 0
v 2.226123332977295 32.67041015625 30
v 2.231006145477295 38.94085693359375 0
v 2.231006145477295 38.94085693359375 30
v 2.231494426727295 32.92181396484375 0
v 2.231494426727295 32.92181396484375 30
v 2.260791301727295 39.34124755859375 0
v 2.260791301727295 39.34124755859375 30
v 2.340869426727295 32.40911865234375 0
v 2.340869426727295 32.40911865234375 30
v 2.828174114227295 39.39154052734375 0
v 2.828174114227295 39.39154052734375 30
v 3.826220989227295 32.40130615234375 0
v 3.826220989227295 32.40130615234375 30
v 4.038135051727295 1.097593665122986 0
v 4.038135051727295 1.097593665122986 30
v 4.340381145477295 3.407652139663696 0
v 4.340381145477295 3.407652139663696 30
v 4.653857707977295 5.660582065582275 0
v 4.653857707977295 5.660582065582275 30
v 4.982470989227295 7.962828159332275 0
v 4.982470989227295 7.962828159332275 30
v 5.131885051727295 12.60882377624512 0
v 5.131885051727295 12.60882377624512 30
v 5.305224895477295 10.21429252624512 0
v 5.305224895477295 10.21429252624512 30
v 5.394580364227295 32.40081787109375 0
v 5.394580364227295 32.40081787109375 30
v 5.621631145477295 12.51800346374512 0
v 5.621631145477295 12.51800346374512 30
v 5.682666301727295 1.064878821372986 0
v 5.682666301727295 1.064878821372986 30
v 6.109424114227295 19.60491752624512 0
v 6.109424114227295 19.60491752624512 30
v 6.651904582977295 19.64935111999512 0
v 6.651904582977295 19.64935111999512 30
v 6.911670207977295 32.39886474609375 0
v 6.911670207977295 32.39886474609375 30
v 7.352099895477295 1.063413977622986 0
v 7.352099895477295 1.063413977622986 30
v 8.469775199890137 32.36663818359375 0
v 8.469775199890137 32.36663818359375 30
v 8.504443168640137 32.20306396484375 0
v 8.504443168640137 32.20306396484375 30
v 8.948290824890137 39.39495849609375 0
v 8.948290824890137 39.39495849609375 30
v 8.970751762390137 1.065367102622986 0
v 8.970751762390137 1.065367102622986 30
v 9.527880668640137 39.45941162109375 0
v 9.527880668640137 39.45941162109375 30
v 9.946825981140137 42.23040771484375 0
v 9.946825981140137 42.23040771484375 30
v 10.35356426239014 45.03216552734375 0
v 10.35356426239014 45.03216552734375 30
v 10.65629863739014 1.102476477622986 0
v 10.65629863739014 1.102476477622986 30
v 10.75981426239014 47.83343505859375 0
v 10.75981426239014 47.83343505859375 30
v 11.18071269989014 50.60833740234375 0
v 11.18071269989014 50.60833740234375 30
v 11.19633769989014 4.916441440582275 0
v 11.19633769989014 4.916441440582275 30
v 11.73881816864014 8.770933151245117 0
v 11.73881816864014 8.770933151245117 30
v 12.30034160614014 12.60394096374512 0
v 12.30034160614014 12.60394096374512 30
v 16.26128005981445 39.43548583984375 0
v 16.26128005981445 39.43548583984375 30
v 16.60258865356445 39.39495849609375 0
v 16.60258865356445 39.39495849609375 30
v 17.06108474731445 44.99749755859375 0
v 17.06108474731445 44.99749755859375 30
v 17.58745193481445 50.65130615234375 0
v 17.58745193481445 50.65130615234375 30
v 17.86479568481445 50.60882568359375 0
v 17.86479568481445 50.60882568359375 30
v 20.53032302856445 1.592710852622986 0
v 20.53032302856445 1.592710852622986 30
v 20.53276443481445 1.112242102622986 0
v 20.53276443481445 1.112242102622986 30
v 21.32866287231445 7.248960971832275 0
v 21.32866287231445 7.248960971832275 30
v 21.88823318481445 11.20306205749512 0
v 21.88823318481445 11.20306205749512 30
v 22.02251052856445 12.15423393249512 0
v 22.02251052856445 12.15423393249512 30
v 22.02495193481445 12.55267143249512 0
v 22.02495193481445 12.55267143249512 30
v 26.03764724731445 39.44769287109375 0
v 26.03764724731445 39.44769287109375 30
v 26.46440505981445 42.21820068359375 0
v 26.46440505981445 42.21820068359375 30
v 27.07475662231445 1.110288977622986 0
v 27.07475662231445 1.110288977622986 30
v 27.15922927856445 1.446226477622986 0
v 27.15922927856445 1.446226477622986 30
v 27.27739334106445 47.82122802734375 0
v 27.27739334106445 47.82122802734375 30
v 27.37895584106445 2.946714639663696 0
v 27.37895584106445 2.946714639663696 30
v 27.68413162231445 50.59906005859375 0
v 27.68413162231445 50.59906005859375 30
v 28.02836990356445 7.398375034332275 0
v 28.02836990356445 7.398375034332275 30
v 28.84184646606445 12.59173393249512 0
v 28.84184646606445 12.59173393249512 30
v 29.31059646606445 12.61028861999512 0
v 29.31059646606445 12.61028861999512 30
v 29.83208084106445 19.68939018249512 0
v 29.83208084106445 19.68939018249512 30
v 29.83354568481445 19.93987846374512 0
v 29.83354568481445 19.93987846374512 30
v 30.32231521606445 19.60540580749512 0
v 30.32231521606445 19.60540580749512 30
v 31.08061599731445 12.61077690124512 0
v 31.08061599731445 12.61077690124512 30
v 31.56157302856445 31.89739799499512 0
v 31.56157302856445 31.89739799499512 30
v 31.71977615356445 32.38372802734375 0
v 31.71977615356445 32.38372802734375 30
v 32.21342849731445 32.40032958984375 0
v 32.21342849731445 32.40032958984375 30
v 32.72612380981445 39.47943115234375 0
v 32.72612380981445 39.47943115234375 30
v 32.79253005981445 40.06243896484375 0
v 32.79253005981445 40.06243896484375 30
v 33.29838943481445 39.39593505859375 0
v 33.29838943481445 39.39593505859375 30
v 33.88286209106445 32.40081787109375 0
v 33.88286209106445 32.40081787109375 30
v 34.11577224731445 19.60345268249512 0
v 34.11577224731445 19.60345268249512 30
v 34.24956130981445 50.11810302734375 0
v 34.24956130981445 50.11810302734375 30
v 34.25639724731445 50.60003662109375 0
v 34.25639724731445 50.60003662109375 30
v 35.58256912231445 12.61321830749512 0
v 35.58256912231445 12.61321830749512 30
v 35.58305740356445 19.60198783874512 0
v 35.58305740356445 19.60198783874512 30
v 36.04936599731445 19.57659721374512 0
v 36.04936599731445 19.57659721374512 30
v 36.07036209106445 12.69573783874512 0
v 36.07036209106445 12.69573783874512 30
v 36.09184646606445 12.89349174499512 0
v 36.09184646606445 12.89349174499512 30
v 37.69878005981445 39.39251708984375 0
v 37.69878005981445 39.39251708984375 30
v 37.72710037231445 32.40228271484375 0
v 37.72710037231445 32.40228271484375 30
v 38.19731521606445 39.37493896484375 0
v 38.19731521606445 39.37493896484375 30
v 38.24614334106445 32.45257568359375 0
v 38.24614334106445 32.45257568359375 30
v 38.27495193481445 39.29974365234375 0
v 38.27495193481445 39.29974365234375 30
v 38.28667068481445 39.25091552734375 0
v 38.28667068481445 39.25091552734375 30
v 38.29106521606445 32.57562255859375 0
v 38.29106521606445 32.57562255859375 30
vn 0 -1 0
vn 0 -1 0
vn -0.3285206258296967 -0.9444968104362488 0
vn -0.3285206258296967 -0.9444968104362488 0
vn -1 0 0
vn -1 0 0
vn -0.9928984642028809 0.1189647912979126 0
vn -0.9928984642028809 0.1189647912979126 0
vn -0.9901320934295654 0.140137255191803 0
vn -0.9901320934295654 0.140137255191803 0
vn -0.9901829361915588 0.1397775858640671 0
vn -0.9901829361915588 0.1397775858640671 0
vn -0.9918027520179749 0.1277782768011093 0
vn -0.9918027520179749 0.1277782768011093 0
vn -0.892142653465271 -0.4517537653446198 0
vn -0.892142653465271 -0.4517537653446198 0
vn -0.14260433614254 -0.9897797703742981 0
vn -0.14260433614254 -0.9897797703742981 0
vn 0.1482859253883362 -0.9889445304870605 0
vn 0.1482859253883362 -0.9889445304870605 0
vn 0.9685830473899841 -0.2486902475357056 0
vn 0.9685830473899841 -0.2486902475357056 0
vn 0.988427460193634 -0.1516941487789154 0
vn 0.988427460193634 -0.1516941487789154 0
vn 0.9895417094230652 -0.1442471146583557 0
vn 0.9895417094230652 -0.1442471146583557 0
vn 0.9894004464149475 -0.145212858915329 0
vn 0.9894004464149475 -0.145212858915329 0
vn 0.9275307059288025 -0.3737470209598541 0
vn 0.9275307059288025 -0.3737470209598541 0
vn 0.04042934626340866 -0.999182403087616 0
vn 0.04042934626340866 -0.999182403087616 0
vn 0.003311240114271641 -0.9999945163726807 0
vn 0.003311240114271641 -0.9999945163726807 0
vn 0 -1 0
vn 0 -1 0
vn 0.003012034576386213 -0.9999954700469971 0
vn 0.003012034576386213 -0.9999954700469971 0
vn 0.6629960536956787 -0.7486228942871094 0
vn 0.6629960536956787 -0.7486228942871094 0
vn 0.9937001466751099 -0.1120714470744133 0
vn 0.9937001466751099 -0.1120714470744133 0
vn 0.9999998807907104 -0.0004559963126666844 0
vn 0.9999998807907104 -0.0004559963126666844 0
vn 0.9865236878395081 0.1636185646057129 0
vn 0.9865236878395081 0.1636185646057129 0
vn 0.0575413890182972 0.9983431100845337 0
vn 0.0575413890182972 0.9983431100845337 0
vn 0.006985857617110014 0.9999756217002869 0
vn 0.006985857617110014 0.9999756217002869 0
vn 0 1 0
vn 0 1 0
vn 0.003030289197340608 0.9999954104423523 0
vn 0.003030289197340608 0.9999954104423523 0
vn 0.6353645920753479 0.7722123265266418 0
vn 0.6353645920753479 0.7722123265266418 0
vn 1 0 0
vn 1 0 0
vn 0.9900292754173279 -0.1408618837594986 0
vn 0.9900292754173279 -0.1408618837594986 0
vn 0.9894610643386841 -0.1447991728782654 0
vn 0.9894610643386841 -0.1447991728782654 0
vn 0.7223837971687317 -0.6914923787117004 0
vn 0.7223837971687317 -0.6914923787117004 0
vn 0.0335177406668663 -0.9994381070137024 0
vn 0.0335177406668663 -0.9994381070137024 0
vn 0.003508750349283218 -0.9999938607215881 0
vn 0.003508750349283218 -0.9999938607215881 0
vn 0 -1 0
vn 0 -1 0
vn 0.002717381343245506 -0.9999963045120239 0
vn 0.002717381343245506 -0.9999963045120239 0
vn 0.4686705768108368 -0.8833730220794678 0
vn 0.4686705768108368 -0.8833730220794678 0
vn 0.9354179501533508 -0.3535437881946564 0
vn 0.9354179501533508 -0.3535437881946564 0
vn 0.9999971389770508 -0.002393482951447368 0
vn 0.9999971389770508 -0.002393482951447368 0
vn 0.9995677471160889 0.02939905226230621 0
vn 0.9995677471160889 0.02939905226230621 0
vn 0.8755776882171631 0.483077347278595 0
vn 0.8755776882171631 0.483077347278595 0
vn 0.6871998310089111 0.7264684438705444 0
vn 0.6871998310089111 0.7264684438705444 0
vn 0.03594797477126122 0.9993536472320557 0
vn 0.03594797477126122 0.9993536472320557 0
vn 0.0009986679069697857 0.9999995231628418 0
vn 0.0009986679069697857 0.9999995231628418 0
vn 0.002710017142817378 0.9999963045120239 0
vn 0.002710017142817378 0.9999963045120239 0
vn 0.5504742860794067 0.8348520994186401 0
vn 0.5504742860794067 0.8348520994186401 0
vn 0.9939473867416382 -0.1098573431372643 0
vn 0.9939473867416382 -0.1098573431372643 0
vn 0.9902530908584595 -0.1392794996500015 0
vn 0.9902530908584595 -0.1392794996500015 0
vn 0.9898280501365662 -0.1422688663005829 0
vn 0.9898280501365662 -0.1422688663005829 0
vn 0.9300765991210938 0.367365688085556 0
vn 0.9300765991210938 0.367365688085556 0
vn 0.157737672328949 0.9874810576438904 0
vn 0.157737672328949 0.9874810576438904 0
vn -0.155805692076683 0.9877877235412598 0
vn -0.155805692076683 0.9877877235412598 0
vn -0.9868180155754089 0.1618339419364929 0
vn -0.9868180155754089 0.1618339419364929 0
vn -0.9901862144470215 0.1397544592618942 0
vn -0.9901862144470215 0.1397544592618942 0
vn -0.9874828457832336 0.1577265709638596 0
vn -0.9874828457832336 0.1577265709638596 0
vn -0.9785665273666382 0.2059308439493179 0
vn -0.9785665273666382 0.2059308439493179 0
vn -0.1569016724824905 0.9876142144203186 0
vn -0.1569016724824905 0.9876142144203186 0
vn 0.02983745560050011 0.9995547533035278 0
vn 0.02983745560050011 0.9995547533035278 0
vn 0.1195380166172981 0.9928296208381653 0
vn 0.1195380166172981 0.9928296208381653 0
vn 0.9904295802116394 -0.1380191445350647 0
vn 0.9904295802116394 -0.1380191445350647 0
vn 0.9899961352348328 -0.1410945504903793 0
vn 0.9899961352348328 -0.1410945504903793 0
vn 0.9910906553268433 -0.1331890374422073 0
vn 0.9910906553268433 -0.1331890374422073 0
vn 0.1548876613378525 0.9879320859909058 0
vn 0.1548876613378525 0.9879320859909058 0
vn 0.04216256737709045 0.9991107583045959 0
vn 0.04216256737709045 0.9991107583045959 0
vn -0.1304246485233307 0.9914582371711731 0
vn -0.1304246485233307 0.9914582371711731 0
vn -0.9810832142829895 0.1935863941907883 0
vn -0.9810832142829895 0.1935863941907883 0
vn -0.9889097809791565 0.1485175788402557 0
vn -0.9889097809791565 0.1485175788402557 0
vn -0.989751935005188 0.1427974551916122 0
vn -0.989751935005188 0.1427974551916122 0
vn -0.9885751008987427 0.1507291197776794 0
vn -0.9885751008987427 0.1507291197776794 0
vn -0.9820177555084229 0.1887885481119156 0
vn -0.9820177555084229 0.1887885481119156 0
vn -0.4362735152244568 0.8998141288757324 0
vn -0.4362735152244568 0.8998141288757324 0
vn -0.001436092308722436 0.9999989867210388 0
vn -0.001436092308722436 0.9999989867210388 0
vn 0 1 0
vn 0 1 0
vn -0.3733404278755188 0.9276944398880005 0
vn -0.3733404278755188 0.9276944398880005 0
vn -0.9970130324363708 0.07723340392112732 0
vn -0.9970130324363708 0.07723340392112732 0
vn -0.9999786019325256 0.00654191616922617 0
vn -0.9999786019325256 0.00654191616922617 0
vn -0.9999954104423523 -0.003021134296432137 0
vn -0.9999954104423523 -0.003021134296432137 0
vn -0.9965213537216187 -0.08333771675825119 0
vn -0.9965213537216187 -0.08333771675825119 0
vn -0.7362998127937317 -0.6766554117202759 0
vn -0.7362998127937317 -0.6766554117202759 0
vn -0.03477935492992401 -0.9993950128555298 0
vn -0.03477935492992401 -0.9993950128555298 0
vn -0.003734801197424531 -0.9999930262565613 0
vn -0.003734801197424531 -0.9999930262565613 0
vn 0 -1 0
vn 0 -1 0
vn -0.01790476404130459 -0.999839723110199 0
vn -0.01790476404130459 -0.999839723110199 0
vn -0.1406389474868774 -0.9900609254837036 0
vn -0.1406389474868774 -0.9900609254837036 0
vn -0.9755361676216125 -0.2198391258716583 0
vn -0.9755361676216125 -0.2198391258716583 0
vn -0.9899377822875977 0.1415031552314758 0
vn -0.9899377822875977 0.1415031552314758 0
vn -0.8913325071334839 0.453350156545639 0
vn -0.8913325071334839 0.453350156545639 0
vn -0.3936067521572113 0.9192789196968079 0
vn -0.3936067521572113 0.9192789196968079 0
vn -0.001340481336228549 0.9999991059303284 0
vn -0.001340481336228549 0.9999991059303284 0
vn -0.002688162261620164 0.9999963641166687 0
vn -0.002688162261620164 0.9999963641166687 0
vn -0.3297896683216095 0.9440544247627258 0
vn -0.3297896683216095 0.9440544247627258 0
vn -0.9316944479942322 0.363242894411087 0
vn -0.9316944479942322 0.363242894411087 0
vn -0.9999969005584717 0.002482408657670021 0
vn -0.9999969005584717 0.002482408657670021 0
vn -1 0 0
vn -1 0 0
vn -0.9999773502349854 -0.006733853835612535 0
vn -0.9999773502349854 -0.006733853835612535 0
vn -0.995099663734436 -0.09887715429067612 0
vn -0.995099663734436 -0.09887715429067612 0
vn -0.7094289660453796 -0.70477694272995 0
vn -0.7094289660453796 -0.70477694272995 0
vn -0.03019770234823227 -0.9995439648628235 0
vn -0.03019770234823227 -0.9995439648628235 0
vn -0.0009871663060039282 -0.9999995231628418 0
vn -0.0009871663060039282 -0.9999995231628418 0
vn -0.003058089641854167 -0.9999953508377075 0
vn -0.003058089641854167 -0.9999953508377075 0
vn -0.6608406901359558 -0.7505261898040771 0
vn -0.6608406901359558 -0.7505261898040771 0
vn -0.990749716758728 0.1357019245624542 0
vn -0.990749716758728 0.1357019245624542 0
vn -0.9902815222740173 0.1390772461891174 0
vn -0.9902815222740173 0.1390772461891174 0
vn -0.989911675453186 0.1416858285665512 0
vn -0.989911675453186 0.1416858285665512 0
vn -0.9901800751686096 0.1397977024316788 0
vn -0.9901800751686096 0.1397977024316788 0
vn -0.9920714497566223 0.1256750822067261 0
vn -0.9920714497566223 0.1256750822067261 0
vn -0.9972576498985291 0.07400798797607422 0
vn -0.9972576498985291 0.07400798797607422 0
vn -0.1163975819945335 -0.9932026863098145 0
vn -0.1163975819945335 -0.9932026863098145 0
vn -0.01316830515861511 -0.9999132752418518 0
vn -0.01316830515861511 -0.9999132752418518 0
vn 0 -1 0
vn 0 -1 0
vn 0.01595541462302208 -0.9998726844787598 0
vn 0.01595541462302208 -0.9998726844787598 0
vn 0.1325459331274033 -0.9911768436431885 0
vn 0.1325459331274033 -0.9911768436431885 0
vn 0.9900920391082764 -0.1404199004173279 0
vn 0.9900920391082764 -0.1404199004173279 0
vn 0.9902037978172302 -0.1396296471357346 0
vn 0.9902037978172302 -0.1396296471357346 0
vn 0.9890593290328979 -0.147518128156662 0
vn 0.9890593290328979 -0.147518128156662 0
vn 0.9850618839263916 -0.1722006648778915 0
vn 0.9850618839263916 -0.1722006648778915 0
f 109//37 131//39 132//40 110//38
f 131//41 129//43 130//44 132//42
f 129//43 127//45 128//46 130//44
f 127//45 125//47 126//48 128//46
f 125//47 121//49 122//50 126//48
f 121//49 123//51 124//52 122//50
f 123//53 137//55 138//56 124//54
f 137//57 139//59 140//60 138//58
f 139//59 143//61 144//62 140//60
f 143//61 147//63 148//64 144//62
f 147//63 149//65 150//66 148//64
f 149//67 151//69 152//70 150//68
f 151//69 159//71 160//72 152//70
f 159//71 181//73 182//74 160//72
f 181//73 187//75 188//76 182//74
f 187//77 189//79 190//80 188//78
f 189//79 185//81 186//82 190//80
f 185//83 183//85 184//86 186//84
f 183//85 175//87 176//88 184//86
f 175//87 157//89 158//90 176//88
f 157//89 153//91 154//92 158//90
f 153//93 155//95 156//96 154//94
f 155//95 161//97 162//98 156//96
f 161//97 163//99 164//100 162//98
f 163//101 165//103 166//104 164//102
f 165//103 173//105 174//106 166//104
f 173//105 193//107 194//108 174//106
f 193//107 197//109 198//110 194//108
f 197//111 203//113 204//114 198//112
f 203//113 201//115 202//116 204//114
f 201//115 199//117 200//118 202//116
f 199//117 195//119 196//120 200//118
f 195//121 191//123 192//124 196//122
f 191//123 171//125 172//126 192//124
f 171//125 167//127 168//128 172//126
f 167//129 169//131 170//132 168//130
f 169//131 177//133 178//134 170//132
f 177//133 179//135 180//136 178//134
f 179//137 145//139 146//140 180//138
f 145//141 141//143 142//144 146//142
f 141//143 135//145 136//146 142//144
f 135//145 133//147 134//148 136//146
f 133//149 113//151 114//152 134//150
f 113//151 111//153 112//154 114//152
f 111//155 115//157 116//158 112//156
f 115//157 119//159 120//160 116//158
f 119//161 117//163 118//164 120//162
f 117//163 103//165 104//166 118//164
f 103//167 101//169 102//170 104//168
f 101//169 97//171 98//172 102//170
f 97//171 95//173 96//174 98//172
f 95//173 93//175 94//176 96//174
f 93//177 89//179 90//180 94//178
f 89//179 55//181 56//182 90//180
f 55//181 51//183 52//184 56//182
f 51//185 47//187 48//188 52//186
f 47//187 49//189 50//190 48//188
f 49//189 45//191 46//192 50//190
f 45//191 53//193 54//194 46//192
f 53//195 57//197 58//198 54//196
f 57//197 71//199 72//200 58//198
f 71//199 81//201 82//202 72//200
f 81//201 85//203 86//204 82//202
f 85//205 87//207 88//208 86//206
f 87//207 79//209 80//210 88//208
f 79//211 77//213 78//214 80//212
f 77//213 41//215 42//216 78//214
f 41//215 37//217 38//218 42//216
f 37//219 33//221 34//222 38//220
f 33//221 31//223 32//224 34//222
f 31//223 35//225 36//226 32//224
f 35//225 29//227 30//228 36//226
f 29//227 39//229 40//230 30//228
f 39//231 43//233 44//234 40//232
f 43//233 67//235 68//236 44//234
f 67//235 73//237 74//238 68//236
f 73//239 69//241 70//242 74//240
f 69//241 65//243 66//244 70//242
f 65//243 63//245 64//246 66//244
f 63//245 61//247 62//248 64//246
f 61//247 59//249 60//250 62//248
f 59//251 75//253 76//254 60//252
f 75//253 83//255 84//256 76//254
f 83//255 91//257 92//258 84//256
f 91//257 99//259 100//260 92//258
f 99//261 105//263 106//264 100//262
f 105//263 107//265 108//266 106//264
f 107//265 109//267 110//268 108//266
